<svg width="67" height="56" viewBox="0 0 67 56" fill="none" xmlns="http://www.w3.org/2000/svg">
<path fill-rule="evenodd" clip-rule="evenodd" d="M16.285 10.8412V10.8412C16.9716 10.8412 17.6221 10.5339 18.0581 10.0036V10.0036L22.0509 5.14748C23.141 3.82166 24.7674 3.05338 26.4838 3.05338H40.3545C42.071 3.05338 43.6973 3.82166 44.7874 5.14748L48.7802 10.0036V10.0036C49.2163 10.5339 49.8668 10.8412 50.5534 10.8412V10.8412H59.2445C61.7801 10.8412 63.8356 12.8967 63.8356 15.4324V48.3901C63.8356 50.9257 61.7801 52.9813 59.2445 52.9813H7.59422C5.05861 52.9813 3.00309 50.9257 3.00309 48.3901V15.4324C3.00309 12.8967 5.05861 10.8412 7.59422 10.8412H16.285ZM45.8719 2.85191C44.7817 1.52609 43.1554 0.757812 41.439 0.757812H25.3994C23.683 0.757812 22.0566 1.52609 20.9665 2.85191L18.0068 6.45155C16.9167 7.77737 15.2904 8.54565 13.5739 8.54565H7.59422C3.7908 8.54565 0.70752 11.6289 0.70752 15.4324V48.3901C0.70752 52.1936 3.7908 55.2768 7.59422 55.2768H59.2445C63.0479 55.2768 66.1312 52.1936 66.1312 48.3901V15.4324C66.1312 11.6289 63.0479 8.54565 59.2445 8.54565H53.2644C51.548 8.54565 49.9217 7.77737 48.8316 6.45155L45.8719 2.85191ZM46.7012 30.7623C46.7012 38.0975 40.7549 44.0438 33.4197 44.0438C26.0845 44.0438 20.1382 38.0975 20.1382 30.7623C20.1382 23.4272 26.0845 17.4808 33.4197 17.4808C40.7549 17.4808 46.7012 23.4272 46.7012 30.7623ZM48.9967 30.7623C48.9967 39.3653 42.0227 46.3394 33.4197 46.3394C24.8167 46.3394 17.8426 39.3653 17.8426 30.7623C17.8426 22.1594 24.8167 15.1853 33.4197 15.1853C42.0227 15.1853 48.9967 22.1594 48.9967 30.7623ZM58.0969 19.6958C58.0969 21.2805 56.8122 22.5652 55.2274 22.5652C53.6427 22.5652 52.358 21.2805 52.358 19.6958C52.358 18.111 53.6427 16.8263 55.2274 16.8263C56.8122 16.8263 58.0969 18.111 58.0969 19.6958ZM33.4195 39.782C38.4908 39.782 42.6018 35.6709 42.6018 30.5997C42.6018 25.5285 38.4908 21.4174 33.4195 21.4174C28.3483 21.4174 24.2373 25.5285 24.2373 30.5997C24.2373 35.6709 28.3483 39.782 33.4195 39.782Z" fill="#0078CA"/>
</svg>
