<svg width="68" height="68" viewBox="0 0 68 68" fill="none" xmlns="http://www.w3.org/2000/svg">
<path d="M54.6874 29.9307L26.9265 56.2946L1.07336 45.5379L40.538 22.5736L54.6874 29.9307Z" fill="#d3d3d3"/>
<path d="M53.3126 68L40.5381 22.5736L54.6875 29.9307L62.7473 50.4419L53.3126 68Z" fill="#fff"/>
<path d="M40.5381 22.5736L45.0761 38.7923L54.6875 29.9307L40.5381 22.5736Z" fill="#d3d3d3"/>
<path d="M38.269 9.19641L62.0299 22.2388L68.0001 34.2791L41.731 21.0134L38.269 9.19641Z" fill="#d3d3d3"/>
<path d="M56.7174 11.1473L41.731 21.0134L38.269 9.19641L47.3425 5.74109L56.7174 11.1473Z" fill="#fff"/>
<path d="M41.731 21.0134L38.269 9.19641L49.8506 15.663L41.731 21.0134Z" fill="#d3d3d3"/>
<path d="M24.9565 28.9286L23.0461 1.337L34.1495 0L39.3424 21.2367L24.9565 28.9286Z" fill="#d3d3d3"/>
<path d="M2.92658 3.45532L39.3424 21.2367L24.9565 28.9286L0 17.8905L2.92658 3.45532Z" fill="#fff"/>
<path d="M24.9565 28.9287L39.3425 21.2367L24.0598 13.7679L24.9565 28.9287Z" fill="#d3d3d3"/>
</svg>
