<svg width="159" height="48" viewBox="0 0 159 48" fill="none" xmlns="http://www.w3.org/2000/svg">
<path d="M0.428589 31.5813L7.36311 6.33008H117.144L135.867 31.5813H0.428589Z" fill="url(#paint0_linear_4742_10983)"/>
<path d="M144.141 12.5962L144.871 41.687C144.871 41.687 122.989 33.7327 115.049 35.8223C115.049 35.8223 136.216 39.4997 149.064 47.4734L147.095 15.0118L144.141 12.5962Z" fill="#0078CA"/>
<path d="M136.088 31.9815C135.782 31.3448 135.691 30.5983 135.923 29.8798C136.394 28.4196 137.957 27.6197 139.416 28.092C139.81 28.2194 140.15 28.4321 140.445 28.7068L140.207 11.5525L140.091 11.438C139.39 12.2609 138.223 12.6257 137.135 12.2734C135.676 11.8012 134.877 10.2368 135.349 8.7765C135.514 8.26657 135.802 7.84797 136.192 7.51321L136.099 7.4062L123.973 7.01423C123.973 7.01423 130.479 3.82041 142.442 5.90097L142.655 35.7205C142.655 35.7205 126.984 31.1849 120.286 33.5484C120.286 33.5484 126.871 29.7915 136.088 31.9815Z" fill="#0078CA"/>
<path d="M9.51195 19.4316C8.71922 23.9353 11.2688 27.0879 15.7039 27.0879C19.2819 27.0879 22.3457 25.0934 23.7812 21.8335H19.7533C18.9177 23.0774 17.6536 23.7423 16.2609 23.7423C14.0113 23.7423 12.7686 22.048 13.24 19.4316C13.6899 16.8151 15.511 15.1423 17.7607 15.1423C19.1748 15.1423 20.2032 15.7857 20.5888 17.0296H24.6168C24.3383 13.7698 21.9815 11.7538 18.4035 11.7538C13.9684 11.7538 10.3047 14.9279 9.51195 19.4316Z" fill="white"/>
<path d="M28.1245 26.9806H32.5596L36.7804 17.0939L37.4446 26.9806H41.8796L48.4572 11.9254H44.5149L40.4227 22.8201L39.7799 11.9254H35.7305L31.1241 22.8844L30.8884 11.9254H26.9676L28.1245 26.9806Z" fill="white"/>
<path d="M48.3663 19.4316C47.5735 23.9353 50.1232 27.0879 54.5582 27.0879C58.1362 27.0879 61.2001 25.0934 62.6356 21.8335H58.6076C57.772 23.0774 56.5079 23.7423 55.1153 23.7423C52.8656 23.7423 51.6229 22.048 52.0943 19.4316C52.5442 16.8151 54.3654 15.1423 56.615 15.1423C58.0291 15.1423 59.0575 15.7857 59.4432 17.0296H63.4711C63.1926 13.7698 60.8358 11.7538 57.2578 11.7538C52.8228 11.7538 49.159 14.9279 48.3663 19.4316Z" fill="white"/>
<path d="M69.6452 19.4316C68.8524 23.9353 71.402 27.0879 75.8371 27.0879C79.4151 27.0879 82.4789 25.0934 83.9144 21.8335H79.8865C79.0509 23.0774 77.7868 23.7423 76.3941 23.7423C74.1445 23.7423 72.9018 22.048 73.3732 19.4316C73.8231 16.8151 75.6442 15.1423 77.8939 15.1423C79.308 15.1423 80.3364 15.7857 80.722 17.0296H84.75C84.4715 13.7698 82.1147 11.7538 78.5367 11.7538C74.1016 11.7538 70.4379 14.9279 69.6452 19.4316Z" fill="white"/>
<path d="M95.4995 26.9806H99.3775L96.5922 11.9254H92.35L84.2512 26.9806H88.0863L89.4576 24.3213H95.071L95.4995 26.9806ZM94.6425 21.5333H90.893L93.764 15.9573L94.6425 21.5333Z" fill="white"/>
<path d="M112.861 22.5198C112.861 18.0805 106.369 18.3164 106.369 16.0002C106.369 15.1423 107.076 14.6062 108.104 14.6062C109.197 14.6062 109.775 15.271 109.647 16.2146H113.546C113.825 13.4266 111.596 11.7109 108.297 11.7109C104.89 11.7109 102.405 13.491 102.448 16.5363C102.491 20.9971 108.918 20.4181 108.918 22.8415C108.918 23.7637 108.19 24.2355 107.119 24.2355C105.876 24.2355 105.276 23.5278 105.362 22.4769H101.548C101.184 25.5437 103.648 27.1308 107.011 27.1308C110.632 27.1308 112.861 25.1791 112.861 22.5198Z" fill="white"/>
<path d="M123.725 26.9806H127.388L130.045 11.9254H126.381L125.332 17.8445H119.632L120.682 11.9254H117.019L114.362 26.9806H118.026L119.118 20.7398H124.817L123.725 26.9806Z" fill="white"/>
<defs>
<linearGradient id="paint0_linear_4742_10983" x1="-308.636" y1="31.5813" x2="121.305" y2="31.5813" gradientUnits="userSpaceOnUse">
<stop stop-color="#D9D9D9"/>
<stop offset="1" stop-color="#D9D9D9" stop-opacity="0"/>
</linearGradient>
</defs>
</svg>
