<svg width="63" height="63" viewBox="0 0 63 63" fill="none" xmlns="http://www.w3.org/2000/svg">
<path d="M44.2078 25.4865L28.3661 41.7701L13.613 35.1263L36.1335 20.9424L44.2078 25.4865Z" fill="#F20019"/>
<path d="M43.4208 49L36.131 20.9424L44.2053 25.4865L48.8047 38.1552L43.4208 49Z" fill="#334C9E"/>
<path d="M36.131 20.9424L38.7206 30.9599L44.2054 25.4865L36.131 20.9424Z" fill="#372A80"/>
<path d="M34.8395 12.6807L48.3986 20.7363L51.8054 28.173L36.8151 19.9794L34.8395 12.6807Z" fill="#F20019"/>
<path d="M45.367 13.8841L36.8151 19.9779L34.8395 12.6791L40.0172 10.5449L45.367 13.8841Z" fill="#334C9E"/>
<path d="M36.8151 19.9794L34.8395 12.6807L41.4485 16.6748L36.8151 19.9794Z" fill="#372A80"/>
<path d="M27.241 24.8678L26.1509 7.8258L32.487 7L35.4503 20.1168L27.241 24.8678Z" fill="#F20019"/>
<path d="M14.67 9.13379L35.4507 20.1164L27.2414 24.8674L13 18.0497L14.67 9.13379Z" fill="#334C9E"/>
<path d="M27.2406 24.8679L35.4499 20.117L26.7289 15.5039L27.2406 24.8679Z" fill="#372A80"/>
<g filter="url(#filter0_d_795_2759)">
<ellipse cx="31.5" cy="27.5679" rx="26.9475" ry="27.0173" transform="rotate(-1.18413 31.5 27.5679)" fill="#334C9E" fill-opacity="0.06"/>
<path d="M57.442 27.0317C57.7389 41.4001 46.3626 53.2836 32.0377 53.5797C17.7128 53.8758 5.8551 42.4725 5.55811 28.1042C5.26112 13.7358 16.6375 1.85228 30.9624 1.55619C45.2873 1.26009 57.145 12.6634 57.442 27.0317Z" stroke="#334C9E" stroke-opacity="0.63" stroke-width="2"/>
</g>
<defs>
<filter id="filter0_d_795_2759" x="0.552368" y="0.550781" width="61.8953" height="62.0342" filterUnits="userSpaceOnUse" color-interpolation-filters="sRGB">
<feFlood flood-opacity="0" result="BackgroundImageFix"/>
<feColorMatrix in="SourceAlpha" type="matrix" values="0 0 0 0 0 0 0 0 0 0 0 0 0 0 0 0 0 0 127 0" result="hardAlpha"/>
<feOffset dy="4"/>
<feGaussianBlur stdDeviation="2"/>
<feComposite in2="hardAlpha" operator="out"/>
<feColorMatrix type="matrix" values="0 0 0 0 0 0 0 0 0 0 0 0 0 0 0 0 0 0 0.25 0"/>
<feBlend mode="normal" in2="BackgroundImageFix" result="effect1_dropShadow_795_2759"/>
<feBlend mode="normal" in="SourceGraphic" in2="effect1_dropShadow_795_2759" result="shape"/>
</filter>
</defs>
</svg>
