<svg width="39" height="43" viewBox="0 0 39 43" fill="none" xmlns="http://www.w3.org/2000/svg">
<path d="M31.2078 18.4992L15.3661 34.7828L0.613037 28.139L23.1335 13.9551L31.2078 18.4992Z" fill="#F20019"/>
<path d="M30.4208 42.0127L23.131 13.9551L31.2053 18.4992L35.8047 31.1679L30.4208 42.0127Z" fill="#334C9E"/>
<path d="M23.131 13.9551L25.7206 23.9726L31.2054 18.4992L23.131 13.9551Z" fill="#372A80"/>
<path d="M21.8395 5.69336L35.3986 13.749L38.8054 21.1857L23.8151 12.9921L21.8395 5.69336Z" fill="#F20019"/>
<path d="M32.367 6.89677L23.8151 12.9906L21.8395 5.6918L27.0172 3.55762L32.367 6.89677Z" fill="#334C9E"/>
<path d="M23.8151 12.9921L21.8395 5.69336L28.4485 9.68746L23.8151 12.9921Z" fill="#372A80"/>
<path d="M14.241 17.8805L13.1509 0.838492L19.487 0.0126953L22.4503 13.1295L14.241 17.8805Z" fill="#F20019"/>
<path d="M1.67005 2.14648L22.4507 13.1291L14.2414 17.8801L0 11.0624L1.67005 2.14648Z" fill="#334C9E"/>
<path d="M14.2406 17.8806L22.4499 13.1297L13.7289 8.5166L14.2406 17.8806Z" fill="#372A80"/>
</svg>
