<svg width="39" height="42" viewBox="0 0 39 42" fill="none" xmlns="http://www.w3.org/2000/svg">
<path d="M31.2078 18.4865L15.3661 34.7701L0.613037 28.1263L23.1335 13.9424L31.2078 18.4865Z" fill="#F20019"/>
<path d="M30.4206 42L23.1309 13.9424L31.2052 18.4865L35.8045 31.1552L30.4206 42Z" fill="#334C9E"/>
<path d="M23.1309 13.9424L25.7205 23.9599L31.2052 18.4865L23.1309 13.9424Z" fill="#372A80"/>
<path d="M21.8396 5.68066L35.3987 13.7363L38.8056 21.173L23.8152 12.9794L21.8396 5.68066Z" fill="#F20019"/>
<path d="M32.3671 6.88408L23.8152 12.9779L21.8396 5.6791L27.0173 3.54492L32.3671 6.88408Z" fill="#334C9E"/>
<path d="M23.8152 12.9794L21.8396 5.68066L28.4486 9.67476L23.8152 12.9794Z" fill="#372A80"/>
<path d="M14.241 17.8678L13.1509 0.825796L19.487 0L22.4503 13.1168L14.241 17.8678Z" fill="#F20019"/>
<path d="M1.67005 2.13379L22.4507 13.1164L14.2414 17.8674L0 11.0497L1.67005 2.13379Z" fill="#334C9E"/>
<path d="M14.2405 17.8679L22.4498 13.117L13.7288 8.50391L14.2405 17.8679Z" fill="#372A80"/>
</svg>
