<svg width="63" height="63" viewBox="0 0 63 63" fill="none" xmlns="http://www.w3.org/2000/svg">
<path d="M43.2078 26.4865L27.3661 42.7701L12.613 36.1263L35.1335 21.9424L43.2078 26.4865Z" fill="#F20019"/>
<path d="M42.4208 50L35.131 21.9424L43.2053 26.4865L47.8047 39.1552L42.4208 50Z" fill="#334C9E"/>
<path d="M35.131 21.9424L37.7206 31.9599L43.2054 26.4865L35.131 21.9424Z" fill="#372A80"/>
<path d="M33.8395 13.6807L47.3986 21.7363L50.8054 29.173L35.8151 20.9794L33.8395 13.6807Z" fill="#F20019"/>
<path d="M44.367 14.8841L35.8151 20.9779L33.8395 13.6791L39.0172 11.5449L44.367 14.8841Z" fill="#334C9E"/>
<path d="M35.8151 20.9794L33.8395 13.6807L40.4485 17.6748L35.8151 20.9794Z" fill="#372A80"/>
<path d="M26.241 25.8678L25.1509 8.8258L31.487 8L34.4503 21.1168L26.241 25.8678Z" fill="#F20019"/>
<path d="M13.67 10.1338L34.4507 21.1164L26.2414 25.8674L12 19.0497L13.67 10.1338Z" fill="#334C9E"/>
<path d="M26.2406 25.8679L34.4499 21.117L25.7289 16.5039L26.2406 25.8679Z" fill="#372A80"/>
<g filter="url(#filter0_d_795_2759)">
<path d="M57.442 27.0317C57.7389 41.4001 46.3626 53.2836 32.0377 53.5797C17.7128 53.8758 5.8551 42.4725 5.55811 28.1042C5.26112 13.7358 16.6375 1.85228 30.9624 1.55619C45.2873 1.26009 57.145 12.6634 57.442 27.0317Z" stroke="url(#paint0_linear_795_2759)" stroke-width="2"/>
</g>
<defs>
<filter id="filter0_d_795_2759" x="0.552368" y="0.550781" width="61.8953" height="62.0342" filterUnits="userSpaceOnUse" color-interpolation-filters="sRGB">
<feFlood flood-opacity="0" result="BackgroundImageFix"/>
<feColorMatrix in="SourceAlpha" type="matrix" values="0 0 0 0 0 0 0 0 0 0 0 0 0 0 0 0 0 0 127 0" result="hardAlpha"/>
<feOffset dy="4"/>
<feGaussianBlur stdDeviation="2"/>
<feComposite in2="hardAlpha" operator="out"/>
<feColorMatrix type="matrix" values="0 0 0 0 0 0 0 0 0 0 0 0 0 0 0 0 0 0 0.25 0"/>
<feBlend mode="normal" in2="BackgroundImageFix" result="effect1_dropShadow_795_2759"/>
<feBlend mode="normal" in="SourceGraphic" in2="effect1_dropShadow_795_2759" result="shape"/>
</filter>
<linearGradient id="paint0_linear_795_2759" x1="30.9417" y1="0.5564" x2="32.0584" y2="54.5795" gradientUnits="userSpaceOnUse">
<stop stop-color="#F20019"/>
<stop offset="0.989583" stop-color="#3650A6" stop-opacity="0"/>
</linearGradient>
</defs>
</svg>
