<svg width="104" height="33" viewBox="0 0 104 33" fill="none" xmlns="http://www.w3.org/2000/svg">
<g clip-path="url(#clip0_287_633)">
<path d="M42.7957 11.9086C42.4775 13.9415 40.5971 15.4141 38.2406 15.4141C35.4332 15.4141 33.3672 13.3264 33.3672 10.4628C33.3672 7.59922 35.4332 5.5127 38.2406 5.5127C40.5706 5.5127 42.451 7.03769 42.7957 9.12422L40.7562 9.33858C40.5176 8.21435 39.488 7.38486 38.2936 7.38486C36.6795 7.38486 35.5393 8.66637 35.5393 10.4616C35.5393 12.2814 36.6784 13.5396 38.2936 13.5396C38.8565 13.5393 39.404 13.3537 39.8531 13.0108C40.3023 12.6679 40.6286 12.1865 40.7827 11.6395L42.7957 11.9086Z" fill="#334C9E"/>
<path d="M47.9086 8.37582V10.0884C47.573 9.94307 47.2139 9.86133 46.8491 9.84722C46.0017 9.84722 45.446 10.5695 45.446 11.5598V15.0921H43.5391V8.45155H45.3664V9.28103C45.763 8.61115 46.4041 8.18359 47.1408 8.18359C47.4067 8.19633 47.6676 8.26164 47.9086 8.37582Z" fill="#334C9E"/>
<path d="M53.4953 12.9798L55.1901 13.3537C54.8442 14.5048 53.4953 15.3343 51.9331 15.3343C49.814 15.3343 48.3049 13.8628 48.3049 11.7227C48.3049 9.63504 49.814 8.19043 51.9331 8.19043C54.0521 8.19043 55.4818 9.63504 55.4818 11.7495C55.4868 11.9371 55.4779 12.1248 55.4552 12.3111H50.3167C50.4758 13.2431 51.1111 13.864 51.985 13.864C52.6744 13.864 53.2831 13.4877 53.4953 12.9798ZM53.5218 11.1332C53.4814 10.7316 53.2929 10.3599 52.9939 10.0921C52.6949 9.82427 52.3072 9.67984 51.9077 9.68746C51.0603 9.68746 50.4504 10.2502 50.2936 11.1332H53.5218Z" fill="#334C9E"/>
<path d="M61.5738 5.45898H63.4808V15.0924H61.6004V14.2897C61.3363 14.6212 61.0012 14.8878 60.6203 15.0694C60.2395 15.251 59.8228 15.3429 59.4017 15.3382C57.5744 15.3382 56.2773 13.8668 56.2773 11.7792C56.2773 9.66466 57.5744 8.19326 59.4017 8.19326C59.822 8.18381 60.2385 8.27606 60.6163 8.46231C60.9942 8.64855 61.3225 8.92339 61.5738 9.2639V5.45898ZM59.9321 13.5942C60.9109 13.5942 61.6269 12.8183 61.6269 11.7745C61.6269 10.7038 60.9109 9.92795 59.9321 9.92795C58.9256 9.92795 58.2096 10.7038 58.2096 11.7745C58.2096 12.8148 58.9256 13.5942 59.9321 13.5942Z" fill="#334C9E"/>
<path d="M65.2267 5.37891C65.8884 5.37891 66.3646 5.83442 66.3646 6.44955C66.3646 7.11826 65.8884 7.57378 65.2267 7.57378C65.079 7.57968 64.9317 7.55464 64.7941 7.50023C64.6565 7.44583 64.5315 7.36322 64.427 7.25763C64.3225 7.15203 64.2407 7.02573 64.1869 6.88666C64.1331 6.74759 64.1083 6.59877 64.1141 6.44955C64.1141 5.83442 64.5903 5.37891 65.2267 5.37891ZM66.2055 15.0927H64.2732V8.4522H66.2055V15.0927Z" fill="#334C9E"/>
<path d="M67.9809 9.92787H67.0586V8.45646H68.0962L68.3083 6.76953H69.9224V8.45646H71.4062V9.92787H69.9144V12.7379C69.9144 13.2994 70.2602 13.6699 70.7883 13.6699C70.9739 13.6699 71.2391 13.6163 71.48 13.5895L71.4512 15.1448C71.0306 15.2745 70.5927 15.3378 70.153 15.3323C68.8283 15.3323 67.9809 14.3421 67.9809 12.9243V9.92787Z" fill="#334C9E"/>
<path d="M83.8994 5.85938H86.0703L83.6077 15.0921H80.4821L78.9464 8.56219L77.3842 15.0921H74.2587L71.7695 5.85938H73.9681L75.9016 13.2991L77.7543 5.85938H80.1385L81.9659 13.2991L83.8994 5.85938Z" fill="#334C9E"/>
<path d="M87.843 5.37891C88.5047 5.37891 88.9555 5.83442 88.9555 6.44955C88.9555 7.11826 88.5047 7.57378 87.843 7.57378C87.1812 7.57378 86.7304 7.11826 86.7304 6.44955C86.7304 5.83442 87.1812 5.37891 87.843 5.37891ZM88.7964 15.0927H86.863V8.4522H88.7964V15.0927Z" fill="#334C9E"/>
<path d="M89.5898 12.8722H91.2316C91.2316 13.5409 91.8415 13.9953 92.6889 13.9953C93.3806 13.9953 93.9064 13.6458 93.9064 13.1926C93.8799 11.882 89.6694 13.1926 89.6694 10.3826C89.6694 9.10111 90.888 8.16211 92.4767 8.16211C94.2511 8.16211 95.5216 9.12557 95.5216 10.463H93.8268C93.8268 9.90147 93.2446 9.53099 92.4767 9.53099C91.9003 9.53099 91.4172 9.85254 91.4172 10.2813C91.3907 11.5336 95.7337 10.4851 95.7603 13.0062C95.7603 14.3704 94.492 15.3607 92.6624 15.3607C90.8615 15.3607 89.5898 14.3168 89.5898 12.8722Z" fill="#334C9E"/>
<path d="M101.748 12.9788L103.418 13.3528C103.073 14.5038 101.722 15.3333 100.16 15.3333C98.0424 15.3333 96.5586 13.8619 96.5586 11.7218C96.5586 9.63406 98.0424 8.18945 100.16 8.18945C102.278 8.18945 103.709 9.63406 103.709 11.7485C103.714 11.9361 103.705 12.1238 103.682 12.3101H98.5439C98.703 13.2421 99.3383 13.863 100.212 13.863C100.9 13.863 101.51 13.4867 101.748 12.9788ZM101.748 11.1323C101.708 10.7305 101.519 10.3587 101.22 10.0908C100.921 9.82293 100.533 9.67859 100.134 9.68649C99.2864 9.68649 98.7042 10.2492 98.5197 11.1323H101.748Z" fill="#334C9E"/>
<path d="M42.5035 25.315C42.0539 27.1615 40.2795 28.499 38.2377 28.499C35.5099 28.499 33.5234 26.4392 33.5234 23.6059C33.5234 20.7726 35.5099 18.7129 38.2377 18.7129C40.2772 18.7129 42.0781 20.1319 42.5035 22.0576L41.4659 22.1648C41.12 20.747 39.7711 19.6764 38.2377 19.6764C36.1187 19.6764 34.6095 21.3074 34.6095 23.6106C34.6095 25.9138 36.1187 27.5436 38.2377 27.5436C39.7734 27.5436 41.12 26.5266 41.4659 25.1356L42.5035 25.315Z" fill="#F20019"/>
<path d="M49.2602 21.6225H50.239V28.1792H49.2602V27.0282C48.9806 27.4663 48.596 27.826 48.1421 28.0738C47.6882 28.3217 47.1798 28.4497 46.6638 28.446C44.7039 28.446 43.3008 26.9478 43.3008 24.9137C43.3008 22.854 44.705 21.3546 46.6638 21.3546C47.183 21.3504 47.6944 21.4812 48.1491 21.7344C48.6038 21.9876 48.9864 22.3547 49.2602 22.8004V21.6225ZM49.2602 24.9137C49.2602 23.3887 48.2007 22.2645 46.7699 22.2645C45.3391 22.2645 44.2808 23.3887 44.2808 24.9137C44.2808 26.413 45.3403 27.5361 46.7699 27.5361C48.1995 27.5361 49.2602 26.413 49.2602 24.9137Z" fill="#F20019"/>
<path d="M52.0101 31.1481H51.0312V21.6219H51.9836V22.7461C52.2647 22.3113 52.6502 21.9555 53.1043 21.712C53.5583 21.4686 54.066 21.3454 54.5799 21.3539C56.4857 21.3539 57.9165 22.8533 57.9165 24.913C57.9165 26.9471 56.5122 28.4453 54.5799 28.4453C53.4674 28.4453 52.5669 27.9374 52.0101 27.0811V31.1481ZM54.4473 22.3174C53.0166 22.3174 51.9836 23.4148 51.9836 24.913C51.9836 26.3856 53.0212 27.4819 54.4473 27.4819C55.9035 27.4819 56.9365 26.3856 56.9365 24.913C56.9365 23.388 55.877 22.3174 54.4473 22.3174Z" fill="#F20019"/>
<path d="M59.2137 19.0803C59.3015 19.077 59.3891 19.0921 59.4709 19.1245C59.5527 19.157 59.627 19.2061 59.6892 19.2688C59.7514 19.3316 59.8001 19.4066 59.8324 19.4892C59.8646 19.5718 59.8797 19.6602 59.8766 19.749C59.8774 19.8371 59.8608 19.9245 59.8277 20.0061C59.7947 20.0876 59.7458 20.1617 59.6841 20.224C59.6224 20.2863 59.549 20.3355 59.4682 20.3687C59.3874 20.402 59.3009 20.4186 59.2137 20.4177C59.126 20.4208 59.0386 20.4056 58.9569 20.3731C58.8752 20.3406 58.801 20.2914 58.739 20.2287C58.6769 20.166 58.6283 20.091 58.5961 20.0085C58.5639 19.926 58.5489 19.8376 58.5519 19.749C58.5466 19.6598 58.56 19.5704 58.5913 19.4868C58.6227 19.4032 58.6712 19.3273 58.7338 19.264C58.7964 19.2008 58.8715 19.1518 58.9542 19.1201C59.037 19.0884 59.1254 19.0748 59.2137 19.0803ZM58.711 21.6223H59.691V28.179H58.711V21.6223Z" fill="#F20019"/>
<path d="M61.5743 22.4521H60.4883V21.6227H61.6008L61.7323 20.0977H62.5278V21.6227H64.2191V22.4521H62.5243V26.5192C62.5243 27.1623 62.9209 27.5898 63.5297 27.5898C63.7997 27.5824 64.0674 27.5373 64.3252 27.4558V28.2853C63.9868 28.3803 63.6385 28.4343 63.2876 28.4461C62.228 28.4461 61.5663 27.6702 61.5663 26.546L61.5743 22.4521Z" fill="#F20019"/>
<path d="M71.0247 21.6226H71.9781V28.1792H71.0247V27.0282C70.7394 27.4668 70.3501 27.8262 69.8922 28.0739C69.4342 28.3215 68.9223 28.4494 68.4029 28.446C66.4695 28.446 65.0664 26.9478 65.0664 24.9137C65.0664 22.854 66.4695 21.3546 68.4029 21.3546C68.9256 21.3501 69.4408 21.4805 69.8996 21.7335C70.3584 21.9865 70.7457 22.3537 71.0247 22.8004V21.6226ZM70.9981 24.9137C70.9981 23.3887 69.9386 22.2645 68.509 22.2645C67.0794 22.2645 66.0464 23.3887 66.0464 24.9137C66.0464 26.4131 67.084 27.5361 68.509 27.5361C69.934 27.5361 70.9981 26.4131 70.9981 24.9137Z" fill="#F20019"/>
<path d="M73.7799 18.625H72.7734V28.1781H73.7799V18.625Z" fill="#F20019"/>
<path d="M24.2589 14.3702L11.9446 27.028L0.476562 21.8635L17.9824 10.8379L24.2589 14.3702Z" fill="#F20019"/>
<path d="M23.647 32.648L17.9805 10.8379L24.2569 14.3702L27.8321 24.218L23.647 32.648Z" fill="#334C9E"/>
<path d="M17.9805 10.8379L19.9935 18.6248L24.2569 14.3702L17.9805 10.8379Z" fill="#372A80"/>
<path d="M16.9766 4.41602L27.5165 10.6779L30.1648 16.4587L18.5122 10.0896L16.9766 4.41602Z" fill="#F20019"/>
<path d="M25.16 5.35149L18.5122 10.0884L16.9766 4.41483L21.0014 2.75586L25.16 5.35149Z" fill="#334C9E"/>
<path d="M18.5122 10.0896L16.9766 4.41602L22.114 7.52076L18.5122 10.0896Z" fill="#372A80"/>
<path d="M11.07 13.8892L10.2227 0.641919L15.1479 0L17.4514 10.1961L11.07 13.8892Z" fill="#F20019"/>
<path d="M1.29818 1.65918L17.4517 10.1963L11.0703 13.8894L0 8.58981L1.29818 1.65918Z" fill="#334C9E"/>
<path d="M11.0696 13.8893L17.451 10.1962L10.6719 6.61035L11.0696 13.8893Z" fill="#372A80"/>
</g>
<defs>
<clipPath id="clip0_287_633">
<rect width="103.706" height="32.6482" fill="white"/>
</clipPath>
</defs>
</svg>
