<svg width="109" height="118" viewBox="0 0 109 118" fill="none" xmlns="http://www.w3.org/2000/svg">
<path d="M74.3392 115.587C74.3392 115.546 74.3801 115.546 74.3392 115.587C74.3801 115.546 74.3801 115.546 74.3801 115.505C74.3801 115.505 74.3801 115.505 74.421 115.464C74.421 115.464 74.421 115.464 74.4619 115.423C74.4619 115.423 74.4619 115.423 74.5028 115.382C74.5028 115.382 74.5028 115.382 74.5438 115.341C74.5438 115.341 74.5438 115.341 74.5847 115.3C74.5847 115.3 74.5847 115.259 74.6256 115.259C74.6256 115.259 74.6256 115.259 74.6665 115.218C74.6665 115.218 74.6665 115.218 74.7074 115.178C74.7074 115.178 74.7074 115.177 74.7484 115.137C74.7484 115.137 74.7484 115.137 74.7893 115.096C74.7893 115.096 74.7893 115.096 74.8302 115.055C74.8302 115.055 74.8302 115.055 74.8711 115.014C74.8711 115.014 74.8711 115.014 74.912 114.973C74.912 114.973 74.912 114.973 74.9529 114.932C74.9529 114.932 74.953 114.932 74.9939 114.891C74.9939 114.891 74.9939 114.891 75.0348 114.85C75.0348 114.85 75.0348 114.85 75.0757 114.809C75.0757 114.809 75.0757 114.809 75.1166 114.768C75.1166 114.768 75.1166 114.727 75.1576 114.727C75.1576 114.727 75.1576 114.727 75.1985 114.686C75.1985 114.686 75.1985 114.686 75.2394 114.646C75.2394 114.646 75.2394 114.646 75.2803 114.605C75.2803 114.605 75.2803 114.605 75.3212 114.564C75.3212 114.564 75.3212 114.564 75.3622 114.523C75.3622 114.523 75.3622 114.523 75.4031 114.482C75.4031 114.482 75.4031 114.441 75.444 114.441C75.444 114.441 75.444 114.441 75.4849 114.4C75.4849 114.4 75.4849 114.4 75.5258 114.359C75.5258 114.359 75.5258 114.359 75.5667 114.318C75.5667 114.318 75.5668 114.318 75.6077 114.277C75.6077 114.277 75.6077 114.277 75.6486 114.236C75.6486 114.236 75.6486 114.236 75.6895 114.195C75.6895 114.195 75.6895 114.155 75.7304 114.155C75.7304 114.155 75.7304 114.155 75.7713 114.114C75.7713 114.114 75.7714 114.114 75.8123 114.073C75.8123 114.073 75.8123 114.073 75.8532 114.032C75.8532 114.032 75.8532 114.032 75.8941 113.991C75.8941 113.991 75.8941 113.991 75.935 113.95C75.935 113.95 75.935 113.909 75.9759 113.909C75.9759 113.909 75.976 113.909 76.0169 113.868C76.0169 113.868 76.0169 113.868 76.0578 113.827C76.0578 113.827 76.0578 113.827 76.0987 113.786C76.0987 113.786 76.0987 113.786 76.1396 113.745C76.1396 113.745 76.1396 113.745 76.1805 113.704C76.1805 113.704 76.1805 113.704 76.2215 113.663C76.2215 113.663 76.2215 113.623 76.2624 113.623C76.2624 113.623 76.2624 113.623 76.3033 113.582C76.3033 113.582 76.3033 113.582 76.3442 113.541C76.3442 113.541 76.3442 113.541 76.3851 113.5C76.3851 113.5 76.3851 113.5 76.4261 113.459C76.4261 113.459 76.4261 113.459 76.467 113.418C76.467 113.418 76.467 113.418 76.5079 113.377C76.5079 113.377 76.5079 113.336 76.5488 113.336C76.5488 113.336 76.5488 113.336 76.5897 113.295C76.5897 113.295 76.5897 113.295 76.6307 113.254C76.6307 113.254 76.6307 113.254 76.6716 113.213C76.6716 113.213 76.6716 113.213 76.7125 113.172C76.7125 113.172 76.7125 113.172 76.7534 113.132C76.7534 113.132 76.7534 113.091 76.7943 113.091C76.7943 113.091 76.7943 113.091 76.8353 113.05C76.8353 113.05 76.8353 113.05 76.8762 113.009C76.8762 113.009 76.8762 113.009 76.9171 112.968C76.9171 112.968 76.9171 112.968 76.958 112.927C76.958 112.927 76.958 112.927 76.9989 112.886C76.9989 112.886 76.9989 112.886 77.0399 112.845C77.0399 112.845 77.0399 112.804 77.0808 112.804C77.0808 112.804 77.0808 112.804 77.1217 112.763C77.1217 112.763 77.1217 112.763 77.1626 112.722C77.1626 112.722 77.1626 112.722 77.2035 112.681C77.2035 112.681 77.2035 112.681 77.2445 112.64C77.2445 112.64 77.2445 112.64 77.2854 112.6C77.2854 112.6 77.2854 112.6 77.3263 112.559C77.3263 112.559 77.3263 112.518 77.3672 112.518C77.3672 112.518 77.3672 112.518 77.4081 112.477C77.4081 112.477 77.4081 112.477 77.4491 112.436C77.4491 112.436 77.4491 112.436 77.49 112.395C77.49 112.395 77.49 112.395 77.5309 112.354C77.5309 112.354 77.5309 112.354 77.5718 112.313C77.5718 112.313 77.5718 112.272 77.6127 112.272C77.6127 112.272 77.6127 112.272 77.6537 112.231C77.6537 112.231 77.6536 112.231 77.6946 112.19C77.6946 112.19 77.6946 112.19 77.7355 112.149C77.7355 112.149 77.7355 112.149 77.7764 112.109C77.7764 112.109 77.7764 112.109 77.8173 112.068C77.8173 112.068 77.8173 112.068 77.8583 112.027C77.8583 112.027 77.8582 111.986 77.8992 111.986C77.8992 111.986 77.8992 111.986 77.9401 111.945C77.9401 111.945 77.9401 111.945 77.981 111.904C77.981 111.904 77.981 111.904 78.0219 111.863C78.0219 111.863 78.0219 111.863 78.0629 111.822C78.0629 111.822 78.0628 111.822 78.1038 111.781C78.1038 111.781 78.1038 111.781 78.1447 111.74C78.1447 111.74 78.1447 111.699 78.1856 111.699C78.1856 111.699 78.1856 111.699 78.2265 111.658C78.2265 111.658 78.2265 111.658 78.2674 111.617C78.2674 111.617 78.2674 111.618 78.3084 111.577C78.3084 111.577 78.3084 111.577 78.3493 111.536C78.3493 111.536 78.3493 111.536 78.3902 111.495C78.3902 111.495 78.3902 111.495 78.4311 111.454C78.4311 111.454 78.4311 111.454 78.472 111.413C78.472 111.413 78.472 111.413 78.513 111.372C78.513 111.372 78.513 111.372 78.5539 111.331C78.5539 111.331 78.5539 111.331 78.5948 111.29C78.5948 111.29 78.5948 111.29 78.6357 111.249C78.6357 111.249 78.6357 111.249 78.6767 111.208C78.6767 111.208 78.6766 111.167 78.7176 111.167C78.7176 111.167 78.7176 111.167 78.7585 111.126C78.7585 111.126 78.7585 111.126 78.7994 111.086C78.7994 111.086 78.7994 111.086 78.8403 111.045C78.8403 111.045 78.8403 111.045 78.8812 111.004C78.8812 111.004 78.8812 111.004 78.9222 110.963C78.9222 110.963 78.9222 110.963 78.9631 110.922C78.9631 110.922 78.9631 110.881 79.004 110.881C79.004 110.881 79.004 110.881 79.0449 110.84C79.0449 110.84 79.0449 110.84 79.0858 110.799C79.0858 110.799 79.0858 110.799 79.1268 110.758C79.1268 110.758 79.1268 110.758 79.1677 110.717C79.1677 110.717 79.1677 110.717 79.2086 110.676C79.2086 110.676 79.2086 110.676 79.2495 110.635C79.2495 110.635 79.2495 110.635 79.2904 110.595C79.2904 110.595 79.2904 110.595 79.3314 110.554C79.3314 110.554 79.3314 110.554 79.3723 110.513C79.3723 110.513 79.3723 110.513 79.4132 110.472C79.4132 110.472 79.4132 110.472 79.4541 110.431C79.4541 110.431 79.4541 110.431 79.495 110.39C79.495 110.39 79.495 110.349 79.5359 110.349C79.5359 110.349 79.536 110.349 79.5769 110.308C79.5769 110.308 79.5769 110.308 79.6178 110.267C79.6178 110.267 79.6178 110.267 79.6587 110.226C79.6587 110.226 79.6587 110.226 79.6996 110.185C79.6996 110.185 79.6996 110.185 79.7405 110.144C79.7405 110.144 79.7406 110.144 79.7815 110.103C79.7815 110.103 79.7815 110.063 79.8224 110.063C79.8224 110.063 79.8224 110.063 79.8633 110.022C79.8633 110.022 79.8633 110.022 79.9042 109.981C79.9042 109.981 79.9042 109.981 79.9451 109.94C79.9451 109.94 79.9452 109.94 79.9861 109.899C79.9861 109.899 79.9861 109.899 80.027 109.858C80.027 109.858 80.027 109.858 80.0679 109.817C80.0679 109.817 80.0679 109.817 80.1088 109.776C80.1088 109.776 80.1088 109.776 80.1497 109.735C80.1497 109.735 80.1497 109.735 80.1907 109.694C80.1907 109.694 80.1907 109.694 80.2316 109.653C80.2316 109.653 80.2316 109.653 80.2725 109.612C80.2725 109.612 80.2725 109.612 80.3134 109.572C80.3134 109.572 80.3134 109.531 80.3543 109.531C80.3543 109.531 80.3543 109.531 80.3953 109.49C80.3953 109.49 80.3953 109.49 80.4362 109.449C80.4362 109.449 80.4362 109.449 80.4771 109.408C80.4771 109.408 80.4771 109.408 80.518 109.367C80.518 109.367 80.518 109.367 80.5589 109.326C80.5589 109.326 80.559 109.326 80.5999 109.285C80.5999 109.285 80.5999 109.244 80.6408 109.244C80.6408 109.244 80.6408 109.244 80.6817 109.203C80.6817 109.203 80.6817 109.203 80.7226 109.162C80.7226 109.162 80.7226 109.162 80.7635 109.121C80.7635 109.121 80.7635 109.121 80.8045 109.08C80.8045 109.08 80.8045 109.08 80.8454 109.04C80.8454 109.04 80.8454 109.04 80.8863 108.999C80.8863 108.999 80.8863 108.999 80.9272 108.958C80.9272 108.958 80.9272 108.958 80.9681 108.917C80.9681 108.917 80.9681 108.917 81.0091 108.876C81.0091 108.876 81.0091 108.876 81.05 108.835C81.05 108.835 81.05 108.835 81.0909 108.794C81.0909 108.794 81.0909 108.794 81.1318 108.753C81.1318 108.753 81.1318 108.753 81.1727 108.712C81.1727 108.712 81.1727 108.712 81.2137 108.671C81.2137 108.671 81.2137 108.671 81.2546 108.63C81.2546 108.63 81.2546 108.63 81.2955 108.589C81.2955 108.589 81.2955 108.589 81.3364 108.549C81.3364 108.549 81.3364 108.549 81.3773 108.508C81.3773 108.508 81.3773 108.508 81.4183 108.467C81.4183 108.467 81.4183 108.426 81.4592 108.426C81.4592 108.426 81.4592 108.426 81.5001 108.385C81.5001 108.385 81.5001 108.385 81.541 108.344C81.541 108.344 81.541 108.344 81.5819 108.303C81.5819 108.303 81.5819 108.303 81.6229 108.262C81.6229 108.262 81.6229 108.262 81.6638 108.221C81.6638 108.221 81.6638 108.221 81.7047 108.18C81.7047 108.18 81.7047 108.18 81.7456 108.139C81.7456 108.139 81.7456 108.139 81.7865 108.098C81.7865 108.098 81.7865 108.098 81.8275 108.057C81.8275 108.057 81.8275 108.057 81.8684 108.017C81.8684 108.017 81.8684 108.017 81.9093 107.976C81.9093 107.976 81.9093 107.976 81.9502 107.935C81.9502 107.935 81.9502 107.935 81.9911 107.894C81.9911 107.894 81.9911 107.894 82.0321 107.853C82.0321 107.853 82.0321 107.853 82.073 107.812C82.073 107.812 82.073 107.812 82.1139 107.771C82.1139 107.771 82.1139 107.771 82.1548 107.73C82.1548 107.73 82.1548 107.73 82.1957 107.689C82.1957 107.689 82.1957 107.689 82.2367 107.648C82.2367 107.648 82.2367 107.607 82.2776 107.607C82.2776 107.607 82.2776 107.607 82.3185 107.566C82.3185 107.566 82.3185 107.566 82.3594 107.526C82.3594 107.526 82.3594 107.526 82.4003 107.485C83.5461 106.175 84.1599 104.334 83.8734 102.329L68.7332 7.35411C68.2012 3.34398 64.5593 0.111328 60.5492 0.111328H14.5555C12.5504 0.111328 10.8318 0.929721 9.68604 2.23915C9.68604 2.23915 9.68604 2.23915 9.64512 2.28007C9.64512 2.28007 9.64512 2.32099 9.6042 2.32099C9.6042 2.32099 9.6042 2.32099 9.56328 2.36191C9.56328 2.36191 9.56328 2.36191 9.52236 2.40283C9.52236 2.40283 9.52236 2.40283 9.48145 2.44375C9.48145 2.44375 9.48144 2.44375 9.44052 2.48467C9.44052 2.48467 9.44052 2.48467 9.3996 2.52559C9.3996 2.52559 9.3996 2.52559 9.35868 2.56651C9.35868 2.56651 9.35868 2.60743 9.31776 2.60743C9.31776 2.60743 9.31777 2.60743 9.27685 2.64835C9.27685 2.64835 9.27684 2.64835 9.23592 2.68927C9.23592 2.68927 9.23592 2.68927 9.195 2.73019C9.195 2.73019 9.19501 2.73019 9.15409 2.77111C9.15409 2.77111 9.15408 2.77111 9.11316 2.81203C9.11316 2.81203 9.11317 2.81203 9.07225 2.85295C9.07225 2.85295 9.07225 2.85295 9.03133 2.89387C9.03133 2.89387 9.03132 2.89386 8.9904 2.93478C8.9904 2.93478 8.99041 2.93479 8.94949 2.97571C8.94949 2.97571 8.94948 2.97571 8.90857 3.01663C8.90857 3.01663 8.90857 3.01663 8.86765 3.05754C8.86765 3.05754 8.86765 3.05754 8.82673 3.09846C8.82673 3.09846 8.82673 3.13938 8.78581 3.13938C8.78581 3.13938 8.78581 3.13939 8.74489 3.18031C8.74489 3.18031 8.74489 3.1803 8.70397 3.22122C8.70397 3.22122 8.70397 3.22122 8.66305 3.26214C8.66305 3.26214 8.66305 3.26214 8.62213 3.30306C8.62213 3.30306 8.62213 3.30306 8.58121 3.34398C8.58121 3.34398 8.58121 3.34398 8.54029 3.3849C8.54029 3.3849 8.54029 3.42582 8.49937 3.42582C8.49937 3.42582 8.49937 3.42582 8.45845 3.46674C8.45845 3.46674 8.45845 3.46674 8.41753 3.50766C8.41753 3.50766 8.41753 3.50766 8.37661 3.54858C8.37661 3.54858 8.37661 3.54858 8.33569 3.5895C8.33569 3.5895 8.33569 3.5895 8.29477 3.63042C8.29477 3.63042 8.29477 3.63042 8.25385 3.67134C8.25385 3.67134 8.25385 3.71226 8.21293 3.71226C8.21293 3.71226 8.21293 3.71226 8.17201 3.75318C8.17201 3.75318 8.17201 3.75318 8.13109 3.7941C8.13109 3.7941 8.13109 3.7941 8.09017 3.83502C8.09017 3.83502 8.09018 3.83502 8.04926 3.87594C8.04926 3.87594 8.04925 3.87594 8.00833 3.91686C8.00833 3.91686 8.00833 3.91686 7.96741 3.95778C7.96741 3.95778 7.96742 3.9987 7.9265 3.9987C7.9265 3.9987 7.92649 3.9987 7.88557 4.03962C7.88557 4.03962 7.88558 4.03962 7.84466 4.08054C7.84466 4.08054 7.84466 4.08054 7.80374 4.12146C7.80374 4.12146 7.80373 4.12146 7.76281 4.16238C7.76281 4.16238 7.76282 4.16238 7.7219 4.2033C7.7219 4.2033 7.72189 4.24422 7.68097 4.24422C7.68097 4.24422 7.68098 4.24422 7.64006 4.28514C7.64006 4.28514 7.64006 4.28513 7.59914 4.32605C7.59914 4.32605 7.59913 4.32605 7.55821 4.36697C7.55821 4.36697 7.55822 4.36698 7.5173 4.4079C7.5173 4.4079 7.5173 4.4079 7.47638 4.44881C7.47638 4.44881 7.47638 4.44881 7.43546 4.48973C7.43546 4.48973 7.43546 4.53065 7.39454 4.53065C7.39454 4.53065 7.39454 4.53065 7.35362 4.57157C7.35362 4.57157 7.35362 4.57157 7.3127 4.61249C7.3127 4.61249 7.3127 4.61249 7.27178 4.65341C7.27178 4.65341 7.27178 4.65341 7.23086 4.69433C7.23086 4.69433 7.23086 4.69433 7.18994 4.73525C7.18994 4.73525 7.18994 4.73525 7.14902 4.77617C7.14902 4.77617 7.14902 4.81709 7.1081 4.81709C7.1081 4.81709 7.1081 4.81709 7.06718 4.85801C7.06718 4.85801 7.06718 4.85801 7.02626 4.89893C7.02626 4.89893 7.02626 4.89893 6.98534 4.93985C6.98534 4.93985 6.98534 4.93985 6.94442 4.98077C6.94442 4.98077 6.94442 4.98077 6.9035 5.02169C6.9035 5.02169 6.9035 5.06261 6.86258 5.06261C6.86258 5.06261 6.86259 5.06261 6.82167 5.10353C6.82167 5.10353 6.82166 5.10353 6.78074 5.14445C6.78074 5.14445 6.78074 5.14445 6.73982 5.18537C6.73982 5.18537 6.73982 5.18537 6.6989 5.22629C6.6989 5.22629 6.6989 5.22629 6.65798 5.26721C6.65798 5.26721 6.65799 5.26721 6.61707 5.30813C6.61707 5.30813 6.61706 5.34905 6.57614 5.34905C6.57614 5.34905 6.57614 5.34905 6.53522 5.38997C6.53522 5.38997 6.53523 5.38997 6.49431 5.43089C6.49431 5.43089 6.4943 5.43089 6.45338 5.47181C6.45338 5.47181 6.45339 5.47181 6.41247 5.51273C6.41247 5.51273 6.41247 5.51273 6.37155 5.55365C6.37155 5.55365 6.37154 5.55364 6.33062 5.59456C6.33062 5.59456 6.33063 5.63549 6.28971 5.63549C6.28971 5.63549 6.2897 5.63549 6.24879 5.67641C6.24879 5.67641 6.24879 5.67641 6.20787 5.71733C6.20787 5.71733 6.20787 5.71732 6.16695 5.75824C6.16695 5.75824 6.16694 5.75824 6.12602 5.79916C6.12602 5.79916 6.12603 5.79917 6.08511 5.84009C6.08511 5.84009 6.08511 5.881 6.04419 5.881C6.04419 5.881 6.04419 5.881 6.00327 5.92192C6.00327 5.92192 6.00327 5.92192 5.96235 5.96284C5.96235 5.96284 5.96235 5.96284 5.92143 6.00376C5.92143 6.00376 5.92143 6.00376 5.88051 6.04468C5.88051 6.04468 5.88051 6.04468 5.83959 6.0856C5.83959 6.0856 5.83959 6.0856 5.79867 6.12652C5.79867 6.12652 5.79867 6.16744 5.75775 6.16744C5.75775 6.16744 5.75775 6.16744 5.71683 6.20836C5.71683 6.20836 5.71683 6.20836 5.67591 6.24928C5.67591 6.24928 5.67591 6.24928 5.63499 6.2902C5.63499 6.2902 5.63499 6.2902 5.59407 6.33112C5.59407 6.33112 5.59407 6.33112 5.55315 6.37204C5.55315 6.37204 5.55315 6.37204 5.51223 6.41296C5.51223 6.41296 5.51223 6.45388 5.47131 6.45388C5.47131 6.45388 5.47131 6.45388 5.43039 6.4948C5.43039 6.4948 5.4304 6.4948 5.38948 6.53572C5.38948 6.53572 5.38947 6.53572 5.34855 6.57664C5.34855 6.57664 5.34855 6.57664 5.30763 6.61756C5.30763 6.61756 5.30763 6.61756 5.26672 6.65848C5.26672 6.65848 5.26671 6.65848 5.22579 6.6994C5.22579 6.6994 5.2258 6.6994 5.18488 6.74032C5.18488 6.74032 5.18487 6.74032 5.14395 6.78124C5.14395 6.78124 5.14395 6.78124 5.10303 6.82216C5.10303 6.82216 5.10304 6.82216 5.06212 6.86308C5.06212 6.86308 5.06211 6.86308 5.02119 6.904C5.02119 6.904 5.0212 6.904 4.98028 6.94492C4.98028 6.94492 4.98028 6.98584 4.93936 6.98584C4.93936 6.98584 4.93935 6.98583 4.89843 7.02675C4.89843 7.02675 4.89844 7.02676 4.85752 7.06768C4.85752 7.06768 4.85752 7.06768 4.8166 7.1086C4.8166 7.1086 4.8166 7.10859 4.77568 7.14951C4.77568 7.14951 4.77568 7.14951 4.73476 7.19043C4.73476 7.19043 4.73476 7.19043 4.69384 7.23135C4.69384 7.23135 4.69384 7.27227 4.65292 7.27227C4.65292 7.27227 4.65292 7.27227 4.612 7.31319C4.612 7.31319 4.612 7.31319 4.57108 7.35411C4.57108 7.35411 4.57108 7.35411 4.53016 7.39503C4.53016 7.39503 4.53016 7.39503 4.48924 7.43595C4.48924 7.43595 4.48924 7.43595 4.44832 7.47687C4.44832 7.47687 4.44832 7.47687 4.4074 7.51779C4.4074 7.51779 4.4074 7.51779 4.36648 7.55871C4.36648 7.55871 4.36648 7.55871 4.32556 7.59963C4.32556 7.59963 4.32556 7.59963 4.28464 7.64055C4.28464 7.64055 4.28464 7.64055 4.24372 7.68147C4.24372 7.68147 4.24372 7.68147 4.2028 7.72239C4.2028 7.72239 4.2028 7.72239 4.16188 7.76331C4.16188 7.76331 4.16188 7.80423 4.12096 7.80423C4.12096 7.80423 4.12096 7.80423 4.08004 7.84515C4.08004 7.84515 4.08004 7.84515 4.03912 7.88607C4.03912 7.88607 4.03912 7.88607 3.9982 7.92699C3.9982 7.92699 3.99821 7.92699 3.95729 7.96791C3.95729 7.96791 3.95728 7.96791 3.91636 8.00883C3.91636 8.00883 3.91636 8.00883 3.87544 8.04975C3.87544 8.04975 3.87545 8.09067 3.83453 8.09067C3.83453 8.09067 3.83452 8.09067 3.7936 8.13159C3.7936 8.13159 3.79361 8.13159 3.75269 8.17251C3.75269 8.17251 3.75269 8.17251 3.71177 8.21343C3.71177 8.21343 3.71176 8.21343 3.67084 8.25434C3.67084 8.25434 3.67085 8.25435 3.62993 8.29527C3.62993 8.29527 3.62992 8.29527 3.589 8.33619C3.589 8.33619 3.58901 8.33619 3.54809 8.3771C3.54809 8.3771 3.54809 8.3771 3.50717 8.41802C3.50717 8.41802 3.50716 8.41802 3.46624 8.45894C3.46624 8.45894 3.46625 8.45895 3.42533 8.49987C3.42533 8.49987 3.42533 8.49987 3.38441 8.54078C3.38441 8.54078 3.38441 8.54078 3.34349 8.5817C3.34349 8.5817 3.34349 8.5817 3.30257 8.62262C3.30257 8.62262 3.30257 8.66354 3.26165 8.66354C3.26165 8.66354 3.26165 8.66354 3.22073 8.70446C3.22073 8.70446 3.22073 8.70446 3.17981 8.74538C3.17981 8.74538 3.17981 8.74538 3.13889 8.7863C3.13889 8.7863 3.13889 8.7863 3.09797 8.82722C3.09797 8.82722 3.09797 8.82722 3.05705 8.86814C3.05705 8.86814 3.05705 8.90906 3.01613 8.90906C3.01613 8.90906 3.01613 8.90906 2.97521 8.94998C2.97521 8.94998 2.97521 8.94998 2.93429 8.9909C2.93429 8.9909 2.93429 8.9909 2.89337 9.03182C2.89337 9.03182 2.89337 9.03182 2.85245 9.07274C2.85245 9.07274 2.85245 9.07274 2.81153 9.11366C2.81153 9.11366 2.81153 9.11366 2.77061 9.15458C2.77061 9.15458 2.77062 9.15458 2.7297 9.1955C2.7297 9.1955 2.72969 9.1955 2.68877 9.23642C2.68877 9.23642 2.68877 9.23642 2.64785 9.27734C2.64785 9.27734 2.64785 9.27734 2.60694 9.31826C2.60694 9.31826 2.60693 9.31826 2.56601 9.35918C2.56601 9.35918 2.56602 9.35918 2.5251 9.4001C2.5251 9.4001 2.52509 9.4001 2.48417 9.44102C2.48417 9.44102 2.48417 9.48194 2.44325 9.48194C2.44325 9.48194 2.44326 9.48194 2.40234 9.52286C2.40234 9.52286 2.40233 9.52285 2.36141 9.56377C2.36141 9.56377 2.36142 9.56378 2.3205 9.6047C2.3205 9.6047 2.3205 9.6047 2.27958 9.64562C2.27958 9.64562 2.27957 9.64561 2.23865 9.68653C2.23865 9.68653 2.23866 9.68654 2.19774 9.72746C2.19774 9.72746 2.19774 9.76837 2.15682 9.76837C2.15682 9.76837 2.15682 9.76838 2.1159 9.80929C2.1159 9.80929 2.1159 9.8093 2.07498 9.85022C2.07498 9.85022 2.07498 9.85021 2.03406 9.89113C2.03406 9.89113 2.03406 9.89114 1.99314 9.93205C1.99314 9.93205 1.99314 9.93205 1.95222 9.97297C1.95222 9.97297 1.95222 9.97297 1.9113 10.0139C1.9113 10.0139 1.9113 10.0548 1.87038 10.0548C1.87038 10.0548 1.87038 10.0548 1.82946 10.0957C1.82946 10.0957 1.82946 10.0957 1.78854 10.1367C1.78854 10.1367 1.78854 10.1367 1.74762 10.1776C1.74762 10.1776 1.74762 10.1776 1.7067 10.2185C1.7067 10.2185 1.7067 10.2185 1.66578 10.2594C1.66578 10.2594 1.66578 10.2594 1.62486 10.3003C1.62486 10.3003 1.62486 10.3413 1.58394 10.3413C1.58394 10.3413 1.58394 10.3412 1.54302 10.3822C0.397269 11.6916 -0.216523 13.533 0.0699151 15.5381L15.292 110.472C15.824 114.482 19.4658 117.715 23.476 117.715H69.4697C71.4748 117.755 73.1934 116.937 74.3392 115.587Z" fill="#334C9E"/>
<path d="M72.9079 42.5038C71.9667 42.5038 71.1074 41.7672 70.9847 40.826L69.798 31.6191C69.6752 30.678 70.33 29.9414 71.2711 29.9414C72.2123 29.9414 73.0716 30.678 73.1943 31.6191L74.381 40.826C74.5038 41.7672 73.849 42.5038 72.9079 42.5038Z" fill="url(#paint0_linear_377_4132)"/>
<path d="M74.8294 111.618H28.8766C24.8665 111.618 21.1837 108.385 20.6927 104.375L8.25307 7.35411C7.72111 3.34398 10.5855 0.111328 14.5956 0.111328H60.5894C64.5995 0.111328 68.2823 3.34398 68.7733 7.35411L81.172 104.334C81.7039 108.344 78.8395 111.618 74.8294 111.618Z" fill="url(#paint1_linear_377_4132)"/>
<path d="M72.6605 107.771H30.0631C27.3215 107.771 24.8254 105.561 24.4981 102.82L12.4268 8.82726C12.0585 6.08564 14.0226 3.87598 16.7233 3.87598H59.3616C62.1033 3.87598 64.5994 6.08564 64.9267 8.82726L76.998 102.82C77.3254 105.561 75.4022 107.771 72.6605 107.771Z" fill="url(#paint2_linear_377_4132)"/>
<path d="M24.6621 3.91699L25.8079 5.96298C26.4217 7.02689 27.5265 7.72253 28.7132 7.72253H45.2038C46.3495 7.72253 47.3316 7.02689 47.659 5.96298L48.2728 3.91699H24.6621Z" fill="url(#paint3_linear_377_4132)"/>
<path d="M74.8294 111.618H28.8766C24.8665 111.618 21.1837 108.385 20.6927 104.375L8.25307 7.35411C7.72111 3.34398 10.5855 0.111328 14.5956 0.111328H60.5894C64.5995 0.111328 68.2823 3.34398 68.7733 7.35411L81.172 104.334C81.7039 108.344 78.8395 111.618 74.8294 111.618Z" fill="url(#paint4_linear_377_4132)"/>
<path d="M72.6605 107.771H30.0631C27.3215 107.771 24.8254 105.561 24.4981 102.82L12.4268 8.82726C12.0585 6.08564 14.0226 3.87598 16.7233 3.87598H59.3616C62.1033 3.87598 64.5994 6.08564 64.9267 8.82726L76.998 102.82C77.3254 105.561 75.4022 107.771 72.6605 107.771Z" fill="url(#paint5_linear_377_4132)"/>
<mask id="mask0_377_4132" style="mask-type:luminance" maskUnits="userSpaceOnUse" x="12" y="3" width="66" height="105">
<path d="M72.6586 107.771H30.0612C27.3196 107.771 24.8235 105.561 24.4961 102.82L12.4248 8.82726C12.0565 6.08564 14.0207 3.87598 16.7214 3.87598H59.3597C62.1013 3.87598 64.5974 6.08564 64.9248 8.82726L76.9961 102.82C77.3234 105.561 75.4002 107.771 72.6586 107.771Z" fill="white"/>
</mask>
<g mask="url(#mask0_377_4132)">
<path d="M47.658 36.2432H22.7379L18.8915 39.4349L17.8275 31.0464C17.4593 28.182 19.5052 25.8496 22.3696 25.8496H46.3486C49.2129 25.8496 51.8318 28.182 52.2001 31.0464C52.5684 33.9108 50.5224 36.2432 47.658 36.2432Z" fill="url(#paint6_linear_377_4132)"/>
<path d="M45.8982 19.712H20.9781L17.1317 22.9037L16.0678 14.5152C15.6995 11.6508 17.7455 9.31836 20.6099 9.31836H44.5888C47.4532 9.31836 50.072 11.6508 50.4403 14.5152C50.8086 17.3795 48.7626 19.712 45.8982 19.712Z" fill="url(#paint7_linear_377_4132)"/>
<path d="M37.3871 52.5704H62.3072L66.972 55.7621L65.9081 47.3736C65.5398 44.5092 62.921 42.1768 60.0566 42.1768H36.0776C33.2133 42.1768 31.1673 44.5092 31.5355 47.3736C31.9038 50.2379 34.5227 52.5704 37.3871 52.5704Z" fill="url(#paint8_linear_377_4132)"/>
<path d="M51.7503 68.8975H26.8302L22.9837 72.0893L21.9198 63.7007C21.5515 60.8363 23.5975 58.5039 26.4619 58.5039H50.4409C53.3052 58.5039 55.9241 60.8363 56.2924 63.7007C56.6606 66.5651 54.6147 68.8975 51.7503 68.8975Z" fill="url(#paint9_linear_377_4132)"/>
<path d="M41.4793 85.2247H66.3994L71.0643 88.4164L70.0004 80.0279C69.6321 77.1635 67.0132 74.8311 64.1489 74.8311H40.1699C37.3055 74.8311 35.2596 77.1635 35.6278 80.0279C35.9961 82.8922 38.615 85.2247 41.4793 85.2247Z" fill="url(#paint10_linear_377_4132)"/>
<path d="M29.6117 92.2217H67.3397C69.3447 92.2217 71.1861 93.8585 71.4316 95.8635C71.6772 97.8686 70.245 99.5054 68.2399 99.5054H30.5119C28.5069 99.5054 26.6655 97.8686 26.42 95.8635C26.1745 93.8585 27.6066 92.2217 29.6117 92.2217Z" fill="#DAF1F1" stroke="url(#paint11_linear_377_4132)" stroke-miterlimit="10"/>
<path d="M61.9385 92.2217H67.3399C69.3449 92.2217 71.1863 93.8585 71.4319 95.8635C71.6774 97.8686 70.2452 99.5054 68.2401 99.5054H62.8387L61.9385 92.2217Z" fill="url(#paint12_linear_377_4132)"/>
<path d="M19.9556 12.96H47.2081" stroke="#00BDB7" stroke-width="2" stroke-miterlimit="10" stroke-linecap="round" stroke-linejoin="round"/>
<path d="M20.4463 16.0292L47.6988 15.9883" stroke="#00BDB7" stroke-width="2" stroke-miterlimit="10" stroke-linecap="round" stroke-linejoin="round"/>
<path d="M21.4692 29.328L48.7218 29.2871" stroke="#00BDB7" stroke-width="2" stroke-miterlimit="10" stroke-linecap="round" stroke-linejoin="round"/>
<path d="M22.0015 32.3564H49.254" stroke="#00BDB7" stroke-width="2" stroke-miterlimit="10" stroke-linecap="round" stroke-linejoin="round"/>
<path d="M25.9297 62.2685L53.1822 62.2275" stroke="#00BDB7" stroke-width="2" stroke-miterlimit="10" stroke-linecap="round" stroke-linejoin="round"/>
<path d="M26.4204 65.2969H53.6729" stroke="#00BDB7" stroke-width="2" stroke-miterlimit="10" stroke-linecap="round" stroke-linejoin="round"/>
<path d="M35.3413 45.5731L62.5938 45.5322" stroke="#007AB7" stroke-width="2" stroke-miterlimit="10" stroke-linecap="round" stroke-linejoin="round"/>
<path d="M35.832 48.6016H63.0846" stroke="#007AB7" stroke-width="2" stroke-miterlimit="10" stroke-linecap="round" stroke-linejoin="round"/>
<path d="M39.4331 78.3085L66.6856 78.2676" stroke="#007AB7" stroke-width="2" stroke-miterlimit="10" stroke-linecap="round" stroke-linejoin="round"/>
<path d="M39.9238 81.3368L67.1763 81.2959" stroke="#007AB7" stroke-width="2" stroke-miterlimit="10" stroke-linecap="round" stroke-linejoin="round"/>
</g>
<mask id="mask1_377_4132" style="mask-type:luminance" maskUnits="userSpaceOnUse" x="12" y="3" width="66" height="105">
<path d="M72.6586 107.771H30.0612C27.3196 107.771 24.8235 105.561 24.4961 102.82L12.4248 8.82726C12.0565 6.08564 14.0207 3.87598 16.7214 3.87598H59.3597C62.1013 3.87598 64.5974 6.08564 64.9248 8.82726L76.9961 102.82C77.3234 105.561 75.4002 107.771 72.6586 107.771Z" fill="white"/>
</mask>
<g mask="url(#mask1_377_4132)">
<path d="M9.39684 10.5455L67.1755 10.0545L64.7203 1.625L7.88281 2.11604L9.39684 10.5455Z" fill="url(#paint13_linear_377_4132)"/>
</g>
<path d="M24.6621 3.91699L25.8079 5.96298C26.4217 7.02689 27.5265 7.72253 28.7132 7.72253H45.2038C46.3495 7.72253 47.3316 7.02689 47.659 5.96298L48.2728 3.91699H24.6621Z" fill="url(#paint14_linear_377_4132)"/>
<path d="M59.3621 3.91699H57.1934C59.935 3.91699 62.4311 6.12666 62.7584 8.86827L74.8297 102.861C75.198 105.602 73.2339 107.812 70.5332 107.812H72.7019C75.4435 107.812 77.3668 105.602 76.9985 102.861L64.9272 8.86827C64.5589 6.12666 62.0628 3.91699 59.3621 3.91699Z" fill="url(#paint15_linear_377_4132)"/>
<path d="M72.6605 107.771H30.0631C27.3215 107.771 24.8254 105.561 24.4981 102.82L12.4268 8.82726C12.0585 6.08564 14.0226 3.87598 16.7233 3.87598H59.3616C62.1033 3.87598 64.5994 6.08564 64.9267 8.82726L76.998 102.82C77.3254 105.561 75.4022 107.771 72.6605 107.771Z" fill="url(#paint16_linear_377_4132)"/>
<path d="M46.8399 7.68147H30.3493C29.2035 7.68147 28.0578 6.98584 27.444 5.92192L24.1704 0.111328H51.0547L49.2951 5.92192C48.9268 7.02676 47.9857 7.68147 46.8399 7.68147Z" fill="url(#paint17_linear_377_4132)"/>
<path d="M42.6674 5.26725H30.6779C30.3096 5.26725 29.9414 4.98081 29.9004 4.57161C29.8595 4.20333 30.105 3.87598 30.4733 3.87598H42.4628C42.8311 3.87598 43.1993 4.16241 43.2403 4.57161C43.2812 4.98081 43.0357 5.26725 42.6674 5.26725Z" fill="url(#paint18_linear_377_4132)"/>
<path d="M46.4731 4.61293C46.555 5.14489 46.1458 5.595 45.6138 5.595C45.0819 5.595 44.5908 5.14489 44.509 4.61293C44.4271 4.08098 44.8363 3.63086 45.3683 3.63086C45.9003 3.63086 46.3913 4.08098 46.4731 4.61293Z" fill="url(#paint19_linear_377_4132)"/>
<path d="M59.3621 3.91699H57.1934C59.935 3.91699 62.4311 6.12666 62.7584 8.86827L74.8297 102.861C75.198 105.602 73.2339 107.812 70.5332 107.812H72.7019C75.4435 107.812 77.3668 105.602 76.9985 102.861L64.9272 8.86827C64.5589 6.12666 62.0628 3.91699 59.3621 3.91699Z" fill="url(#paint20_linear_377_4132)"/>
<path d="M72.6605 107.771H30.0631C27.3215 107.771 24.8254 105.561 24.4981 102.82L12.4268 8.82726C12.0585 6.08564 14.0226 3.87598 16.7233 3.87598H59.3616C62.1033 3.87598 64.5994 6.08564 64.9267 8.82726L76.998 102.82C77.3254 105.561 75.4022 107.771 72.6605 107.771Z" fill="url(#paint21_linear_377_4132)"/>
<path d="M72.6605 107.771H30.0631C27.3215 107.771 24.8254 105.561 24.4981 102.82L12.4268 8.82726C12.0585 6.08564 14.0226 3.87598 16.7233 3.87598H59.3616C62.1033 3.87598 64.5994 6.08564 64.9267 8.82726L76.998 102.82C77.3254 105.561 75.4022 107.771 72.6605 107.771Z" fill="url(#paint22_linear_377_4132)"/>
<path d="M46.8399 7.68147H30.3493C29.2035 7.68147 28.0578 6.98584 27.444 5.92192L24.1704 0.111328H51.0547L49.2951 5.92192C48.9268 7.02676 47.9857 7.68147 46.8399 7.68147Z" fill="url(#paint23_linear_377_4132)"/>
<path d="M42.6674 5.26725H30.6779C30.3096 5.26725 29.9414 4.98081 29.9004 4.57161C29.8595 4.20333 30.105 3.87598 30.4733 3.87598H42.4628C42.8311 3.87598 43.1993 4.16241 43.2403 4.57161C43.2812 4.98081 43.0357 5.26725 42.6674 5.26725Z" fill="url(#paint24_linear_377_4132)"/>
<path d="M46.4731 4.61293C46.555 5.14489 46.1458 5.595 45.6138 5.595C45.0819 5.595 44.5908 5.14489 44.509 4.61293C44.4271 4.08098 44.8363 3.63086 45.3683 3.63086C45.9003 3.63086 46.3913 4.08098 46.4731 4.61293Z" fill="url(#paint25_linear_377_4132)"/>
<path d="M11.8956 57.2351H10.668C9.72688 57.2351 8.86757 56.4986 8.74481 55.5574L7.72182 47.5781C7.59906 46.6369 8.25377 45.9004 9.19493 45.9004H10.4225C11.3637 45.9004 12.223 46.6369 12.3457 47.5781L13.3687 55.5574C13.4915 56.4986 12.8368 57.2351 11.8956 57.2351Z" fill="url(#paint26_linear_377_4132)"/>
<path d="M10.668 57.2351C9.72688 57.2351 8.86757 56.4986 8.74481 55.5574L7.72182 47.5781C7.59906 46.6369 8.25377 45.9004 9.19492 45.9004C10.1361 45.9004 10.9954 46.6369 11.1182 47.5781L12.1411 55.5574C12.2639 56.4986 11.6092 57.2351 10.668 57.2351Z" fill="url(#paint27_linear_377_4132)"/>
<path d="M9.84875 41.2762H8.62116C7.68001 41.2762 6.8207 40.5396 6.69794 39.5985L5.67494 31.6191C5.55219 30.678 6.2069 29.9414 7.14805 29.9414H8.37564C9.31679 29.9414 10.1761 30.678 10.2989 31.6191L11.3219 39.5985C11.4446 40.5396 10.7899 41.2762 9.84875 41.2762Z" fill="url(#paint28_linear_377_4132)"/>
<path d="M8.62116 41.2762C7.68001 41.2762 6.8207 40.5396 6.69794 39.5985L5.67494 31.6191C5.55219 30.678 6.2069 29.9414 7.14805 29.9414C8.0892 29.9414 8.94852 30.678 9.07128 31.6191L10.0943 39.5985C10.217 40.5396 9.56231 41.2762 8.62116 41.2762Z" fill="url(#paint29_linear_377_4132)"/>
<path opacity="0.4" d="M72.5807 37.3486H39.7222C37.4716 37.3486 35.9167 39.1491 36.1622 41.3997L40.5406 79.0049L46.8831 72.1304H77.0819L72.5807 37.3486Z" fill="url(#paint30_linear_377_4132)"/>
<path opacity="0.5" d="M100.406 31.251H54.2074C50.1564 31.251 46.8828 34.5246 46.8828 38.5756V77.5312L54.9849 70.5748H100.447C104.498 70.5748 107.771 67.3012 107.771 63.2502V38.5756C107.73 34.5246 104.457 31.251 100.406 31.251Z" fill="url(#paint31_linear_377_4132)"/>
<path d="M100.406 31.251H54.2074C50.1564 31.251 46.8828 34.5246 46.8828 38.5756V77.5312L54.9849 70.5748H100.447C104.498 70.5748 107.771 67.3012 107.771 63.2502V38.5756C107.73 34.5246 104.457 31.251 100.406 31.251Z" stroke="url(#paint32_linear_377_4132)" stroke-width="2" stroke-miterlimit="10"/>
<path d="M94.8409 65.5823H56.8675C54.6169 65.5823 52.8164 63.7819 52.8164 61.5313V39.3528C52.8164 37.1022 54.6169 35.3018 56.8675 35.3018H94.8409C97.0915 35.3018 98.892 37.1022 98.892 39.3528V61.5313C98.8511 63.7819 97.0506 65.5823 94.8409 65.5823Z" fill="url(#paint33_linear_377_4132)"/>
<path d="M97.337 65.5823H59.3635C57.113 65.5823 55.3125 63.7819 55.3125 61.5313V39.3528C55.3125 37.1022 57.113 35.3018 59.3635 35.3018H97.337C99.5876 35.3018 101.388 37.1022 101.388 39.3528V61.5313C101.347 63.7819 99.5467 65.5823 97.337 65.5823Z" fill="url(#paint34_linear_377_4132)"/>
<path d="M78.3501 47.6182L56.499 64.6408C57.1128 65.2136 57.9312 65.541 58.8315 65.541H97.8279C98.7281 65.541 99.5465 65.2136 100.16 64.6408L78.3501 47.6182Z" fill="url(#paint35_linear_377_4132)"/>
<path d="M78.3502 53.2656L100.201 36.243C99.5876 35.6701 98.7692 35.3428 97.8689 35.3428H58.8725C57.9722 35.3428 57.1538 35.6701 56.54 36.243L78.3502 53.2656Z" fill="url(#paint36_linear_377_4132)"/>
<path d="M56.499 36.2432L78.3501 53.2658L100.201 36.2432" stroke="#CC5833" stroke-width="1.4422" stroke-miterlimit="10"/>
<path d="M97.5413 44.3463C102.536 44.3463 106.585 40.2975 106.585 35.303C106.585 30.3086 102.536 26.2598 97.5413 26.2598C92.5468 26.2598 88.498 30.3086 88.498 35.303C88.498 40.2975 92.5468 44.3463 97.5413 44.3463Z" fill="#D4003C"/>
<path d="M98.7283 44.3463C103.723 44.3463 107.772 40.2975 107.772 35.303C107.772 30.3086 103.723 26.2598 98.7283 26.2598C93.7339 26.2598 89.6851 30.3086 89.6851 35.303C89.6851 40.2975 93.7339 44.3463 98.7283 44.3463Z" fill="#FF335B"/>
<path d="M100.774 39.804H99.0557V32.3566L97.4189 32.3975V31.0881L100.774 30.7607V39.804Z" fill="#D4003C"/>
<path d="M99.9965 39.8042H98.2779V32.4386L96.6411 32.4796V31.1701L99.9965 30.8428V39.8042Z" fill="white"/>
<defs>
<linearGradient id="paint0_linear_377_4132" x1="72.1087" y1="19.1835" x2="72.1087" y2="49.3827" gradientUnits="userSpaceOnUse">
<stop stop-color="#007D73"/>
<stop offset="0.2358" stop-color="#027875"/>
<stop offset="0.5288" stop-color="#08687A"/>
<stop offset="0.8508" stop-color="#114F81"/>
<stop offset="1" stop-color="#164186"/>
</linearGradient>
<linearGradient id="paint1_linear_377_4132" x1="49.5384" y1="3.03807" x2="40.3005" y2="103.971" gradientUnits="userSpaceOnUse">
<stop stop-color="#4ADECE"/>
<stop offset="1" stop-color="#1697D7"/>
</linearGradient>
<linearGradient id="paint2_linear_377_4132" x1="55.1001" y1="-5.3704" x2="33.5634" y2="121.457" gradientUnits="userSpaceOnUse">
<stop stop-color="#D3F7FF"/>
<stop offset="0.6857" stop-color="#BCDDE6"/>
<stop offset="1" stop-color="#B0CFD9"/>
</linearGradient>
<linearGradient id="paint3_linear_377_4132" x1="53.2158" y1="5.81182" x2="16.7174" y2="5.81182" gradientUnits="userSpaceOnUse">
<stop stop-color="#007D73"/>
<stop offset="0.2358" stop-color="#027875"/>
<stop offset="0.5288" stop-color="#08687A"/>
<stop offset="0.8508" stop-color="#114F81"/>
<stop offset="1" stop-color="#164186"/>
</linearGradient>
<linearGradient id="paint4_linear_377_4132" x1="49.5384" y1="3.03807" x2="40.3005" y2="103.971" gradientUnits="userSpaceOnUse">
<stop stop-color="#4ADECE"/>
<stop offset="1" stop-color="#1697D7"/>
</linearGradient>
<linearGradient id="paint5_linear_377_4132" x1="55.1001" y1="-5.3704" x2="33.5634" y2="121.457" gradientUnits="userSpaceOnUse">
<stop stop-color="#D3F7FF"/>
<stop offset="0.6857" stop-color="#BCDDE6"/>
<stop offset="1" stop-color="#B0CFD9"/>
</linearGradient>
<linearGradient id="paint6_linear_377_4132" x1="25.3871" y1="32.6528" x2="128.451" y2="19.7388" gradientUnits="userSpaceOnUse">
<stop stop-color="#4ADECE"/>
<stop offset="1" stop-color="#1697D7"/>
</linearGradient>
<linearGradient id="paint7_linear_377_4132" x1="23.6219" y1="16.1239" x2="126.686" y2="3.20996" gradientUnits="userSpaceOnUse">
<stop stop-color="#4ADECE"/>
<stop offset="1" stop-color="#1697D7"/>
</linearGradient>
<linearGradient id="paint8_linear_377_4132" x1="-6.02743" y1="48.9824" x2="59.733" y2="40.7427" gradientUnits="userSpaceOnUse">
<stop stop-color="#4ADECE"/>
<stop offset="1" stop-color="#1697D7"/>
</linearGradient>
<linearGradient id="paint9_linear_377_4132" x1="29.4795" y1="65.3121" x2="132.543" y2="52.3982" gradientUnits="userSpaceOnUse">
<stop stop-color="#4ADECE"/>
<stop offset="1" stop-color="#1697D7"/>
</linearGradient>
<linearGradient id="paint10_linear_377_4132" x1="-1.93494" y1="81.6418" x2="63.8255" y2="73.402" gradientUnits="userSpaceOnUse">
<stop stop-color="#4ADECE"/>
<stop offset="1" stop-color="#1697D7"/>
</linearGradient>
<linearGradient id="paint11_linear_377_4132" x1="71.7055" y1="95.8874" x2="28.8826" y2="106.623" gradientUnits="userSpaceOnUse">
<stop stop-color="#4ADECE"/>
<stop offset="1" stop-color="#1697D7"/>
</linearGradient>
<linearGradient id="paint12_linear_377_4132" x1="50.7176" y1="122.964" x2="68.9042" y2="90.8978" gradientUnits="userSpaceOnUse">
<stop stop-color="#4ADECE"/>
<stop offset="1" stop-color="#1697D7"/>
</linearGradient>
<linearGradient id="paint13_linear_377_4132" x1="37.5245" y1="38.608" x2="37.5245" y2="-13.1011" gradientUnits="userSpaceOnUse">
<stop stop-color="#007D73"/>
<stop offset="0.2358" stop-color="#027875"/>
<stop offset="0.5288" stop-color="#08687A"/>
<stop offset="0.8508" stop-color="#114F81"/>
<stop offset="1" stop-color="#164186"/>
</linearGradient>
<linearGradient id="paint14_linear_377_4132" x1="53.2158" y1="5.81182" x2="16.7174" y2="5.81182" gradientUnits="userSpaceOnUse">
<stop stop-color="#007D73"/>
<stop offset="0.2358" stop-color="#027875"/>
<stop offset="0.5288" stop-color="#08687A"/>
<stop offset="0.8508" stop-color="#114F81"/>
<stop offset="1" stop-color="#164186"/>
</linearGradient>
<linearGradient id="paint15_linear_377_4132" x1="67.0957" y1="1.02806" x2="67.0957" y2="102.868" gradientUnits="userSpaceOnUse">
<stop stop-color="#007D73"/>
<stop offset="0.2358" stop-color="#027875"/>
<stop offset="0.5288" stop-color="#08687A"/>
<stop offset="0.8508" stop-color="#114F81"/>
<stop offset="1" stop-color="#164186"/>
</linearGradient>
<linearGradient id="paint16_linear_377_4132" x1="103.244" y1="26.4377" x2="-20.0318" y2="88.3637" gradientUnits="userSpaceOnUse">
<stop stop-color="#FFECAD"/>
<stop offset="0.1041" stop-color="#EDE4AD" stop-opacity="0.8959"/>
<stop offset="0.3141" stop-color="#BCCFAC" stop-opacity="0.6859"/>
<stop offset="0.6112" stop-color="#6FACAB" stop-opacity="0.3888"/>
<stop offset="0.9811" stop-color="#067DAA" stop-opacity="0.0188867"/>
<stop offset="1" stop-color="#007BAA" stop-opacity="0"/>
</linearGradient>
<linearGradient id="paint17_linear_377_4132" x1="37.437" y1="1.93054" x2="28.1991" y2="102.863" gradientUnits="userSpaceOnUse">
<stop stop-color="#4ADECE"/>
<stop offset="1" stop-color="#1697D7"/>
</linearGradient>
<linearGradient id="paint18_linear_377_4132" x1="53.2164" y1="4.60214" x2="16.718" y2="4.60214" gradientUnits="userSpaceOnUse">
<stop stop-color="#007D73"/>
<stop offset="0.2358" stop-color="#027875"/>
<stop offset="0.5288" stop-color="#08687A"/>
<stop offset="0.8508" stop-color="#114F81"/>
<stop offset="1" stop-color="#164186"/>
</linearGradient>
<linearGradient id="paint19_linear_377_4132" x1="53.2166" y1="4.60254" x2="16.7182" y2="4.60254" gradientUnits="userSpaceOnUse">
<stop stop-color="#007D73"/>
<stop offset="0.2358" stop-color="#027875"/>
<stop offset="0.5288" stop-color="#08687A"/>
<stop offset="0.8508" stop-color="#114F81"/>
<stop offset="1" stop-color="#164186"/>
</linearGradient>
<linearGradient id="paint20_linear_377_4132" x1="67.0957" y1="1.02806" x2="67.0957" y2="102.868" gradientUnits="userSpaceOnUse">
<stop stop-color="#007D73"/>
<stop offset="0.2358" stop-color="#027875"/>
<stop offset="0.5288" stop-color="#08687A"/>
<stop offset="0.8508" stop-color="#114F81"/>
<stop offset="1" stop-color="#164186"/>
</linearGradient>
<linearGradient id="paint21_linear_377_4132" x1="103.244" y1="26.4377" x2="-20.0318" y2="88.3637" gradientUnits="userSpaceOnUse">
<stop stop-color="#FFECAD"/>
<stop offset="0.1041" stop-color="#EDE4AD" stop-opacity="0.8959"/>
<stop offset="0.3141" stop-color="#BCCFAC" stop-opacity="0.6859"/>
<stop offset="0.6112" stop-color="#6FACAB" stop-opacity="0.3888"/>
<stop offset="0.9811" stop-color="#067DAA" stop-opacity="0.0188867"/>
<stop offset="1" stop-color="#007BAA" stop-opacity="0"/>
</linearGradient>
<linearGradient id="paint22_linear_377_4132" x1="90.0868" y1="115.647" x2="7.52527" y2="6.84888" gradientUnits="userSpaceOnUse">
<stop offset="0.00192308" stop-color="#CACDC2"/>
<stop offset="0.0841346" stop-color="#CDBCB3"/>
<stop offset="0.2298" stop-color="#C59B9F"/>
<stop offset="0.3896" stop-color="#BB6A81"/>
<stop offset="0.5092" stop-color="#9E5574"/>
<stop offset="0.6577" stop-color="#634A66"/>
<stop offset="0.8595" stop-color="#253C4B"/>
<stop offset="1" stop-color="#052C35"/>
</linearGradient>
<linearGradient id="paint23_linear_377_4132" x1="37.437" y1="1.93054" x2="28.1991" y2="102.863" gradientUnits="userSpaceOnUse">
<stop stop-color="#4ADECE"/>
<stop offset="1" stop-color="#1697D7"/>
</linearGradient>
<linearGradient id="paint24_linear_377_4132" x1="53.2164" y1="4.60214" x2="16.718" y2="4.60214" gradientUnits="userSpaceOnUse">
<stop stop-color="#007D73"/>
<stop offset="0.2358" stop-color="#027875"/>
<stop offset="0.5288" stop-color="#08687A"/>
<stop offset="0.8508" stop-color="#114F81"/>
<stop offset="1" stop-color="#164186"/>
</linearGradient>
<linearGradient id="paint25_linear_377_4132" x1="53.2166" y1="4.60254" x2="16.7182" y2="4.60254" gradientUnits="userSpaceOnUse">
<stop stop-color="#007D73"/>
<stop offset="0.2358" stop-color="#027875"/>
<stop offset="0.5288" stop-color="#08687A"/>
<stop offset="0.8508" stop-color="#114F81"/>
<stop offset="1" stop-color="#164186"/>
</linearGradient>
<linearGradient id="paint26_linear_377_4132" x1="10.5732" y1="7.5176" x2="10.5732" y2="94.9144" gradientUnits="userSpaceOnUse">
<stop stop-color="#4ADECE"/>
<stop offset="1" stop-color="#1697D7"/>
</linearGradient>
<linearGradient id="paint27_linear_377_4132" x1="-36.6396" y1="51.5629" x2="17.8588" y2="51.5629" gradientUnits="userSpaceOnUse">
<stop stop-color="#007D73"/>
<stop offset="0.2358" stop-color="#027875"/>
<stop offset="0.5288" stop-color="#08687A"/>
<stop offset="0.8508" stop-color="#114F81"/>
<stop offset="1" stop-color="#164186"/>
</linearGradient>
<linearGradient id="paint28_linear_377_4132" x1="8.5266" y1="7.51729" x2="8.5266" y2="94.9141" gradientUnits="userSpaceOnUse">
<stop stop-color="#4ADECE"/>
<stop offset="1" stop-color="#1697D7"/>
</linearGradient>
<linearGradient id="paint29_linear_377_4132" x1="-36.6405" y1="35.6204" x2="17.8579" y2="35.6204" gradientUnits="userSpaceOnUse">
<stop stop-color="#007D73"/>
<stop offset="0.2358" stop-color="#027875"/>
<stop offset="0.5288" stop-color="#08687A"/>
<stop offset="0.8508" stop-color="#114F81"/>
<stop offset="1" stop-color="#164186"/>
</linearGradient>
<linearGradient id="paint30_linear_377_4132" x1="38.4104" y1="58.1828" x2="83.9442" y2="58.1828" gradientUnits="userSpaceOnUse">
<stop offset="0.00192308" stop-color="#CACDC2"/>
<stop offset="0.0841346" stop-color="#CDBCB3"/>
<stop offset="0.2298" stop-color="#C59B9F"/>
<stop offset="0.3896" stop-color="#BB6A81"/>
<stop offset="0.5092" stop-color="#9E5574"/>
<stop offset="0.6577" stop-color="#634A66"/>
<stop offset="0.8595" stop-color="#253C4B"/>
<stop offset="1" stop-color="#052C35"/>
</linearGradient>
<linearGradient id="paint31_linear_377_4132" x1="46.8552" y1="54.3974" x2="107.733" y2="54.3974" gradientUnits="userSpaceOnUse">
<stop stop-color="#E8E0E3"/>
<stop offset="0.8065" stop-color="#C5EEFF"/>
</linearGradient>
<linearGradient id="paint32_linear_377_4132" x1="51.1058" y1="30.7206" x2="97.4926" y2="77.1075" gradientUnits="userSpaceOnUse">
<stop stop-color="#1697D7"/>
<stop offset="1" stop-color="#4ADECE"/>
</linearGradient>
<linearGradient id="paint33_linear_377_4132" x1="78.3999" y1="39.3806" x2="70.91" y2="71.8367" gradientUnits="userSpaceOnUse">
<stop stop-color="#F88C57"/>
<stop offset="0.8259" stop-color="#D65B2B"/>
<stop offset="1" stop-color="#CE5021"/>
</linearGradient>
<linearGradient id="paint34_linear_377_4132" x1="78.2572" y1="76.2262" x2="78.3653" y2="42.4922" gradientUnits="userSpaceOnUse">
<stop stop-color="#F6DE55"/>
<stop offset="0.3154" stop-color="#F6D355"/>
<stop offset="0.8672" stop-color="#F5B654"/>
<stop offset="1" stop-color="#F5AE54"/>
</linearGradient>
<linearGradient id="paint35_linear_377_4132" x1="72.0871" y1="97.0937" x2="79.9892" y2="56.1066" gradientUnits="userSpaceOnUse">
<stop stop-color="#F6DE55"/>
<stop offset="0.3154" stop-color="#F6D355"/>
<stop offset="0.8672" stop-color="#F5B654"/>
<stop offset="1" stop-color="#F5AE54"/>
</linearGradient>
<linearGradient id="paint36_linear_377_4132" x1="78.4908" y1="31.8776" x2="77.3997" y2="63.321" gradientUnits="userSpaceOnUse">
<stop stop-color="#F6DE55"/>
<stop offset="0.3154" stop-color="#F6D355"/>
<stop offset="0.8672" stop-color="#F5B654"/>
<stop offset="1" stop-color="#F5AE54"/>
</linearGradient>
</defs>
</svg>
