<svg width="438" height="347" viewBox="0 0 438 347" fill="none" xmlns="http://www.w3.org/2000/svg">
<path d="M267.339 114.287C350.779 84.9037 436.546 125.62 384.769 216.753C334.399 305.4 408.56 328.892 408.56 328.892L105.206 327.259C43.4745 304.922 -9.05324 207.794 48.7188 177.247C48.7188 177.247 85.4854 170.173 88.7783 144.515C92.0807 118.865 77.4547 97.8222 101.04 81.6952C124.626 65.5682 164.282 70.0057 201.03 101.425C229.334 125.629 267.339 114.287 267.339 114.287Z" fill="#E5DEF9"/>
<path d="M221.331 346.023C335.968 346.023 428.9 340.142 428.9 332.888C428.9 325.634 335.968 319.754 221.331 319.754C106.694 319.754 13.7628 325.634 13.7628 332.888C13.7628 340.142 106.694 346.023 221.331 346.023Z" fill="#E5DEF9"/>
<path d="M432.784 257.197L429.181 252.976L425.232 256.353C424.181 255.527 422.98 254.871 421.685 254.411L422.079 249.364L416.544 248.932L416.169 253.764C414.471 253.951 412.867 254.467 411.422 255.274L408.044 251.324L403.823 254.927L407.303 258.999C406.656 259.918 406.131 260.922 405.755 262.001L400.708 261.607L400.276 267.142L405.108 267.517C405.296 269.215 405.812 270.819 406.618 272.264L403.166 275.219L406.768 279.441L410.343 276.383C411.506 277.208 412.82 277.837 414.246 278.222L413.87 283.053L419.406 283.485L419.8 278.437C421.376 278.146 422.849 277.555 424.162 276.72L427.558 280.698L431.78 277.096L428.093 272.78C428.731 271.758 429.228 270.641 429.556 269.44L434.388 269.816L434.82 264.28L429.772 263.886C429.566 262.761 429.2 261.691 428.703 260.678L432.784 257.197ZM422.586 266.56C422.37 269.356 419.912 271.457 417.116 271.232C414.321 271.016 412.219 268.558 412.444 265.763C412.66 262.967 415.118 260.866 417.914 261.091C420.71 261.316 422.802 263.764 422.586 266.56Z" fill="#E5DEF9"/>
<path d="M434.81 229.409L432.84 227.101L430.682 228.949C430.11 228.499 429.453 228.133 428.75 227.889L428.965 225.131L425.945 224.896L425.738 227.542C424.809 227.645 423.927 227.927 423.149 228.368L421.301 226.21L418.993 228.18L420.897 230.403C420.541 230.901 420.259 231.454 420.053 232.045L417.295 231.829L417.06 234.85L419.706 235.057C419.809 235.985 420.09 236.867 420.531 237.646L418.646 239.26L420.616 241.568L422.567 239.898C423.205 240.348 423.918 240.695 424.697 240.901L424.49 243.547L427.511 243.782L427.727 241.023C428.59 240.864 429.397 240.545 430.11 240.085L431.968 242.262L434.275 240.292L432.258 237.937C432.605 237.383 432.878 236.764 433.056 236.107L435.701 236.314L435.936 233.293L433.178 233.077C433.065 232.458 432.868 231.876 432.596 231.323L434.81 229.409ZM429.237 234.522C429.116 236.051 427.774 237.196 426.245 237.074C424.716 236.952 423.571 235.61 423.693 234.081C423.815 232.552 425.156 231.407 426.686 231.529C428.215 231.66 429.359 233.002 429.237 234.522Z" fill="#E5DEF9"/>
<path d="M38.6522 160.613L37.7141 155.144L32.5917 156.026C32.1132 154.778 31.419 153.596 30.5371 152.545L33.4548 148.408L28.9235 145.209L26.1278 149.168C24.5798 148.455 22.9286 148.089 21.2775 148.042L20.3956 142.92L14.9261 143.858L15.8361 149.14C14.8135 149.599 13.8472 150.19 12.9654 150.922L8.82805 147.995L5.62892 152.526L9.58796 155.322C8.87496 156.87 8.50908 158.521 8.46217 160.172L3.97775 160.942L4.91592 166.411L9.55044 165.614C10.1321 166.918 10.9389 168.128 11.9615 169.188L9.16579 173.147L13.6971 176.346L16.6242 172.209C18.1252 172.763 19.692 173.007 21.2587 172.969L22.1406 178.129L27.6101 177.191L26.6531 171.599C27.7226 171.046 28.7265 170.342 29.6177 169.479L33.5768 172.275L36.7759 167.743L32.6386 164.826C33.0326 163.747 33.2766 162.64 33.361 161.523L38.6522 160.613ZM25.0958 163.456C23.4728 165.745 20.3018 166.299 18.0033 164.676C15.7142 163.053 15.1607 159.882 16.7837 157.583C18.4067 155.294 21.5871 154.741 23.8762 156.364C26.1653 157.977 26.7188 161.158 25.0958 163.456Z" fill="#E5DEF9"/>
<path d="M18.9509 192.483L18.4349 189.49L15.6298 189.969C15.3671 189.284 14.9918 188.646 14.5134 188.064L16.1082 185.803L13.6315 184.049L12.1023 186.216C11.258 185.831 10.3479 185.625 9.4473 185.597L8.96883 182.792L5.97609 183.308L6.47332 186.197C5.91042 186.45 5.38505 186.769 4.90659 187.173L2.64562 185.578L0.900635 188.064L3.06779 189.593C2.68314 190.438 2.47675 191.348 2.4486 192.248L0 192.67L0.515989 195.663L3.04903 195.222C3.368 195.935 3.80894 196.601 4.37184 197.174L2.84263 199.341L5.31938 201.095L6.91426 198.834C7.73046 199.134 8.59357 199.275 9.4473 199.247L9.93514 202.061L12.9279 201.545L12.4025 198.487C12.9842 198.187 13.5377 197.802 14.0255 197.324L16.1927 198.853L17.947 196.376L15.6861 194.781C15.9019 194.19 16.0332 193.59 16.0801 192.98L18.9509 192.483ZM11.5394 194.031C10.6575 195.279 8.91254 195.579 7.66479 194.697C6.41703 193.815 6.11682 192.07 6.99869 190.822C7.88057 189.575 9.62555 189.274 10.8733 190.156C12.1304 191.038 12.4213 192.774 11.5394 194.031Z" fill="#E5DEF9"/>
<path d="M149.506 20.1424C149.506 21.1274 149.102 22.0187 148.455 22.666C147.807 23.3133 146.916 23.7167 145.941 23.7167H69.5272C67.5664 23.7167 65.9528 22.1125 65.9528 20.1424C65.9528 19.1573 66.3562 18.266 67.0035 17.6187C67.6509 16.9714 68.5421 16.568 69.5178 16.568H73.1391C74.5651 13.2562 77.8581 10.939 81.6952 10.939C84.2751 10.939 86.6111 11.9897 88.2998 13.6878C90.5514 9.86947 94.6981 7.30829 99.4546 7.30829C100.759 7.30829 102.016 7.50531 103.207 7.86181C105.693 3.18976 110.609 0 116.276 0C123.078 0 128.8 4.597 130.527 10.8452C131.784 10.2166 133.191 9.86009 134.692 9.86009C138.932 9.86009 142.516 12.6933 143.642 16.568H145.941C147.901 16.568 149.506 18.1816 149.506 20.1424Z" fill="#E5DEF9"/>
<path d="M392.218 28.9611C392.218 29.9462 391.814 30.8374 391.167 31.4847C390.52 32.1321 389.628 32.5355 388.653 32.5355H312.249C310.288 32.5355 308.674 30.9312 308.674 28.9611C308.674 27.976 309.078 27.0848 309.725 26.4374C310.372 25.7901 311.264 25.3867 312.239 25.3867H315.851C317.277 22.075 320.57 19.7577 324.407 19.7577C326.987 19.7577 329.323 20.8085 331.012 22.5065C333.263 18.6882 337.41 16.127 342.167 16.127C343.471 16.127 344.728 16.324 345.919 16.6805C348.405 12.0085 353.321 8.81873 358.988 8.81873C365.79 8.81873 371.512 13.4157 373.239 19.6639C374.496 19.0353 375.903 18.6788 377.404 18.6788C381.645 18.6788 385.228 21.5121 386.354 25.3867H388.653C390.613 25.3867 392.218 27.0003 392.218 28.9611Z" fill="#E5DEF9"/>
<path d="M276.214 69.9588C276.214 70.9439 275.81 71.8351 275.163 72.4824C274.516 73.1298 273.625 73.5332 272.649 73.5332H196.245C194.284 73.5332 192.67 71.9289 192.67 69.9588C192.67 68.9737 193.074 68.0825 193.721 67.4351C194.369 66.7878 195.26 66.3844 196.235 66.3844H199.847C201.273 63.0727 204.566 60.7554 208.403 60.7554C210.983 60.7554 213.319 61.8062 215.008 63.5042C217.26 59.6859 221.406 57.1247 226.163 57.1247C227.467 57.1247 228.724 57.3217 229.916 57.6782C232.402 53.0062 237.318 49.8164 242.984 49.8164C249.786 49.8164 255.509 54.4134 257.235 60.6616C258.492 60.033 259.899 59.6765 261.4 59.6765C265.641 59.6765 269.225 62.5098 270.35 66.3844H272.649C274.6 66.3844 276.214 67.9886 276.214 69.9588Z" fill="#E5DEF9"/>
<path d="M430.007 104.202C432.831 104.202 435.138 106.5 435.138 109.333C435.138 112.157 432.84 114.465 430.007 114.465C427.183 114.465 424.875 112.167 424.875 109.333C424.875 106.5 427.173 104.202 430.007 104.202ZM430.007 105.806C428.065 105.806 426.489 107.382 426.489 109.324C426.489 111.266 428.065 112.842 430.007 112.842C431.949 112.842 433.525 111.266 433.525 109.324C433.525 107.391 431.949 105.806 430.007 105.806Z" fill="#31317C"/>
<path d="M424.791 78.1396C427.614 78.1396 429.922 80.438 429.922 83.2713C429.922 86.1045 427.624 88.403 424.791 88.403C421.967 88.403 419.659 86.1045 419.659 83.2713C419.659 80.438 421.957 78.1396 424.791 78.1396ZM424.791 79.7438C422.849 79.7438 421.272 81.3199 421.272 83.2619C421.272 85.2039 422.849 86.78 424.791 86.78C426.733 86.78 428.309 85.2039 428.309 83.2619C428.309 81.3199 426.733 79.7438 424.791 79.7438Z" fill="#E7282B"/>
<path d="M409.189 70.9157C409.189 71.3566 409.545 71.7225 409.996 71.7225H413.542C413.983 71.7225 414.349 71.366 414.349 70.9157C414.349 70.4747 413.992 70.1089 413.542 70.1089H409.996C409.545 70.1089 409.189 70.4747 409.189 70.9157Z" fill="#31317C"/>
<path d="M402.978 70.9157C402.978 71.3566 403.335 71.7225 403.785 71.7225H407.331C407.772 71.7225 408.138 71.366 408.138 70.9157C408.138 70.4748 407.782 70.1089 407.331 70.1089H403.785C403.344 70.1089 402.978 70.4748 402.978 70.9157Z" fill="#31317C"/>
<path d="M407.857 65.934V69.1238C407.857 69.5647 408.213 69.9306 408.664 69.9306C409.104 69.9306 409.47 69.5741 409.47 69.1238V65.934C409.47 65.4931 409.114 65.1272 408.664 65.1272C408.223 65.1272 407.857 65.4931 407.857 65.934Z" fill="#31317C"/>
<path d="M407.857 72.7076V75.8973C407.857 76.3383 408.213 76.7041 408.664 76.7041C409.104 76.7041 409.47 76.3476 409.47 75.8973V72.7076C409.47 72.2666 409.114 71.9007 408.664 71.9007C408.223 71.9007 407.857 72.2666 407.857 72.7076Z" fill="#31317C"/>
<path d="M414.977 98.3007C414.977 98.7416 415.334 99.1075 415.784 99.1075H419.321C419.762 99.1075 420.128 98.751 420.128 98.3007C420.128 97.8597 419.771 97.4938 419.321 97.4938H415.775C415.334 97.5032 414.977 97.8597 414.977 98.3007Z" fill="#E7282B"/>
<path d="M408.767 98.3006C408.767 98.7416 409.123 99.1075 409.574 99.1075H413.12C413.561 99.1075 413.927 98.751 413.927 98.3006C413.927 97.8597 413.57 97.4938 413.12 97.4938H409.574C409.123 97.5032 408.767 97.8597 408.767 98.3006Z" fill="#E7282B"/>
<path d="M413.645 93.3284V96.5181C413.645 96.9591 414.002 97.325 414.452 97.325C414.893 97.325 415.259 96.9685 415.259 96.5181V93.3284C415.259 92.8874 414.902 92.5216 414.452 92.5216C414.002 92.5216 413.645 92.8781 413.645 93.3284Z" fill="#E7282B"/>
<path d="M413.645 100.102V103.292C413.645 103.733 414.002 104.098 414.452 104.098C414.893 104.098 415.259 103.742 415.259 103.292V100.102C415.259 99.661 414.902 99.2951 414.452 99.2951C414.002 99.2951 413.645 99.6516 413.645 100.102Z" fill="#E7282B"/>
<path d="M65.9059 65.1929C65.9059 68.0168 63.6074 70.3247 60.7741 70.3247C57.9409 70.3247 55.6424 68.0262 55.6424 65.1929C55.6424 62.369 57.9409 60.0612 60.7741 60.0612C63.6074 60.0612 65.9059 62.369 65.9059 65.1929ZM64.3016 65.1929C64.3016 63.2509 62.7255 61.6748 60.7835 61.6748C58.8415 61.6748 57.2654 63.2509 57.2654 65.1929C57.2654 67.1349 58.8415 68.711 60.7835 68.711C62.7161 68.711 64.3016 67.1349 64.3016 65.1929Z" fill="#31317C"/>
<path d="M89.4819 65.1929C89.4819 68.0168 87.1834 70.3247 84.3501 70.3247C81.5169 70.3247 79.2184 68.0262 79.2184 65.1929C79.2184 62.369 81.5169 60.0612 84.3501 60.0612C87.1834 60.0612 89.4819 62.369 89.4819 65.1929ZM87.8776 65.1929C87.8776 63.2509 86.3015 61.6748 84.3595 61.6748C82.4175 61.6748 80.8414 63.2509 80.8414 65.1929C80.8414 67.1349 82.4175 68.711 84.3595 68.711C86.3015 68.711 87.8776 67.1349 87.8776 65.1929Z" fill="#E7282B"/>
<path d="M98.0287 55.7644C97.5877 55.7644 97.2219 56.1209 97.2219 56.5712V60.1175C97.2219 60.5584 97.5784 60.9243 98.0287 60.9243C98.4696 60.9243 98.8355 60.5678 98.8355 60.1175V56.5712C98.8355 56.1303 98.479 55.7644 98.0287 55.7644Z" fill="#31317C"/>
<path d="M98.0287 49.5631C97.5877 49.5631 97.2219 49.9196 97.2219 50.37V53.9162C97.2219 54.3571 97.5784 54.723 98.0287 54.723C98.4696 54.723 98.8355 54.3665 98.8355 53.9162V50.37C98.8355 49.9196 98.479 49.5631 98.0287 49.5631Z" fill="#31317C"/>
<path d="M103.01 54.4322H99.8206C99.3796 54.4322 99.0137 54.7887 99.0137 55.239C99.0137 55.68 99.3702 56.0458 99.8206 56.0458H103.01C103.451 56.0458 103.817 55.6893 103.817 55.239C103.817 54.7981 103.451 54.4322 103.01 54.4322Z" fill="#31317C"/>
<path d="M96.2367 54.4322H93.047C92.6061 54.4322 92.2402 54.7887 92.2402 55.239C92.2402 55.68 92.5967 56.0458 93.047 56.0458H96.2367C96.6777 56.0458 97.0436 55.6893 97.0436 55.239C97.0436 54.7981 96.6777 54.4322 96.2367 54.4322Z" fill="#31317C"/>
<path d="M71.4974 51.477C71.0564 51.477 70.6906 51.8335 70.6906 52.2838V55.8301C70.6906 56.271 71.0471 56.6369 71.4974 56.6369C71.9383 56.6369 72.3042 56.2804 72.3042 55.8301V52.2838C72.3042 51.8335 71.9383 51.477 71.4974 51.477Z" fill="#E7282B"/>
<path d="M71.4973 45.2663C71.0564 45.2663 70.6905 45.6228 70.6905 46.0732V49.6194C70.6905 50.0604 71.047 50.4262 71.4973 50.4262C71.9383 50.4262 72.3042 50.0697 72.3042 49.6194V46.0732C72.3042 45.6322 71.9383 45.2663 71.4973 45.2663Z" fill="#E7282B"/>
<path d="M76.4791 50.1448H73.2893C72.8484 50.1448 72.4825 50.5013 72.4825 50.9516C72.4825 51.3925 72.839 51.7584 73.2893 51.7584H76.4791C76.92 51.7584 77.2859 51.4019 77.2859 50.9516C77.2765 50.5013 76.92 50.1448 76.4791 50.1448Z" fill="#E7282B"/>
<path d="M69.7055 50.1448H66.5157C66.0748 50.1448 65.7089 50.5013 65.7089 50.9516C65.7089 51.3926 66.0654 51.7584 66.5157 51.7584H69.7055C70.1464 51.7584 70.5123 51.4019 70.5123 50.9516C70.5123 50.5013 70.1464 50.1448 69.7055 50.1448Z" fill="#E7282B"/>
<path d="M398.794 227.692C408.138 209.745 415.024 193.853 419.284 180.39C424.847 162.799 425.907 149.327 422.426 140.33C422.192 139.739 421.526 139.439 420.925 139.664C420.325 139.899 420.034 140.565 420.259 141.165C426.339 156.889 417.37 188.008 394.3 231.229L398.794 227.692Z" fill="#354E9C"/>
<path d="M422.942 164.3C422.942 164.3 431.808 168.166 438 152.311C438 152.311 422.745 150.237 422.942 164.3Z" fill="#354E9C"/>
<path d="M420.165 172.641C420.165 172.641 424.519 164 409.039 156.936C409.039 156.936 406.121 172.05 420.165 172.641Z" fill="#354E9C"/>
<path d="M422.971 147.817C422.971 147.817 429.96 141.128 417.717 129.298C417.717 129.298 409.921 142.573 422.971 147.817Z" fill="#354E9C"/>
<path d="M415.109 189.584C415.109 189.584 422.145 196.226 433.337 183.401C433.337 183.401 419.687 176.29 415.109 189.584Z" fill="#354E9C"/>
<path d="M411 197.652C411 197.652 416.788 189.893 402.753 180.259C402.753 180.259 397.265 194.641 411 197.652Z" fill="#354E9C"/>
<path d="M406.478 209.257C406.478 209.257 413.382 216.031 424.819 203.422C424.819 203.422 411.3 196.057 406.478 209.257Z" fill="#354E9C"/>
<path d="M47.8839 143.952C39.6937 125.442 33.8302 109.155 30.434 95.4487C25.9965 77.5392 25.7901 64.0296 29.8336 55.2672C30.1057 54.6855 30.7905 54.4322 31.3722 54.7043C31.9539 54.9763 32.2072 55.6612 31.9351 56.2429C24.8707 71.5443 31.8507 103.17 52.1337 147.77L47.8839 143.952Z" fill="#354E9C"/>
<path d="M27.8071 79.1528C27.8071 79.1528 18.7163 82.4551 13.5377 66.2343C13.5377 66.2343 28.886 65.1366 27.8071 79.1528Z" fill="#354E9C"/>
<path d="M30.04 87.6526C30.04 87.6526 26.2404 78.7588 42.1423 72.6889C42.1423 72.6889 44.103 87.9528 30.04 87.6526Z" fill="#354E9C"/>
<path d="M28.8204 62.7068C28.8204 62.7068 22.272 55.5861 35.2374 44.5627C35.2374 44.5534 42.1704 58.2974 28.8204 62.7068Z" fill="#354E9C"/>
<path d="M34.0084 104.887C34.0084 104.887 26.5688 111.069 16.2115 97.5595C16.2115 97.5595 30.2933 91.3301 34.0084 104.887Z" fill="#354E9C"/>
<path d="M37.6015 113.199C37.6015 113.199 32.3197 105.093 46.9363 96.3587C46.9363 96.3681 51.4957 111.069 37.6015 113.199Z" fill="#354E9C"/>
<path d="M41.3824 125.076C41.3824 125.076 34.0553 131.399 23.4447 118.087C23.4541 118.087 37.4046 111.585 41.3824 125.076Z" fill="#354E9C"/>
<path d="M108.789 82.2863C108.564 82.2863 108.339 82.2112 108.152 82.0705C107.692 81.714 107.598 81.0573 107.954 80.5882C107.983 80.5507 108.639 79.6875 109.943 78.1959C110.328 77.7549 110.994 77.708 111.435 78.0927C111.876 78.4773 111.923 79.1434 111.538 79.5843C110.281 81.0291 109.643 81.8641 109.634 81.8735C109.418 82.1361 109.108 82.2863 108.789 82.2863Z" fill="#31317C"/>
<path d="M114.916 75.4377C114.653 75.4377 114.381 75.3345 114.174 75.1374C113.762 74.734 113.752 74.0586 114.156 73.6458C114.55 73.2424 114.972 72.8202 115.403 72.3886C115.816 71.9758 116.482 71.9852 116.895 72.398C117.308 72.8108 117.299 73.4769 116.886 73.8897C116.454 74.3119 116.051 74.7247 115.657 75.1281C115.46 75.3345 115.188 75.4377 114.916 75.4377Z" fill="#31317C"/>
<path d="M327.785 72.6325C327.522 72.6325 327.25 72.5294 327.044 72.3323C326.227 71.5349 325.374 70.7187 324.52 69.9213C324.088 69.5272 324.07 68.8611 324.464 68.4296C324.858 67.998 325.524 67.9793 325.955 68.3733C326.828 69.1801 327.691 70.0057 328.517 70.8219C328.929 71.2253 328.939 71.9008 328.535 72.3136C328.338 72.5293 328.066 72.6325 327.785 72.6325ZM119.879 70.6343C119.597 70.6343 119.306 70.5217 119.1 70.2965C118.706 69.865 118.734 69.1989 119.166 68.8048C120.029 68.0168 120.911 67.2194 121.802 66.4407C122.243 66.056 122.909 66.1029 123.293 66.5439C123.678 66.9848 123.631 67.6509 123.19 68.0356C122.308 68.8048 121.436 69.5835 120.592 70.3622C120.395 70.5404 120.132 70.6343 119.879 70.6343ZM321.405 66.769C321.161 66.769 320.917 66.6846 320.72 66.5157C319.848 65.7652 318.947 65.0053 318.047 64.2735C317.596 63.9076 317.531 63.2415 317.897 62.7912C318.262 62.3409 318.929 62.2752 319.379 62.6411C320.289 63.3916 321.199 64.1516 322.09 64.9208C322.531 65.3055 322.578 65.9716 322.203 66.4125C321.996 66.6471 321.696 66.769 321.405 66.769ZM126.436 64.9678C126.127 64.9678 125.827 64.8364 125.62 64.5737C125.254 64.1234 125.32 63.4573 125.77 63.0914C126.68 62.3503 127.609 61.6091 128.538 60.8961C128.998 60.5396 129.664 60.6241 130.02 61.0838C130.377 61.5435 130.292 62.2096 129.832 62.5661C128.913 63.2791 127.994 64.0014 127.102 64.7332C126.905 64.8927 126.671 64.9678 126.436 64.9678ZM314.669 61.3183C314.444 61.3183 314.219 61.2526 314.031 61.1025C313.112 60.3989 312.174 59.7047 311.236 59.0198C310.767 58.6821 310.663 58.016 311.001 57.5469C311.339 57.0778 312.005 56.9652 312.474 57.3123C313.421 58.0066 314.378 58.7102 315.317 59.4232C315.776 59.7797 315.87 60.4364 315.514 60.9055C315.307 61.1682 314.988 61.3183 314.669 61.3183ZM133.322 59.7047C132.994 59.7047 132.675 59.5546 132.469 59.2637C132.131 58.7946 132.234 58.1286 132.703 57.7908C133.651 57.106 134.626 56.4211 135.593 55.755C136.071 55.4267 136.728 55.5486 137.056 56.0271C137.385 56.5055 137.263 57.1622 136.784 57.4906C135.827 58.1473 134.87 58.8228 133.932 59.4983C133.754 59.639 133.538 59.7047 133.322 59.7047ZM307.624 56.271C307.417 56.271 307.22 56.2147 307.033 56.0927C306.076 55.4454 305.091 54.8075 304.115 54.1789C303.627 53.8693 303.477 53.2126 303.796 52.7247C304.106 52.2369 304.762 52.0868 305.25 52.4058C306.245 53.0437 307.239 53.691 308.205 54.3478C308.693 54.6761 308.815 55.3328 308.487 55.8113C308.299 56.1021 307.961 56.271 307.624 56.271ZM140.49 54.8356C140.143 54.8356 139.805 54.6667 139.599 54.3478C139.289 53.8599 139.43 53.2032 139.918 52.8936C140.903 52.265 141.916 51.6365 142.92 51.0267C143.417 50.7264 144.064 50.8859 144.374 51.3832C144.674 51.8804 144.515 52.5277 144.017 52.8373C143.023 53.4377 142.029 54.0569 141.053 54.6855C140.875 54.7793 140.678 54.8356 140.49 54.8356ZM300.297 51.6365C300.118 51.6365 299.931 51.5896 299.762 51.4864C298.767 50.8953 297.745 50.3137 296.741 49.7508C296.234 49.4693 296.047 48.822 296.338 48.3154C296.619 47.8088 297.266 47.6211 297.773 47.912C298.796 48.4842 299.828 49.0753 300.841 49.6757C301.338 49.9759 301.507 50.6233 301.216 51.1205C301.01 51.4582 300.663 51.6365 300.297 51.6365ZM147.92 50.3793C147.554 50.3793 147.188 50.1823 147.001 49.8446C146.719 49.338 146.898 48.6906 147.404 48.4092C148.427 47.8369 149.478 47.2646 150.51 46.7111C151.026 46.439 151.664 46.6361 151.936 47.1521C152.208 47.668 152.011 48.306 151.495 48.5781C150.472 49.1222 149.449 49.6851 148.436 50.248C148.267 50.3324 148.089 50.3793 147.92 50.3793ZM292.716 47.4523C292.557 47.4523 292.388 47.4147 292.238 47.3303C291.206 46.8049 290.164 46.2796 289.123 45.773C288.598 45.5196 288.382 44.8911 288.635 44.3657C288.889 43.8403 289.517 43.6246 290.043 43.8779C291.103 44.3939 292.163 44.9192 293.204 45.4634C293.72 45.726 293.926 46.364 293.654 46.8894C293.467 47.2365 293.101 47.4523 292.716 47.4523ZM155.585 46.3546C155.191 46.3546 154.816 46.1388 154.637 45.7636C154.384 45.2382 154.6 44.6096 155.125 44.3563C156.185 43.8403 157.255 43.3337 158.324 42.8365C158.85 42.5926 159.478 42.8271 159.722 43.3525C159.966 43.8779 159.732 44.5064 159.206 44.7504C158.156 45.2382 157.095 45.7354 156.054 46.242C155.904 46.3171 155.745 46.3546 155.585 46.3546ZM284.901 43.709C284.761 43.709 284.611 43.6809 284.47 43.6152C283.41 43.1461 282.331 42.6864 281.261 42.2455C280.727 42.0203 280.464 41.4011 280.689 40.8664C280.914 40.3316 281.533 40.0689 282.068 40.2941C283.156 40.7444 284.245 41.2135 285.324 41.6919C285.858 41.9265 286.093 42.5551 285.858 43.0804C285.699 43.4745 285.314 43.709 284.901 43.709ZM163.475 42.7708C163.062 42.7708 162.668 42.5269 162.499 42.1235C162.274 41.5887 162.527 40.9696 163.062 40.7444C164.141 40.2941 165.248 39.8438 166.336 39.4122C166.881 39.1964 167.49 39.4685 167.706 40.0126C167.922 40.5568 167.65 41.1666 167.106 41.3824C166.027 41.8045 164.939 42.2455 163.878 42.6958C163.747 42.7427 163.616 42.7708 163.475 42.7708ZM276.889 40.4348C276.767 40.4348 276.646 40.416 276.524 40.3691C275.445 39.9657 274.338 39.5623 273.24 39.1871C272.686 38.9994 272.396 38.3896 272.593 37.8455C272.78 37.292 273.381 37.0011 273.934 37.1981C275.041 37.5828 276.167 37.9862 277.265 38.399C277.809 38.6054 278.09 39.2152 277.884 39.7593C277.715 40.1721 277.312 40.4348 276.889 40.4348ZM171.553 39.6468C171.121 39.6468 170.708 39.3747 170.558 38.9431C170.361 38.3896 170.652 37.7892 171.205 37.5922C172.312 37.1981 173.438 36.8135 174.555 36.4476C175.108 36.2694 175.709 36.5696 175.887 37.1231C176.065 37.6766 175.765 38.277 175.211 38.4553C174.114 38.8118 172.997 39.1964 171.909 39.5811C171.787 39.628 171.675 39.6468 171.553 39.6468ZM268.69 37.6391C268.587 37.6391 268.484 37.6203 268.38 37.5922C267.273 37.2544 266.147 36.9167 265.04 36.6071C264.478 36.4476 264.149 35.866 264.309 35.3031C264.468 34.7402 265.05 34.4118 265.613 34.5713C266.748 34.8903 267.883 35.228 269.009 35.5751C269.562 35.744 269.881 36.335 269.703 36.8979C269.553 37.3483 269.14 37.6391 268.69 37.6391ZM179.799 37.0011C179.339 37.0011 178.917 36.7009 178.786 36.2412C178.626 35.6783 178.945 35.0967 179.508 34.9372C180.634 34.6088 181.779 34.2898 182.914 33.9896C183.477 33.8395 184.058 34.1773 184.208 34.7402C184.358 35.3031 184.021 35.8847 183.458 36.0348C182.341 36.335 181.206 36.6446 180.099 36.9636C179.996 36.9824 179.893 37.0011 179.799 37.0011ZM260.34 35.3312C260.256 35.3312 260.171 35.3218 260.087 35.3031C258.961 35.031 257.826 34.7589 256.691 34.515C256.119 34.393 255.762 33.8301 255.884 33.2579C256.006 32.6856 256.569 32.3291 257.141 32.451C258.286 32.7044 259.449 32.9764 260.584 33.2579C261.147 33.3986 261.494 33.9709 261.353 34.5338C261.25 35.0029 260.819 35.3312 260.34 35.3312ZM188.186 34.8246C187.708 34.8246 187.267 34.4962 187.154 34.0084C187.023 33.4361 187.379 32.8732 187.952 32.7419C189.096 32.4792 190.26 32.2259 191.404 31.9913C191.976 31.8788 192.53 32.2447 192.652 32.8169C192.764 33.3892 192.399 33.9427 191.826 34.0647C190.691 34.2992 189.547 34.5431 188.421 34.8058C188.336 34.8152 188.261 34.8246 188.186 34.8246ZM251.878 33.5018C251.812 33.5018 251.747 33.4924 251.681 33.483C250.546 33.2766 249.392 33.0702 248.247 32.892C247.675 32.7982 247.281 32.254 247.375 31.6818C247.469 31.1095 248.013 30.7154 248.585 30.8093C249.748 30.9969 250.921 31.2033 252.066 31.4097C252.638 31.5129 253.013 32.0664 252.91 32.6387C252.816 33.1547 252.375 33.5018 251.878 33.5018ZM196.677 33.1265C196.17 33.1265 195.729 32.7606 195.635 32.2447C195.541 31.6724 195.926 31.1282 196.498 31.025C197.652 30.828 198.834 30.6404 199.988 30.4715C200.561 30.3871 201.105 30.7905 201.189 31.3628C201.274 31.9351 200.87 32.4792 200.298 32.5636C199.153 32.7325 197.999 32.9107 196.855 33.1078C196.799 33.1265 196.733 33.1265 196.677 33.1265ZM243.322 32.1696C243.275 32.1696 243.228 32.1696 243.191 32.1602C242.046 32.0101 240.883 31.8788 239.729 31.7568C239.147 31.7005 238.725 31.1751 238.791 30.5935C238.847 30.0118 239.372 29.5896 239.954 29.6553C241.127 29.7773 242.309 29.918 243.463 30.0587C244.044 30.1338 244.448 30.6592 244.373 31.2408C244.298 31.785 243.847 32.1696 243.322 32.1696ZM205.251 31.9163C204.726 31.9163 204.266 31.5223 204.201 30.9781C204.135 30.3965 204.548 29.8805 205.129 29.8148C206.293 29.6835 207.475 29.5615 208.648 29.4583C209.229 29.402 209.745 29.8336 209.792 30.4152C209.848 30.9969 209.417 31.5129 208.835 31.5598C207.681 31.663 206.509 31.785 205.364 31.9163C205.326 31.9163 205.289 31.9163 205.251 31.9163ZM234.7 31.3159C234.672 31.3159 234.653 31.3159 234.625 31.3159C233.481 31.2314 232.308 31.1658 231.145 31.1095C230.563 31.0813 230.113 30.5841 230.141 30.0024C230.169 29.4208 230.666 28.9705 231.248 28.9986C232.421 29.0549 233.612 29.1299 234.775 29.2144C235.357 29.2519 235.798 29.7585 235.751 30.3402C235.713 30.8937 235.254 31.3159 234.7 31.3159ZM213.882 31.1845C213.329 31.1845 212.86 30.753 212.832 30.1901C212.794 29.6084 213.245 29.1112 213.826 29.0737C214.999 29.008 216.181 28.9517 217.354 28.9048C217.935 28.886 218.423 29.3363 218.442 29.918C218.461 30.4997 218.01 30.9875 217.429 31.0063C216.275 31.0438 215.102 31.1001 213.948 31.1658C213.92 31.1845 213.901 31.1845 213.882 31.1845ZM226.05 30.9406C226.041 30.9406 226.041 30.9406 226.032 30.9406C224.878 30.9218 223.705 30.9125 222.542 30.9218C221.96 30.9218 221.491 30.4528 221.491 29.8711C221.491 29.2894 221.96 28.811 222.542 28.811C223.714 28.8016 224.906 28.811 226.079 28.8297C226.66 28.8391 227.129 29.3176 227.12 29.8992C227.092 30.4809 226.623 30.9406 226.05 30.9406Z" fill="#31317C"/>
<path d="M332.579 77.6048C332.288 77.6048 332.006 77.4922 331.8 77.2577C331.434 76.8543 331.04 76.4227 330.618 75.9818C330.224 75.5596 330.243 74.8841 330.665 74.4901C331.087 74.0961 331.762 74.1148 332.156 74.537C332.588 74.9967 332.982 75.4283 333.357 75.8411C333.751 76.2726 333.714 76.9387 333.282 77.3327C333.085 77.511 332.832 77.6048 332.579 77.6048Z" fill="#31317C"/>
<path d="M336.528 82.2769C336.209 82.2769 335.89 82.1268 335.675 81.8453C335.665 81.8359 335.037 80.9822 333.798 79.5281C333.423 79.0871 333.479 78.421 333.92 78.0364C334.361 77.6611 335.027 77.7174 335.412 78.1583C336.697 79.6688 337.345 80.5506 337.373 80.5788C337.72 81.0479 337.617 81.7046 337.148 82.0517C336.969 82.2112 336.744 82.2769 336.528 82.2769Z" fill="#31317C"/>
<path d="M136.587 36.2506L127.571 38.399C126.549 38.6429 125.911 39.6749 126.155 40.6975L131.915 64.8552C132.3 66.4501 133.895 67.4351 135.49 67.0505L167.096 59.517C168.063 59.2825 168.654 58.3162 168.428 57.3499L163.062 34.8527C162.865 34.0178 162.021 33.5018 161.186 33.6988L142.751 38.0988L136.587 36.2506Z" fill="#FB9001"/>
<path d="M168.438 57.3593L164.713 41.7295L128.472 50.3699L132.197 65.9997C132.431 66.966 133.397 67.5571 134.364 67.3319L167.115 59.5264C168.072 59.2919 168.663 58.3256 168.438 57.3593Z" fill="#FBAE08"/>
<path d="M130.255 48.9346L130.48 49.9009L162.584 42.2455L162.358 41.2792C161.889 39.309 159.91 38.0894 157.94 38.5585L132.975 44.5064C131.005 44.9849 129.785 46.955 130.255 48.9346Z" fill="white"/>
<path opacity="0.6" d="M159.347 40.7069L159.863 42.8834L158.456 43.2212L157.94 41.0446C157.846 40.66 158.09 40.2659 158.474 40.1721C158.859 40.0783 159.253 40.3222 159.347 40.7069Z" fill="#D2C5E6"/>
<path opacity="0.6" d="M156.167 41.4668L156.683 43.6433L155.275 43.9811L154.759 41.8045C154.666 41.4199 154.909 41.0259 155.294 40.932C155.679 40.8382 156.073 41.0821 156.167 41.4668Z" fill="#D2C5E6"/>
<path opacity="0.6" d="M152.986 42.2267L153.502 44.4032L152.095 44.741L151.579 42.5644C151.485 42.1798 151.729 41.7858 152.114 41.6919C152.508 41.5981 152.902 41.8327 152.986 42.2267Z" fill="#D2C5E6"/>
<path opacity="0.6" d="M149.815 42.9772L150.331 45.1538L148.924 45.4915L148.408 43.315C148.314 42.9303 148.558 42.5363 148.943 42.4425C149.327 42.3487 149.721 42.5926 149.815 42.9772Z" fill="#D2C5E6"/>
<path opacity="0.6" d="M146.635 43.7371L147.151 45.9137L145.744 46.2514L145.228 44.0749C145.134 43.6902 145.378 43.2962 145.762 43.2024C146.147 43.1086 146.541 43.3525 146.635 43.7371Z" fill="#D2C5E6"/>
<path opacity="0.6" d="M143.455 44.4971L143.971 46.6736L142.563 47.0113L142.047 44.8348C141.954 44.4501 142.197 44.0561 142.582 43.9623C142.976 43.8685 143.37 44.1124 143.455 44.4971Z" fill="#D2C5E6"/>
<path opacity="0.6" d="M140.284 45.257L140.8 47.4335L139.392 47.7712L138.876 45.5947C138.783 45.2101 139.026 44.816 139.411 44.7222C139.796 44.6284 140.19 44.8629 140.284 45.257Z" fill="#D2C5E6"/>
<path opacity="0.6" d="M137.103 46.0075L137.619 48.184L136.212 48.5218L135.696 46.3452C135.602 45.9606 135.846 45.5666 136.231 45.4727C136.615 45.3789 137.009 45.6229 137.103 46.0075Z" fill="#D2C5E6"/>
<path opacity="0.6" d="M133.923 46.7674L134.439 48.9439L133.032 49.2817L132.516 47.1051C132.422 46.7205 132.666 46.3265 133.05 46.2327C133.444 46.1388 133.838 46.3828 133.923 46.7674Z" fill="#D2C5E6"/>
<path d="M296.891 32.6012L288.016 29.9274C287.003 29.6272 285.943 30.1901 285.633 31.2033L278.465 54.9763C277.996 56.5431 278.878 58.2036 280.454 58.6727L311.564 68.0543C312.511 68.3451 313.515 67.801 313.806 66.8535L320.486 44.7128C320.73 43.8872 320.27 43.0241 319.444 42.7708L301.3 37.3013L296.891 32.6012Z" fill="#FB9001"/>
<path d="M313.797 66.8535L318.431 51.477L282.762 40.7163L278.128 56.0928C277.837 57.0403 278.381 58.0441 279.329 58.335L311.564 68.0543C312.511 68.3452 313.515 67.8104 313.797 66.8535Z" fill="#FBAE08"/>
<path d="M285.042 40.3691L284.761 41.3167L316.358 50.8484L316.639 49.9009C317.221 47.9589 316.123 45.9137 314.191 45.332L289.62 37.9205C287.669 37.3295 285.624 38.4271 285.042 40.3691Z" fill="white"/>
<path opacity="0.6" d="M314.313 47.8932L313.665 50.0416L312.277 49.6194L312.924 47.471C313.037 47.0864 313.449 46.8706 313.825 46.9832C314.209 47.1052 314.435 47.5086 314.313 47.8932Z" fill="#D2C5E6"/>
<path opacity="0.6" d="M311.189 46.955L310.541 49.1034L309.153 48.6813L309.8 46.5329C309.913 46.1482 310.325 45.9325 310.701 46.045C311.085 46.167 311.301 46.5704 311.189 46.955Z" fill="#D2C5E6"/>
<path opacity="0.6" d="M308.064 46.0075L307.417 48.1559L306.029 47.7337L306.676 45.5853C306.789 45.2007 307.201 44.9849 307.577 45.0975C307.961 45.2194 308.177 45.6229 308.064 46.0075Z" fill="#D2C5E6"/>
<path opacity="0.6" d="M304.931 45.06L304.284 47.2084L302.895 46.7862L303.543 44.6378C303.655 44.2531 304.068 44.0374 304.443 44.1499C304.828 44.2813 305.053 44.6847 304.931 45.06Z" fill="#D2C5E6"/>
<path opacity="0.6" d="M301.807 44.1218L301.16 46.2702L299.771 45.848L300.419 43.6996C300.531 43.315 300.944 43.0992 301.319 43.2118C301.704 43.3337 301.92 43.7372 301.807 44.1218Z" fill="#D2C5E6"/>
<path opacity="0.6" d="M298.683 43.1743L298.036 45.3227L296.647 44.9005L297.294 42.7521C297.407 42.3674 297.82 42.1517 298.195 42.2642C298.58 42.3956 298.795 42.799 298.683 43.1743Z" fill="#D2C5E6"/>
<path opacity="0.6" d="M295.549 42.2361L294.902 44.3845L293.514 43.9623L294.161 41.8139C294.274 41.4293 294.686 41.2135 295.062 41.3261C295.446 41.448 295.671 41.8515 295.549 42.2361Z" fill="#D2C5E6"/>
<path opacity="0.6" d="M292.425 41.2885L291.778 43.4369L290.39 43.0148L291.037 40.8664C291.149 40.4817 291.562 40.2659 291.937 40.3785C292.322 40.5005 292.538 40.9133 292.425 41.2885Z" fill="#D2C5E6"/>
<path opacity="0.6" d="M289.301 40.3504L288.654 42.4988L287.265 42.0766L287.913 39.9282C288.025 39.5436 288.438 39.3278 288.813 39.4404C289.198 39.5623 289.414 39.9657 289.301 40.3504Z" fill="#D2C5E6"/>
<path d="M218.123 11.8584L208.854 11.8865C207.794 11.8865 206.949 12.7496 206.949 13.8004L207.034 38.6335C207.043 40.2753 208.375 41.5981 210.017 41.5888L242.506 41.4762C243.5 41.4762 244.298 40.6694 244.298 39.6749L244.213 16.5492C244.213 15.6861 243.51 14.9918 242.656 15.0012L223.705 15.0669L218.123 11.8584Z" fill="#FB9001"/>
<path d="M244.298 39.6843L244.241 23.6229L206.987 23.7543L207.043 39.8156C207.043 40.8101 207.85 41.6075 208.844 41.6075L242.515 41.4949C243.5 41.4856 244.298 40.6787 244.298 39.6843Z" fill="#FBAE08"/>
<path d="M209.051 22.7598V23.7449L242.046 23.6323V22.6472C242.037 20.6208 240.395 18.9884 238.368 18.9884L212.71 19.0729C210.683 19.0822 209.041 20.7334 209.051 22.7598Z" fill="white"/>
<path opacity="0.6" d="M239.25 21.3995L239.26 23.6417L237.815 23.6511L237.806 21.4089C237.806 21.0148 238.125 20.6865 238.528 20.6865C238.922 20.6771 239.25 21.0055 239.25 21.3995Z" fill="#D2C5E6"/>
<path opacity="0.6" d="M235.985 21.4089L235.995 23.6511L234.55 23.6605L234.541 21.4183C234.541 21.0242 234.86 20.6959 235.263 20.6959C235.657 20.6865 235.985 21.0148 235.985 21.4089Z" fill="#D2C5E6"/>
<path opacity="0.6" d="M232.721 21.4276L232.73 23.6698L231.285 23.6792L231.276 21.437C231.276 21.043 231.595 20.7146 231.998 20.7146C232.392 20.7053 232.721 21.0242 232.721 21.4276Z" fill="#D2C5E6"/>
<path opacity="0.6" d="M229.456 21.437L229.465 23.6792L228.02 23.6886L228.011 21.4464C228.011 21.0524 228.33 20.724 228.734 20.724C229.128 20.7146 229.447 21.0336 229.456 21.437Z" fill="#D2C5E6"/>
<path opacity="0.6" d="M226.182 21.4464L226.191 23.6886L224.746 23.698L224.737 21.4558C224.737 21.0618 225.056 20.7334 225.459 20.7334C225.853 20.724 226.182 21.0524 226.182 21.4464Z" fill="#D2C5E6"/>
<path opacity="0.6" d="M222.917 21.4558L222.926 23.698L221.481 23.7074L221.472 21.4652C221.472 21.0711 221.791 20.7428 222.194 20.7428C222.588 20.7334 222.917 21.0618 222.917 21.4558Z" fill="#D2C5E6"/>
<path opacity="0.6" d="M219.652 21.4652L219.661 23.7074L218.217 23.7168L218.207 21.4745C218.207 21.0805 218.526 20.7522 218.93 20.7522C219.324 20.7428 219.652 21.0711 219.652 21.4652Z" fill="#D2C5E6"/>
<path opacity="0.6" d="M216.387 21.4839L216.397 23.7261L214.952 23.7355L214.943 21.4933C214.943 21.0993 215.261 20.7709 215.665 20.7709C216.068 20.7709 216.387 21.0805 216.387 21.4839Z" fill="#D2C5E6"/>
<path opacity="0.6" d="M213.122 21.4933L213.132 23.7355L211.687 23.7449L211.678 21.5027C211.678 21.1087 211.997 20.7803 212.4 20.7803C212.794 20.7709 213.122 21.0899 213.122 21.4933Z" fill="#D2C5E6"/>
<path d="M43.3618 92.4278V318.806C43.3618 325.899 49.1127 331.65 56.2052 331.65H168.935C172.5 331.65 175.727 330.196 178.054 327.86C180.362 325.533 181.788 322.334 181.788 318.806V92.4278C181.788 85.3353 176.037 79.5843 168.944 79.5843H56.2052C54.1037 79.5843 52.1242 80.0909 50.3792 80.9822C46.2138 83.1024 43.3618 87.4367 43.3618 92.4278Z" fill="#3B3E7D"/>
<path d="M48.1464 92.4278V318.806C48.1464 325.899 53.8974 331.65 60.9899 331.65H173.719C177.285 331.65 180.512 330.196 182.838 327.86C185.146 325.533 186.572 322.334 186.572 318.806V92.4278C186.572 85.3353 180.821 79.5843 173.729 79.5843H60.9992C58.8978 79.5843 56.9182 80.0909 55.1733 80.9822C50.9984 83.1024 48.1464 87.4367 48.1464 92.4278Z" fill="#18285D"/>
<path d="M45.7166 135.264H44.4876C42.5268 135.264 40.9413 133.679 40.9413 131.718V118.377C40.9413 116.417 42.5268 114.831 44.4876 114.831H45.7166V135.264Z" fill="#18285D"/>
<path d="M45.7166 162.002H44.4876C42.5268 162.002 40.9413 160.416 40.9413 158.456V145.115C40.9413 143.154 42.5268 141.569 44.4876 141.569H45.7166V162.002Z" fill="#18285D"/>
<path d="M186.572 135.264H187.539C189.077 135.264 190.325 134.017 190.325 132.478V117.599C190.325 116.06 189.077 114.812 187.548 114.812H186.582V135.264H186.572Z" fill="#18285D"/>
<path d="M54.5541 91.6491V319.585C54.5541 322.719 57.0871 325.242 60.2112 325.242H174.498C176.834 325.242 178.842 323.826 179.705 321.799C179.996 321.114 180.155 320.373 180.155 319.585V91.6491C180.155 88.525 177.622 85.992 174.498 85.992H60.2206C59.8453 85.992 59.4888 86.0295 59.1323 86.0952C58.7383 86.1702 58.3537 86.2922 57.9972 86.4423C56.2522 87.1928 54.9575 88.7971 54.6385 90.7203C54.5822 91.0205 54.5541 91.3395 54.5541 91.6491Z" fill="white"/>
<path d="M117.252 275.82H109.174V302.154C109.174 305.588 106.388 308.374 102.954 308.374C99.5203 308.374 96.734 305.588 96.734 302.154V275.82H88.6564L95.8052 268.821L102.954 261.822L110.103 268.821L117.252 275.82Z" fill="#E5DEF9"/>
<path d="M144.327 294.377H136.249V268.042C136.249 264.609 133.463 261.822 130.029 261.822C126.596 261.822 123.809 264.609 123.809 268.042V294.377H115.732L122.881 301.375L130.029 308.374L137.178 301.375L144.327 294.377Z" fill="#E5DEF9"/>
<path d="M71.4974 115.432C71.4974 116.304 72.2104 117.017 73.0829 117.017H110.956C111.829 117.017 112.542 116.304 112.542 115.432C112.542 114.559 111.829 113.846 110.956 113.846H73.0829C72.2104 113.846 71.4974 114.55 71.4974 115.432Z" fill="#E5DEF9"/>
<path d="M125.207 115.432C125.207 116.304 125.92 117.017 126.793 117.017H164.666C165.539 117.017 166.252 116.304 166.252 115.432C166.252 114.559 165.539 113.846 164.666 113.846H126.793C125.92 113.846 125.207 114.55 125.207 115.432Z" fill="#E5DEF9"/>
<path d="M71.4974 124.26C71.4974 125.132 72.2104 125.845 73.0829 125.845H110.956C111.829 125.845 112.542 125.132 112.542 124.26C112.542 123.387 111.829 122.674 110.956 122.674H73.0829C72.2104 122.674 71.4974 123.387 71.4974 124.26Z" fill="#E5DEF9"/>
<path d="M125.207 124.26C125.207 125.132 125.92 125.845 126.793 125.845H164.666C165.539 125.845 166.252 125.132 166.252 124.26C166.252 123.387 165.539 122.674 164.666 122.674H126.793C125.92 122.674 125.207 123.387 125.207 124.26Z" fill="#E5DEF9"/>
<path d="M71.4974 133.097C71.4974 133.97 72.2104 134.683 73.0829 134.683H110.956C111.829 134.683 112.542 133.97 112.542 133.097C112.542 132.225 111.829 131.512 110.956 131.512H73.0829C72.2104 131.512 71.4974 132.225 71.4974 133.097Z" fill="#E5DEF9"/>
<path d="M125.207 133.097C125.207 133.97 125.92 134.683 126.793 134.683H164.666C165.539 134.683 166.252 133.97 166.252 133.097C166.252 132.225 165.539 131.512 164.666 131.512H126.793C125.92 131.512 125.207 132.225 125.207 133.097Z" fill="#E5DEF9"/>
<path d="M71.4974 141.935C71.4974 142.807 72.2104 143.52 73.0829 143.52H110.956C111.829 143.52 112.542 142.807 112.542 141.935C112.542 141.062 111.829 140.349 110.956 140.349H73.0829C72.2104 140.349 71.4974 141.053 71.4974 141.935Z" fill="#E5DEF9"/>
<path d="M125.207 141.935C125.207 142.807 125.92 143.52 126.793 143.52H164.666C165.539 143.52 166.252 142.807 166.252 141.935C166.252 141.062 165.539 140.349 164.666 140.349H126.793C125.92 140.349 125.207 141.053 125.207 141.935Z" fill="#E5DEF9"/>
<path d="M73.1298 233.875H125.639H128.144H164.629C165.529 233.875 166.261 233.162 166.261 232.289C166.261 231.417 165.529 230.704 164.629 230.704H128.144H73.1298C72.2291 230.704 71.4974 231.417 71.4974 232.289C71.4974 233.162 72.2291 233.875 73.1298 233.875Z" fill="#E5DEF9"/>
<path d="M164.619 239.532H125.629H73.1298C72.2291 239.532 71.4974 240.245 71.4974 241.117C71.4974 241.99 72.2291 242.703 73.1298 242.703H125.639H135.105H164.629C165.529 242.703 166.261 241.99 166.261 241.117C166.252 240.245 165.52 239.532 164.619 239.532Z" fill="#E5DEF9"/>
<path d="M164.619 248.369H129.757H125.629H73.1298C72.2291 248.369 71.4974 249.082 71.4974 249.955C71.4974 250.827 72.2291 251.54 73.1298 251.54H129.767H164.629C165.529 251.54 166.261 250.827 166.261 249.955C166.252 249.082 165.52 248.369 164.619 248.369Z" fill="#E5DEF9"/>
<path d="M169.357 203.825C169.357 206.874 168.109 209.651 166.102 211.659C164.094 213.667 161.317 214.914 158.268 214.914H78.3365C72.2384 214.914 67.2474 209.923 67.2474 203.825C67.2474 202.531 67.4726 201.283 67.8854 200.129C68.4483 198.562 69.3489 197.145 70.5028 195.992C71.9945 194.5 73.9084 193.43 76.0474 192.971C76.6572 175.389 91.1049 161.308 108.836 161.308C120.441 161.308 130.639 167.331 136.465 176.431C138.097 175.915 139.833 175.633 141.644 175.633C142.207 175.633 142.751 175.662 143.295 175.708C151.963 176.543 158.737 183.842 158.737 192.727C158.737 192.727 158.737 192.727 158.737 192.736C164.619 192.989 169.357 197.887 169.357 203.825Z" fill="#E5DEF9"/>
<path opacity="0.1" d="M129.363 183.514C130.329 183.514 131.118 184.302 131.118 185.268V202.615C131.118 204.013 129.982 205.148 128.594 205.148H106.528C105.13 205.148 103.995 204.013 103.995 202.615V183.514H129.363Z" fill="black"/>
<path d="M119.118 184.724H110.572V196.489H119.118V184.724Z" fill="#FB9001"/>
<path d="M109.061 180.259C109.165 177.078 111.773 174.517 114.981 174.517C118.19 174.517 120.798 177.078 120.901 180.259H124.353C124.25 175.183 120.094 171.074 114.981 171.074C109.878 171.074 105.712 175.174 105.609 180.259H109.061Z" fill="#18285D"/>
<path d="M126.014 179.658H103.948C102.55 179.658 101.415 180.793 101.415 182.191V198.881C101.415 200.279 102.55 201.414 103.948 201.414H126.014C127.412 201.414 128.547 200.279 128.547 198.881V182.191C128.538 180.793 127.412 179.658 126.014 179.658ZM116.942 195.222H113.011L113.527 191.301C112.842 190.832 112.392 190.053 112.392 189.162C112.392 187.736 113.555 186.582 114.972 186.582C116.398 186.582 117.552 187.745 117.552 189.162C117.552 190.053 117.101 190.841 116.417 191.301L116.942 195.222Z" fill="#FBAE08"/>
<path d="M160.332 85.9826L154.506 94.8482C152.883 97.325 150.115 98.8073 147.16 98.8073H90.8329C87.8683 98.8073 85.1101 97.3156 83.4871 94.8482L77.6611 85.9826C77.6611 85.0632 78.4116 84.3127 79.331 84.3127H158.662C159.581 84.3127 160.332 85.0632 160.332 85.9826Z" fill="#18285D"/>
<path opacity="0.3" d="M138.736 92.3996H90.317C89.3788 92.3996 88.6095 91.6303 88.6095 90.6922V90.5421C88.6095 89.6039 89.3788 88.8346 90.317 88.8346H138.736C139.674 88.8346 140.443 89.6039 140.443 90.5421V90.6922C140.443 91.6303 139.674 92.3996 138.736 92.3996Z" fill="#E5DEF9"/>
<path opacity="0.3" d="M149.9 90.4952C149.9 91.6773 148.943 92.6342 147.761 92.6342C146.579 92.6342 145.622 91.6773 145.622 90.4952C145.622 89.3131 146.579 88.3562 147.761 88.3562C148.943 88.3562 149.9 89.3131 149.9 90.4952Z" fill="#E5DEF9"/>
<path d="M401.083 92.4278V318.806C401.083 325.899 395.332 331.65 388.24 331.65H275.51C271.945 331.65 268.718 330.196 266.391 327.86C264.083 325.533 262.657 322.334 262.657 318.806V92.4278C262.657 85.3353 268.408 79.5843 275.501 79.5843H388.23C390.332 79.5843 392.311 80.0909 394.056 80.9822C398.231 83.1024 401.083 87.4367 401.083 92.4278Z" fill="#3B3E7D"/>
<path d="M396.299 92.4278V318.806C396.299 325.899 390.548 331.65 383.455 331.65H270.726C267.161 331.65 263.933 330.196 261.607 327.86C259.299 325.533 257.873 322.334 257.873 318.806V92.4278C257.873 85.3353 263.624 79.5843 270.716 79.5843H383.446C385.547 79.5843 387.527 80.0909 389.272 80.9822C393.447 83.1024 396.299 87.4367 396.299 92.4278Z" fill="#18285D"/>
<path d="M398.738 135.264H399.967C401.928 135.264 403.513 133.679 403.513 131.718V118.377C403.513 116.417 401.928 114.831 399.967 114.831H398.738V135.264Z" fill="#18285D"/>
<path d="M257.873 135.264H256.906C255.368 135.264 254.12 134.017 254.12 132.478V117.599C254.12 116.06 255.368 114.812 256.897 114.812H257.863V135.264H257.873Z" fill="#18285D"/>
<path d="M257.873 161.767H256.906C255.368 161.767 254.12 160.52 254.12 158.981V144.102C254.12 142.563 255.368 141.315 256.897 141.315H257.863V161.767H257.873Z" fill="#18285D"/>
<path d="M389.891 91.6491V319.585C389.891 322.719 387.358 325.242 384.234 325.242H269.947C267.611 325.242 265.603 323.826 264.74 321.799C264.449 321.114 264.29 320.373 264.29 319.585V91.6491C264.29 88.525 266.823 85.992 269.947 85.992H384.234C384.609 85.992 384.966 86.0295 385.322 86.0952C385.716 86.1702 386.101 86.2922 386.457 86.4423C388.202 87.1928 389.497 88.7971 389.816 90.7203C389.863 91.0205 389.891 91.3395 389.891 91.6491Z" fill="white"/>
<path d="M279.769 115.432C279.769 116.304 280.482 117.017 281.355 117.017H319.228C320.101 117.017 320.814 116.304 320.814 115.432C320.814 114.559 320.101 113.846 319.228 113.846H281.355C280.482 113.846 279.769 114.55 279.769 115.432Z" fill="#E5DEF9"/>
<path d="M333.479 115.432C333.479 116.304 334.192 117.017 335.065 117.017H372.938C373.811 117.017 374.524 116.304 374.524 115.432C374.524 114.559 373.811 113.846 372.938 113.846H335.065C334.192 113.846 333.479 114.55 333.479 115.432Z" fill="#E5DEF9"/>
<path d="M279.769 124.26C279.769 125.132 280.482 125.845 281.355 125.845H319.229C320.101 125.845 320.814 125.132 320.814 124.26C320.814 123.387 320.101 122.674 319.229 122.674H281.355C280.482 122.674 279.769 123.387 279.769 124.26Z" fill="#E5DEF9"/>
<path d="M333.479 124.26C333.479 125.132 334.192 125.845 335.065 125.845H372.938C373.811 125.845 374.524 125.132 374.524 124.26C374.524 123.387 373.811 122.674 372.938 122.674H335.065C334.192 122.674 333.479 123.387 333.479 124.26Z" fill="#E5DEF9"/>
<path d="M279.769 133.097C279.769 133.97 280.482 134.683 281.355 134.683H319.229C320.101 134.683 320.814 133.97 320.814 133.097C320.814 132.225 320.101 131.512 319.229 131.512H281.355C280.482 131.512 279.769 132.225 279.769 133.097Z" fill="#E5DEF9"/>
<path d="M333.479 133.097C333.479 133.97 334.192 134.683 335.065 134.683H372.938C373.811 134.683 374.524 133.97 374.524 133.097C374.524 132.225 373.811 131.512 372.938 131.512H335.065C334.192 131.512 333.479 132.225 333.479 133.097Z" fill="#E5DEF9"/>
<path d="M279.769 141.935C279.769 142.807 280.482 143.52 281.355 143.52H319.229C320.101 143.52 320.814 142.807 320.814 141.935C320.814 141.062 320.101 140.349 319.229 140.349H281.355C280.482 140.349 279.769 141.053 279.769 141.935Z" fill="#E5DEF9"/>
<path d="M333.479 141.935C333.479 142.807 334.192 143.52 335.065 143.52H372.938C373.811 143.52 374.524 142.807 374.524 141.935C374.524 141.062 373.811 140.349 372.938 140.349H335.065C334.192 140.349 333.479 141.053 333.479 141.935Z" fill="#E5DEF9"/>
<path d="M281.402 276.261H333.911H336.416H372.901C373.802 276.261 374.533 275.548 374.533 274.675C374.533 273.803 373.802 273.09 372.901 273.09H336.416H281.411C280.511 273.09 279.779 273.803 279.779 274.675C279.77 275.557 280.501 276.261 281.402 276.261Z" fill="#E5DEF9"/>
<path d="M372.891 281.927H333.901H281.392C280.492 281.927 279.76 282.64 279.76 283.513C279.76 284.385 280.492 285.098 281.392 285.098H333.901H343.367H372.891C373.792 285.098 374.524 284.385 374.524 283.513C374.524 282.64 373.792 281.927 372.891 281.927Z" fill="#E5DEF9"/>
<path d="M372.891 290.765H338.029H333.901H281.392C280.492 290.765 279.76 291.478 279.76 292.35C279.76 293.223 280.492 293.936 281.392 293.936H338.029H372.891C373.792 293.936 374.524 293.223 374.524 292.35C374.524 291.478 373.792 290.765 372.891 290.765Z" fill="#E5DEF9"/>
<path d="M372.891 299.602H336.406H281.402C280.501 299.602 279.769 300.315 279.769 301.188C279.769 302.06 280.501 302.773 281.402 302.773H333.911H336.416H372.901C373.801 302.773 374.533 302.06 374.533 301.188C374.524 300.306 373.792 299.602 372.891 299.602Z" fill="#E5DEF9"/>
<path d="M356.108 256.663H309.303C306.892 256.663 304.912 254.692 304.912 252.272V175.333C304.912 172.922 306.882 170.943 309.303 170.943H356.108C358.519 170.943 360.498 172.913 360.498 175.333V252.272C360.498 254.692 358.528 256.663 356.108 256.663Z" fill="#E5DEF9"/>
<path d="M312.661 179.846C312.661 178.973 313.318 178.26 314.116 178.26H353.199C353.997 178.26 354.654 178.973 354.654 179.846C354.654 180.718 353.997 181.431 353.199 181.431H314.116C313.309 181.431 312.661 180.718 312.661 179.846Z" fill="#C8C1E6"/>
<path d="M312.661 187.407C312.661 186.535 313.318 185.822 314.116 185.822H353.199C353.997 185.822 354.654 186.535 354.654 187.407C354.654 188.28 353.997 188.993 353.199 188.993H314.116C313.309 188.993 312.661 188.28 312.661 187.407Z" fill="#C8C1E6"/>
<path d="M312.661 194.96C312.661 194.087 313.318 193.374 314.116 193.374H353.199C353.997 193.374 354.654 194.087 354.654 194.96C354.654 195.832 353.997 196.545 353.199 196.545H314.116C313.309 196.545 312.661 195.832 312.661 194.96Z" fill="#C8C1E6"/>
<path d="M312.661 202.521C312.661 201.649 313.318 200.936 314.116 200.936H353.199C353.997 200.936 354.654 201.649 354.654 202.521C354.654 203.394 353.997 204.107 353.199 204.107H314.116C313.309 204.107 312.661 203.394 312.661 202.521Z" fill="#C8C1E6"/>
<path d="M312.661 210.073C312.661 209.201 313.318 208.488 314.116 208.488H353.199C353.997 208.488 354.654 209.201 354.654 210.073C354.654 210.946 353.997 211.659 353.199 211.659H314.116C313.309 211.659 312.661 210.946 312.661 210.073Z" fill="#C8C1E6"/>
<path d="M312.661 217.635C312.661 216.762 313.318 216.049 314.116 216.049H353.199C353.997 216.049 354.654 216.762 354.654 217.635C354.654 218.507 353.997 219.22 353.199 219.22H314.116C313.309 219.22 312.661 218.507 312.661 217.635Z" fill="#C8C1E6"/>
<path d="M312.661 225.187C312.661 224.315 313.318 223.602 314.116 223.602H353.199C353.997 223.602 354.654 224.315 354.654 225.187C354.654 226.06 353.997 226.773 353.199 226.773H314.116C313.309 226.773 312.661 226.06 312.661 225.187Z" fill="#C8C1E6"/>
<path d="M312.661 232.749C312.661 231.876 313.318 231.163 314.116 231.163H353.199C353.997 231.163 354.654 231.876 354.654 232.749C354.654 233.621 353.997 234.334 353.199 234.334H314.116C313.309 234.325 312.661 233.612 312.661 232.749Z" fill="#C8C1E6"/>
<path d="M312.661 240.301C312.661 239.428 313.318 238.715 314.116 238.715H353.199C353.997 238.715 354.654 239.428 354.654 240.301C354.654 241.173 353.997 241.886 353.199 241.886H314.116C313.309 241.886 312.661 241.173 312.661 240.301Z" fill="#C8C1E6"/>
<path d="M312.661 247.853C312.661 246.981 313.318 246.268 314.116 246.268H353.199C353.997 246.268 354.654 246.981 354.654 247.853C354.654 248.726 353.997 249.439 353.199 249.439H314.116C313.309 249.439 312.661 248.726 312.661 247.853Z" fill="#C8C1E6"/>
<path opacity="0.5" d="M350.441 256.663H309.303C306.892 256.663 304.912 254.692 304.912 252.272V175.333C304.912 172.922 306.882 170.943 309.303 170.943H350.441V256.663Z" fill="#C8C1E6"/>
<path d="M344.156 170.023V246.953C344.156 249.364 342.176 251.343 339.765 251.343H292.96C290.549 251.343 288.569 249.364 288.569 246.953V170.023C288.569 167.612 290.549 165.633 292.96 165.633H339.765C342.176 165.633 344.156 167.612 344.156 170.023Z" fill="#E5DEF9"/>
<path d="M296.319 174.536C296.319 173.663 296.975 172.95 297.773 172.95H336.857C337.654 172.95 338.311 173.663 338.311 174.536C338.311 175.408 337.654 176.121 336.857 176.121H297.773C296.966 176.112 296.319 175.399 296.319 174.536Z" fill="#C8C1E6"/>
<path d="M296.319 182.088C296.319 181.215 296.975 180.502 297.773 180.502H336.857C337.654 180.502 338.311 181.215 338.311 182.088C338.311 182.96 337.654 183.673 336.857 183.673H297.773C296.966 183.673 296.319 182.96 296.319 182.088Z" fill="#C8C1E6"/>
<path d="M296.319 189.64C296.319 188.768 296.975 188.055 297.773 188.055H336.857C337.654 188.055 338.311 188.768 338.311 189.64C338.311 190.513 337.654 191.226 336.857 191.226H297.773C296.966 191.226 296.319 190.513 296.319 189.64Z" fill="#C8C1E6"/>
<path d="M296.319 197.202C296.319 196.329 296.975 195.616 297.773 195.616H336.857C337.654 195.616 338.311 196.329 338.311 197.202C338.311 198.074 337.654 198.787 336.857 198.787H297.773C296.966 198.787 296.319 198.074 296.319 197.202Z" fill="#C8C1E6"/>
<path d="M296.319 204.754C296.319 203.881 296.975 203.168 297.773 203.168H336.857C337.654 203.168 338.311 203.881 338.311 204.754C338.311 205.626 337.654 206.339 336.857 206.339H297.773C296.966 206.339 296.319 205.626 296.319 204.754Z" fill="#C8C1E6"/>
<path d="M296.319 212.316C296.319 211.443 296.975 210.73 297.773 210.73H336.857C337.654 210.73 338.311 211.443 338.311 212.316C338.311 213.188 337.654 213.901 336.857 213.901H297.773C296.966 213.901 296.319 213.188 296.319 212.316Z" fill="#C8C1E6"/>
<path d="M296.319 219.868C296.319 218.995 296.975 218.282 297.773 218.282H336.857C337.654 218.282 338.311 218.995 338.311 219.868C338.311 220.74 337.654 221.453 336.857 221.453H297.773C296.966 221.453 296.319 220.74 296.319 219.868Z" fill="#C8C1E6"/>
<path d="M296.319 227.429C296.319 226.557 296.975 225.844 297.773 225.844H336.857C337.654 225.844 338.311 226.557 338.311 227.429C338.311 228.302 337.654 229.015 336.857 229.015H297.773C296.966 229.015 296.319 228.302 296.319 227.429Z" fill="#C8C1E6"/>
<path d="M296.319 234.982C296.319 234.109 296.975 233.396 297.773 233.396H336.857C337.654 233.396 338.311 234.109 338.311 234.982C338.311 235.854 337.654 236.567 336.857 236.567H297.773C296.966 236.567 296.319 235.854 296.319 234.982Z" fill="#C8C1E6"/>
<path d="M296.319 242.543C296.319 241.671 296.975 240.958 297.773 240.958H336.857C337.654 240.958 338.311 241.671 338.311 242.543C338.311 243.416 337.654 244.129 336.857 244.129H297.773C296.966 244.129 296.319 243.416 296.319 242.543Z" fill="#C8C1E6"/>
<path opacity="0.2" d="M292.688 165.633V183.157C292.688 184.752 293.973 186.038 295.568 186.038H320.654C322.24 186.038 323.525 184.752 323.525 183.157V165.633H292.688Z" fill="black"/>
<path d="M309.884 162.818H300.165V176.196H309.884V162.818Z" fill="#FB9001"/>
<path d="M298.439 157.752C298.551 154.14 301.525 151.232 305.165 151.232C308.806 151.232 311.78 154.14 311.892 157.752H315.814C315.701 151.973 310.963 147.31 305.165 147.31C299.358 147.31 294.63 151.973 294.517 157.752H298.439Z" fill="#18285D"/>
<path d="M317.718 157.067H292.632C291.037 157.067 289.751 158.352 289.751 159.947V178.926C289.751 180.521 291.037 181.806 292.632 181.806H317.718C319.304 181.806 320.589 180.521 320.589 178.926V159.947C320.598 158.352 319.304 157.067 317.718 157.067ZM307.408 174.752H302.933L303.524 170.295C302.745 169.76 302.229 168.869 302.229 167.856C302.229 166.233 303.542 164.92 305.165 164.92C306.788 164.92 308.102 166.233 308.102 167.856C308.102 168.869 307.586 169.76 306.807 170.295L307.408 174.752Z" fill="#FBAE08"/>
<path d="M284.113 85.9826L289.939 94.8482C291.562 97.325 294.33 98.8073 297.285 98.8073H353.612C356.577 98.8073 359.335 97.3156 360.958 94.8482L366.784 85.9826C366.784 85.0632 366.034 84.3127 365.114 84.3127H285.783C284.873 84.3127 284.113 85.0632 284.113 85.9826Z" fill="#18285D"/>
<path opacity="0.3" d="M305.71 92.3996H354.128C355.066 92.3996 355.836 91.6303 355.836 90.6922V90.5421C355.836 89.6039 355.066 88.8346 354.128 88.8346H305.71C304.771 88.8346 304.002 89.6039 304.002 90.5421V90.6922C304.012 91.6303 304.771 92.3996 305.71 92.3996Z" fill="#E5DEF9"/>
<path opacity="0.3" d="M296.685 92.6342C297.866 92.6342 298.824 91.6765 298.824 90.4952C298.824 89.3138 297.866 88.3562 296.685 88.3562C295.503 88.3562 294.546 89.3138 294.546 90.4952C294.546 91.6765 295.503 92.6342 296.685 92.6342Z" fill="#E5DEF9"/>
<path d="M247.206 298.749L252.872 306.329C252.872 306.329 251.84 309.716 247.637 312.324L240.864 303.608L247.206 298.749Z" fill="#F9A38F"/>
<path d="M248.585 309.978C248.585 309.978 245.93 309.406 245.029 310.325C244.119 311.245 241.849 323.713 239.719 326.434C237.59 329.154 239.738 330.609 241.042 331.162C242.355 331.716 261.137 312.952 261.137 312.952C261.137 312.952 256.494 306.535 254.251 305.297C252.009 304.049 250.958 308.656 248.585 309.978Z" fill="#31317C"/>
<path d="M212.456 311.761L211.593 321.18C211.593 321.18 208.554 323.009 203.694 322.137L204.491 311.123L212.456 311.761Z" fill="#F9A38F"/>
<path d="M205.411 320.824C205.411 320.824 203.75 318.525 202.409 318.609C201.067 318.685 190.588 326.771 187.032 327.4C183.476 328.029 184.124 330.646 184.752 331.997C185.381 333.339 212.925 332.569 212.925 332.569C212.925 332.569 213.939 323.676 213.075 321.152C212.212 318.609 208.178 321.452 205.411 320.824Z" fill="#31317C"/>
<path d="M217.738 209.473L223.461 256.841C223.461 256.841 228.593 263.811 233.49 272.724C237.599 280.21 248.547 299.621 248.547 299.621L241.924 304.668L205.664 267.095L196.01 209.023L217.738 209.473Z" fill="#0E0C46"/>
<path d="M240.292 304.537C240.883 306.029 241.999 307.051 243.294 307.896L250.977 301.403C250.33 300.043 249.448 298.861 248.36 297.848L240.292 304.537Z" fill="#18285D"/>
<path d="M247.018 211.434C247.018 211.434 236.811 236.539 223.536 256.118C223.536 256.118 221.556 275.172 218.16 285.314C216.678 289.752 213.798 310.795 213.798 310.795L203.731 310.335L206.33 251.831L216.978 209.454L247.018 211.434Z" fill="#18285D"/>
<path d="M202.803 309.988C202.165 311.742 202.343 313.468 202.803 315.213L214.455 315.542C214.952 313.862 215.092 312.164 214.933 310.447L202.803 309.988Z" fill="#3B3E7D"/>
<path d="M197.746 122.177L184.471 143.567H196.545C196.545 143.567 198.862 130.132 197.746 122.177Z" fill="#5C17AE"/>
<path d="M194.49 208.169C194.49 210.223 194.5 211.856 194.509 212.963C199.388 214.276 204.257 215.224 209.135 215.815C209.267 215.834 209.398 215.843 209.52 215.862C209.736 215.89 209.951 215.918 210.167 215.937C210.223 215.946 210.27 215.946 210.327 215.956C211.171 216.049 212.015 216.134 212.86 216.2C217.053 216.547 221.237 216.622 225.431 216.425C225.797 216.406 226.163 216.387 226.529 216.368C226.857 216.35 227.185 216.331 227.523 216.303C227.673 216.293 227.823 216.284 227.973 216.275C228.255 216.256 228.527 216.237 228.808 216.209C234.963 215.712 241.127 214.633 247.281 212.963C247.309 210.542 247.347 205.598 247.356 199.228C247.356 198.881 247.356 198.525 247.356 198.168C247.365 191.141 247.337 182.51 247.253 173.626C247.243 172.922 247.234 172.218 247.225 171.515C247.215 170.699 247.206 169.882 247.196 169.057C247.196 168.916 247.196 168.775 247.187 168.644C247.178 168.456 247.178 168.259 247.178 168.062C247.178 167.678 247.168 167.284 247.159 166.908C247.15 166.346 247.14 165.783 247.131 165.229C247.121 164.807 247.121 164.375 247.112 163.953C247.103 163.109 247.084 162.265 247.074 161.42C246.774 143.783 246.183 127.581 245.048 123.453C244.945 123.068 244.832 122.796 244.72 122.627C244.598 122.44 244.448 122.261 244.279 122.064C244.063 121.82 243.819 121.576 243.547 121.323C241.661 119.588 238.387 117.561 235.057 115.647C234.672 115.422 234.278 115.206 233.893 114.981C233.837 114.953 224.868 111.923 224.812 111.895L215.43 112.551C214.304 113.217 205.429 116.229 204.341 116.914C204.022 117.111 203.703 117.317 203.394 117.514C200.842 119.156 198.675 120.798 197.727 122.186C196.367 124.194 195.532 142.197 195.063 161.786C195.053 162.236 195.044 162.687 195.025 163.137C194.978 165.21 194.931 167.293 194.894 169.376C194.856 171.43 194.819 173.485 194.781 175.521C194.725 178.851 194.678 182.135 194.641 185.296C194.631 185.653 194.631 186.009 194.631 186.366C194.594 189.443 194.566 192.398 194.547 195.157C194.547 195.522 194.537 195.879 194.537 196.226C194.509 200.363 194.481 204.032 194.481 206.977C194.49 207.4 194.49 207.784 194.49 208.169Z" fill="#E7282B"/>
<path d="M211.734 139.908L200.992 139.28C200.992 139.28 200.589 152.32 206.311 151.917C212.025 151.523 211.734 139.908 211.734 139.908Z" fill="#5C17AE"/>
<path d="M236.07 197.596C236.07 197.596 236.061 197.596 236.07 197.596C225.938 197.549 217.288 192.942 211.818 189.077C205.899 184.902 202.315 180.671 202.277 180.634C202.108 180.427 202.127 180.118 202.334 179.949C202.54 179.78 202.85 179.799 203.018 180.005C203.056 180.043 206.574 184.199 212.391 188.299C217.738 192.07 226.191 196.573 236.06 196.62C236.333 196.62 236.548 196.836 236.548 197.108C236.548 197.38 236.333 197.596 236.07 197.596Z" fill="#5C17AE"/>
<path d="M225.506 201.039C216.716 201.039 207.944 196.029 207.55 195.795C207.315 195.663 207.24 195.363 207.371 195.128C207.503 194.894 207.803 194.819 208.038 194.95C208.141 195.006 218.461 200.898 227.598 199.951C227.87 199.922 228.105 200.119 228.133 200.382C228.161 200.654 227.964 200.889 227.701 200.917C226.979 201.001 226.238 201.039 225.506 201.039Z" fill="#5C17AE"/>
<path d="M211.218 185.099L215.834 199.341L222.269 186.591L220.74 130.902L220.675 128.8L218.17 128.453L217.823 131.277L211.218 185.099Z" fill="white"/>
<path d="M217.823 131.277L219.033 132.778L220.74 130.902L220.675 128.8L218.17 128.453L217.823 131.277Z" fill="#EDEDED"/>
<path d="M223.892 125.845L218.976 130.649L215.805 124.71L218.976 119.297L223.892 125.845Z" fill="white"/>
<path d="M226.238 111.369L227.655 112.373C228.039 112.645 228.424 112.936 228.78 113.255C229.859 114.203 230.234 114.859 229.953 116.539C229.906 116.801 229.85 117.017 229.794 117.195L227.11 130.123L218.986 119.287C218.977 119.297 224.878 117.195 226.238 111.369Z" fill="#5C17AE"/>
<path d="M215.524 111.895C215.524 111.895 211.8 115.422 212.897 119.634L214.595 126.783L218.986 119.297C218.976 119.297 215.834 117.383 215.524 111.895Z" fill="#5C17AE"/>
<path d="M179.255 130.62L156.176 128.753C153.549 128.538 151.241 130.498 151.025 133.125L146.016 194.988C145.687 199.069 148.727 202.652 152.808 202.981L233.753 209.539C236.22 209.736 238.387 207.897 238.593 205.429L243.265 147.808C243.434 145.669 241.849 143.792 239.7 143.623L192.483 139.796L179.255 130.62Z" fill="#FB9001"/>
<path d="M238.593 205.439L241.84 165.426L149.027 157.902L145.781 197.915C145.584 200.382 147.423 202.549 149.89 202.756L233.753 209.557C236.22 209.745 238.387 207.906 238.593 205.439Z" fill="#FBAE08"/>
<path d="M154.628 152.864L154.187 158.315L236.389 164.976L236.83 159.525C237.102 156.129 234.578 153.155 231.173 152.874L161.27 147.207C157.874 146.935 154.9 149.468 154.628 152.864Z" fill="white"/>
<path opacity="0.6" d="M229.869 158.831L229.418 164.413L225.816 164.122L226.266 158.54C226.35 157.546 227.223 156.805 228.217 156.88C229.202 156.964 229.953 157.836 229.869 158.831Z" fill="#D2C5E6"/>
<path opacity="0.6" d="M221.735 158.174L221.284 163.756L217.682 163.465L218.132 157.883C218.217 156.889 219.089 156.148 220.083 156.223C221.069 156.307 221.819 157.18 221.735 158.174Z" fill="#D2C5E6"/>
<path opacity="0.6" d="M213.601 157.518L213.15 163.1L209.548 162.809L209.998 157.227C210.083 156.232 210.955 155.491 211.95 155.566C212.935 155.641 213.676 156.523 213.601 157.518Z" fill="#D2C5E6"/>
<path opacity="0.6" d="M205.467 156.851L205.017 162.433L201.414 162.143L201.864 156.561C201.949 155.566 202.821 154.825 203.816 154.9C204.801 154.984 205.542 155.866 205.467 156.851Z" fill="#D2C5E6"/>
<path opacity="0.6" d="M197.324 156.195L196.873 161.777L193.271 161.486L193.721 155.904C193.806 154.909 194.678 154.168 195.672 154.243C196.658 154.328 197.408 155.2 197.324 156.195Z" fill="#D2C5E6"/>
<path opacity="0.6" d="M189.19 155.538L188.739 161.12L185.137 160.829L185.587 155.247C185.672 154.253 186.544 153.512 187.539 153.587C188.524 153.671 189.274 154.544 189.19 155.538Z" fill="#D2C5E6"/>
<path opacity="0.6" d="M181.056 154.872L180.606 160.454L177.003 160.163L177.453 154.581C177.538 153.587 178.41 152.845 179.405 152.921C180.39 153.005 181.131 153.887 181.056 154.872Z" fill="#D2C5E6"/>
<path opacity="0.6" d="M172.922 154.215L172.472 159.797L168.869 159.506L169.32 153.924C169.404 152.93 170.276 152.189 171.271 152.264C172.256 152.348 172.997 153.221 172.922 154.215Z" fill="#D2C5E6"/>
<path opacity="0.6" d="M164.779 153.558L164.328 159.141L160.726 158.85L161.176 153.268C161.261 152.273 162.133 151.532 163.128 151.607C164.113 151.692 164.863 152.564 164.779 153.558Z" fill="#D2C5E6"/>
<path d="M162.621 204.107L161.458 205.852C161.458 205.852 157.527 206.049 156.955 204.463C156.748 203.881 156.804 203.215 157.255 202.878L162.621 204.107Z" fill="#F9856B"/>
<path d="M166.271 209.173C164.385 209.651 162.358 208.957 161.28 207.343C160.707 206.49 160.36 205.336 160.613 203.825C161.383 199.284 163.447 195.907 165.248 196.611C165.923 196.873 166.12 199.472 165.492 201.452C165.492 201.452 166.486 199.275 166.796 196.864C167.106 194.453 170.145 195.222 169.77 198.262C169.395 201.302 169.132 201.771 169.132 201.771C169.132 201.771 170.201 199.369 170.211 197.887C170.22 196.404 172.556 196.526 172.406 199.425C172.34 200.767 172.247 202.315 172.247 202.315C172.247 202.315 172.678 200.354 172.903 199.341C173.138 198.328 174.395 197.558 174.855 199.66C175.211 201.32 175.877 205.861 173.72 206.893C172.256 207.597 168.513 208.6 166.271 209.173Z" fill="#F9A38F"/>
<path d="M201.47 207.962C201.508 206.424 204.82 206.809 206.527 206.049C208.235 205.279 212.287 202.606 211.64 201.771C210.993 200.936 209.942 200.27 209.257 199.716C208.572 199.172 208.15 197.708 208.957 197.605C209.773 197.511 212.231 198.872 213.207 199.772C213.554 200.091 214.154 201.105 214.567 201.639C215.205 202.484 216.031 203.065 216.969 203.253C217.926 202.418 218.967 201.48 219.624 201.039C220.975 201.236 225.319 204.867 224.024 207.456C222.692 208.985 220.74 210.693 220.74 210.693C213.826 215.965 210.083 215.346 208.535 215.186C206.987 215.017 206.827 213.338 206.827 213.338C205.439 212.869 205.542 211.509 205.542 211.509C203.384 210.758 203.825 209.304 203.825 209.304C203.825 209.304 201.442 209.501 201.47 207.962Z" fill="#F9A38F"/>
<path d="M244.814 122.674C244.814 122.674 257.085 146.644 251.362 182.707C251.362 182.707 244.269 199.275 224.962 207.737L219.08 201.545C219.08 201.545 233.105 192.342 240.292 177.491L237.411 133.895C237.411 133.904 238.434 129.072 244.814 122.674Z" fill="#5C17AE"/>
<path d="M207.446 84.9788C207.446 84.9788 201.817 83.018 202.38 78.6368C202.859 74.9123 206.987 77.3234 206.63 74.4151C206.264 71.5068 205.458 68.8611 209.013 68.1294C212.128 67.4914 212.175 69.7524 216.265 66.4782C221.087 62.613 224.802 71.563 229.109 71.8351C235.46 72.2291 236.267 76.0381 236.886 79.0777C237.515 82.1174 234.437 85.6918 234.437 85.6918L207.446 84.9788Z" fill="#18285D"/>
<path d="M208.394 91.3676C208.394 91.3676 206.03 88.2154 204.275 90.8235C202.521 93.4222 204.998 101.115 209.304 99.2388L208.394 91.3676Z" fill="#F9856B"/>
<path d="M208.357 96.8653C208.197 96.8653 208.056 96.7621 208.009 96.6026C207.343 94.229 204.885 93.2627 204.857 93.2534C204.67 93.1783 204.576 92.9719 204.651 92.7843C204.726 92.5966 204.932 92.5028 205.12 92.5685C205.232 92.6154 207.944 93.6661 208.713 96.3962C208.769 96.5932 208.657 96.7902 208.46 96.8465C208.422 96.8559 208.394 96.8653 208.357 96.8653Z" fill="#D9564C"/>
<path d="M205.88 95.6644C205.814 95.6644 205.748 95.6457 205.683 95.6081C205.514 95.4955 205.467 95.2704 205.57 95.1015C205.589 95.0734 206.021 94.4073 206.931 94.0039C207.109 93.9194 207.325 94.0039 207.409 94.1915C207.493 94.3698 207.409 94.5855 207.221 94.67C206.518 94.9889 206.18 95.4956 206.171 95.4956C206.114 95.6081 205.992 95.6644 205.88 95.6644Z" fill="#D9564C"/>
<path d="M232.721 91.3676C232.721 91.3676 235.085 88.2154 236.839 90.8235C238.593 93.4222 236.117 101.115 231.811 99.2388L232.721 91.3676Z" fill="#F9856B"/>
<path d="M232.749 96.8653C232.908 96.8653 233.049 96.7621 233.096 96.6026C233.762 94.229 236.22 93.2627 236.248 93.2534C236.436 93.1783 236.53 92.9719 236.454 92.7843C236.379 92.5966 236.173 92.5028 235.985 92.5685C235.873 92.6154 233.162 93.6661 232.392 96.3962C232.336 96.5932 232.449 96.7902 232.646 96.8465C232.683 96.8559 232.721 96.8653 232.749 96.8653Z" fill="#D9564C"/>
<path d="M235.235 95.6644C235.301 95.6644 235.366 95.6457 235.432 95.6081C235.601 95.4955 235.648 95.2704 235.544 95.1015C235.526 95.0734 235.094 94.4073 234.184 94.0039C234.006 93.9194 233.79 94.0039 233.706 94.1915C233.621 94.3698 233.706 94.5855 233.893 94.67C234.597 94.9889 234.935 95.4956 234.944 95.4956C235 95.6081 235.113 95.6644 235.235 95.6644Z" fill="#D9564C"/>
<path d="M226.369 105.759V113.405C226.369 113.405 222.072 119.222 218.789 119.222C216.199 119.222 215.186 114.212 215.186 114.212V106.294L226.369 105.759Z" fill="#F9A38F"/>
<path d="M226.369 105.759V109.155C224.296 111.454 220.628 112.026 215.186 111.219V106.294L226.369 105.759Z" fill="#F9856B"/>
<path d="M234.428 86.1233C234.287 89.0973 234.006 92.8124 233.434 95.777V95.7864C233.434 95.7958 233.434 95.8052 233.424 95.8145C233.424 95.8145 233.424 95.8145 233.424 95.8239C233.283 96.5463 233.124 97.2312 232.955 97.841C232.852 98.1975 232.739 98.5821 232.617 98.9668C230.807 104.652 226.604 112.88 216.049 109.118C211.603 107.532 209.295 102.945 208.113 97.9629C208.047 97.6627 207.981 97.3719 207.925 97.0904C207.887 96.9028 207.85 96.7152 207.812 96.5369L207.765 96.2742C207.756 96.2273 207.747 96.1992 207.747 96.1804C207.747 96.171 207.747 96.1616 207.747 96.1616C207.052 92.3339 206.949 88.4593 206.996 85.7011C207.052 82.8773 208.591 80.2973 211.049 78.9088C217.701 75.1374 224.718 76.5447 229.334 78.3178C232.542 79.5468 234.597 82.699 234.428 86.1233Z" fill="#F9A38F"/>
<path d="M233.434 95.7864L231.811 95.6738C231.811 95.6738 230.882 97.5877 229.521 99.6985C228.161 96.6964 221.575 98.8823 221.575 98.8823C221.162 99.0137 220.731 99.0887 220.299 99.0887C219.877 99.0887 219.464 99.023 219.061 98.9011L219.033 98.8917C219.033 98.8917 212.372 96.7996 211.058 99.9518C210.252 98.7228 209.595 97.3344 209.304 95.8708L207.747 96.1804C207.747 96.1804 207.747 96.1898 207.747 96.1992C207.747 96.2179 207.756 96.2461 207.765 96.293L207.812 96.5557C207.85 96.7339 207.887 96.9216 207.925 97.1092C207.981 97.3906 208.047 97.6815 208.113 97.9817C209.295 102.963 211.603 107.551 216.049 109.136C226.604 112.898 230.797 104.671 232.617 98.9855C232.983 97.4563 233.359 96.0866 233.424 95.8427C233.424 95.8427 233.424 95.8427 233.424 95.8333C233.434 95.8052 233.434 95.7958 233.434 95.7864C233.443 95.7864 233.443 95.7864 233.434 95.7864ZM226.472 103.583C225.956 104.07 225.44 104.483 224.915 104.765C221.988 106.35 221.678 106.106 220.515 106.153C219.342 106.209 217.719 105.862 216.078 104.943C215.562 104.652 214.802 104.099 213.967 103.339C213.967 103.339 212.785 99.2857 220.318 100.299C227.87 99.0043 226.594 102.785 226.472 103.583Z" fill="#18285D"/>
<path d="M226.594 91.6585C226.594 92.4747 226.172 93.1408 225.656 93.1408C225.14 93.1408 224.718 92.4747 224.718 91.6585C224.718 90.8423 225.14 90.1762 225.656 90.1762C226.172 90.1762 226.594 90.8423 226.594 91.6585Z" fill="#18285D"/>
<path d="M215.186 91.6585C215.186 92.4747 214.764 93.1408 214.248 93.1408C213.732 93.1408 213.31 92.4747 213.31 91.6585C213.31 90.8423 213.732 90.1762 214.248 90.1762C214.764 90.1762 215.186 90.8423 215.186 91.6585Z" fill="#18285D"/>
<path d="M229.55 86.6674C229.55 86.6674 225.666 85.1289 222.682 86.4235L222.982 88.0841C222.982 88.0841 227.373 87.7088 229.578 88.6094C229.775 87.9809 229.803 87.3335 229.55 86.6674Z" fill="#18285D"/>
<path d="M211.096 86.6768C211.096 86.6768 215.008 85.1289 218.02 86.4329L217.719 88.1122C217.719 88.1122 213.301 87.7369 211.077 88.6376C210.871 87.9902 210.843 87.3429 211.096 86.6768Z" fill="#18285D"/>
<path d="M220.618 98.2631C221.228 98.2631 221.838 98.0286 221.932 97.9817C222.119 97.9066 222.204 97.6909 222.129 97.5126C222.054 97.325 221.838 97.2405 221.66 97.3156C221.331 97.4469 220.543 97.6533 220.205 97.4563C220.14 97.4188 220.046 97.3344 220.027 97.1186C219.896 95.8521 220.243 91.6022 220.243 91.5553C220.262 91.3583 220.112 91.18 219.915 91.1612C219.718 91.1425 219.539 91.2926 219.521 91.4896C219.502 91.6679 219.164 95.852 219.305 97.1842C219.361 97.6908 219.624 97.9442 219.83 98.0755C220.055 98.2068 220.337 98.2631 220.618 98.2631Z" fill="#F9856B"/>
<path d="M216.049 101.031C216.322 102.419 217.241 104.971 220.328 104.971C223.423 104.971 224.287 102.635 224.587 101.031H216.049Z" fill="white"/>
<path d="M234.428 86.1233C234.287 89.0973 234.006 92.8124 233.434 95.777L231.811 95.6644C231.811 95.6644 232.205 93.1595 232.383 91.5177C232.561 89.8853 232.871 86.8269 231.482 86.4423C230.094 86.067 230.91 82.577 228.968 81.0666C227.035 79.5562 222.701 79.134 219.849 80.8977C216.997 82.6521 213.779 80.7664 212.466 81.0666C211.143 81.3668 209.36 83.1868 209.839 84.8849C210.327 86.5736 208.872 87.6056 208.516 89.36C208.159 91.1143 209.285 95.8333 209.285 95.8333L207.737 96.1429C207.043 92.3152 206.93 88.4499 206.987 85.6824C207.043 82.8585 208.582 80.2785 211.04 78.8901C217.691 75.1186 224.709 76.5259 229.324 78.299C232.542 79.5468 234.597 82.699 234.428 86.1233Z" fill="#18285D"/>
<path d="M70.7375 334.53H50.8109C48.0996 334.53 45.6979 332.457 44.863 329.398L36.4101 298.495C36.063 297.229 36.8042 295.915 37.9206 295.812C53.3064 294.395 68.5422 294.395 83.6278 295.812C84.7443 295.915 85.4854 297.229 85.1383 298.495L76.6854 329.398C75.8505 332.457 73.4488 334.53 70.7375 334.53Z" fill="#E7282B"/>
<path d="M83.3745 298.054C83.3745 298.88 73.3174 299.546 60.9149 299.546C48.5124 299.546 38.4553 298.88 38.4553 298.054C38.4553 297.229 48.5124 296.563 60.9149 296.563C73.3174 296.563 83.3745 297.229 83.3745 298.054Z" fill="#18285D"/>
<path d="M86.3484 256.287C78.2709 254.158 65.9153 270.932 62.172 287.284V263.464C64.0577 260.124 67.6509 255.096 74.1805 249.776C84.3314 241.511 93.6661 230.901 85.5698 228.771C77.98 226.773 66.6376 241.436 62.172 256.766V226.163C63.476 224.136 65.6244 221.472 69.0487 218.686C75.447 213.479 81.3293 206.79 76.2257 205.448C71.7975 204.285 65.3336 212.119 62.172 220.956V211.04C62.6974 207.972 63.4385 203.591 65.4649 199.106C70.1651 188.73 72.7076 178.035 66.5063 178.823C60.2957 179.621 56.271 198.102 59.6671 212.297V217.4C57.378 207.015 49.5068 196.254 44.375 197.615C39.2714 198.956 45.1631 205.645 51.552 210.852C56.4211 214.82 58.7008 218.526 59.6671 220.525V244.626C55.9895 228.189 43.5495 211.227 35.425 213.366C27.3286 215.496 36.6727 226.107 46.8143 234.372C54.4791 240.62 58.1004 246.474 59.6577 249.654V278.559C55.7268 262.423 43.6058 246.136 35.6408 248.238C27.5444 250.367 34.4868 258.126 45.8949 267.498C53.6441 273.868 57.8002 280.595 59.6577 284.244V297.857C60.5584 298.111 61.4121 298.111 62.1626 297.857V292.435C63.7481 289.226 67.3788 283.438 74.9498 277.274C85.1007 269.028 94.4448 258.426 86.3484 256.287Z" fill="#31317C"/>
</svg>
