<svg width="27" height="27" viewBox="0 0 27 27" fill="none" xmlns="http://www.w3.org/2000/svg">
<g id="Group 36363">
<g id="Group">
<path id="Vector" d="M0.462891 13.4268C0.462891 9.38955 0.462891 5.35233 0.462891 1.31512C0.462891 0.704079 0.609297 0.558594 1.2242 0.558594C6.83156 0.558594 12.4389 0.558594 18.0463 0.558594C18.6538 0.558594 18.8003 0.711353 18.8003 1.31512C18.8003 9.39683 18.8003 17.4785 18.8003 25.5675C18.8003 26.1931 18.6538 26.3386 18.0243 26.3386C12.4243 26.3386 6.83156 26.3386 1.23152 26.3386C0.609297 26.3386 0.462891 26.1931 0.462891 25.5675C0.462891 21.5158 0.462891 17.4713 0.462891 13.4268ZM17.7168 1.62791C17.5924 1.62791 17.5046 1.62791 17.4167 1.62791C12.2193 1.62791 7.0292 1.62791 1.83179 1.62064C1.5829 1.62064 1.53166 1.68611 1.53166 1.92616C1.53898 9.60778 1.53898 17.2894 1.53166 24.971C1.53166 25.2111 1.59754 25.2766 1.83911 25.2766C7.03652 25.2693 12.2266 25.2693 17.424 25.2693C17.5192 25.2693 17.6217 25.262 17.7242 25.2547C17.7169 17.3767 17.7168 9.52049 17.7168 1.62791Z" fill="white"/>
<path id="Vector_2" d="M23.1267 22.5785C21.3332 22.5785 19.8765 21.1309 19.8838 19.3341C19.8838 17.6174 21.3479 16.148 23.0755 16.1407C24.8836 16.1262 26.3476 17.5665 26.355 19.356C26.355 21.1309 24.9129 22.5712 23.1267 22.5785ZM22.0945 21.2254C22.8193 21.7346 24.0198 21.5601 24.7006 20.8108C25.3448 20.1052 25.4692 18.9122 24.9787 18.3448C24.0198 19.305 23.0535 20.2652 22.0945 21.2254ZM21.2527 20.3889C22.219 19.4214 23.1926 18.454 24.1589 17.4937C23.3683 16.9991 22.2483 17.1591 21.5528 17.8866C20.8867 18.5776 20.7623 19.7197 21.2527 20.3889Z" fill="#0078CA"/>
<path id="Vector_3" d="M25.3155 9.10448C25.2936 10.1593 24.5176 11.054 23.4781 11.2067C22.4021 11.3668 21.3845 10.7194 21.0844 9.65733C20.7623 8.50799 20.4549 7.34411 20.1474 6.1875C20.0669 5.88926 19.979 5.59101 19.9205 5.29277C19.7228 4.1798 20.4109 3.13231 21.5163 2.84861C22.5924 2.57219 23.7563 3.16868 24.0711 4.23072C24.5103 5.7074 24.8836 7.2059 25.2789 8.69712C25.3082 8.82806 25.3009 8.96627 25.3155 9.10448ZM21.4138 6.76217C22.1239 6.57304 22.8047 6.39118 23.5001 6.20205C23.3464 5.63466 23.2146 5.09636 23.0462 4.57261C22.8706 4.02704 22.3069 3.74335 21.7579 3.88883C21.2089 4.03432 20.8575 4.56534 20.9746 5.11818C21.099 5.65648 21.2601 6.1875 21.4138 6.76217ZM21.6847 7.80239C21.853 8.3916 21.9848 8.959 22.1751 9.50457C22.3581 10.0138 22.9364 10.2611 23.4562 10.1083C23.9613 9.96285 24.3127 9.44637 24.2029 8.9299C24.0931 8.36978 23.9247 7.82421 23.7783 7.24954C23.0829 7.4314 22.4094 7.60598 21.6847 7.80239Z" fill="#0078CA"/>
<path id="Vector_4" d="M5.29426 3.24223C6.48747 3.23495 7.46107 4.19516 7.46839 5.38086C7.47571 6.55929 6.49479 7.54132 5.3089 7.54132C4.12301 7.54132 3.14941 6.57384 3.14941 5.38814C3.15673 4.20971 4.12301 3.2495 5.29426 3.24223ZM4.24014 5.39541C4.24014 5.9919 4.72328 6.46473 5.32355 6.46473C5.91649 6.45745 6.39963 5.97735 6.39231 5.38086C6.39231 4.79165 5.90185 4.31882 5.3089 4.31882C4.70132 4.32609 4.24014 4.79892 4.24014 5.39541Z" fill="#0078CA"/>
<path id="Vector_5" d="M3.15625 12.9048C3.15625 11.7191 4.12253 10.7662 5.32306 10.7735C6.50163 10.7808 7.46791 11.7337 7.46791 12.9121C7.47523 14.0905 6.49431 15.0653 5.30842 15.0653C4.12253 15.0653 3.15625 14.0978 3.15625 12.9048ZM4.23966 12.9121C4.23966 13.5086 4.71547 13.9887 5.30842 13.9887C5.89404 13.9887 6.3845 13.5013 6.39182 12.9121C6.39182 12.3229 5.90868 11.8355 5.31574 11.8355C4.71548 11.8355 4.23966 12.3156 4.23966 12.9121Z" fill="white"/>
<path id="Vector_6" d="M5.30895 23.1088C4.11574 23.1088 3.15678 22.1413 3.1641 20.9556C3.17142 19.7845 4.13038 18.8243 5.30895 18.8243C6.49484 18.817 7.47576 19.7917 7.47576 20.9702C7.47576 22.1486 6.50216 23.1161 5.30895 23.1088ZM6.39236 20.9702C6.39236 20.381 5.9019 19.8936 5.31627 19.8936C4.72333 19.8936 4.24019 20.3737 4.24019 20.9702C4.24019 21.5667 4.71601 22.0468 5.30895 22.0468C5.9019 22.0395 6.39236 21.5594 6.39236 20.9702Z" fill="#0078CA"/>
<path id="Vector_7" d="M16.0993 5.3881C16.0993 6.5738 15.133 7.54855 13.9471 7.54128C12.7612 7.54128 11.7876 6.55925 11.795 5.38082C11.8023 4.20239 12.7612 3.24946 13.9398 3.24219C15.133 3.24219 16.092 4.19512 16.0993 5.3881ZM13.9545 4.32605C13.3542 4.31878 12.871 4.79161 12.8637 5.38082C12.8564 5.96276 13.3469 6.45741 13.9325 6.46469C14.5254 6.47196 15.0159 5.99186 15.0232 5.40264C15.0305 4.80615 14.5547 4.32605 13.9545 4.32605Z" fill="white"/>
<path id="Vector_8" d="M16.0993 20.9551C16.1066 22.1481 15.1477 23.1083 13.9545 23.1083C12.7612 23.1083 11.7876 22.1481 11.795 20.9624C11.795 19.7767 12.7686 18.8092 13.9618 18.8164C15.1403 18.8237 16.092 19.7767 16.0993 20.9551ZM15.0232 20.9769C15.0305 20.3877 14.5474 19.9003 13.9545 19.893C13.3688 19.8858 12.871 20.3731 12.8637 20.9551C12.8564 21.537 13.3395 22.0317 13.9325 22.0389C14.5254 22.0462 15.0159 21.5734 15.0232 20.9769Z" fill="white"/>
<path id="Vector_9" d="M16.0993 12.9016C16.1066 14.0946 15.1476 15.0548 13.9544 15.0621C12.7685 15.0621 11.7949 14.0946 11.7949 12.9161C11.7949 11.7377 12.7539 10.7848 13.9325 10.7775C15.133 10.763 16.0919 11.7086 16.0993 12.9016ZM15.0232 12.938C15.0451 12.3488 14.5766 11.8541 13.9764 11.8323C13.3907 11.8105 12.8856 12.2833 12.8637 12.8725C12.8417 13.4544 13.3249 13.9564 13.9105 13.9782C14.4961 14.0073 15.0012 13.5345 15.0232 12.938Z" fill="#0078CA"/>
<path id="Vector_10" d="M10.1693 5.40334C10.1693 5.90527 10.1693 6.39992 10.1693 6.90184C10.1693 7.29465 9.94241 7.54925 9.62032 7.54198C9.30555 7.5347 9.08594 7.28738 9.08594 6.90912C9.08594 5.89799 9.08594 4.89414 9.08594 3.88302C9.08594 3.48294 9.30555 3.24289 9.63496 3.25016C9.95705 3.25744 10.162 3.49021 10.1693 3.87575C10.1693 4.38495 10.1693 4.89414 10.1693 5.40334Z" fill="white"/>
<path id="Vector_11" d="M10.169 20.439C10.169 20.9482 10.169 21.4574 10.169 21.9666C10.169 22.3449 9.95668 22.5777 9.61995 22.5704C9.29786 22.5631 9.08557 22.3449 9.08557 21.9739C9.07825 20.9482 9.07825 19.9226 9.08557 18.8969C9.08557 18.5114 9.30518 18.2859 9.63459 18.2931C9.964 18.3004 10.1617 18.5259 10.169 18.9187C10.169 19.4207 10.169 19.9298 10.169 20.439Z" fill="white"/>
<path id="Vector_12" d="M10.1693 12.9262C10.1693 13.4282 10.1693 13.9228 10.1693 14.4247C10.1693 14.8248 9.94973 15.0649 9.62032 15.0576C9.29823 15.0503 9.09326 14.8103 9.08594 14.4247C9.08594 13.4136 9.08594 12.4098 9.08594 11.3986C9.08594 10.9986 9.29823 10.7585 9.64228 10.7658C9.97169 10.7731 10.1693 11.0058 10.1693 11.3914C10.1693 11.9078 10.1693 12.417 10.1693 12.9262Z" fill="white"/>
</g>
</g>
</svg>
