<svg width="21" height="32" viewBox="0 0 21 32" fill="none" xmlns="http://www.w3.org/2000/svg">
<g id="Group">
<path id="Vector" d="M20.3176 9.57536C19.2148 6.6233 18.1121 3.67124 16.9956 0.726029C16.8929 0.465754 16.6874 0.239726 16.5299 0C12.5299 0 8.52303 0 4.52303 0C4.36549 0.20548 4.14631 0.383562 4.05727 0.60959C2.92028 3.60275 1.80384 6.60275 0.680554 9.60276C0.029868 11.3288 -0.182461 13.1096 0.166855 14.9178C0.865486 18.5274 2.93398 21.0411 6.3381 22.4247C7.07098 22.7192 7.85865 22.8768 8.65317 23.1028C8.65317 24.3836 8.65317 25.7055 8.65317 27.0274C8.65317 27.7055 8.49564 27.9384 7.8792 28.1987C7.02303 28.5548 6.16002 28.911 5.30385 29.2809C4.72851 29.5274 4.46823 30.0343 4.59152 30.6233C4.70796 31.1713 5.16686 31.5275 5.7833 31.5275C8.92029 31.5275 12.0641 31.5275 15.2011 31.5275C15.3244 31.5275 15.4477 31.5206 15.5641 31.4932C16.0641 31.3631 16.3861 30.9727 16.4272 30.459C16.4751 29.9453 16.2011 29.5001 15.6737 29.274C14.8176 28.911 13.9545 28.5548 13.0915 28.1987C12.5025 27.9521 12.3381 27.7055 12.3381 27.0754C12.3381 25.8357 12.3381 24.5891 12.3381 23.3494C12.3381 23.2466 12.3381 23.1507 12.3381 23.0548C12.3998 23.0411 12.4271 23.0343 12.4545 23.0343C14.4066 22.7398 16.16 21.9795 17.6326 20.6576C20.8107 17.7946 21.8176 13.5822 20.3176 9.57536ZM5.13947 1.23288C5.2696 1.23288 5.38604 1.23288 5.49563 1.23288C8.83125 1.23288 12.1669 1.23973 15.5025 1.22603C15.7902 1.22603 15.8998 1.32192 15.9956 1.58219C17.0778 4.50686 18.1806 7.43152 19.2696 10.3493C19.3244 10.5 19.3724 10.6576 19.4477 10.8973C18.934 11.1028 18.4272 11.3493 17.8998 11.5137C16.5025 11.9384 15.0915 11.8836 13.6806 11.5617C12.3792 11.2603 11.208 10.6507 10.0093 10.0959C8.40659 9.35618 6.72851 8.94522 4.95453 9.00002C4.07782 9.02741 3.2285 9.19865 2.40658 9.50687C2.2833 9.55481 2.16686 9.59591 1.98193 9.6644C3.04357 6.82193 4.09152 4.0274 5.13947 1.23288ZM12.5367 29.3083C13.2285 29.5959 13.9135 29.8836 14.6052 30.1713C14.66 30.1918 14.708 30.2192 14.8313 30.2809C11.9134 30.2809 9.07783 30.2809 6.16002 30.2809C6.3244 30.2055 6.41344 30.1507 6.50933 30.1096C7.18056 29.8288 7.8518 29.5548 8.51618 29.2672C9.42029 28.8768 9.87235 28.185 9.87235 27.1987C9.87235 25.8631 9.87235 24.5343 9.87235 23.1713C10.2765 23.1713 10.6669 23.1713 11.1052 23.1713C11.1052 23.274 11.1052 23.3836 11.1052 23.4863C11.1052 24.7055 11.1121 25.9316 11.1052 27.1507C11.0984 28.2055 11.5847 28.911 12.5367 29.3083ZM12.2833 21.7877C10.3724 22.0411 8.46139 22 6.66002 21.2329C3.72166 19.9932 1.94768 17.7809 1.37234 14.6302C1.1874 13.6439 1.20795 12.6507 1.39288 11.6644C1.42713 11.5 1.57097 11.3151 1.7148 11.226C3.00248 10.4247 4.42029 10.137 5.92029 10.2534C7.24221 10.3493 8.49564 10.726 9.68057 11.3082C10.9682 11.9315 12.2628 12.5411 13.6874 12.8288C15.6943 13.2329 17.6395 13.1165 19.5094 12.2329C19.5368 12.2192 19.5641 12.2055 19.5915 12.1987C19.6121 12.1918 19.6326 12.1987 19.6737 12.1987C19.6874 12.274 19.7148 12.3493 19.7217 12.4247C20.1806 16.9932 16.8655 21.1713 12.2833 21.7877Z" fill="#0078CA"/>
<path id="Vector_2" d="M9.06429 19.131C8.941 19.0831 8.81087 19.0625 8.68073 19.0283C6.21497 18.4187 4.66702 16.8913 4.07798 14.4118C4.00949 14.1242 3.99579 13.8228 3.9273 13.5351C3.85195 13.2201 3.56428 13.0283 3.26291 13.0625C2.95469 13.1036 2.72181 13.3502 2.72866 13.6721C2.73551 13.9598 2.76976 14.2475 2.82455 14.5214C3.23551 16.6242 4.3725 18.2406 6.18757 19.3639C6.98895 19.8571 7.86566 20.1584 8.81087 20.316C9.11224 20.3297 9.37936 20.131 9.44785 19.8297C9.53005 19.5351 9.37251 19.2406 9.06429 19.131Z" fill="#0078CA"/>
<path id="Vector_3" d="M11.886 19.09C11.5504 19.1037 11.2902 19.3845 11.297 19.7133C11.3039 20.042 11.5915 20.316 11.9203 20.3091C12.2491 20.3023 12.523 20.0215 12.523 19.6927C12.523 19.3571 12.2354 19.0831 11.886 19.09Z" fill="#0078CA"/>
</g>
</svg>
