<svg width="68" height="66" viewBox="0 0 68 66" fill="none" xmlns="http://www.w3.org/2000/svg">
<g id="Group 36352">
<rect id="Rectangle 4004" x="0.178711" y="0.183594" width="67.5117" height="65.7812" rx="15" fill="#DEEDFF" fill-opacity="0.08"/>
<g id="Group 36343">
<g id="Group">
<path id="Vector" d="M49.6858 30.4941C49.5598 31.1241 49.3078 31.5022 48.9298 32.0062C47.2917 33.5182 45.7797 35.1563 44.1416 36.6684C43.6376 37.1724 43.5116 37.6764 43.6376 38.3064C44.0156 40.5745 44.3936 42.8426 44.8976 44.9847C45.0236 45.9927 44.7716 46.8748 43.8896 47.5048C43.0075 48.1348 42.1255 48.1348 41.1175 47.7568C39.1014 46.7488 37.0853 45.7407 35.0692 44.6067C34.4392 44.2287 33.8092 44.2287 33.0532 44.6067C31.0371 45.7407 29.147 46.7488 27.1309 47.7568C25.6189 48.5128 23.9808 47.8828 23.4768 46.2447C23.2248 45.6147 23.4768 44.9847 23.4768 44.3547C23.8548 42.3386 24.1068 40.3225 24.4848 38.3064C24.6108 37.6764 24.3588 37.1724 23.9808 36.7944C22.3427 35.2823 20.8307 33.7703 19.1926 32.2582C18.6886 31.8802 18.3106 31.2502 18.1846 30.6201C18.1846 30.3681 18.1846 29.9901 18.1846 29.7381C18.3106 29.6121 18.3106 29.4861 18.3106 29.3601C18.6886 28.478 19.4446 27.848 20.3267 27.722C22.5947 27.344 24.9888 26.966 27.2569 26.714C27.887 26.588 28.265 26.336 28.517 25.8319C29.525 23.6899 30.5331 21.6738 31.5411 19.6577C32.2971 18.2716 33.8092 17.6416 35.0692 18.3976C35.5733 18.6497 35.9513 19.1537 36.2033 19.6577C37.2113 21.5478 38.0934 23.4378 39.1014 25.3279C39.4794 26.21 40.1094 26.714 40.9915 26.714C41.3695 26.714 41.6215 26.84 41.9995 26.84C42.3775 26.84 42.6295 27.092 42.6295 27.47C42.6295 27.848 42.3775 27.974 42.1255 27.974C41.4955 27.974 40.7395 27.848 40.1094 27.722C39.6054 27.596 39.1014 27.344 38.7234 26.966C38.4714 26.714 38.3454 26.462 38.2194 26.21C37.2113 24.1939 36.2033 22.3038 35.1952 20.2877C35.0692 20.1617 35.0692 19.9097 34.9432 19.7837C34.3132 19.0277 33.3052 19.0277 32.8011 19.9097C32.4231 20.5397 32.1711 21.0437 31.9191 21.6738C31.7931 22.0518 31.5411 22.4298 31.4151 22.8078C30.7851 24.0679 30.155 25.2019 29.651 26.336C29.273 27.092 28.643 27.722 27.7609 27.848C27.1309 27.974 26.5009 28.1 25.8709 28.1C24.2328 28.352 22.5947 28.604 21.0827 28.8561C20.8307 28.8561 20.7047 28.8561 20.4527 28.9821C19.4446 29.2341 19.0666 30.3681 19.6966 31.1241C19.9486 31.5022 20.3267 31.7542 20.5787 32.0062C20.8307 32.2582 21.0827 32.5102 21.3347 32.7622C22.4687 33.8963 23.6028 34.9043 24.7368 36.0383C25.6189 36.7944 25.8709 37.5504 25.7449 38.6844C25.3669 40.9525 24.9888 43.2206 24.6108 45.4887C24.4848 46.1187 24.6108 46.4968 25.1148 46.8748C25.6189 47.2528 25.9969 47.2528 26.5009 47.0008C27.5089 46.4968 28.643 45.8667 29.651 45.3627C30.029 45.1107 30.4071 44.9847 30.7851 44.7327C31.4151 44.3547 32.0451 44.1027 32.6751 43.7246C33.5572 43.2206 34.4392 43.2206 35.3212 43.7246C35.6993 43.9767 36.0773 44.1027 36.4553 44.3547C37.8413 45.1107 39.3534 45.8667 40.7395 46.6228C40.9915 46.7488 41.2435 46.8748 41.4955 47.0008C41.9995 47.2528 42.5035 47.2528 42.8815 46.8748C43.3856 46.4968 43.5116 46.1187 43.3856 45.4887C43.1336 44.2287 42.8815 42.9686 42.7555 41.7086C42.6295 40.7005 42.3775 39.6925 42.2515 38.6844C42.1255 37.6764 42.3775 36.7944 43.1336 36.0383C44.7716 34.5263 46.2837 32.8882 47.9217 31.3762C48.1738 31.1241 48.2998 30.8721 48.4258 30.6201C48.5518 29.9901 48.1738 29.3601 47.5437 29.2341C47.4177 28.8561 47.2917 28.7301 47.1657 28.7301C46.9137 28.604 46.7877 28.352 46.9137 28.1C47.0397 27.722 47.2917 27.596 47.7957 27.722C48.8038 27.974 49.5598 28.7301 49.6858 29.7381C49.6858 29.8641 49.6858 29.9901 49.6858 30.1161C49.6858 30.2421 49.6858 30.2421 49.6858 30.3681C49.5598 30.2421 49.6858 30.3681 49.6858 30.4941Z" fill="white"/>
<path id="Vector_2" d="M49.6853 29.9913C49.5593 29.8653 49.5593 29.7393 49.6853 29.6133C49.6853 29.7393 49.6853 29.8653 49.6853 29.9913Z" fill="#50536D"/>
<path id="Vector_3" d="M31.2891 22.8065C31.7931 21.7984 32.1711 20.9164 32.6751 19.9084C32.9271 19.4044 33.3051 19.1523 33.9352 19.1523C34.5652 19.1523 34.9432 19.5304 35.1952 20.0344C36.2033 21.9245 37.2113 23.9405 38.0933 25.8306C38.5974 26.9647 39.4794 27.5947 40.7394 27.7207C41.1174 27.7207 41.4955 27.8467 41.7475 27.8467C42.2515 27.8467 42.3775 27.8467 42.5035 27.3427C43.2595 27.4687 44.1416 27.5947 44.8976 27.7207C45.0236 28.2247 45.4016 28.3507 45.7796 28.3507C46.0316 28.3507 46.1576 28.0987 46.4097 27.9727C46.5357 27.9727 46.6617 27.9727 46.6617 27.9727C46.6617 28.3507 46.9137 28.6027 47.1657 28.6027C48.1737 28.7287 48.8038 30.1148 47.7957 30.9968C46.1576 32.5089 44.6456 34.1469 43.0075 35.659C42.1255 36.415 41.8735 37.2971 42.1255 38.4311C42.5035 40.5732 42.8815 42.8413 43.2595 44.9834C43.3855 45.6134 43.2595 46.1174 42.7555 46.4954C42.2515 46.8734 41.7475 46.8734 41.2435 46.6214C40.1094 45.9914 38.8494 45.3614 37.7153 44.7314C37.2113 44.4793 36.7073 44.2273 36.3293 43.9753C36.9593 42.7153 37.4633 41.3292 37.8413 39.8172C38.0933 38.4311 38.2193 37.045 38.2193 35.533C38.0933 33.0129 37.4633 30.6188 36.2033 28.3507C35.5732 27.2167 34.8172 26.0826 33.9352 25.0746C33.1791 24.1925 32.2971 23.4365 31.2891 22.6805C31.2891 22.9325 31.2891 22.9325 31.2891 22.8065Z" fill="#0790ED"/>
<g id="Group_2">
<path id="Vector_4" d="M46.5365 27.9764C46.4105 28.3544 46.1585 28.4804 45.6544 28.4804C45.1504 28.4804 45.0244 28.2284 45.0244 27.8504C45.2764 27.3463 45.4024 27.3463 45.9064 27.4723C46.4105 27.4723 46.5365 27.5984 46.5365 27.9764Z" fill="white"/>
</g>
<path id="Vector_5" d="M31.2888 22.8086C31.7928 23.0606 32.1709 23.4386 32.5489 23.6906C33.8089 24.8247 34.943 25.9587 35.825 27.4708C36.959 29.3609 37.8411 31.3769 38.2191 33.519C38.4711 34.7791 38.5971 36.0391 38.4711 37.2992C38.3451 39.3152 37.9671 41.3313 37.0851 43.3474C36.959 43.5994 36.833 43.8514 36.707 44.1034C36.707 44.2294 36.581 44.3554 36.455 44.3554C36.077 44.1034 35.699 43.9774 35.321 43.7254C34.4389 43.3474 33.6829 43.3474 32.8009 43.7254C32.1709 44.1034 31.5408 44.3554 30.7848 44.7335C30.6588 44.7335 30.5328 44.6075 30.4068 44.4814C29.1467 42.9694 28.1387 41.3313 27.3827 39.6933C27.3827 39.5673 27.2567 39.5673 27.3827 39.4412C27.8867 39.1892 28.0127 39.0632 28.0127 38.5592C28.0127 38.3072 27.8867 38.1812 27.7607 38.1812C27.5087 38.0552 27.3827 38.1812 27.2567 38.3072C27.2567 38.4332 27.1307 38.4332 27.0047 38.4332C26.8786 38.4332 26.7526 38.3072 26.7526 38.1812C26.2486 36.5431 25.8706 35.0311 25.7446 33.519C25.6186 32.385 25.4926 31.3769 25.6186 30.2429C25.6186 29.6129 25.7446 28.9828 25.7446 28.3528C25.7446 28.2268 25.7446 28.1008 25.8706 28.1008C26.3746 27.9748 27.0047 27.9748 27.5087 27.8488C28.3907 27.7228 29.1467 27.2188 29.5248 26.3367C30.0288 25.2027 30.5328 24.1946 31.0368 23.0606C31.1628 23.0606 31.1628 22.9346 31.2888 22.8086Z" fill="#0078CA"/>
<path id="Vector_6" d="M25.8714 28.1016C25.7454 29.1096 25.6194 30.2436 25.6194 31.2517C25.7454 33.0158 25.8714 34.7798 26.3755 36.4179C26.5015 36.9219 26.7535 37.4259 26.8795 37.9299C26.8795 38.056 26.8795 38.182 27.0055 38.056C27.1315 38.182 27.0055 38.182 27.0055 38.308C26.8795 38.56 27.0055 38.812 27.2575 39.064C27.2575 39.064 27.3835 39.19 27.2575 39.19C27.8875 40.45 28.5176 41.7101 29.2736 42.8441C29.6516 43.4742 30.1556 43.9782 30.6596 44.6082C29.2736 45.3642 27.7615 46.1203 26.3755 46.8763C25.8714 47.1283 25.3674 47.1283 24.9894 46.7503C24.4854 46.3723 24.3594 45.8683 24.4854 45.3642C24.8634 43.0962 25.2414 40.7021 25.6194 38.434C25.7454 37.5519 25.4934 36.7959 24.8634 36.1659C23.4774 34.9058 22.0913 33.5198 20.7052 32.2597C20.4532 32.0077 20.0752 31.6297 19.8232 31.3777C19.4452 30.8737 19.1932 30.3697 19.4452 29.8656C19.6972 29.2356 20.0752 28.9836 20.7052 28.8576C22.3433 28.6056 24.1074 28.3536 25.8714 28.1016Z" fill="#014574"/>
<path id="Vector_7" d="M27.3824 39.3128C26.8784 39.0608 26.8784 38.9348 27.1304 38.1788C27.2564 37.8008 27.5084 37.8008 27.7604 37.8008C28.0124 37.9268 28.1384 38.0528 28.1384 38.4308C28.1384 39.0608 27.8864 39.3128 27.3824 39.3128Z" fill="#FEFEFD"/>
<path id="Vector_8" d="M25.8701 44.2314C25.9961 43.6014 26.1221 42.8453 26.2481 42.0893C26.3741 41.5853 26.3741 41.2073 26.5001 40.7032C26.6261 40.3252 26.8782 40.1992 27.1302 40.1992C27.5082 40.1992 27.6342 40.5772 27.5082 40.9552C27.2562 42.0893 27.1302 43.2233 26.8782 44.3574C26.8782 44.6094 26.7522 44.8614 26.3741 44.8614C26.2481 44.9874 25.8701 44.7354 25.8701 44.2314Z" fill="#FEFEFE"/>
</g>
</g>
</g>
</svg>
