<svg width="69" height="67" viewBox="0 0 69 67" fill="none" xmlns="http://www.w3.org/2000/svg">
<g id="Group 36354">
<rect id="Rectangle 4010" x="0.922852" y="0.648438" width="67.5117" height="65.7812" rx="15" fill="#DEEDFF" fill-opacity="0.08"/>
<g id="Group 36347">
<g id="Group 36346">
<g id="Group">
<path id="Vector" d="M55.825 36.3168C55.8944 35.2057 55.8944 34.0946 55.8944 33.053C55.8944 32.7057 55.8944 32.2891 55.8944 31.9418C55.825 28.8168 53.5333 26.4557 50.4778 26.2474H50.4083H50.3389C49.9916 26.178 49.7139 26.0391 49.4361 25.553C46.7278 19.7891 40.9639 16.0391 34.7833 16.0391C34.0194 16.0391 33.2555 16.1085 32.5611 16.178C26.7972 16.9418 22.5611 20.0668 19.8528 25.4141C19.7139 25.7613 19.4361 26.1085 18.8111 26.1085C16.3805 26.2474 14.3666 27.8446 13.6722 30.2752C13.4639 31.178 13.4639 32.0807 13.4639 32.9835C13.4639 33.1918 13.4639 33.4002 13.4639 33.5391C13.5333 34.0252 13.4639 34.5113 13.4639 34.928C13.4639 35.3446 13.4639 35.8307 13.4639 36.2474C13.8111 38.9557 16.3111 41.178 19.2278 41.178C19.9916 41.178 20.6861 41.0391 21.3805 40.7613C21.7972 40.553 22.0055 40.1363 21.7972 39.6502C21.7278 39.4418 21.6583 39.303 21.5889 39.2335C19.9916 36.1085 19.5055 32.7752 20.2 29.4418C21.6583 22.5668 27.5611 17.7752 34.575 17.7752C35.4083 17.7752 36.3111 17.8446 37.2139 17.9835C45.0611 19.4418 50.3389 26.8724 49.1583 34.6502C48.2555 40.7613 43.7416 45.553 37.7694 46.8724H37.7H37.6305C37.3528 46.8724 36.9361 46.8724 36.6583 46.3168C36.1028 45.3446 35.0611 44.7196 33.95 44.7196C33.7416 44.7196 33.6028 44.7196 33.3944 44.7891C31.8666 45.0668 30.825 46.3863 30.825 47.8446C30.825 49.3724 31.8666 50.6918 33.2555 50.9696C33.5333 51.0391 33.7416 51.0391 34.0194 51.0391C35.2 51.0391 36.3111 50.2752 36.8666 49.1641C37.075 48.8168 37.3528 48.678 37.6305 48.6085C42.0055 47.7057 45.5472 45.4141 48.1166 41.803C48.1861 41.6641 48.4639 41.178 49.0889 41.178C49.1583 41.178 49.2972 41.178 49.3666 41.178C49.6444 41.2474 49.9222 41.2474 50.2 41.2474C53.0472 41.2474 55.5472 39.0252 55.825 36.3168Z" fill="white"/>
<path id="Vector_2" d="M26.5191 44.7891C26.7274 44.928 26.8663 44.928 27.2136 44.7891C27.908 44.3724 28.6024 44.0252 29.2274 43.6085C29.9219 43.2613 30.5469 42.8446 31.2413 42.4974C31.4497 42.3585 31.7274 42.2891 32.0052 42.2891C32.2136 42.2891 32.3524 42.3585 32.4913 42.3585C32.9774 42.4974 33.6025 42.5668 34.158 42.6363C34.3663 42.6363 34.5747 42.6363 34.783 42.6363C37.5608 42.6363 40.2691 41.4557 42.2136 39.3724C44.158 37.2891 45.1302 34.4418 44.9219 31.5946C44.4358 26.3168 39.9913 22.2891 34.6441 22.2891C34.5747 22.2891 34.5052 22.2891 34.4358 22.2891C34.158 22.2891 33.9497 22.2891 33.6719 22.2891C33.533 22.2891 33.3941 22.3585 33.2552 22.3585C29.2969 23.053 26.5886 25.2752 25.2691 28.8863C23.8802 32.4974 24.5052 35.9002 27.0747 39.0252C27.5608 39.6502 27.4913 40.1363 27.3524 40.553C27.2136 41.1085 27.0052 41.7335 26.8663 42.2891V42.3585C26.7274 42.9835 26.5191 43.6085 26.3802 44.1641C26.2413 44.6502 26.4497 44.7196 26.5191 44.7891Z" fill="white"/>
<path id="Vector_3" d="M17.9079 34.0938C17.9079 34.1632 17.9079 34.2326 17.9079 34.3715C17.9773 34.5104 17.9079 34.7187 17.9773 34.8576C18.1857 36.1076 18.4634 37.3576 18.9495 38.6076C19.019 38.7465 19.019 38.816 19.0884 38.9549C19.2968 39.3021 19.019 39.1632 18.8801 39.1632C18.7412 39.0938 18.6023 39.1632 18.4634 39.0938C17.2829 39.0243 15.9634 37.7049 15.6857 36.3854C15.6162 36.1771 15.6162 36.1076 15.6162 35.9688C15.6857 35.066 15.6162 34.1632 15.6162 33.2604C15.6162 33.1215 15.6162 32.9132 15.6162 32.7049C15.6162 32.566 15.6162 32.4271 15.6162 32.2882C15.6162 32.0799 15.6162 31.8021 15.6162 31.5243C15.6857 30.3437 16.6579 28.816 18.394 28.4688C18.1857 29.2326 18.1162 29.9965 17.9773 30.7604C17.9079 30.9687 17.9773 31.2465 17.9773 31.4549C17.9079 32.0799 17.9079 32.7743 17.9773 33.3993C17.9079 33.6076 17.8384 33.816 17.9079 34.0938Z" fill="#014574"/>
<path id="Vector_4" d="M53.6722 35.8993C53.6722 37.4271 52.2139 38.816 50.8944 38.9549C50.7555 39.0243 50.6166 38.9549 50.4777 39.0243C50.3389 39.0243 50.0611 39.1632 50.2 38.816C50.825 37.2882 51.1722 35.691 51.45 34.0243C51.5194 33.816 51.45 33.5382 51.45 33.3299C51.5194 32.7049 51.5194 32.0799 51.45 31.4549C51.45 31.2465 51.5194 30.9687 51.45 30.7604C51.45 30.6215 51.3805 30.4826 51.3805 30.4132C51.3805 30.2743 51.45 30.1354 51.3805 29.9965C51.2416 29.5104 51.1722 28.9549 51.0333 28.4688C52.1444 28.4688 53.6027 29.9965 53.6722 31.1771C53.7416 31.316 53.6722 31.4549 53.7416 31.5937C53.7416 31.8021 53.6722 32.0799 53.7416 32.2882C53.7416 32.3576 53.7416 32.4965 53.7416 32.566C53.6722 32.7743 53.7416 32.9826 53.7416 33.191C53.6722 34.1632 53.7416 35.066 53.6722 35.8993Z" fill="#014574"/>
<path id="Vector_5" d="M32.9781 47.5686C33.117 47.1519 33.4642 46.8741 33.8809 46.8047C34.2281 46.8047 34.7142 47.1519 34.9226 47.4991C35.1309 47.9158 34.9226 48.263 34.6448 48.5408C34.5059 48.6797 34.367 48.7491 34.2281 48.8186C34.0198 48.7491 33.8115 48.8186 33.6031 48.7491C33.2559 48.6797 33.0476 48.4714 32.9781 48.1241C32.9087 47.9852 32.9781 47.7769 32.9781 47.5686Z" fill="#176E92"/>
<path id="Vector_6" d="M15.6862 33.1914C15.6862 34.0247 15.6862 34.7886 15.6862 35.622C15.6862 35.7609 15.6862 35.8997 15.6168 35.9692C15.5474 35.0664 15.6168 34.0942 15.6168 33.1914C15.6168 33.1914 15.6168 33.1914 15.6862 33.1914Z" fill="#43819A"/>
<path id="Vector_7" d="M53.6729 35.901C53.6729 34.9983 53.6729 34.0955 53.6729 33.1927C53.6729 33.1233 53.7423 33.1233 53.7423 33.1927C53.7423 34.026 53.7423 34.8594 53.7423 35.6927C53.7423 35.7622 53.7423 35.901 53.6729 35.901Z" fill="#44819A"/>
<path id="Vector_8" d="M15.6162 31.5273C15.7551 31.8051 15.7551 32.0135 15.6162 32.2912C15.6162 32.0829 15.6162 31.8051 15.6162 31.5273Z" fill="#2B7A9B"/>
<path id="Vector_9" d="M17.9083 31.4562C17.8389 31.2478 17.7694 30.9701 17.9083 30.7617C17.9083 30.9701 17.9083 31.1784 17.9083 31.4562Z" fill="#427D94"/>
<path id="Vector_10" d="M51.3799 30.832C51.5188 31.0404 51.4493 31.3181 51.3799 31.5265C51.4493 31.3181 51.4493 31.0404 51.3799 30.832Z" fill="#467D94"/>
<path id="Vector_11" d="M53.7421 32.4262C53.6032 32.2179 53.6726 31.9401 53.6726 31.7318C53.6726 31.6623 53.7421 31.6623 53.7421 31.7318C53.7421 31.9401 53.7421 32.1484 53.7421 32.4262Z" fill="#287899"/>
<path id="Vector_12" d="M17.9083 34.0929C17.7694 33.8845 17.8389 33.6068 17.9083 33.3984C17.9083 33.6068 17.9083 33.8151 17.9083 34.0929Z" fill="#437E97"/>
<path id="Vector_13" d="M51.4498 33.3984C51.5193 33.6068 51.5887 33.8845 51.4498 34.0929C51.3804 33.8151 51.4498 33.6068 51.4498 33.3984Z" fill="#437C94"/>
<path id="Vector_14" d="M32.9782 47.5664C32.9782 47.7747 32.9782 47.9831 32.9782 48.1914C32.8393 47.9831 32.8393 47.7747 32.9782 47.5664Z" fill="#457589"/>
<path id="Vector_15" d="M33.6025 48.8181C33.8109 48.8181 34.0192 48.7487 34.2275 48.8876C34.0192 48.8876 33.8109 48.957 33.6025 48.8181Z" fill="#417B93"/>
<path id="Vector_16" d="M53.7423 33.1923C53.6729 33.1923 53.6729 33.1923 53.7423 33.1923C53.6729 32.9839 53.6034 32.8451 53.7423 32.6367C53.7423 32.8451 53.7423 33.0534 53.7423 33.1923Z" fill="#287899"/>
<path id="Vector_17" d="M51.3105 30.0664C51.4494 30.2053 51.38 30.3442 51.3105 30.4831C51.3105 30.3442 51.3105 30.2053 51.3105 30.0664Z" fill="#427C94"/>
<path id="Vector_18" d="M53.7423 31.7331C53.6729 31.5942 53.6729 31.4553 53.6729 31.3164C53.8117 31.3859 53.7423 31.5247 53.7423 31.7331Z" fill="#417285"/>
<path id="Vector_19" d="M15.6857 33.194C15.6162 33.194 15.6162 33.194 15.6162 33.194C15.6162 33.0551 15.6162 32.9162 15.6162 32.7773C15.6857 32.9162 15.6162 33.0551 15.6857 33.194Z" fill="#2C7A9B"/>
<path id="Vector_20" d="M18.0468 34.7908C17.9079 34.6519 17.9773 34.513 17.9773 34.3047C18.0468 34.4436 18.0468 34.5825 18.0468 34.7908Z" fill="#437285"/>
<path id="Vector_21" d="M18.4648 38.9549C18.6037 38.9549 18.7426 38.8854 18.8815 39.0243C18.7426 39.0937 18.6037 39.0938 18.4648 38.9549Z" fill="#3D7389"/>
<path id="Vector_22" d="M50.4082 39.0243C50.5471 38.8854 50.686 38.9549 50.8249 38.9549C50.7554 39.0938 50.6165 39.0937 50.4082 39.0243Z" fill="#3C7389"/>
<path id="Vector_23" d="M28.8105 41.8049C28.9494 41.1799 29.0883 40.6244 29.2966 40.0688C29.505 39.4438 29.2966 38.9577 28.88 38.4716C26.5883 36.1799 25.755 33.4022 26.5883 30.2772C27.4911 27.0827 29.6439 25.0688 32.9077 24.2355C37.4216 23.1938 42.0744 26.2494 42.9077 30.8327C43.7411 35.5549 40.8244 39.791 36.1022 40.6938C34.8522 40.9022 33.6022 40.9022 32.3522 40.4855C31.7966 40.2772 31.2411 40.3466 30.755 40.6938C30.13 41.041 29.505 41.3883 28.8105 41.8049Z" fill="#0078CA"/>
<path id="Vector_24" d="M30.2696 33.7483C29.5752 33.7483 28.9502 33.1927 28.9502 32.4288C28.9502 31.7344 29.5058 31.1094 30.2696 31.1094C30.9641 31.1094 31.5891 31.7344 31.5891 32.4288C31.5891 33.1927 31.0335 33.7483 30.2696 33.7483Z" fill="white"/>
<path id="Vector_25" d="M39.0196 33.7483C38.3252 33.7483 37.7002 33.1927 37.7002 32.4288C37.7002 31.7344 38.2558 31.1094 39.0196 31.1094C39.7141 31.1094 40.3391 31.7344 40.3391 32.4288C40.3391 33.1927 39.7835 33.7483 39.0196 33.7483Z" fill="white"/>
<path id="Vector_26" d="M34.6446 33.7483C33.9502 33.7483 33.3252 33.1927 33.3252 32.4288C33.3252 31.7344 33.9502 31.1094 34.6446 31.1094C35.3391 31.1094 35.9641 31.7344 35.9641 32.4288C35.9641 33.1233 35.4085 33.7483 34.6446 33.7483Z" fill="white"/>
</g>
</g>
</g>
</g>
</svg>
