<svg width="29" height="32" viewBox="0 0 29 32" fill="none" xmlns="http://www.w3.org/2000/svg">
<g id="Group 427319455">
<g id="Group">
<path id="Vector" d="M28.9762 6.21264C28.9143 4.47422 28.2547 3.77335 26.5369 3.73212C22.6684 3.63593 19.1091 2.52966 15.859 0.440802C14.9039 -0.170737 14.0725 -0.122639 13.1174 0.440802C11.9699 1.12105 10.788 1.76008 9.56495 2.27542C7.25621 3.25114 4.81693 3.67715 2.30205 3.72525C0.859095 3.75961 0.144487 4.47422 0.062032 5.80724C-0.178461 9.83378 0.268169 13.771 1.61493 17.5777C3.87557 23.9679 7.85401 28.8396 14.1618 31.6293C14.3954 31.6293 14.629 31.6293 14.8695 31.6293C15.1444 31.5056 15.4192 31.382 15.6872 31.2514C19.9543 29.1969 23.1356 26.0018 25.4512 21.9134C28.2135 17.0417 29.1686 11.7509 28.9762 6.21264ZM21.4797 24.3046C19.7206 26.4622 17.5631 28.1319 15.0757 29.3962C14.6428 29.6161 14.313 29.5817 13.9007 29.3756C8.58923 26.6271 5.23607 22.2432 3.32587 16.6707C2.2677 13.5511 1.8623 10.3285 1.91039 7.04406C1.91726 6.62491 1.97223 6.20577 1.99285 5.96527C4.23974 5.54613 6.38357 5.34686 8.40371 4.72158C10.3277 4.12378 12.1142 3.07936 13.9763 2.26168C14.2511 2.138 14.6909 2.05554 14.9039 2.1861C18.5388 4.43986 22.4691 5.6492 26.7499 5.70417C26.798 5.70417 26.8392 5.72478 26.9423 5.75227C26.9698 5.90343 27.0316 6.07521 27.0385 6.25387C27.3408 12.9327 25.7604 19.0412 21.4797 24.3046Z" fill="#0078CA"/>
<path id="Vector_2" d="M20.9297 11.0127C20.6274 10.8271 20.1121 10.889 19.7204 10.9646C19.5074 11.0058 19.3425 11.2944 19.1638 11.4799C16.9925 13.7199 14.8143 15.9668 12.6911 18.1587C11.5986 17.1212 10.5404 16.118 9.48227 15.1148C8.9257 14.5857 8.33477 14.5582 7.97059 15.0736C7.60642 15.5958 7.7301 16.0905 8.15612 16.5303C9.30361 17.7121 10.4442 18.894 11.5986 20.0689C12.3751 20.866 12.753 20.8729 13.5294 20.0758C15.9275 17.6159 18.3118 15.156 20.703 12.6961C20.8335 12.5587 20.971 12.4281 21.0672 12.2701C21.3558 11.8097 21.3626 11.2806 20.9297 11.0127Z" fill="#0078CA"/>
</g>
</g>
</svg>
