<svg width="296" height="232" viewBox="0 0 296 232" fill="none" xmlns="http://www.w3.org/2000/svg">
<path d="M2.5918 131.504V141.777L11.4871 136.64L2.5918 131.504Z" stroke="white" stroke-width="4.59113" stroke-miterlimit="10" stroke-linecap="round" stroke-linejoin="round"/>
<circle cx="144.641" cy="155.672" r="69.3094" transform="rotate(180 144.641 155.672)" fill="#05D5AF" fill-opacity="0.15" stroke="#05D5AF" stroke-width="3.44335"/>
<path d="M171.423 139.894L126.375 173.373" stroke="#05D5AF" stroke-width="9.18227" stroke-linecap="square"/>
<path d="M126.373 173.373L115.213 158.357" stroke="#05D5AF" stroke-width="9.18227" stroke-linecap="square"/>
<path d="M149.194 2V13.518" stroke="#05D4AF" stroke-width="3.44335" stroke-miterlimit="10" stroke-linecap="round" stroke-linejoin="round"/>
<path d="M167.34 10.4648L158.52 17.8623" stroke="#05D4AF" stroke-width="3.44335" stroke-miterlimit="10" stroke-linecap="round" stroke-linejoin="round"/>
<path d="M172.516 29.8056L161.176 27.8027" stroke="#05D4AF" stroke-width="3.44335" stroke-miterlimit="10" stroke-linecap="round" stroke-linejoin="round"/>
<path d="M159.576 46.9645L154.525 36.6172" stroke="#05D4AF" stroke-width="3.44335" stroke-miterlimit="10" stroke-linecap="round" stroke-linejoin="round"/>
<path d="M139.277 47.1829L144.098 36.7266" stroke="#05D4AF" stroke-width="3.44335" stroke-miterlimit="10" stroke-linecap="round" stroke-linejoin="round"/>
<path d="M125.911 29.9776L137.234 27.8887" stroke="#05D4AF" stroke-width="3.44335" stroke-miterlimit="10" stroke-linecap="round" stroke-linejoin="round"/>
<path d="M131.564 9.87891L140.138 17.5633" stroke="#05D4AF" stroke-width="3.44335" stroke-miterlimit="10" stroke-linecap="round" stroke-linejoin="round"/>
<path d="M257.086 184.496V196.014" stroke="#05D4AF" stroke-width="3.44335" stroke-miterlimit="10" stroke-linecap="round" stroke-linejoin="round"/>
<path d="M275.233 192.961L266.412 200.358" stroke="#05D4AF" stroke-width="3.44335" stroke-miterlimit="10" stroke-linecap="round" stroke-linejoin="round"/>
<path d="M280.408 212.302L269.068 210.299" stroke="#05D4AF" stroke-width="3.44335" stroke-miterlimit="10" stroke-linecap="round" stroke-linejoin="round"/>
<path d="M267.466 229.461L262.416 219.113" stroke="#05D4AF" stroke-width="3.44335" stroke-miterlimit="10" stroke-linecap="round" stroke-linejoin="round"/>
<path d="M247.168 229.679L251.989 219.223" stroke="#05D4AF" stroke-width="3.44335" stroke-miterlimit="10" stroke-linecap="round" stroke-linejoin="round"/>
<path d="M233.803 212.472L245.126 210.383" stroke="#05D4AF" stroke-width="3.44335" stroke-miterlimit="10" stroke-linecap="round" stroke-linejoin="round"/>
<path d="M239.455 192.375L248.029 200.059" stroke="#05D4AF" stroke-width="3.44335" stroke-miterlimit="10" stroke-linecap="round" stroke-linejoin="round"/>
<path d="M65.5323 121.559C68.125 121.559 70.2268 119.457 70.2268 116.864C70.2268 114.272 68.125 112.17 65.5323 112.17C62.9397 112.17 60.8379 114.272 60.8379 116.864C60.8379 119.457 62.9397 121.559 65.5323 121.559Z" fill="white"/>
<path d="M113.366 77.3353C115.353 77.3353 116.964 75.7243 116.964 73.737C116.964 71.7497 115.353 70.1387 113.366 70.1387C111.379 70.1387 109.768 71.7497 109.768 73.737C109.768 75.7243 111.379 77.3353 113.366 77.3353Z" stroke="#05D4AF" stroke-width="3.44335" stroke-miterlimit="10"/>
<path d="M37.7284 153.556L47.5518 155.699L49.6954 145.876L39.8721 143.732L37.7284 153.556Z" stroke="#05D4AF" stroke-width="3.44335" stroke-miterlimit="10"/>
<path d="M53.6695 72.0137L44.5791 76.8057L53.2736 82.2806L53.6695 72.0137Z" stroke="#3E59E8" stroke-width="3.44335" stroke-miterlimit="10" stroke-linecap="round" stroke-linejoin="round"/>
<path d="M276.562 109.893V118.553" stroke="#3E59E8" stroke-width="3.44335" stroke-miterlimit="10" stroke-linecap="round" stroke-linejoin="round"/>
<path d="M290.204 116.258L283.57 121.819" stroke="#3E59E8" stroke-width="3.44335" stroke-miterlimit="10" stroke-linecap="round" stroke-linejoin="round"/>
<path d="M294.096 130.8L285.574 129.291" stroke="#3E59E8" stroke-width="3.44335" stroke-miterlimit="10" stroke-linecap="round" stroke-linejoin="round"/>
<path d="M284.368 143.706L280.574 135.924" stroke="#3E59E8" stroke-width="3.44335" stroke-miterlimit="10" stroke-linecap="round" stroke-linejoin="round"/>
<path d="M269.103 143.866L272.73 136.004" stroke="#3E59E8" stroke-width="3.44335" stroke-miterlimit="10" stroke-linecap="round" stroke-linejoin="round"/>
<path d="M259.054 130.932L267.565 129.359" stroke="#3E59E8" stroke-width="3.44335" stroke-miterlimit="10" stroke-linecap="round" stroke-linejoin="round"/>
<path d="M263.301 115.816L269.751 121.595" stroke="#3E59E8" stroke-width="3.44335" stroke-miterlimit="10" stroke-linecap="round" stroke-linejoin="round"/>
<path d="M43.8955 200.566V207.12" stroke="#3E59E8" stroke-width="3.44335" stroke-miterlimit="10" stroke-linecap="round" stroke-linejoin="round"/>
<path d="M54.2187 205.381L49.1982 209.589" stroke="#3E59E8" stroke-width="3.44335" stroke-miterlimit="10" stroke-linecap="round" stroke-linejoin="round"/>
<path d="M57.1632 216.388L50.7139 215.246" stroke="#3E59E8" stroke-width="3.44335" stroke-miterlimit="10" stroke-linecap="round" stroke-linejoin="round"/>
<path d="M49.8023 226.155L46.9316 220.266" stroke="#3E59E8" stroke-width="3.44335" stroke-miterlimit="10" stroke-linecap="round" stroke-linejoin="round"/>
<path d="M38.251 226.278L40.9957 220.328" stroke="#3E59E8" stroke-width="3.44335" stroke-miterlimit="10" stroke-linecap="round" stroke-linejoin="round"/>
<path d="M30.6455 216.487L37.0861 215.297" stroke="#3E59E8" stroke-width="3.44335" stroke-miterlimit="10" stroke-linecap="round" stroke-linejoin="round"/>
<path d="M33.8594 205.047L38.7409 209.42" stroke="#3E59E8" stroke-width="3.44335" stroke-miterlimit="10" stroke-linecap="round" stroke-linejoin="round"/>
<path d="M269.59 94.2864C271.578 94.2864 273.189 92.6754 273.189 90.6881C273.189 88.7009 271.578 87.0898 269.59 87.0898C267.603 87.0898 265.992 88.7009 265.992 90.6881C265.992 92.6754 267.603 94.2864 269.59 94.2864Z" stroke="white" stroke-width="4.59113" stroke-miterlimit="10"/>
<path d="M212.16 71.4091L202.337 73.5527L204.481 83.3761L214.304 81.2324L212.16 71.4091Z" fill="#3E59E8"/>
<path d="M259.514 58.3223L250.424 63.1143L259.118 68.5835L259.514 58.3223Z" fill="#3E59E8"/>
<path d="M228.523 117.977V128.249L237.419 123.113L228.523 117.977Z" fill="#3E59E8"/>
</svg>
