<svg width="133" height="41" viewBox="0 0 133 41" fill="none" xmlns="http://www.w3.org/2000/svg">
<g id="CWC Cash Logo">
<g id="Group">
<path id="Vector" opacity="0.25" d="M116.333 2.10938H6.54374L0 25.7726H116.333V2.10938Z" fill="url(#paint0_linear_238_3895)"/>
<g id="Group_2">
<g id="Group_3">
<path id="Vector_2" d="M61.8026 14.4027C61.0755 18.633 63.455 21.6074 67.6853 21.6074C71.0563 21.6074 73.9647 19.7566 75.3527 16.65H71.519C70.7258 17.8398 69.5361 18.4347 68.2141 18.4347C66.099 18.4347 64.9092 16.8483 65.3719 14.3366C65.7685 11.8909 67.487 10.3046 69.6683 10.3046C70.9902 10.3046 71.9817 10.8994 72.3122 12.0892H76.1459C75.8815 8.98259 73.6342 7.13184 70.2631 7.13184C65.9668 7.13184 62.5296 10.1063 61.8026 14.4027Z" fill="white"/>
</g>
<g id="Group_4">
<path id="Vector_3" d="M84.0114 16.3856H80.4421L83.1522 11.0977L84.0114 16.3856ZM84.8046 21.5412H88.44L85.7961 7.33008H81.7641L74.0967 21.5412H77.7321L79.0541 19.0295H84.3419L84.8046 21.5412Z" fill="white"/>
</g>
<g id="Group_5">
<path id="Vector_4" d="M99.7423 17.311C99.7423 13.1468 93.5951 13.3451 93.5951 11.1638C93.5951 10.3707 94.2561 9.84186 95.2476 9.84186C96.3052 9.84186 96.834 10.4368 96.7018 11.3621H100.403C100.668 8.71819 98.5525 7.13184 95.4459 7.13184C92.2071 7.13184 89.8936 8.78429 89.8936 11.6926C89.9597 15.9229 96.0408 15.328 96.0408 17.6415C96.0408 18.5008 95.3798 18.9634 94.3222 18.9634C93.1325 18.9634 92.6037 18.3025 92.6698 17.311H89.0344C88.7039 20.2193 91.0173 21.6735 94.19 21.6735C97.6933 21.6735 99.7423 19.8227 99.7423 17.311Z" fill="white"/>
</g>
<g id="Group_6">
<path id="Vector_5" d="M108.599 21.5419H112.103L114.614 7.26465H111.111L110.12 12.883H104.766L105.757 7.26465H102.254L99.7422 21.5419H103.245L104.237 15.593H109.657L108.599 21.5419Z" fill="white"/>
</g>
</g>
<path id="Vector_6" d="M127.9 7.92578L128.561 35.4227C128.561 35.4227 107.872 27.8875 100.337 29.8704C100.337 29.8704 120.365 33.3737 132.527 40.8428L130.676 10.1731L127.9 7.92578Z" fill="#0078CA"/>
<path id="Vector_7" d="M120.298 26.235C120.034 25.6401 119.902 24.9131 120.166 24.2521C120.629 22.864 122.083 22.1369 123.471 22.5335C123.868 22.6657 124.198 22.864 124.463 23.1284L124.264 6.9343L124.132 6.80211C123.471 7.59529 122.347 7.92578 121.356 7.59529C119.968 7.1326 119.241 5.67843 119.637 4.29037C119.77 3.82768 120.034 3.43109 120.431 3.1006L120.365 2.9684L108.93 2.57181C108.93 2.57181 115.077 -0.468713 126.379 1.51424L126.578 29.6721C126.578 29.6721 111.772 25.3758 105.426 27.6231C105.36 27.6892 111.573 24.186 120.298 26.235Z" fill="#0078CA"/>
<g id="Group_7">
<path id="Vector_8" d="M9.18831 14.4027C8.46123 18.633 10.8408 21.6074 15.0711 21.6074C18.4421 21.6074 21.3504 19.7566 22.7385 16.65H18.9048C18.1116 17.8398 16.9218 18.4347 15.5998 18.4347C13.4847 18.4347 12.2949 16.8483 12.7576 14.3366C13.1542 11.8909 14.8728 10.3046 17.054 10.3046C18.376 10.3046 19.3675 10.8994 19.698 12.0892H23.5317C23.2673 8.98259 21.0199 7.13184 17.6489 7.13184C13.4186 7.13184 9.98149 10.1063 9.18831 14.4027Z" fill="#0078CA"/>
<path id="Vector_9" d="M25.3825 21.5419H29.5467L33.5787 12.1559L34.1735 21.5419H38.4038L44.6171 7.26465H40.8495L37.0158 17.576L36.4209 7.26465H32.5872L28.2247 17.6421L28.0264 7.26465H24.2588L25.3825 21.5419Z" fill="#E7282B"/>
<path id="Vector_10" d="M43.0965 14.4027C42.3694 18.633 44.749 21.6074 48.9793 21.6074C52.3503 21.6074 55.2586 19.7566 56.6467 16.65H52.813C52.0198 17.8398 50.83 18.4347 49.5081 18.4347C47.3929 18.4347 46.2031 16.8483 46.6658 14.3366C47.0624 11.8909 48.781 10.3046 50.9622 10.3046C52.2842 10.3046 53.2757 10.8994 53.6061 12.0892H57.4399C57.1755 8.98259 54.9281 7.13184 51.5571 7.13184C47.3268 7.13184 43.8236 10.1063 43.0965 14.4027Z" fill="#0078CA"/>
</g>
</g>
</g>
<defs>
<linearGradient id="paint0_linear_238_3895" x1="-0.0266376" y1="13.9375" x2="116.345" y2="13.9375" gradientUnits="userSpaceOnUse">
<stop stop-color="#0078CA"/>
<stop offset="1" stop-opacity="0"/>
</linearGradient>
</defs>
</svg>
