<svg width="32" height="36" viewBox="0 0 32 36" fill="none" xmlns="http://www.w3.org/2000/svg">
<path d="M12.7917 5.33752C12.6725 5.3777 12.5464 5.371 12.4272 5.3911C11.2147 5.57862 10.2054 6.1211 9.40644 7.00514C8.83872 7.63469 8.46025 8.35799 8.31306 9.18176C7.99066 11.0235 8.5794 12.5706 10.0863 13.7694C10.7451 14.2918 11.5161 14.6066 12.3642 14.7472C12.9038 14.8343 13.4505 14.8343 13.9902 14.7472C14.7261 14.6333 15.392 14.3655 16.0087 13.9636C16.177 13.8498 16.191 13.7426 16.0368 13.6087C15.9597 13.535 15.8826 13.5819 15.8125 13.6154C15.7074 13.6756 15.6092 13.7426 15.5041 13.8029C15.2518 13.9502 14.9855 14.0708 14.7121 14.1645C14.3897 14.2717 14.0673 14.3454 13.7239 14.3855C13.2403 14.4391 12.7567 14.419 12.2801 14.332C11.8175 14.2449 11.3829 14.0842 10.9694 13.8699C10.675 13.7158 10.4087 13.5216 10.1564 13.314C9.75688 12.9791 9.44148 12.5907 9.18916 12.1487C8.93685 11.7133 8.78265 11.2512 8.69855 10.7623C8.65649 10.5011 8.62846 10.2399 8.64248 9.97874C8.6635 9.40277 8.78265 8.84689 9.03497 8.32451C9.26626 7.82221 9.58867 7.38019 9.99518 6.99844C10.0232 6.96496 10.0583 6.93817 10.0933 6.90468C10.7732 6.30862 11.5722 5.93358 12.4903 5.79963C13.4435 5.65899 14.3547 5.79963 15.2167 6.20147C15.6863 6.42248 16.0999 6.71046 16.4573 7.07211C16.7587 7.37349 17.011 7.70836 17.2143 8.0834C17.5156 8.62588 17.6768 9.20185 17.7259 9.80461C17.761 10.3069 17.7049 10.8025 17.5577 11.2847C17.4175 11.7401 17.2073 12.1621 16.9199 12.5572C16.8919 12.5974 16.8638 12.6443 16.8568 12.6911C16.8358 12.7715 16.8708 12.8385 16.9479 12.8787C17.0951 12.9389 17.1652 12.9188 17.2563 12.7916C17.6628 12.2357 17.9222 11.6263 18.0623 10.9632C18.1044 10.7623 18.1394 10.5614 18.1324 10.3605C18.1184 10.0256 18.1534 9.69745 18.0974 9.36259C18.0203 8.91387 17.8871 8.49194 17.6909 8.0834C17.2703 7.22615 16.6395 6.54303 15.7915 6.04743C15.1817 5.68578 14.5229 5.46477 13.808 5.3844C13.7239 5.37101 13.6328 5.3844 13.5487 5.35091C13.4996 5.35091 13.4435 5.35091 13.3945 5.35091C13.3524 5.36431 13.3174 5.36431 13.2753 5.35091C13.2262 5.35091 13.1702 5.35091 13.1211 5.35091C13.0791 5.36431 13.03 5.36431 12.9879 5.35091C12.9038 5.33752 12.8478 5.33752 12.7917 5.33752Z" fill="#010101"/>
<path d="M12.9658 5.33955C13.0079 5.36598 13.0569 5.36598 13.099 5.33955C13.0499 5.33955 13.0079 5.33955 12.9658 5.33955Z" fill="#2B2A29"/>
<path d="M13.2529 5.33955C13.295 5.36598 13.33 5.36598 13.3721 5.33955C13.33 5.33955 13.288 5.33955 13.2529 5.33955Z" fill="#2B2A29"/>
<path d="M16.9322 12.8628C16.8341 12.749 16.8341 12.6887 16.9182 12.5681C17.1986 12.1797 17.4159 11.7578 17.556 11.3024C17.7312 10.7264 17.7803 10.137 17.7102 9.54097C17.6191 8.83106 17.3598 8.18143 16.9393 7.59876C16.3505 6.78839 15.5655 6.20573 14.5703 5.92444C12.9582 5.46233 11.4934 5.75031 10.1968 6.775C10.1477 6.80848 10.0986 6.84197 10.0636 6.89555C10.0426 6.92903 10.0075 6.96252 9.97949 6.99601C9.81829 7.19693 9.69914 7.42463 9.59401 7.65234C9.38374 8.08766 9.26459 8.54978 9.20852 9.02528C9.18049 9.29987 9.15946 9.57446 9.20151 9.85575C9.20852 9.88254 9.20852 9.90263 9.22254 9.92942C9.24357 9.94951 9.2716 9.93611 9.29263 9.92942C9.4258 9.90932 9.50289 9.9696 9.5099 10.1035C9.51691 10.2911 9.53093 10.4786 9.56597 10.6594C9.65008 11.0947 9.79726 11.51 10.0496 11.885C10.1127 11.9855 10.1757 12.0792 10.1267 12.1998C10.1898 12.3136 10.2809 12.4074 10.372 12.5012C10.4 12.5079 10.421 12.5012 10.4491 12.5012C10.5612 12.5012 10.6313 12.5681 10.6313 12.682C10.6313 12.7088 10.6243 12.7356 10.6313 12.7624C10.7435 12.8963 10.8836 13.0035 11.0238 13.1039C11.7247 13.6196 12.5097 13.9344 13.3928 14.0415C14.0236 14.1152 14.6474 14.0616 15.2571 13.9076C15.3482 13.8875 15.4324 13.8473 15.5165 13.8071C15.6146 13.7737 15.6987 13.7067 15.7828 13.6531C15.8599 13.6062 15.937 13.5727 16.0351 13.6062C16.1543 13.5459 16.2804 13.479 16.3996 13.4187C16.4136 13.3919 16.3996 13.3718 16.3926 13.345C16.3575 13.2044 16.4556 13.1106 16.6028 13.1374C16.6309 13.1441 16.6589 13.1575 16.6869 13.1508C16.771 13.057 16.8481 12.9566 16.9322 12.8628Z" fill="#0078CA"/>
<path d="M16.6821 13.1453C16.5349 13.0716 16.4228 13.0984 16.3667 13.2189C16.3316 13.2926 16.3597 13.3529 16.3947 13.4198C16.4718 13.4734 16.5489 13.5069 16.64 13.4533C16.7101 13.4131 16.7452 13.3462 16.7382 13.2658C16.7382 13.2122 16.7031 13.1787 16.6821 13.1453Z" fill="#060403"/>
<path d="M9.98242 6.96038C9.98943 6.96707 9.99644 6.97377 10.0034 6.98047C10.0315 6.95368 10.0595 6.92689 10.0595 6.88671C10.0315 6.9068 10.0034 6.93359 9.98242 6.96038Z" fill="#E7CCC6"/>
<path d="M10.6611 10.0761C10.6611 10.3105 10.6611 10.5383 10.6611 10.7727C10.6611 10.9267 10.7312 11.0004 10.8924 11.0004C11.2989 11.0004 11.7054 11.0004 12.112 11.0004C12.182 11.0004 12.2101 11.0138 12.2101 11.0874C12.2031 11.4759 12.2101 11.8576 12.2101 12.2461C12.2101 12.4135 12.2802 12.4805 12.4554 12.4805C12.939 12.4805 13.4226 12.4805 13.9062 12.4805C14.0744 12.4805 14.1445 12.4135 14.1445 12.2461C14.1445 11.8576 14.1445 11.4692 14.1445 11.0807C14.1445 11.0071 14.1655 10.9937 14.2356 10.9937C14.6421 10.9937 15.0487 10.9937 15.4552 10.9937C15.6234 10.9937 15.6935 10.9267 15.6935 10.7593C15.6935 10.2972 15.6935 9.83504 15.6935 9.37293C15.6935 9.21219 15.6234 9.14522 15.4552 9.13852C15.0487 9.13852 14.6421 9.13852 14.2356 9.13852C14.1655 9.13852 14.1445 9.12513 14.1445 9.05146C14.1515 8.66302 14.1445 8.27457 14.1445 7.88613C14.1445 7.7254 14.0744 7.65842 13.9062 7.65173C13.4226 7.65173 12.932 7.65173 12.4484 7.65173C12.2872 7.65173 12.2171 7.7187 12.2171 7.87944C12.2171 8.26788 12.2171 8.65632 12.2171 9.04476C12.2171 9.11843 12.1961 9.13183 12.119 9.13183C11.7125 9.13183 11.313 9.13183 10.9064 9.13183C10.7312 9.13183 10.6611 9.1988 10.6611 9.36623C10.6611 9.61403 10.6611 9.84844 10.6611 10.0761Z" fill="#010101"/>
<path d="M9.23042 9.91644C9.16734 9.96333 9.15332 10.0303 9.15332 10.104C9.16734 10.8541 9.38461 11.5372 9.80514 12.1667C9.88925 12.294 10.0084 12.3007 10.1346 12.2002C10.1906 12.1132 10.1696 12.0261 10.1135 11.9457C9.83318 11.5305 9.65796 11.0818 9.58086 10.5996C9.55282 10.4388 9.54581 10.2714 9.53881 10.104C9.5318 9.91644 9.40564 9.84277 9.23042 9.91644Z" fill="#010101"/>
<path d="M10.3805 12.4917C10.2963 12.5386 10.2613 12.6123 10.2823 12.6993C10.2963 12.773 10.3524 12.8199 10.4225 12.84C10.5206 12.8668 10.5907 12.8199 10.6468 12.7529C10.6818 12.6726 10.6748 12.5989 10.6117 12.5319C10.5417 12.4716 10.4646 12.4649 10.3805 12.4917Z" fill="#060404"/>
<path d="M13.7596 11.4329C13.7596 11.2387 13.7596 11.0512 13.7596 10.857C13.7596 10.6896 13.8297 10.6226 13.9979 10.6226C14.4044 10.6226 14.8039 10.6226 15.2105 10.6226C15.2876 10.6226 15.3156 10.6092 15.3156 10.5288C15.3086 10.2207 15.3086 9.90597 15.3156 9.59789C15.3156 9.52422 15.2876 9.51083 15.2175 9.51083C14.811 9.51083 14.4115 9.51083 14.0049 9.51083C13.8297 9.51083 13.7596 9.44386 13.7596 9.27642C13.7596 8.88798 13.7596 8.49954 13.7596 8.1111C13.7596 8.04412 13.7456 8.03073 13.6755 8.03073C13.3391 8.03743 13.0027 8.03073 12.6663 8.03073C12.6032 8.03073 12.5892 8.04412 12.5892 8.1044C12.5892 8.49284 12.5892 8.88798 12.5892 9.27642C12.5892 9.44386 12.5191 9.51083 12.3439 9.51083C11.9373 9.51083 11.5378 9.51083 11.1313 9.51083C11.0472 9.51083 11.0332 9.53762 11.0332 9.61129C11.0402 9.91936 11.0402 10.2274 11.0332 10.5355C11.0332 10.6159 11.0612 10.6293 11.1383 10.6293C11.5378 10.6226 11.9373 10.6293 12.3368 10.6293C12.5191 10.6293 12.5892 10.6962 12.5892 10.8704C12.5892 11.2588 12.5892 11.6473 12.5892 12.0357C12.5892 12.096 12.6032 12.1094 12.6663 12.1094C13.0027 12.1094 13.3391 12.1094 13.6755 12.1094C13.7386 12.1094 13.7526 12.096 13.7526 12.0357C13.7526 11.8348 13.7596 11.6339 13.7596 11.4329Z" fill="white"/>
<path d="M15.4011 25.0861C17.1646 25.0861 18.9281 25.0861 20.6823 25.0861C20.7839 25.0861 20.8947 25.0769 20.9962 25.0954C21.264 25.1231 21.4117 25.2893 21.4394 25.5478C21.4671 25.8063 21.3471 26.0002 21.0978 26.0833C20.9685 26.1202 20.83 26.1295 20.6916 26.1295C17.1554 26.1295 13.6192 26.1295 10.083 26.1295C9.99987 26.1295 9.91677 26.1294 9.84291 26.1202C9.52899 26.0833 9.31663 25.8525 9.3351 25.5662C9.35357 25.2893 9.55669 25.0954 9.87061 25.0861C10.1107 25.0769 10.3507 25.0861 10.6 25.0861C12.1973 25.0861 13.8038 25.0861 15.4011 25.0861Z" fill="white"/>
<path d="M15.3918 21.7523C17.146 21.7523 18.891 21.7523 20.6453 21.7523C20.7745 21.7523 20.9038 21.7431 21.0238 21.7615C21.2916 21.7985 21.467 21.9924 21.4393 22.2324C21.4116 22.4171 21.2546 22.6017 21.1069 22.731C21.0238 22.8049 20.8392 22.7864 20.7099 22.7864C17.1737 22.7864 13.6375 22.7864 10.1013 22.7864C9.97205 22.7864 9.84279 22.7864 9.72276 22.7495C9.46424 22.6848 9.33498 22.4909 9.34421 22.2416C9.36268 21.9739 9.5104 21.7892 9.79662 21.7615C9.90742 21.7523 10.0274 21.7523 10.1382 21.7523C11.8925 21.7523 13.6375 21.7523 15.3918 21.7523Z" fill="white"/>
<path d="M15.41 18.4208C17.1642 18.4208 18.9093 18.4208 20.6635 18.4208C20.7743 18.4208 20.8943 18.4208 21.0051 18.43C21.2913 18.467 21.4391 18.6516 21.4483 18.9194C21.4575 19.1779 21.319 19.3626 21.0605 19.418C20.9313 19.4457 20.7835 19.4457 20.645 19.4457C17.1458 19.4457 13.6465 19.4457 10.1472 19.4457C9.59327 19.4457 9.33476 19.2702 9.34399 18.9102C9.34399 18.5593 9.59328 18.4023 10.1288 18.4023C11.883 18.4208 13.6465 18.4208 15.41 18.4208Z" fill="white"/>
<path d="M6.26162 25.0861C6.53861 25.0861 6.81559 25.0769 7.09258 25.0861C7.38803 25.0954 7.56346 25.2523 7.60039 25.5478C7.62809 25.834 7.45266 26.0925 7.15721 26.1018C6.55707 26.1295 5.96617 26.1295 5.36603 26.1018C5.07981 26.0833 4.92285 25.8709 4.92285 25.5755C4.92285 25.2985 5.14444 25.0954 5.44913 25.0861C5.70765 25.0769 5.98463 25.0861 6.26162 25.0861Z" fill="white"/>
<path d="M6.28081 21.7646C6.5578 21.7646 6.83478 21.7553 7.11177 21.7646C7.40722 21.783 7.57341 21.9492 7.59188 22.2539C7.60111 22.5586 7.43492 22.7617 7.15793 22.7802C6.5578 22.8079 5.96689 22.8079 5.36675 22.7802C5.08053 22.771 4.92357 22.5494 4.91434 22.2631C4.90511 21.9862 5.1267 21.783 5.43138 21.7646C5.70837 21.7461 5.99459 21.7553 6.28081 21.7646C6.28081 21.7553 6.28081 21.7553 6.28081 21.7646Z" fill="white"/>
<path d="M6.25207 18.4299C6.52905 18.4299 6.80604 18.4207 7.08303 18.4299C7.39695 18.4484 7.59084 18.633 7.59084 18.9192C7.60007 19.2054 7.42465 19.427 7.11073 19.4455C6.53829 19.464 5.96585 19.464 5.38418 19.4455C5.08872 19.4363 4.8856 19.187 4.89483 18.9192C4.90407 18.6515 5.11642 18.4391 5.42111 18.4299C5.70733 18.4207 5.97508 18.4299 6.25207 18.4299Z" fill="white"/>
<path d="M25.9364 2.87356C25.918 2.87356 25.8995 2.87356 25.8903 2.87356C25.8903 2.55041 25.8903 2.27343 25.8903 1.99644C25.8903 1.04545 25.5025 0.65767 24.5423 0.65767C18.8548 0.65767 13.1581 0.65767 7.47065 0.65767C7.33216 0.65767 7.2029 0.65767 7.03671 0.65767C7.03671 0.65767 7.03671 0.65767 7.03671 0.648438H3.76827C3.76827 0.648438 3.76827 0.648437 3.76827 0.65767C3.0758 0.65767 2.4018 0.65767 1.7278 0.65767C0.87837 0.65767 0.462891 1.07315 0.462891 1.93181C0.462891 11.414 0.462891 20.8962 0.462891 30.3876C0.462891 31.2001 0.81374 31.6063 1.5616 31.6617H6.09495V31.6709C12.2441 31.6709 18.3932 31.6709 24.5515 31.6709C25.5025 31.6709 25.8903 31.2832 25.8903 30.3229C25.8903 22.5581 25.8903 14.7932 25.8903 7.01913C25.8903 6.8714 25.8903 6.71445 25.8533 6.57595C25.7887 6.32666 25.5948 6.18817 25.3363 6.20664C25.0685 6.2251 24.8931 6.38206 24.8562 6.66828C24.847 6.79754 24.847 6.91757 24.847 7.04683C24.847 14.7471 24.847 22.4381 24.847 30.1383C24.847 30.286 24.847 30.4337 24.847 30.6092C17.0452 30.6092 9.28953 30.6092 1.52467 30.6092C1.52467 20.9793 1.52467 11.3586 1.52467 1.71022C2.2633 1.71022 3.00194 1.71022 3.78673 1.71022V1.71945H4.82081C11.487 1.71945 18.1346 1.71945 24.8285 1.71945C24.8377 1.83025 24.847 1.95028 24.847 2.0703C24.847 2.84587 24.847 3.6122 24.847 4.38776C24.847 4.794 25.0408 5.02483 25.3732 5.01559C25.6871 5.00636 25.8718 4.78477 25.881 4.39699C25.881 4.24926 25.881 4.10154 25.881 3.92611C25.8995 3.92611 25.918 3.92611 25.9272 3.92611V2.87356H25.9364Z" fill="white"/>
<circle cx="23.4111" cy="27.7539" r="7.69528" fill="#111111"/>
<circle cx="23.4112" cy="27.753" r="5.50297" stroke="white"/>
<line x1="19.3301" y1="23.5293" x2="27.0684" y2="31.2675" stroke="white"/>
</svg>
