<svg width="69" height="66" viewBox="0 0 69 66" fill="none" xmlns="http://www.w3.org/2000/svg">
<g id="Group 36355">
<rect id="Rectangle 4009" x="0.967773" y="0.183594" width="67.5117" height="65.7812" rx="15" fill="#DEEDFF" fill-opacity="0.08"/>
<g id="Group 36344">
<g id="Group">
<path id="Subtract" fill-rule="evenodd" clip-rule="evenodd" d="M21.9258 47.7989C21.9258 49.0324 22.6967 50.1117 23.9302 50.42C24.0844 50.42 24.0844 50.42 24.2386 50.5742H24.2388C31.1771 50.5742 38.1153 50.5742 45.0535 50.2659H45.2077C46.5954 49.9575 47.5205 48.8782 47.5205 47.4905V25.4421C47.5205 25.2879 47.3663 24.9795 47.2121 24.8253L38.2694 15.8826C38.1868 15.8413 38.1152 15.8 38.0488 15.7616C37.8673 15.6568 37.7242 15.5742 37.4985 15.5742H24.8553C24.7914 15.5742 24.7011 15.6007 24.5953 15.6317C24.4456 15.6755 24.265 15.7284 24.0844 15.7284C23.0051 16.0368 21.9258 16.9619 21.9258 18.6579V44.2526V47.7989ZM23.3135 18.8132V33.1524C23.3135 37.9322 23.3135 42.8661 23.4677 47.6458C23.4677 48.5709 24.0844 49.1877 25.0095 49.1877H44.7452C45.6703 49.1877 46.287 48.5709 46.287 47.6458V26.5225C46.287 26.2141 46.287 26.2141 45.9787 26.2141H40.1196C38.2694 26.2141 37.0359 24.9806 37.0359 23.1304V17.4256C37.0359 17.2714 37.0359 17.1172 36.7276 17.1172H25.0095C23.9302 17.1172 23.3135 17.7339 23.3135 18.8132Z" fill="white"/>
<path id="Vector" d="M23.3135 33.1524C23.3135 28.3727 23.3135 23.593 23.3135 18.8132C23.3135 17.7339 23.9302 17.1172 25.0095 17.1172C28.8641 17.1172 32.7188 17.1172 36.7276 17.1172C37.0359 17.1172 37.0359 17.2714 37.0359 17.4256C37.0359 19.2758 37.0359 21.2802 37.0359 23.1304C37.0359 24.9806 38.2694 26.2141 40.1196 26.2141C42.124 26.2141 43.9743 26.2141 45.9787 26.2141C46.287 26.2141 46.287 26.2141 46.287 26.5225C46.287 33.615 46.287 40.5533 46.287 47.6458C46.287 48.5709 45.6703 49.1877 44.7452 49.1877C38.1152 49.1877 31.6395 49.1877 25.0095 49.1877C24.0844 49.1877 23.4677 48.5709 23.4677 47.6458C23.3135 42.8661 23.3135 37.9322 23.3135 33.1524Z" fill="#0078CA"/>
<path id="Vector_2" d="M38.4227 18.1953C40.5813 20.3539 42.8941 22.6667 45.0527 24.8253C45.0527 24.8253 44.8985 24.8253 44.7443 24.8253C43.2025 24.8253 41.5064 24.8253 39.9646 24.8253C38.8853 24.8253 38.2686 24.2085 38.2686 23.1292C38.2686 21.5874 38.2686 19.8913 38.2686 18.3495C38.4227 18.3495 38.4227 18.1953 38.4227 18.1953Z" fill="#014574"/>
<path id="Vector_3" d="M34.7221 40.7002C33.0261 40.7002 31.33 40.7002 29.4798 40.7002C29.3256 40.7002 29.3256 40.7002 29.1714 40.7002C28.7089 40.7002 28.5547 40.3918 28.5547 39.9292C28.5547 39.6209 28.8631 39.3125 29.1714 39.3125C29.3256 39.3125 29.3256 39.3125 29.4798 39.3125C32.8719 39.3125 36.4181 39.3125 39.8102 39.3125C39.9644 39.3125 40.1186 39.3125 40.2727 39.3125C40.5811 39.4667 40.7353 39.6209 40.7353 39.9292C40.7353 40.2376 40.5811 40.546 40.2727 40.546C40.1186 40.546 39.9644 40.546 39.8102 40.546C38.2683 40.7002 36.4181 40.7002 34.7221 40.7002Z" fill="white"/>
<path id="Vector_4" d="M34.7232 34.5382C33.0271 34.5382 31.1769 34.5382 29.4809 34.5382C29.3267 34.5382 29.1725 34.5382 29.1725 34.5382C28.8641 34.5382 28.71 34.2298 28.71 33.9214C28.71 33.6131 29.0183 33.3047 29.3267 33.3047C29.4809 33.3047 29.4809 33.3047 29.6351 33.3047C33.1813 33.3047 36.7276 33.3047 40.2738 33.3047H40.428C40.8906 33.3047 41.0448 33.6131 41.0448 33.9214C41.0448 34.384 40.7364 34.5382 40.428 34.5382C39.6571 34.5382 38.8862 34.5382 38.1152 34.5382C36.8818 34.5382 35.8025 34.5382 34.7232 34.5382Z" fill="white"/>
<path id="Vector_5" d="M34.7221 37.6181C33.0261 37.6181 31.1758 37.6181 29.4798 37.6181C29.3256 37.6181 29.1714 37.6181 29.1714 37.6181C28.8631 37.6181 28.5547 37.3098 28.5547 37.0014C28.5547 36.693 28.7089 36.3847 29.0172 36.2305C29.1714 36.2305 29.3256 36.2305 29.4798 36.2305C33.0261 36.2305 36.5723 36.2305 40.1186 36.2305C40.2727 36.2305 40.2728 36.2305 40.4269 36.2305C40.7353 36.2305 41.0437 36.5388 41.0437 37.0014C41.0437 37.3098 40.7353 37.6181 40.4269 37.6181C39.8102 37.6181 39.1935 37.6181 38.5767 37.6181C37.189 37.6181 35.9556 37.6181 34.7221 37.6181Z" fill="white"/>
<path id="Vector_6" d="M32.8719 42.4042C34.1053 42.4042 35.1846 42.4042 36.4181 42.4042C37.0349 42.4042 37.3432 42.7126 37.3432 43.0209C37.3432 43.4835 37.0349 43.6377 36.5723 43.6377C34.2595 43.6377 31.7926 43.6377 29.4798 43.6377C29.3256 43.6377 29.3256 43.6377 29.1714 43.6377C28.8631 43.6377 28.5547 43.3293 28.5547 42.8667C28.5547 42.5584 28.8631 42.25 29.1714 42.25C30.0965 42.25 30.8675 42.25 31.7926 42.25C32.2551 42.4042 32.5635 42.4042 32.8719 42.4042Z" fill="white"/>
</g>
</g>
</g>
</svg>
