<svg width="14" height="11" viewBox="0 0 14 11" fill="none" xmlns="http://www.w3.org/2000/svg">
<g id="Group 427319441">
<path id="Vector" d="M7.37126 10.4093C5.74798 10.4093 4.1247 10.4093 2.50604 10.4093C1.4546 10.4093 0.749023 9.70372 0.749023 8.6615C0.749023 7.97899 0.749023 7.29186 0.749023 6.60935C0.749023 6.24503 0.974991 5.9914 1.30241 5.99601C1.62984 5.99601 1.85119 6.24964 1.85119 6.61396C1.85119 7.3057 1.85119 7.99282 1.85119 8.68456C1.85119 9.08577 2.07255 9.30713 2.46914 9.30713C5.74337 9.30713 9.0176 9.30713 12.2918 9.30713C12.6792 9.30713 12.9006 9.08577 12.9006 8.69378C12.9006 7.97899 12.9006 7.2688 12.9006 6.55401C12.9006 6.25887 13.1081 6.02829 13.3848 5.99601C13.6569 5.96373 13.9105 6.13897 13.9797 6.41105C13.9981 6.47561 13.9981 6.5494 13.9981 6.61396C13.9981 7.31031 14.0027 8.00666 13.9981 8.70301C13.9935 9.6945 13.2787 10.4093 12.2872 10.4093C10.6501 10.4093 9.01298 10.4093 7.37126 10.4093Z" fill="#0078CA"/>
<path id="Vector_2" d="M6.82318 6.49109C6.82318 6.38502 6.82318 6.31585 6.82318 6.24668C6.82318 3.80254 6.82318 3.69683 6.82318 1.25269C6.82318 1.16046 6.82779 1.06823 6.85085 0.980608C6.92463 0.72697 7.17366 0.565565 7.43652 0.597846C7.69477 0.625515 7.90229 0.84226 7.92534 1.10051C7.92996 1.16507 7.92996 1.22502 7.92996 1.28958C7.92996 3.72911 7.92996 3.83021 7.92996 6.26512C7.92996 6.32507 7.92996 6.38964 7.92996 6.47726C7.98991 6.43575 8.03141 6.41269 8.0683 6.38041C8.64475 5.91925 9.21659 5.46271 9.79304 5.00155C10.0697 4.78019 10.4018 4.80325 10.6047 5.05689C10.803 5.30591 10.7615 5.63795 10.494 5.85008C9.58552 6.58332 8.67242 7.31195 7.75933 8.03597C7.49647 8.24349 7.25205 8.24349 6.98919 8.03597C6.09916 7.32579 5.20912 6.6156 4.3237 5.90081C4.06545 5.69329 4.02394 5.36586 4.21763 5.12145C4.41132 4.87242 4.74796 4.83553 5.01543 5.04766C5.56421 5.48115 6.11299 5.92387 6.66177 6.35736C6.70327 6.39886 6.74939 6.43575 6.82318 6.49109Z" fill="#0078CA"/>
</g>
</svg>
