<svg width="26" height="24" viewBox="0 0 26 24" fill="none" xmlns="http://www.w3.org/2000/svg">
<path d="M12.6987 23.1761C15.7605 23.1761 18.8224 23.1769 21.8842 23.1761C23.8659 23.1752 25.1984 21.8475 25.2002 19.8717C25.201 18.578 25.2019 17.2851 25.2002 15.9914C25.1993 15.2997 24.7728 14.8284 24.1549 14.8301C23.5413 14.8319 23.1175 15.3067 23.1166 15.9993C23.1148 17.3034 23.1175 18.6076 23.1157 19.9117C23.1148 20.6662 22.6988 21.0887 21.9529 21.0887C15.7744 21.0896 9.59681 21.0896 3.4183 21.0887C2.68722 21.0887 2.27033 20.6671 2.26946 19.9318C2.26685 18.5841 2.27294 17.2363 2.26598 15.8886C2.26336 15.3311 1.87346 14.8972 1.34777 14.8354C0.835148 14.7744 0.352982 15.1046 0.22069 15.6177C0.188488 15.7414 0.185005 15.8755 0.185005 16.0045C0.182394 17.32 0.179785 18.6346 0.184137 19.9501C0.191099 21.824 1.53925 23.1726 3.41482 23.1752C6.50973 23.1787 9.60377 23.1761 12.6987 23.1761Z" fill="#0078CA"/>
<path d="M13.7345 15.7767C13.7345 15.5754 13.7345 15.4474 13.7345 15.3184C13.7345 10.7012 13.7353 6.08303 13.7319 1.46577C13.7319 1.29415 13.724 1.11468 13.6762 0.952642C13.5334 0.469136 13.0669 0.172934 12.5743 0.22956C12.0895 0.285316 11.6961 0.689545 11.6544 1.18263C11.6439 1.30111 11.6491 1.42134 11.6491 1.54069C11.6491 6.1475 11.6491 10.7543 11.6491 15.3611C11.6491 15.4779 11.6491 15.5946 11.6491 15.7619C11.5351 15.6835 11.4559 15.6364 11.3854 15.5798C10.3001 14.713 9.21482 13.8444 8.13039 12.9758C7.60993 12.5594 6.97893 12.6038 6.5986 13.0821C6.22696 13.5491 6.30703 14.1772 6.80835 14.5805C8.52552 15.9614 10.2453 17.3387 11.9686 18.7126C12.4629 19.1063 12.9251 19.1029 13.4185 18.7091C15.0983 17.3683 16.7763 16.025 18.4526 14.679C18.9356 14.2913 19.0157 13.6649 18.6545 13.2032C18.2872 12.7328 17.6518 12.6674 17.1514 13.0629C16.1131 13.8845 15.0809 14.7147 14.0452 15.5406C13.9616 15.6059 13.8763 15.6687 13.7345 15.7767Z" fill="#0078CA"/>
</svg>
