<svg width="36" height="34" viewBox="0 0 36 34" fill="none" xmlns="http://www.w3.org/2000/svg">
<g id="Group 36381">
<g id="Group 36380">
<g id="Group">
<path id="Subtract" fill-rule="evenodd" clip-rule="evenodd" d="M0.452148 5.08048V31.2642C0.485292 31.4299 0.501864 31.5956 0.518436 31.7613C0.535008 31.9271 0.55158 32.0928 0.584724 32.2585C1.2476 33.1865 2.10935 33.6506 3.23624 33.6506H32.4692H32.8006C34.1927 33.5843 35.4521 32.4574 35.4521 30.999V5.41192C35.4521 4.9479 35.3859 4.55017 35.1207 4.15245C34.5241 3.22442 33.6624 2.7604 32.6018 2.7604H30.9446C30.6794 2.7604 30.5468 2.62783 30.5468 2.36267C30.5468 2.09752 30.4806 1.89866 30.4143 1.6998C30.0828 0.705477 28.8897 0.241462 27.9616 0.771765C27.365 1.1032 27.0999 1.63351 27.0999 2.29639C27.0999 2.7604 27.0336 2.7604 26.6359 2.7604H25.7078C25.3646 2.79472 25.1991 2.81128 25.1193 2.73644C25.045 2.66674 25.045 2.51778 25.045 2.2301C25.045 2.09752 25.045 1.96495 24.9787 1.83237C24.7135 0.838053 23.6529 0.30775 22.6586 0.771765C21.9957 1.03692 21.6643 1.50093 21.6643 2.2301C21.6643 2.49525 21.6643 2.62783 21.598 2.69411C21.5317 2.7604 21.3991 2.7604 21.134 2.7604H20.2059C19.9415 2.7604 19.8089 2.7604 19.7342 2.69465C19.6592 2.62854 19.6426 2.49597 19.6093 2.2301C19.6093 2.16381 19.5928 2.09752 19.5762 2.03123C19.5596 1.96495 19.5431 1.89866 19.5431 1.83237C19.3442 1.1032 18.6813 0.506614 17.8859 0.506614C17.0904 0.506614 16.4275 1.1032 16.2287 1.83237C16.2287 1.9318 16.2121 2.03123 16.1955 2.13067C16.1789 2.2301 16.1624 2.32953 16.1624 2.42896C16.1624 2.62783 16.0298 2.69411 15.8309 2.69411H14.4389C14.1737 2.69411 14.1075 2.56154 14.1075 2.36267V2.09752C14.0412 1.03692 12.9806 0.241462 11.92 0.572902C11.0582 0.838053 10.7268 1.43464 10.6605 2.29639C10.6605 2.62783 10.5279 2.69411 10.2628 2.69411H9.00328C8.67185 2.69411 8.60556 2.69411 8.60556 2.29639V2.03124C8.53927 0.970629 7.41238 0.241462 6.41806 0.572902C5.68889 0.838053 5.29116 1.43464 5.22488 2.2301C5.22488 2.69411 5.22488 2.69411 4.76086 2.69411H3.30253C1.77791 2.69411 0.7173 3.55586 0.452148 5.08048ZM5.55652 8.85678C5.02622 8.85678 4.95993 8.79049 4.82735 8.32648C4.42962 8.12761 4.0319 8.12761 3.63417 8.32648C3.63417 8.59163 3.50159 8.79049 3.23644 8.85678H3.10387C2.80494 8.88999 2.65579 8.90657 2.58138 8.98989C2.50728 9.07285 2.50728 9.222 2.50728 9.51966V9.65223V30.4003C2.50728 31.4609 2.57356 31.5272 3.63417 31.5272H33.5963H34.0603C34.0999 31.5074 34.1394 31.4936 34.1772 31.4803C34.2661 31.4491 34.3452 31.4214 34.3917 31.3284C34.458 31.1958 34.458 30.9969 34.458 30.7981V9.18822C34.458 8.92307 34.3917 8.85678 34.1266 8.85678H27.8955H5.55652Z" fill="white"/>
<path id="Vector" d="M4.82691 8.32516C4.42918 8.32516 4.03146 8.32516 3.70002 8.32516C3.63373 7.92744 3.43487 7.79486 3.03714 7.79486C2.90456 7.79486 2.77199 7.79486 2.63941 7.79486C2.50684 7.66229 2.50684 7.52971 2.50684 7.39713C2.50684 6.40282 2.50684 5.4085 2.50684 4.41418C2.50684 4.2816 2.50684 4.08274 2.7057 4.01645C3.236 3.88388 3.76631 3.95017 4.29661 3.95017C4.56176 3.95017 4.8932 3.95017 5.15835 3.95017C5.35721 3.95017 5.4235 4.01645 5.35721 4.21532C5.35721 4.48047 5.35721 4.67933 5.4235 4.94448C5.62237 5.73994 6.35153 6.27024 7.21328 6.20395C8.00873 6.13767 8.60532 5.47479 8.60532 4.67933C8.60532 4.01645 8.60532 4.01645 9.2682 4.01645C9.73221 4.01645 10.1962 4.01645 10.6602 4.01645C10.7928 4.01645 10.8591 4.08274 10.8591 4.21532C10.8591 4.41418 10.8591 4.67933 10.9254 4.8782C11.058 5.73994 11.7871 6.27024 12.6489 6.20395C13.4443 6.13767 14.1072 5.47479 14.1072 4.67933C14.1072 4.01645 14.1072 4.01645 14.8364 4.01645C15.3004 4.01645 15.6981 4.01645 16.1621 4.01645C16.361 4.01645 16.4273 4.08274 16.4273 4.28161C16.4273 4.54676 16.4273 4.81191 16.4936 5.07706C16.7587 5.80623 17.4216 6.27024 18.2171 6.20395C18.9462 6.13767 19.5428 5.54107 19.6091 4.81191C19.6091 4.74562 19.6091 4.74562 19.6091 4.67933C19.6754 4.48047 19.5428 4.14903 19.6754 4.08274C19.8743 3.95017 20.1394 4.01645 20.4046 4.01645C20.8023 4.01645 21.2 4.01645 21.664 4.01645C21.9292 4.01645 21.9955 4.08274 21.9292 4.34789C21.9292 4.61304 21.9292 4.81191 21.9955 5.07706C22.1943 5.87251 22.9235 6.33653 23.719 6.27024C24.4481 6.20395 25.0447 5.54107 25.111 4.74562C25.111 4.54676 24.9784 4.21532 25.1773 4.14903C25.3099 4.01645 25.6413 4.08274 25.8402 4.08274C26.2379 4.08274 26.6356 4.08274 27.0334 4.08274C27.3648 4.08274 27.4311 4.14903 27.3648 4.48047C27.3648 4.67933 27.3648 4.8782 27.4311 5.07706C27.6299 5.87251 28.3591 6.40282 29.1546 6.27024C29.95 6.20395 30.5466 5.54107 30.6129 4.74562C30.6792 4.08274 30.6792 4.08274 31.2758 4.08274C31.8061 4.08274 32.2701 4.08274 32.8004 4.08274C33.7947 4.08274 34.5239 4.81191 34.5239 5.80623C34.5239 6.46911 34.5239 7.13198 34.5239 7.72857C34.5239 7.92744 34.4576 7.99373 34.325 7.92744C34.2587 7.92744 34.1262 7.92744 34.0599 7.92744C24.5807 7.92744 15.1015 7.92744 5.68865 7.92744C5.02577 7.79486 4.95949 7.86115 4.82691 8.32516Z" fill="#0078CA"/>
<path id="Vector_2" d="M3.23618 8.79297C2.63959 8.92554 2.63959 8.92554 2.63959 9.52214C2.63959 16.5487 2.63959 23.5752 2.63959 30.6017C2.63959 31.1983 2.70588 31.3308 3.36876 31.3308C13.5771 31.3308 23.7854 31.3308 33.9938 31.3308C34.1263 31.3308 34.3252 31.3308 34.4578 31.2646C34.2589 31.9937 33.6623 32.4577 32.9332 32.524C32.8669 32.524 32.8006 32.524 32.7343 32.524C22.9237 32.524 13.1794 32.524 3.36876 32.524C2.90474 32.524 2.50701 32.4577 2.17557 32.1926C1.71156 31.8611 1.5127 31.3308 1.5127 30.8005C1.5127 28.2816 1.5127 25.829 1.5127 23.31C1.5127 18.6036 1.5127 13.8971 1.5127 9.25698C1.5127 8.99183 1.57898 8.85926 1.84413 8.92555C2.24186 8.79297 2.77216 8.79297 3.23618 8.79297Z" fill="#DEEDFF"/>
<path id="Vector_3" d="M2.70522 3.95312C2.63893 4.0857 2.63893 4.21828 2.63893 4.35085C2.63893 5.47775 2.63893 6.60464 2.63893 7.79782C2.24121 7.79782 1.77719 7.9304 1.57833 7.73153C1.37946 7.53267 1.51204 7.06866 1.51204 6.73722C1.51204 6.33949 1.51204 5.94176 1.51204 5.61032C1.44575 4.74858 1.90977 4.15199 2.70522 3.95312Z" fill="#014574"/>
<path id="Vector_4" d="M18.5488 2.16406C18.6151 2.95952 18.6151 3.68868 18.5488 4.48414C18.5488 4.81558 18.2837 5.01444 17.9522 5.01444C17.6208 5.01444 17.4219 4.81558 17.3556 4.48414C17.3556 3.68868 17.2893 2.95952 17.3556 2.16406C17.5545 2.36293 17.4219 2.62808 17.4882 2.89323C17.4882 3.22467 17.5545 3.22467 17.9522 3.22467C18.35 3.22467 18.35 3.22467 18.35 2.89323C18.4162 2.69437 18.35 2.42921 18.5488 2.16406Z" fill="#014574"/>
<path id="Vector_5" d="M7.54621 3.3531C7.54621 3.68454 7.54621 4.08227 7.54621 4.41371C7.54621 4.74515 7.34735 4.94401 7.01591 4.94401C6.68447 5.0103 6.41932 4.81143 6.41932 4.54628C6.35303 3.68454 6.28674 2.8228 6.41932 2.02734C6.61818 2.22621 6.55189 2.49136 6.55189 2.69022C6.55189 3.22053 6.55189 3.22053 7.08219 3.22053C7.28106 3.28681 7.41363 3.22053 7.54621 3.3531Z" fill="#014574"/>
<path id="Vector_6" d="M29.4863 2.09766C29.5526 2.16394 29.5526 2.29652 29.5526 2.4291C29.5526 3.09197 29.5526 3.75485 29.5526 4.35144C29.5526 4.74917 29.3537 5.01432 28.956 5.01432C28.5582 5.01432 28.3594 4.74917 28.3594 4.35144C28.3594 4.02 28.3594 3.68857 28.3594 3.42341C28.492 3.29084 28.6245 3.35713 28.8234 3.29084C29.3537 3.29084 29.3537 3.29084 29.3537 2.76054C29.3537 2.49538 29.2874 2.23023 29.4863 2.09766Z" fill="#014574"/>
<path id="Vector_7" d="M13.0467 3.35713C13.0467 3.68857 13.0467 4.08629 13.0467 4.41773C13.0467 4.74917 12.7816 4.94804 12.5164 4.94804C12.185 4.94804 11.9198 4.74917 11.9198 4.48402C11.8535 3.68857 11.8535 2.89311 11.9198 2.09766C12.1187 2.29652 12.0524 2.56167 12.0524 2.82682C12.0524 3.22455 12.0524 3.22455 12.5164 3.29084C12.649 3.29084 12.8479 3.22455 13.0467 3.35713Z" fill="#014574"/>
<path id="Vector_8" d="M23.9833 2.09766C24.1159 2.49538 23.9833 2.9594 24.0496 3.35713C24.0496 3.68857 24.0496 4.08629 24.0496 4.41773C24.0496 4.74917 23.7845 5.01432 23.453 5.01432C23.1216 5.01432 22.9227 4.81546 22.8564 4.41773C22.8564 4.08629 22.8564 3.68857 22.8564 3.35713C23.0553 3.22455 23.2542 3.29084 23.453 3.22455C23.8508 3.22455 23.8508 3.22455 23.8508 2.82682C23.9171 2.62796 23.7845 2.36281 23.9833 2.09766Z" fill="#014574"/>
<path id="Vector_9" d="M13.0462 3.3563C12.7811 3.3563 12.5159 3.3563 12.3171 3.3563C12.0519 3.3563 11.9194 3.29001 11.9856 3.02486C11.9856 2.69342 11.9856 2.42827 11.9856 2.09683C12.1182 1.76539 12.3171 1.63281 12.5822 1.63281C12.8474 1.6991 13.1125 1.89796 13.1125 2.2294C13.0462 2.62713 13.0462 3.02486 13.0462 3.3563Z" fill="#0790ED"/>
<path id="Vector_10" d="M23.9854 2.09683C23.9854 2.42827 23.9854 2.69342 23.9854 3.02486C23.9854 3.29001 23.9191 3.3563 23.654 3.3563C23.3888 3.3563 23.1237 3.3563 22.9248 3.3563C22.9248 2.95857 22.9248 2.62713 22.9248 2.2294C22.9248 1.89796 23.1237 1.6991 23.4551 1.63281C23.654 1.63281 23.9191 1.76539 23.9854 2.09683Z" fill="#0790ED"/>
<path id="Vector_11" d="M18.5488 2.16312C18.5488 2.49455 18.5488 2.82599 18.5488 3.09115C18.4825 3.55516 18.151 3.29001 17.8859 3.29001C17.7533 3.29001 17.4219 3.42259 17.4219 3.09115C17.4219 2.75971 17.4219 2.42827 17.4219 2.16312C17.4882 1.83168 17.687 1.63281 18.0185 1.63281C18.2836 1.6991 18.4825 1.83168 18.5488 2.16312Z" fill="#0790ED"/>
<path id="Vector_12" d="M7.54495 3.35334C7.34609 3.35334 7.08094 3.35334 6.88207 3.35334C6.55063 3.41963 6.41806 3.28705 6.48435 2.95561C6.48435 2.62417 6.48435 2.35902 6.48435 2.02758C6.55063 1.69614 6.81578 1.56357 7.08094 1.62985C7.41238 1.69614 7.54495 1.89501 7.54495 2.22644C7.54495 2.62417 7.54495 3.0219 7.54495 3.35334Z" fill="#0790ED"/>
<path id="Vector_13" d="M29.4874 2.09789C29.4874 2.36304 29.4874 2.69448 29.4874 2.95964C29.4874 3.42365 29.4874 3.42365 29.0233 3.42365C28.8245 3.42365 28.6256 3.42365 28.4268 3.42365C28.4268 3.02592 28.4268 2.69448 28.4268 2.29676C28.4268 1.96532 28.6256 1.76645 28.8908 1.70017C29.1559 1.63388 29.3548 1.76645 29.4874 2.09789Z" fill="#0790ED"/>
</g>
<path id="Vector_14" d="M23.3882 12.7031C23.3882 12.902 23.5208 13.0346 23.7197 13.1009C23.9848 13.2334 24.25 13.366 24.5814 13.5649C24.5151 14.0289 24.7803 14.294 25.0454 14.5592C26.0398 15.5535 26.4375 16.813 26.3049 18.205C26.106 20.3262 25.0454 21.9834 23.7197 23.5743C22.5928 24.9001 21.267 25.9607 19.8087 26.955C19.6098 27.0876 19.411 27.2865 19.1458 27.3527C18.947 27.3527 18.8144 27.2202 18.6155 27.1539C16.6932 25.9607 14.9697 24.5687 13.4451 22.9115C12.3845 21.7183 11.4564 20.3925 10.9924 18.8016C10.5284 17.2107 10.661 15.6861 11.589 14.294C11.7216 14.0952 11.9204 13.8963 12.053 13.6974C12.3182 13.4323 12.7159 13.366 13.0473 13.2997C14.7045 12.902 16.1629 13.366 17.356 14.4929L17.4223 14.5592C17.8201 14.9569 17.9526 14.9569 18.3504 14.5592C18.6818 14.2277 19.0132 13.9626 19.411 13.6974C20.4053 13.1671 21.3996 12.9683 22.5265 13.1671C22.9905 13.2334 23.0568 13.2334 23.2557 12.7694C23.322 12.7694 23.3882 12.7031 23.3882 12.7031Z" fill="#0078CA"/>
<path id="Vector_15" d="M19.1456 27.2911C21.7971 25.5676 24.1172 23.5789 25.5755 20.6623C26.1721 19.4028 26.4373 18.0771 26.1721 16.685C25.9732 15.757 25.5092 14.9615 24.7801 14.2986C24.5149 14.0335 24.4486 13.8346 24.6475 13.5032C24.9789 13.238 25.1778 13.238 25.4429 13.5032C26.835 14.7627 27.4316 16.2873 27.299 18.1433C27.1664 20.3308 26.1058 22.1206 24.7801 23.7778C22.9903 25.899 20.8028 27.5562 18.3501 28.9483C18.1513 29.0808 17.9524 29.0808 17.7535 29.0145C14.7706 27.2911 12.1191 25.2361 10.1967 22.3195C9.40127 21.06 8.87097 19.7342 8.73839 18.2759C8.53953 16.0221 9.66642 13.8346 11.6551 12.774C13.6437 11.7134 16.0301 11.9786 17.7535 13.4369C17.9524 13.6358 18.0187 13.5695 18.2176 13.4369C19.6096 12.31 21.1342 11.9123 22.924 12.2437C23.1892 12.31 23.388 12.3763 23.4543 12.6414C23.388 13.1717 23.1891 13.3043 22.7251 13.238C21.0679 12.9066 19.6759 13.3706 18.549 14.5638C18.1513 14.9615 17.9524 14.9615 17.5547 14.5638C16.2289 13.1717 14.3066 12.774 12.5831 13.4369C12.4505 13.5032 12.3179 13.5695 12.1854 13.6358C11.7876 13.9672 11.3236 14.2324 10.9922 14.6964C10.1304 15.6907 9.73271 16.8176 9.86529 18.1433C10.0642 20.132 10.9922 21.7229 12.2516 23.1812C13.7763 24.971 15.6323 26.363 17.621 27.6225C17.8861 27.8214 18.1513 27.8214 18.4164 27.6225C18.6153 27.5562 18.8142 27.3574 19.1456 27.2911Z" fill="white"/>
<path id="Vector_16" d="M19.1458 27.2882L19.0795 27.3545C18.0189 28.0837 18.0189 28.0837 16.9583 27.3545C14.9034 25.9625 12.981 24.4379 11.4564 22.3829C10.5284 21.1235 9.86548 19.7314 9.73291 18.1405C9.53404 16.2844 10.5946 14.3621 12.1856 13.6992C12.1193 13.9644 11.9204 14.0969 11.7878 14.2958C10.8598 15.6879 10.7272 17.1462 11.1912 18.7371C11.589 20.1291 12.3844 21.3886 13.3125 22.5155C14.9034 24.3716 16.7594 25.8299 18.7481 27.1557C18.8143 27.1557 18.9469 27.2882 19.1458 27.2882Z" fill="#014574"/>
<g id="Group_2">
<path id="Vector_17" d="M20.8023 21.3259C20.8023 21.4585 20.736 21.4585 20.6697 21.4585H19.0788C18.88 21.4585 18.7474 21.5247 18.7474 21.7899V23.3808C18.7474 23.4471 18.7474 23.5134 18.6148 23.5134C18.1508 23.5134 17.7531 23.5134 17.2891 23.5134C17.2228 23.5134 17.1565 23.5134 17.1565 23.3808V21.7899C17.1565 21.591 17.0902 21.4585 16.825 21.4585H15.2341C15.1016 21.4585 15.1016 21.3922 15.1016 21.3259C15.1016 20.9281 15.1016 20.4641 15.1016 20.0664C15.1016 19.9338 15.1678 19.9338 15.2341 19.9338C15.7644 19.9338 16.2947 19.9338 16.825 19.9338C17.0902 19.9338 17.1565 19.8675 17.1565 19.6024V18.0115C17.1565 17.9452 17.1565 17.8789 17.2891 17.8789H18.6148C18.6811 17.8789 18.7474 17.8789 18.7474 18.0115C18.7474 18.2766 18.7474 18.5418 18.7474 18.8069V19.6024C18.7474 19.8013 18.8137 19.9338 19.0788 19.9338H20.6697C20.8023 19.9338 20.8023 19.9338 20.8023 20.0664C20.8023 20.4641 20.8023 20.9281 20.8023 21.3259Z" fill="white"/>
</g>
</g>
</g>
</svg>
