<svg width="297" height="232" viewBox="0 0 297 232" fill="none" xmlns="http://www.w3.org/2000/svg">
<path d="M3.08362 131.266V141.534L11.9749 136.4L3.08362 131.266Z" stroke="white" stroke-width="4.58906" stroke-miterlimit="10" stroke-linecap="round" stroke-linejoin="round"/>
<circle cx="145.071" cy="155.423" r="69.2781" transform="rotate(180 145.071 155.423)" fill="#05D5AF" fill-opacity="0.15" stroke="#05D5AF" stroke-width="3.44179"/>
<path d="M149.618 1.82422V13.337" stroke="#05D4AF" stroke-width="3.44179" stroke-miterlimit="10" stroke-linecap="round" stroke-linejoin="round"/>
<path d="M167.756 10.2852L158.939 17.6793" stroke="#05D4AF" stroke-width="3.44179" stroke-miterlimit="10" stroke-linecap="round" stroke-linejoin="round"/>
<path d="M172.929 29.6153L161.594 27.6133" stroke="#05D4AF" stroke-width="3.44179" stroke-miterlimit="10" stroke-linecap="round" stroke-linejoin="round"/>
<path d="M159.994 46.7684L154.946 36.4258" stroke="#05D4AF" stroke-width="3.44179" stroke-miterlimit="10" stroke-linecap="round" stroke-linejoin="round"/>
<path d="M139.705 46.9867L144.523 36.5352" stroke="#05D4AF" stroke-width="3.44179" stroke-miterlimit="10" stroke-linecap="round" stroke-linejoin="round"/>
<path d="M126.345 29.7872L137.663 27.6992" stroke="#05D4AF" stroke-width="3.44179" stroke-miterlimit="10" stroke-linecap="round" stroke-linejoin="round"/>
<path d="M131.997 9.69922L140.567 17.3802" stroke="#05D4AF" stroke-width="3.44179" stroke-miterlimit="10" stroke-linecap="round" stroke-linejoin="round"/>
<path d="M257.462 184.234V195.747" stroke="#05D4AF" stroke-width="3.44179" stroke-miterlimit="10" stroke-linecap="round" stroke-linejoin="round"/>
<path d="M275.6 192.695L266.783 200.089" stroke="#05D4AF" stroke-width="3.44179" stroke-miterlimit="10" stroke-linecap="round" stroke-linejoin="round"/>
<path d="M280.773 212.029L269.438 210.027" stroke="#05D4AF" stroke-width="3.44179" stroke-miterlimit="10" stroke-linecap="round" stroke-linejoin="round"/>
<path d="M267.838 229.179L262.79 218.836" stroke="#05D4AF" stroke-width="3.44179" stroke-miterlimit="10" stroke-linecap="round" stroke-linejoin="round"/>
<path d="M247.549 229.397L252.367 218.945" stroke="#05D4AF" stroke-width="3.44179" stroke-miterlimit="10" stroke-linecap="round" stroke-linejoin="round"/>
<path d="M234.189 212.201L245.507 210.113" stroke="#05D4AF" stroke-width="3.44179" stroke-miterlimit="10" stroke-linecap="round" stroke-linejoin="round"/>
<path d="M239.841 192.109L248.411 199.79" stroke="#05D4AF" stroke-width="3.44179" stroke-miterlimit="10" stroke-linecap="round" stroke-linejoin="round"/>
<path d="M65.9937 121.326C68.5852 121.326 70.686 119.225 70.686 116.634C70.686 114.042 68.5852 111.941 65.9937 111.941C63.4022 111.941 61.3014 114.042 61.3014 116.634C61.3014 119.225 63.4022 121.326 65.9937 121.326Z" fill="white"/>
<path d="M113.807 77.123C115.794 77.123 117.404 75.5128 117.404 73.5264C117.404 71.54 115.794 69.9297 113.807 69.9297C111.821 69.9297 110.211 71.54 110.211 73.5264C110.211 75.5128 111.821 77.123 113.807 77.123Z" stroke="#05D4AF" stroke-width="3.44179" stroke-miterlimit="10"/>
<path d="M38.2042 153.31L48.0231 155.453L50.1657 145.634L40.3469 143.492L38.2042 153.31Z" stroke="#05D4AF" stroke-width="3.44179" stroke-miterlimit="10"/>
<path d="M54.1377 71.8047L45.0514 76.5945L53.7419 82.067L54.1377 71.8047Z" stroke="#3E59E8" stroke-width="3.44179" stroke-miterlimit="10" stroke-linecap="round" stroke-linejoin="round"/>
<path d="M276.932 109.664V118.32" stroke="#3E59E8" stroke-width="3.44179" stroke-miterlimit="10" stroke-linecap="round" stroke-linejoin="round"/>
<path d="M290.565 116.023L283.934 121.582" stroke="#3E59E8" stroke-width="3.44179" stroke-miterlimit="10" stroke-linecap="round" stroke-linejoin="round"/>
<path d="M294.456 130.563L285.937 129.055" stroke="#3E59E8" stroke-width="3.44179" stroke-miterlimit="10" stroke-linecap="round" stroke-linejoin="round"/>
<path d="M284.732 143.462L280.94 135.684" stroke="#3E59E8" stroke-width="3.44179" stroke-miterlimit="10" stroke-linecap="round" stroke-linejoin="round"/>
<path d="M269.474 143.624L273.1 135.766" stroke="#3E59E8" stroke-width="3.44179" stroke-miterlimit="10" stroke-linecap="round" stroke-linejoin="round"/>
<path d="M259.429 130.697L267.936 129.125" stroke="#3E59E8" stroke-width="3.44179" stroke-miterlimit="10" stroke-linecap="round" stroke-linejoin="round"/>
<path d="M263.673 115.586L270.121 121.362" stroke="#3E59E8" stroke-width="3.44179" stroke-miterlimit="10" stroke-linecap="round" stroke-linejoin="round"/>
<path d="M44.3678 200.301V206.851" stroke="#3E59E8" stroke-width="3.44179" stroke-miterlimit="10" stroke-linecap="round" stroke-linejoin="round"/>
<path d="M54.6858 205.113L49.6676 209.32" stroke="#3E59E8" stroke-width="3.44179" stroke-miterlimit="10" stroke-linecap="round" stroke-linejoin="round"/>
<path d="M57.6286 216.114L51.1823 214.973" stroke="#3E59E8" stroke-width="3.44179" stroke-miterlimit="10" stroke-linecap="round" stroke-linejoin="round"/>
<path d="M50.2714 225.879L47.402 219.992" stroke="#3E59E8" stroke-width="3.44179" stroke-miterlimit="10" stroke-linecap="round" stroke-linejoin="round"/>
<path d="M38.7233 225.998L41.4668 220.051" stroke="#3E59E8" stroke-width="3.44179" stroke-miterlimit="10" stroke-linecap="round" stroke-linejoin="round"/>
<path d="M31.1227 216.217L37.5604 215.027" stroke="#3E59E8" stroke-width="3.44179" stroke-miterlimit="10" stroke-linecap="round" stroke-linejoin="round"/>
<path d="M34.3336 204.781L39.2129 209.153" stroke="#3E59E8" stroke-width="3.44179" stroke-miterlimit="10" stroke-linecap="round" stroke-linejoin="round"/>
<path d="M269.961 94.0644C271.947 94.0644 273.557 92.4542 273.557 90.4678C273.557 88.4814 271.947 86.8711 269.961 86.8711C267.974 86.8711 266.364 88.4814 266.364 90.4678C266.364 92.4542 267.974 94.0644 269.961 94.0644Z" stroke="white" stroke-width="4.58906" stroke-miterlimit="10"/>
<path d="M212.557 71.2011L202.738 73.3438L204.881 83.1626L214.7 81.02L212.557 71.2011Z" fill="#3E59E8"/>
<path d="M259.889 58.1211L250.802 62.9109L259.493 68.3776L259.889 58.1211Z" fill="#3E59E8"/>
<path d="M228.912 117.75V128.018L237.803 122.884L228.912 117.75Z" fill="#3E59E8"/>
<path d="M115.371 145.872L115.368 145.895L115.365 145.918C114.709 150.724 115.625 155.547 117.814 158.731L117.841 158.771L117.867 158.812C120.456 162.911 124.649 166.488 129.01 169.245C133.028 171.682 137.201 174.586 140.354 176.868C141.937 178.014 143.272 179.009 144.212 179.719C144.263 179.758 144.312 179.795 144.361 179.832L144.644 179.668C145.73 179.037 147.26 178.149 149.037 177.119C152.589 175.059 157.128 172.431 161.071 170.161C165.361 167.677 169.546 164.118 172.138 160.022C174.412 156.29 175.311 151.148 174.88 146.561C174.467 143.106 172.826 139.756 170.474 136.964C168.122 134.41 164.971 132.346 161.732 131.532C158.436 130.762 154.635 131.521 151.585 133.532C149.877 134.822 148.465 136.263 147.486 137.83L145.123 141.61L143.13 137.623C142.123 135.61 140.739 134.037 138.964 132.854C135.904 130.814 132.077 130.04 128.761 130.815C125.522 131.629 122.371 133.694 120.018 136.248C117.592 139.125 115.769 142.485 115.371 145.872Z" fill="#05D4AF" stroke="#05D4AF" stroke-width="5"/>
</svg>
