<svg width="13" height="13" viewBox="0 0 13 13" fill="none" xmlns="http://www.w3.org/2000/svg">
<path d="M6.41554 4.78743C6.2075 4.79355 6.02088 4.73542 5.85567 4.61305C5.69658 4.49067 5.57421 4.34076 5.48855 4.16332C5.409 3.97976 5.37841 3.80537 5.39676 3.64017C5.42736 3.3893 5.54055 3.21185 5.73635 3.10784C5.93215 3.00382 6.13713 2.94875 6.35129 2.94263C6.65723 2.93039 6.89586 3.00994 7.06718 3.18126C7.23851 3.35259 7.32417 3.54839 7.32417 3.76866C7.32417 3.91551 7.29052 4.06542 7.22321 4.21839C7.16202 4.37136 7.06412 4.50291 6.92951 4.61305C6.7949 4.71707 6.62357 4.77519 6.41554 4.78743ZM7.38842 9.32142C7.39453 9.43156 7.42819 9.5264 7.48937 9.60594C7.55668 9.67937 7.63622 9.74973 7.72801 9.81704C7.68517 9.87211 7.63011 9.93024 7.5628 9.99142C7.49549 10.0526 7.39453 10.1107 7.25992 10.1658C7.13143 10.2148 6.94481 10.2545 6.70006 10.2851C6.62051 10.2912 6.51955 10.2821 6.39718 10.2576C6.2748 10.2392 6.15243 10.1811 6.03005 10.0832C5.9138 9.97919 5.81896 9.81704 5.74553 9.59676C5.67211 9.37037 5.64151 9.06137 5.65375 8.66978C5.65987 8.60247 5.65987 8.47092 5.65375 8.27512C5.65375 8.07932 5.65069 7.8468 5.64457 7.57758C5.64457 7.30835 5.64151 7.02995 5.6354 6.74237C5.6354 6.45479 5.63234 6.18862 5.62622 5.94387C5.62622 5.69301 5.62316 5.49109 5.61704 5.33812C5.61704 5.17903 5.61704 5.09949 5.61704 5.09949C5.67211 5.09337 5.76389 5.08725 5.89238 5.08113C6.02699 5.06889 6.17384 5.06889 6.33293 5.08113C6.49202 5.09337 6.64499 5.12396 6.79184 5.17291C6.94481 5.21574 7.0733 5.28611 7.17732 5.38401C7.28746 5.48191 7.3517 5.61346 7.37006 5.77867C7.40065 6.01118 7.41289 6.32324 7.40677 6.71484C7.40065 7.10032 7.39147 7.52251 7.37924 7.98142C7.367 8.4342 7.37006 8.88087 7.38842 9.32142Z" fill="#0078CA"/>
<circle cx="6.53857" cy="6.38476" r="5.3539" stroke="#0078CA" stroke-width="0.764843"/>
</svg>
