<svg width="24" height="23" viewBox="0 0 24 23" fill="none" xmlns="http://www.w3.org/2000/svg">
<g id="Group 427319390">
<circle id="Ellipse 2400" cx="12.2969" cy="11.5" r="10.9023" stroke="#FF0000"/>
<path id="i" d="M12.2963 7.54671C12.0284 7.54671 11.8035 7.461 11.6214 7.2896C11.45 7.10749 11.3643 6.88252 11.3643 6.61471C11.3643 6.3576 11.45 6.14335 11.6214 5.97195C11.8035 5.80054 12.0284 5.71484 12.2963 5.71484C12.5534 5.71484 12.773 5.80054 12.9551 5.97195C13.1372 6.14335 13.2283 6.3576 13.2283 6.61471C13.2283 6.88252 13.1372 7.10749 12.9551 7.2896C12.773 7.461 12.5534 7.54671 12.2963 7.54671ZM11.6214 17.2845V9.31429H12.9712V17.2845H11.6214Z" fill="#FF0000"/>
</g>
</svg>
