<svg width="126" height="19" viewBox="0 0 126 19" fill="none" xmlns="http://www.w3.org/2000/svg">
<path d="M14.4887 17.1866C13.0094 17.7463 11.3303 18.0262 9.45125 18.0262C3.29441 18.0262 0.215986 15.0477 0.215986 9.09078C0.215986 3.45367 3.29441 0.635116 9.45125 0.635116C11.3303 0.635116 13.0094 0.914972 14.4887 1.47468V4.35321C13.0094 3.71354 11.4102 3.3937 9.69112 3.3937C5.57324 3.3937 3.51429 5.29272 3.51429 9.09078C3.51429 13.2087 5.57324 15.2676 9.69112 15.2676C11.4102 15.2676 13.0094 14.9478 14.4887 14.3081V17.1866ZM16.1078 0.755054H19.3342L21.1692 13.0727L25.6309 0.755054H28.6894L32.8632 12.593L34.8062 0.755054H37.9366L34.7103 17.9062H31.6878L26.9742 4.44916L21.9128 17.9062H18.9264L16.1078 0.755054ZM53.8285 17.1866C52.3492 17.7463 50.6701 18.0262 48.7911 18.0262C42.6342 18.0262 39.5558 15.0477 39.5558 9.09078C39.5558 3.45367 42.6342 0.635116 48.7911 0.635116C50.6701 0.635116 52.3492 0.914972 53.8285 1.47468V4.35321C52.3492 3.71354 50.75 3.3937 49.0309 3.3937C44.913 3.3937 42.8541 5.29272 42.8541 9.09078C42.8541 13.2087 44.913 15.2676 49.0309 15.2676C50.75 15.2676 52.3492 14.9478 53.8285 14.3081V17.1866Z" fill="white"/>
<path d="M75.8971 17.1866C74.4179 17.7463 72.7388 18.0262 70.8597 18.0262C64.7029 18.0262 61.6245 15.0477 61.6245 9.09078C61.6245 3.45367 64.7029 0.635116 70.8597 0.635116C72.7388 0.635116 74.4179 0.914972 75.8971 1.47468V4.35321C74.4179 3.71354 72.8187 3.3937 71.0996 3.3937C66.9817 3.3937 64.9228 5.29272 64.9228 9.09078C64.9228 13.2087 66.9817 15.2676 71.0996 15.2676C72.8187 15.2676 74.4179 14.9478 75.8971 14.3081V17.1866ZM80.6587 17.9062H77.3964L84.6766 0.755054H88.0949L95.5311 17.9062H92.1128L90.1578 13.2287H84.4607L85.5522 10.4701H89.0064L86.3078 4.02937L80.6587 17.9062ZM97.63 17.8823V0.755054H105.426C108.928 0.755054 110.679 2.28627 110.679 5.3487C110.679 7.41963 109.316 9.13475 106.589 10.4941L112.023 17.9062H108.017L102.799 10.4341V8.98283C105.838 8.4631 107.357 7.2837 107.357 5.44465C107.357 4.1813 106.645 3.54962 105.222 3.54962H100.868V17.8823H97.63ZM125.276 0.755054V3.48965H116.688V7.80743H124.868V10.65H116.652V15.1477H125.444V17.9062H113.534V0.755054H125.276Z" fill="#0078CA"/>
</svg>
