<svg width="39" height="42" viewBox="0 0 39 42" fill="none" xmlns="http://www.w3.org/2000/svg">
<path fill-rule="evenodd" clip-rule="evenodd" d="M19.4719 0.0820312C23.8426 4.22731 29.5722 6.4509 37.3282 7.36074C38.9554 16.4105 38.364 23.353 35.7449 27.1777L32.8367 22.5061C33.8131 19.3924 33.6332 14.98 33.2181 11.4721C28.2589 10.5696 23.5795 8.9548 19.4719 6.09178C15.3644 8.9548 10.685 10.5696 5.72577 11.4721C5.31071 14.98 5.13076 19.3924 6.10721 22.5061L3.19894 27.1777C0.579874 23.353 -0.0115359 16.4105 1.61567 7.36074C9.37166 6.4509 15.1013 4.22731 19.4719 0.0820312Z" fill="#0078CA"/>
<path fill-rule="evenodd" clip-rule="evenodd" d="M5.50977 30.446C7.41579 33.837 13.0623 39.4001 19.4715 41.0229C25.8808 39.4001 31.5273 33.837 33.4333 30.446C32.8882 24.9179 28.6232 22.9315 28.6232 22.9315L28.1393 22.8164C29.7745 16.9478 25.377 11.0586 19.2133 11.0586C12.9974 11.0586 8.59595 17.0404 10.3204 22.9314C10.3195 22.9316 6.0548 24.9179 5.50977 30.446ZM19.2133 15.9254C16.4182 15.9254 14.1524 18.1913 14.1524 20.9864C14.1524 22.2491 14.6149 23.4037 15.3797 24.2903C14.6877 24.7364 13.9958 25.7167 13.3039 25.8607C13.3039 25.8607 10.5571 26.9797 10.2061 30.0938C11.4336 32.004 15.0701 35.1378 19.1979 36.052C23.3256 35.1378 26.9622 32.004 28.1897 30.0938C27.8387 26.9797 25.0919 25.8607 25.0919 25.8607C24.4065 25.7181 23.7213 24.7549 23.0359 24.3032C23.8073 23.4149 24.2743 22.2552 24.2743 20.9864C24.2743 18.1913 22.0084 15.9254 19.2133 15.9254Z" fill="#F20019"/>
</svg>
