<svg width="183" height="58" viewBox="0 0 183 58" fill="none" xmlns="http://www.w3.org/2000/svg">
<g clip-path="url(#clip0_2525_9061)">
<path d="M75.4437 21.0709C74.8843 24.6444 71.5789 27.2329 67.4366 27.2329C62.5018 27.2329 58.8701 23.5631 58.8701 18.5295C58.8701 13.4958 62.5018 9.82812 67.4366 9.82812C71.5323 9.82812 74.8377 12.5088 75.4437 16.1765L71.8586 16.5533C71.4391 14.5771 69.6294 13.119 67.5298 13.119C64.6925 13.119 62.6882 15.3717 62.6882 18.5274C62.6882 21.7262 64.6905 23.9379 67.5298 23.9379C68.5193 23.9373 69.4816 23.611 70.2711 23.0084C71.0606 22.4057 71.6343 21.5594 71.9052 20.5978L75.4437 21.0709Z" fill="#0078CA"/>
<path d="M84.4279 14.8613V17.8717C83.838 17.6163 83.2067 17.4726 82.5654 17.4478C81.0759 17.4478 80.0991 18.7175 80.0991 20.4581V26.6672H76.7471V14.9944H79.9592V16.4525C80.6564 15.275 81.7832 14.5234 83.0782 14.5234C83.5456 14.5458 84.0042 14.6606 84.4279 14.8613Z" fill="#0078CA"/>
<path d="M94.2517 22.95L97.2308 23.6074C96.6228 25.6306 94.2517 27.0887 91.5056 27.0887C87.7808 27.0887 85.1279 24.5023 85.1279 20.7404C85.1279 17.0706 87.7808 14.5312 91.5056 14.5312C95.2305 14.5312 97.7435 17.0706 97.7435 20.7875C97.7524 21.1172 97.7368 21.4471 97.6969 21.7745H88.6643C88.944 23.4128 90.0607 24.5043 91.5968 24.5043C92.8087 24.5043 93.8788 23.8429 94.2517 22.95ZM94.2983 19.7041C94.2272 18.9981 93.896 18.3448 93.3704 17.874C92.8448 17.4032 92.1633 17.1493 91.4611 17.1627C89.9715 17.1627 88.8994 18.1519 88.6238 19.7041H94.2983Z" fill="#0078CA"/>
<path d="M108.449 9.73438H111.801V26.6681H108.496V25.2571C108.031 25.8398 107.442 26.3084 106.773 26.6276C106.103 26.9469 105.371 27.1085 104.631 27.1002C101.419 27.1002 99.1387 24.5138 99.1387 20.844C99.1387 17.1271 101.419 14.5407 104.631 14.5407C105.37 14.5241 106.102 14.6863 106.766 15.0136C107.43 15.341 108.007 15.8241 108.449 16.4227V9.73438ZM105.563 24.0346C107.284 24.0346 108.542 22.6707 108.542 20.8358C108.542 18.9538 107.284 17.59 105.563 17.59C103.794 17.59 102.535 18.9538 102.535 20.8358C102.535 22.6646 103.794 24.0346 105.563 24.0346Z" fill="#0078CA"/>
<path d="M114.874 9.58984C116.037 9.58984 116.874 10.3906 116.874 11.4718C116.874 12.6473 116.037 13.448 114.874 13.448C114.615 13.4584 114.356 13.4144 114.114 13.3187C113.872 13.2231 113.652 13.0779 113.468 12.8923C113.285 12.7067 113.141 12.4846 113.046 12.2402C112.952 11.9957 112.908 11.7341 112.918 11.4718C112.918 10.3906 113.755 9.58984 114.874 9.58984ZM116.595 26.6649H113.198V14.9921H116.595V26.6649Z" fill="#0078CA"/>
<path d="M119.713 17.5869H118.092V15.0005H119.916L120.289 12.0352H123.126V15.0005H125.734V17.5869H123.112V22.5263C123.112 23.5134 123.72 24.1646 124.648 24.1646C124.974 24.1646 125.44 24.0704 125.864 24.0233L125.813 26.7572C125.074 26.9853 124.304 27.0965 123.531 27.0869C121.203 27.0869 119.713 25.3462 119.713 22.854V17.5869Z" fill="#0078CA"/>
<path d="M147.693 10.4375H151.509L147.18 26.6668H141.686L138.987 15.1885L136.241 26.6668H130.747L126.371 10.4375H130.236L133.634 23.5151L136.891 10.4375H141.082L144.294 23.5151L147.693 10.4375Z" fill="#0078CA"/>
<path d="M154.628 9.58984C155.791 9.58984 156.583 10.3906 156.583 11.4718C156.583 12.6473 155.791 13.448 154.628 13.448C153.464 13.448 152.672 12.6473 152.672 11.4718C152.672 10.3906 153.464 9.58984 154.628 9.58984ZM156.304 26.6649H152.905V14.9921H156.304V26.6649Z" fill="#0078CA"/>
<path d="M157.699 22.7639H160.585C160.585 23.9393 161.657 24.738 163.147 24.738C164.363 24.738 165.287 24.1236 165.287 23.327C165.24 21.0232 157.839 23.327 157.839 18.3876C157.839 16.1349 159.981 14.4844 162.774 14.4844C165.893 14.4844 168.126 16.178 168.126 18.5289H165.147C165.147 17.5418 164.124 16.8906 162.774 16.8906C161.761 16.8906 160.911 17.4558 160.911 18.2094C160.865 20.4109 168.499 18.5678 168.546 22.9994C168.546 25.3974 166.316 27.1381 163.1 27.1381C159.935 27.1381 157.699 25.3032 157.699 22.7639Z" fill="#0078CA"/>
<path d="M179.067 22.95L182.004 23.6074C181.396 25.6306 179.022 27.0887 176.276 27.0887C172.554 27.0887 169.945 24.5023 169.945 20.7404C169.945 17.0706 172.554 14.5312 176.276 14.5312C179.999 14.5312 182.514 17.0706 182.514 20.7875C182.523 21.1172 182.508 21.4471 182.468 21.7745H173.435C173.715 23.4128 174.831 24.5043 176.368 24.5043C177.577 24.5043 178.65 23.8429 179.067 22.95ZM179.067 19.7041C178.996 18.9979 178.665 18.3443 178.14 17.8735C177.614 17.4026 176.932 17.1489 176.23 17.1627C174.74 17.1627 173.717 18.1519 173.393 19.7041H179.067Z" fill="#0078CA"/>
<path d="M74.9317 44.6365C74.1413 47.8823 71.0224 50.2333 67.4333 50.2333C62.6383 50.2333 59.1465 46.6126 59.1465 41.6323C59.1465 36.6519 62.6383 33.0312 67.4333 33.0312C71.0183 33.0312 74.1839 35.5255 74.9317 38.9106L73.1078 39.0991C72.4998 36.6068 70.1287 34.7248 67.4333 34.7248C63.7084 34.7248 61.0555 37.5918 61.0555 41.6404C61.0555 45.6891 63.7084 48.554 67.4333 48.554C70.1327 48.554 72.4998 46.7662 73.1078 44.3211L74.9317 44.6365Z" fill="#F20019"/>
<path d="M86.8037 38.1431H88.5242V49.6684H86.8037V47.6451C86.3122 48.4153 85.6361 49.0475 84.8383 49.4832C84.0404 49.9189 83.1466 50.1439 82.2397 50.1373C78.7945 50.1373 76.3281 47.5038 76.3281 43.9282C76.3281 40.3076 78.7965 37.672 82.2397 37.672C83.1523 37.6647 84.0513 37.8946 84.8506 38.3397C85.6498 38.7847 86.3224 39.43 86.8037 40.2134V38.1431ZM86.8037 43.9282C86.8037 41.2476 84.9412 39.2714 82.4262 39.2714C79.9112 39.2714 78.0507 41.2476 78.0507 43.9282C78.0507 46.5638 79.9132 48.538 82.4262 48.538C84.9392 48.538 86.8037 46.5638 86.8037 43.9282Z" fill="#F20019"/>
<path d="M91.6425 54.889H89.9219V38.1436H91.5958V40.1198C92.09 39.3554 92.7677 38.7301 93.5658 38.3021C94.3639 37.8742 95.2564 37.6576 96.1598 37.6726C99.5098 37.6726 102.025 40.3082 102.025 43.9288C102.025 47.5044 99.5564 50.1379 96.1598 50.1379C94.2041 50.1379 92.6213 49.2451 91.6425 47.7399V54.889ZM95.9267 39.3662C93.4117 39.3662 91.5958 41.2953 91.5958 43.9288C91.5958 46.5173 93.4198 48.4443 95.9267 48.4443C98.4863 48.4443 100.302 46.5173 100.302 43.9288C100.302 41.2482 98.4397 39.3662 95.9267 39.3662Z" fill="#F20019"/>
<path d="M104.305 33.6778C104.459 33.6721 104.613 33.6986 104.757 33.7556C104.901 33.8126 105.031 33.899 105.141 34.0093C105.25 34.1196 105.336 34.2514 105.392 34.3966C105.449 34.5418 105.476 34.6973 105.47 34.8533C105.472 35.0082 105.442 35.1619 105.384 35.3052C105.326 35.4486 105.24 35.5788 105.132 35.6883C105.023 35.7977 104.894 35.8842 104.752 35.9427C104.61 36.0012 104.458 36.0304 104.305 36.0288C104.151 36.0342 103.997 36.0075 103.853 35.9504C103.71 35.8932 103.58 35.8068 103.47 35.6966C103.361 35.5863 103.276 35.4546 103.219 35.3095C103.163 35.1644 103.136 35.0091 103.142 34.8533C103.132 34.6965 103.156 34.5394 103.211 34.3924C103.266 34.2454 103.351 34.112 103.461 34.0009C103.571 33.8898 103.703 33.8035 103.849 33.7478C103.994 33.6921 104.15 33.6683 104.305 33.6778ZM103.421 38.1463H105.144V49.6716H103.421V38.1463Z" fill="#F20019"/>
<path d="M108.449 39.6036H106.54V38.1455H108.496L108.727 35.4648H110.125V38.1455H113.098V39.6036H110.119V46.7526C110.119 47.883 110.816 48.6346 111.886 48.6346C112.361 48.6215 112.831 48.5422 113.285 48.3991V49.8572C112.69 50.0241 112.078 50.119 111.461 50.1398C109.598 50.1398 108.435 48.7759 108.435 46.7997L108.449 39.6036Z" fill="#F20019"/>
<path d="M125.067 38.1431H126.743V49.6684H125.067V47.6451C124.566 48.4161 123.881 49.0479 123.076 49.4832C122.272 49.9185 121.372 50.1434 120.459 50.1374C117.06 50.1374 114.594 47.5038 114.594 43.9283C114.594 40.3077 117.06 37.6721 120.459 37.6721C121.377 37.6641 122.283 37.8933 123.09 38.3381C123.896 38.7828 124.577 39.4284 125.067 40.2135V38.1431ZM125.021 43.9283C125.021 41.2476 123.158 39.2715 120.645 39.2715C118.132 39.2715 116.316 41.2476 116.316 43.9283C116.316 46.5639 118.14 48.538 120.645 48.538C123.15 48.538 125.021 46.5639 125.021 43.9283Z" fill="#F20019"/>
<path d="M129.909 32.875H128.14V49.6674H129.909V32.875Z" fill="#F20019"/>
<path d="M42.8585 25.3966L21.2123 47.6466L1.05371 38.5684L31.8257 19.1875L42.8585 25.3966Z" fill="#F20019"/>
<path d="M41.7869 57.5254L31.8262 19.1875L42.859 25.3966L49.1435 42.7071L41.7869 57.5254Z" fill="#0078CA"/>
<path d="M31.8262 19.1875L35.3646 32.8754L42.859 25.3966L31.8262 19.1875Z" fill="#372A80"/>
<path d="M30.0566 7.89844L48.5839 18.9057L53.239 29.0671L32.7561 17.8715L30.0566 7.89844Z" fill="#F20019"/>
<path d="M44.4415 9.5431L32.7561 17.8697L30.0566 7.89662L37.1315 4.98047L44.4415 9.5431Z" fill="#0078CA"/>
<path d="M32.7561 17.8715L30.0566 7.89844L39.0872 13.356L32.7561 17.8715Z" fill="#372A80"/>
<path d="M19.6761 24.5513L18.1865 1.26509L26.8442 0.136719L30.8933 18.0596L19.6761 24.5513Z" fill="#F20019"/>
<path d="M2.49875 3.05469L30.8935 18.0614L19.6762 24.5531L0.216797 15.2374L2.49875 3.05469Z" fill="#0078CA"/>
<path d="M19.6767 24.5528L30.894 18.0611L18.9775 11.7578L19.6767 24.5528Z" fill="#372A80"/>
</g>
<defs>
<clipPath id="clip0_2525_9061">
<rect width="182.295" height="57.3892" fill="white" transform="translate(0.216797 0.136719)"/>
</clipPath>
</defs>
</svg>
