<svg width="180" height="41" viewBox="0 0 180 41" fill="none" xmlns="http://www.w3.org/2000/svg">
<path fill-rule="evenodd" clip-rule="evenodd" d="M18.761 0C23.1316 4.14528 28.8613 6.36886 36.6173 7.27871C38.2445 16.3285 37.6531 23.271 35.034 27.0957L32.1257 22.424C33.1022 19.3104 32.9222 14.898 32.5072 11.3901C27.5479 10.4875 22.8686 8.87277 18.761 6.00975C14.6534 8.87277 9.97406 10.4875 5.01483 11.3901C4.59978 14.898 4.41983 19.3104 5.39628 22.424L2.48801 27.0957C-0.131064 23.271 -0.722473 16.3285 0.904732 7.27871C8.66072 6.36886 14.3904 4.14528 18.761 0Z" fill="#0078CA"/>
<path fill-rule="evenodd" clip-rule="evenodd" d="M4.79883 30.364C6.70485 33.755 12.3514 39.318 18.7606 40.9409C25.1698 39.318 30.8163 33.755 32.7224 30.364C32.1773 24.8358 27.9123 22.8495 27.9123 22.8495L27.4283 22.7344C29.0635 16.8657 24.6661 10.9766 18.5024 10.9766C12.2865 10.9766 7.88502 16.9584 9.60947 22.8493C9.60856 22.8496 5.34387 24.8359 4.79883 30.364ZM18.5024 15.8434C15.7073 15.8434 13.4414 18.1092 13.4414 20.9043C13.4414 22.167 13.904 23.3217 14.6687 24.2083C13.9768 24.6543 13.2849 25.6347 12.5929 25.7787C12.5929 25.7787 9.84614 26.8976 9.49512 30.0118C10.7227 31.922 14.3592 35.0558 18.487 35.97C22.6147 35.0558 26.2512 31.922 27.4788 30.0118C27.1277 26.8976 24.381 25.7787 24.381 25.7787C23.6956 25.6361 23.0103 24.6729 22.325 24.2211C23.0964 23.3328 23.5634 22.1731 23.5634 20.9043C23.5634 18.1092 21.2975 15.8434 18.5024 15.8434Z" fill="#F20019"/>
<path d="M66.7777 28.1046C65.2985 28.6643 63.6193 28.9442 61.7403 28.9442C55.5835 28.9442 52.505 25.9657 52.505 20.0087C52.505 14.3716 55.5835 11.5531 61.7403 11.5531C63.6193 11.5531 65.2985 11.8329 66.7777 12.3927V15.2712C65.2985 14.6315 63.6993 14.3117 61.9802 14.3117C57.8623 14.3117 55.8034 16.2107 55.8034 20.0087C55.8034 24.1266 57.8623 26.1856 61.9802 26.1856C63.6993 26.1856 65.2985 25.8657 66.7777 25.2261V28.1046ZM68.3969 11.673H71.6232L73.4583 23.9907L77.92 11.673H80.9784L85.1523 23.5109L87.0953 11.673H90.2257L86.9993 28.8242H83.9769L79.2633 15.3671L74.2019 28.8242H71.2154L68.3969 11.673ZM106.118 28.1046C104.638 28.6643 102.959 28.9442 101.08 28.9442C94.9233 28.9442 91.8449 25.9657 91.8449 20.0087C91.8449 14.3716 94.9233 11.5531 101.08 11.5531C102.959 11.5531 104.638 11.8329 106.118 12.3927V15.2712C104.638 14.6315 103.039 14.3117 101.32 14.3117C97.2021 14.3117 95.1432 16.2107 95.1432 20.0087C95.1432 24.1266 97.2021 26.1856 101.32 26.1856C103.039 26.1856 104.638 25.8657 106.118 25.2261V28.1046Z" fill="white"/>
<path d="M128.186 28.1046C126.707 28.6643 125.028 28.9442 123.149 28.9442C116.992 28.9442 113.914 25.9657 113.914 20.0087C113.914 14.3716 116.992 11.5531 123.149 11.5531C125.028 11.5531 126.707 11.8329 128.186 12.3927V15.2712C126.707 14.6315 125.108 14.3117 123.389 14.3117C119.271 14.3117 117.212 16.2107 117.212 20.0087C117.212 24.1266 119.271 26.1856 123.389 26.1856C125.108 26.1856 126.707 25.8657 128.186 25.2261V28.1046ZM132.948 28.8242H129.685L136.966 11.673H140.384L147.82 28.8242H144.402L142.447 24.1466H136.75L137.841 21.388H141.295L138.597 14.9473L132.948 28.8242ZM149.919 28.8002V11.673H157.715C161.217 11.673 162.968 13.2042 162.968 16.2667C162.968 18.3376 161.605 20.0527 158.878 21.412L164.312 28.8242H160.306L155.088 21.3521V19.9008C158.127 19.3811 159.646 18.2017 159.646 16.3626C159.646 15.0993 158.934 14.4676 157.511 14.4676H153.157V28.8002H149.919ZM177.565 11.673V14.4076H168.977V18.7254H177.157V21.5679H168.941V26.0656H177.733V28.8242H165.823V11.673H177.565Z" fill="#0078CA"/>
</svg>
