<svg width="22" height="32" viewBox="0 0 22 32" fill="none" xmlns="http://www.w3.org/2000/svg">
<path d="M22 6.04032C22 5.11808 21.3946 4.51968 20.4723 4.51968C19.4304 4.51968 18.3885 4.51968 17.3536 4.51968C17.241 4.51968 17.1283 4.51968 17.0298 4.51968C16.6285 3.39328 15.9456 2.91456 14.791 2.91456C14.5165 2.91456 14.2419 2.91456 13.9674 2.91456C13.9462 2.79488 13.9322 2.71744 13.9181 2.63296C13.7562 1.49952 13.1437 0.704 12.1018 0.23936C11.8694 0.13376 11.616 0.07744 11.3766 0C11.0669 0 10.7571 0 10.4474 0C10.3699 0.02816 10.2995 0.0563199 10.2221 0.0774399C9.06752 0.40832 8.32128 1.14048 8.00448 2.30208C7.9552 2.4992 7.92704 2.69632 7.8848 2.9216C6.52608 2.80192 5.32928 2.97088 4.83648 4.51264C4.72384 4.51264 4.6112 4.51264 4.49856 4.51264C3.52 4.51264 2.54144 4.51264 1.56288 4.51264C0.57728 4.51264 0 5.09696 0 6.0896C0 14.087 0 22.0774 0 30.0749C0 31.0675 0.58432 31.6448 1.56992 31.6448C7.85664 31.6448 14.1434 31.6448 20.423 31.6448C21.4157 31.6448 22 31.0675 22 30.0749C22 27.3645 22 24.6541 22 21.9437C22 16.6496 22 11.3485 22 6.04032ZM10.9261 0.97856C12.0243 0.97856 12.8902 1.78816 12.9536 2.90048C11.609 2.90048 10.2643 2.90048 8.89856 2.90048C8.96896 1.78816 9.84192 0.97856 10.9261 0.97856ZM5.984 4.35776C6.16 4.00576 6.52608 3.88608 6.92736 3.88608C8.26496 3.89312 9.60256 3.88608 10.9402 3.88608C12.2074 3.88608 13.4746 3.88608 14.7418 3.88608C15.671 3.88608 16.0442 4.23808 16.0934 5.1744C16.1286 5.89952 15.8541 6.35712 15.2768 6.51904C15.1501 6.55424 15.0163 6.56128 14.8826 6.56128C12.2496 6.56128 9.6096 6.56128 6.97664 6.56128C6.2304 6.56128 5.74464 6.10368 5.76576 5.3504C5.7728 5.01248 5.83616 4.65344 5.984 4.35776ZM21.0214 30.279C20.9933 30.5114 20.8525 30.6522 20.6202 30.6733C20.5216 30.6874 20.416 30.6803 20.3104 30.6803C14.1082 30.6803 7.90592 30.6803 1.70368 30.6803C1.06304 30.6803 0.97152 30.5888 0.97152 29.9552C0.97152 22.0422 0.97152 14.1293 0.97152 6.22336C0.97152 5.58976 1.07008 5.4912 1.70368 5.4912C2.61184 5.4912 3.52 5.4912 4.42112 5.4912C4.53376 5.4912 4.6464 5.4912 4.76608 5.4912C4.80832 5.69536 4.83648 5.8784 4.88576 6.0544C5.1392 6.8992 5.92768 7.5328 6.80768 7.5328C9.56032 7.54688 12.3059 7.54688 15.0586 7.5328C16.1427 7.52576 16.9312 6.71616 17.079 5.53344C17.0931 5.51936 17.1142 5.49824 17.1283 5.49824C18.2829 5.4912 19.4374 5.48416 20.585 5.4912C20.8454 5.4912 20.9933 5.66016 21.0214 5.92064C21.0285 6.00512 21.0285 6.08256 21.0285 6.16704C21.0285 14.1082 21.0285 22.0493 21.0285 29.9904C21.0285 30.089 21.0285 30.1875 21.0214 30.279Z" fill="#0078CA"/>
<path d="M17.6559 21.7539C15.4594 21.7609 13.2629 21.7539 11.0664 21.7539C8.83475 21.7539 6.59603 21.7539 4.36435 21.7539C3.77299 21.7539 3.39987 22.0918 3.37875 22.5917C3.35763 23.1126 3.74483 23.4857 4.35027 23.5139C4.46291 23.5209 4.57555 23.5139 4.68819 23.5139C8.93331 23.5139 13.1784 23.5139 17.4236 23.5139C17.6066 23.5139 17.7967 23.528 17.9797 23.4928C18.5711 23.3731 18.8808 22.7817 18.6344 22.2608C18.4303 21.8595 18.0783 21.7539 17.6559 21.7539Z" fill="#0078CA"/>
<path d="M10.9049 25.6889C8.72951 25.6818 6.55415 25.6818 4.37879 25.6889C3.75927 25.6889 3.37207 26.055 3.37207 26.5759C3.37207 27.0969 3.76631 27.4418 4.37879 27.4489C5.47703 27.4559 6.57527 27.4489 7.67351 27.4489C8.75063 27.4489 9.82775 27.4559 10.9119 27.4489C11.5385 27.4418 11.9116 27.1039 11.9116 26.5759C11.9116 26.0479 11.5244 25.6889 10.9049 25.6889Z" fill="#0078CA"/>
<path d="M7.29358 19.8087H14.3336C15.3685 19.8087 16.2062 18.9639 16.2062 17.9361V10.8961C16.2062 9.8612 15.3614 9.02344 14.3336 9.02344H7.29358C6.2587 9.02344 5.42094 9.86824 5.42094 10.8961V17.9361C5.4139 18.971 6.2587 19.8087 7.29358 19.8087ZM6.1179 10.8961C6.1179 10.2484 6.6459 9.72744 7.28654 9.72744H14.3265C14.9742 9.72744 15.4952 10.2554 15.4952 10.8961V17.9361C15.4952 18.5838 14.9672 19.1047 14.3265 19.1047H7.28654C6.63886 19.1047 6.1179 18.5767 6.1179 17.9361V10.8961Z" fill="#0078CA"/>
<path d="M7.8354 15.335H9.89108V17.3906C9.89108 17.5878 10.046 17.7426 10.2431 17.7426H11.3765C11.5736 17.7426 11.7285 17.5878 11.7285 17.3906V15.335H13.7842C13.9813 15.335 14.1362 15.1801 14.1362 14.983V13.8495C14.1362 13.6524 13.9813 13.4975 13.7842 13.4975H11.7285V11.4418C11.7285 11.2447 11.5736 11.0898 11.3765 11.0898H10.2431C10.046 11.0898 9.89108 11.2447 9.89108 11.4418V13.4975H7.8354C7.63828 13.4975 7.4834 13.6524 7.4834 13.8495V14.983C7.4834 15.1801 7.64532 15.335 7.8354 15.335Z" fill="#0078CA"/>
</svg>
