<svg width="24" height="23" viewBox="0 0 24 23" fill="none" xmlns="http://www.w3.org/2000/svg">
<path d="M11.113 0.78541C10.8364 0.878712 10.5435 0.863159 10.2668 0.909811C7.45148 1.34522 5.10808 2.60479 3.25288 4.65743C1.93472 6.11915 1.05594 7.79858 0.714198 9.71127C-0.0343882 13.9876 1.3326 17.5797 4.83142 20.3632C6.36114 21.5761 8.15124 22.307 10.1204 22.6335C11.3734 22.8357 12.6428 22.8357 13.8958 22.6335C15.6046 22.3692 17.1506 21.7472 18.5826 20.8142C18.9732 20.5498 19.0057 20.301 18.6477 19.99C18.4687 19.8189 18.2897 19.9278 18.127 20.0055C17.8829 20.1455 17.655 20.301 17.4109 20.441C16.8251 20.7831 16.2067 21.063 15.572 21.2807C14.8234 21.5295 14.0748 21.7005 13.2774 21.7938C12.1546 21.9182 11.0317 21.8716 9.92507 21.6694C8.85101 21.4673 7.84204 21.0941 6.8819 20.5965C6.19841 20.2388 5.58001 19.7878 4.99416 19.3058C4.06656 18.5283 3.33425 17.6264 2.7484 16.6C2.16255 15.5893 1.80453 14.5163 1.60925 13.3811C1.51161 12.7747 1.44651 12.1682 1.47906 11.5617C1.52788 10.2244 1.80453 8.93375 2.39038 7.72083C2.92741 6.55456 3.676 5.52824 4.61987 4.64188C4.68496 4.56413 4.76633 4.50192 4.8477 4.42417C6.42624 3.0402 8.28143 2.16938 10.4133 1.85838C12.6265 1.53182 14.7421 1.85838 16.7437 2.7914C17.834 3.30455 18.7942 3.97322 19.6241 4.81293C20.3239 5.51269 20.9098 6.29021 21.3817 7.16102C22.0815 8.42059 22.4558 9.75792 22.5697 11.1574C22.651 12.3237 22.5209 13.4744 22.1791 14.5941C21.8536 15.6515 21.3654 16.6311 20.6982 17.5486C20.6331 17.6419 20.568 17.7508 20.5517 17.8596C20.5029 18.0462 20.5843 18.2017 20.7633 18.295C21.105 18.435 21.2678 18.3883 21.4793 18.0929C22.4232 16.8022 23.0253 15.3871 23.3508 13.8476C23.4484 13.3811 23.5298 12.9146 23.5135 12.4481C23.481 11.6706 23.5624 10.9086 23.4322 10.1311C23.2532 9.08925 22.944 8.10959 22.4883 7.16102C21.5119 5.17059 20.0473 3.58446 18.0782 2.43374C16.6623 1.59402 15.1326 1.08086 13.4727 0.894262C13.2774 0.863161 13.0659 0.894262 12.8706 0.816509C12.7567 0.816509 12.6265 0.816509 12.5126 0.816509C12.4149 0.84761 12.3336 0.84761 12.2359 0.816509C12.122 0.816509 11.9918 0.816509 11.8779 0.816509C11.7803 0.84761 11.6663 0.84761 11.5687 0.816509C11.3734 0.78541 11.2432 0.78541 11.113 0.78541Z" fill="#010101"/>
<path d="M11.5195 0.786C11.6172 0.847375 11.7311 0.847375 11.8287 0.786C11.7148 0.786 11.6172 0.786 11.5195 0.786Z" fill="#2B2A29"/>
<path d="M12.1865 0.786C12.2842 0.847375 12.3655 0.847375 12.4632 0.786C12.3655 0.786 12.2679 0.786 12.1865 0.786Z" fill="#2B2A29"/>
<path d="M20.7306 18.2654C20.5028 18.0011 20.5028 17.8611 20.6981 17.5812C21.349 16.6793 21.8535 15.6996 22.179 14.6422C22.5858 13.3049 22.6997 11.9365 22.537 10.5525C22.3254 8.90416 21.7233 7.39578 20.7469 6.04291C19.3799 4.16133 17.5572 2.80845 15.2464 2.15534C11.5035 1.08237 8.10227 1.75103 5.09165 4.13022C4.97774 4.20798 4.86382 4.28573 4.78245 4.41013C4.73363 4.48788 4.65227 4.56563 4.58717 4.64338C4.21288 5.10989 3.93623 5.6386 3.69212 6.16731C3.20391 7.17808 2.92726 8.25105 2.79707 9.35511C2.73198 9.99268 2.68316 10.6302 2.7808 11.2833C2.79707 11.3456 2.79707 11.3922 2.82962 11.4544C2.87844 11.5011 2.94354 11.47 2.99236 11.4544C3.30156 11.4078 3.48057 11.5477 3.49684 11.8587C3.51311 12.2941 3.54566 12.7295 3.62703 13.1494C3.82231 14.1601 4.16406 15.1243 4.74991 15.9951C4.89637 16.2283 5.04283 16.446 4.92892 16.7259C5.07538 16.9903 5.28694 17.208 5.49849 17.4257C5.56359 17.4413 5.61241 17.4257 5.6775 17.4257C5.93788 17.4257 6.10062 17.5812 6.10062 17.8456C6.10062 17.9078 6.08434 17.97 6.10062 18.0322C6.361 18.3432 6.68647 18.592 7.01194 18.8252C8.6393 20.0226 10.4619 20.7535 12.5124 21.0023C13.977 21.1733 15.4254 21.0489 16.8412 20.6913C17.0528 20.6446 17.248 20.5513 17.4433 20.458C17.6712 20.3803 17.8664 20.2248 18.0617 20.1004C18.2407 19.9915 18.4197 19.9138 18.6476 19.9915C18.9242 19.8515 19.2172 19.696 19.4938 19.5561C19.5264 19.4939 19.4938 19.4472 19.4775 19.385C19.3962 19.0585 19.624 18.8408 19.9657 18.903C20.0308 18.9185 20.0959 18.9496 20.161 18.9341C20.3563 18.7164 20.5353 18.4831 20.7306 18.2654Z" fill="#0078CA"/>
<path d="M20.1457 18.917C19.8039 18.7459 19.5436 18.8081 19.4134 19.088C19.332 19.2591 19.3971 19.399 19.4785 19.5545C19.6575 19.6789 19.8365 19.7567 20.048 19.6323C20.2108 19.539 20.2921 19.3835 20.2759 19.1969C20.2759 19.0725 20.1945 18.9947 20.1457 18.917Z" fill="#060403"/>
<path d="M4.58691 4.55101C4.60319 4.56656 4.61946 4.58211 4.63573 4.59766C4.70083 4.53546 4.76592 4.47325 4.76592 4.37995C4.70083 4.4266 4.63573 4.48881 4.58691 4.55101Z" fill="#E7CCC6"/>
<path d="M6.16602 11.7807C6.16602 12.325 6.16602 12.8537 6.16602 13.398C6.16602 13.7556 6.32875 13.9267 6.70305 13.9267C7.64692 13.9267 8.59078 13.9267 9.53465 13.9267C9.69739 13.9267 9.76249 13.9578 9.76249 14.1288C9.74621 15.0307 9.76249 15.9171 9.76249 16.819C9.76249 17.2078 9.92522 17.3633 10.3321 17.3633C11.4549 17.3633 12.5778 17.3633 13.7007 17.3633C14.0913 17.3633 14.254 17.2078 14.254 16.819C14.254 15.9171 14.254 15.0152 14.254 14.1133C14.254 13.9422 14.3028 13.9111 14.4656 13.9111C15.4094 13.9111 16.3533 13.9111 17.2972 13.9111C17.6877 13.9111 17.8505 13.7556 17.8505 13.3669C17.8505 12.2939 17.8505 11.2209 17.8505 10.148C17.8505 9.77475 17.6877 9.61925 17.2972 9.6037C16.3533 9.6037 15.4094 9.6037 14.4656 9.6037C14.3028 9.6037 14.254 9.57259 14.254 9.40154C14.2703 8.49963 14.254 7.59771 14.254 6.69579C14.254 6.32259 14.0913 6.16708 13.7007 6.15153C12.5778 6.15153 11.4387 6.15153 10.3158 6.15153C9.9415 6.15153 9.77876 6.30704 9.77876 6.68024C9.77876 7.58216 9.77876 8.48408 9.77876 9.38599C9.77876 9.55704 9.72994 9.58814 9.55093 9.58814C8.60706 9.58814 7.67946 9.58814 6.73559 9.58814C6.32875 9.58814 6.16602 9.74365 6.16602 10.1324C6.16602 10.7078 6.16602 11.252 6.16602 11.7807Z" fill="#010101"/>
<path d="M2.846 11.4231C2.69954 11.532 2.66699 11.6875 2.66699 11.8585C2.69954 13.6002 3.20402 15.1863 4.18044 16.648C4.37572 16.9435 4.65237 16.959 4.9453 16.7258C5.07549 16.5236 5.02667 16.3215 4.89648 16.1349C4.24553 15.1708 3.83869 14.1289 3.65968 13.0093C3.59459 12.6361 3.57832 12.2473 3.56204 11.8585C3.54577 11.4231 3.25284 11.2521 2.846 11.4231Z" fill="#010101"/>
<path d="M5.51511 17.3923C5.31983 17.5012 5.23846 17.6722 5.28728 17.8744C5.31982 18.0455 5.45001 18.1543 5.61275 18.201C5.84058 18.2632 6.00332 18.1543 6.13351 17.9988C6.21487 17.8122 6.1986 17.6411 6.05214 17.4856C5.8894 17.3457 5.71039 17.3301 5.51511 17.3923Z" fill="#060404"/>
<path d="M13.3588 14.9372C13.3588 14.4863 13.3588 14.0509 13.3588 13.5999C13.3588 13.2112 13.5215 13.0557 13.9121 13.0557C14.8559 13.0557 15.7835 13.0557 16.7274 13.0557C16.9064 13.0557 16.9715 13.0246 16.9715 12.8379C16.9552 12.1226 16.9552 11.3918 16.9715 10.6765C16.9715 10.5054 16.9064 10.4743 16.7437 10.4743C15.7998 10.4743 14.8722 10.4743 13.9283 10.4743C13.5215 10.4743 13.3588 10.3188 13.3588 9.93005C13.3588 9.02813 13.3588 8.12622 13.3588 7.2243C13.3588 7.0688 13.3262 7.0377 13.1635 7.0377C12.3823 7.05325 11.6012 7.0377 10.8201 7.0377C10.6736 7.0377 10.6411 7.0688 10.6411 7.20875C10.6411 8.11067 10.6411 9.02813 10.6411 9.93005C10.6411 10.3188 10.4783 10.4743 10.0715 10.4743C9.12762 10.4743 8.20002 10.4743 7.25615 10.4743C7.06087 10.4743 7.02832 10.5365 7.02832 10.7076C7.04459 11.4229 7.04459 12.1382 7.02832 12.8535C7.02832 13.0401 7.09341 13.0712 7.27242 13.0712C8.20002 13.0557 9.12762 13.0712 10.0552 13.0712C10.4783 13.0712 10.6411 13.2267 10.6411 13.631C10.6411 14.5329 10.6411 15.4348 10.6411 16.3368C10.6411 16.4767 10.6736 16.5078 10.8201 16.5078C11.6012 16.5078 12.3823 16.5078 13.1635 16.5078C13.3099 16.5078 13.3425 16.4767 13.3425 16.3368C13.3425 15.8703 13.3588 15.4037 13.3588 14.9372Z" fill="white"/>
</svg>
