<svg width="213" height="79" viewBox="0 0 213 79" fill="none" xmlns="http://www.w3.org/2000/svg">
<path d="M78.29 39.6532C78.29 61.1412 60.8183 78.5602 39.2654 78.5602C17.713 78.5602 0.240723 61.1412 0.240723 39.6532C0.240723 18.1651 17.713 0.746094 39.2654 0.746094C60.8183 0.746094 78.29 18.1651 78.29 39.6532Z" fill="url(#paint0_linear_1963_5590)"/>
<path d="M64.3003 69.7164C64.1652 69.8261 64.0302 69.9408 63.8901 70.0505C63.7551 70.1602 63.625 70.2649 63.49 70.3697C62.7947 70.9232 62.0795 71.4518 61.3543 71.9454C61.2393 72.0252 61.1192 72.105 60.9992 72.1798C60.514 72.5089 60.0238 72.8231 59.5237 73.1223C58.9835 73.4514 58.4383 73.7655 57.8781 74.0647C57.7281 74.1495 57.573 74.2293 57.408 74.3091C57.393 74.3141 57.373 74.329 57.358 74.334C56.5277 74.7678 55.6774 75.1767 54.8171 75.5457C54.7821 75.5607 54.7471 75.5757 54.7171 75.5906C54.2819 75.7801 53.8518 75.9546 53.4117 76.1242C53.2816 76.1691 53.1566 76.2189 53.0265 76.2688C53.0065 76.2788 52.9815 76.2887 52.9615 76.2937C52.8615 76.3386 52.7514 76.3735 52.6464 76.4134C52.5764 76.4383 52.5114 76.4633 52.4363 76.4882C52.3913 76.5082 52.3413 76.5231 52.2913 76.5431C52.2513 76.558 52.2063 76.573 52.1663 76.5879C51.6311 76.7774 51.0909 76.952 50.5507 77.1115C50.5457 77.1115 50.5457 77.1165 50.5407 77.1165C50.5007 77.1315 50.4657 77.1365 50.4257 77.1514C50.3306 77.1813 50.2356 77.2063 50.1456 77.2362C48.8001 75.6205 47.4997 73.9401 46.4844 72.2297C44.4737 68.8288 43.6034 65.3033 45.8492 61.9224C45.9142 61.8276 45.9792 61.7279 46.0492 61.6332C46.0492 61.6332 49.3803 59.5338 50.6157 59.6834C51.1059 59.7433 51.561 59.853 52.0012 60.0075C55.2823 61.1744 57.2729 64.9044 61.6494 68.6942C61.6544 68.7041 63.7101 69.4821 64.3003 69.7164Z" fill="#FFCC7B"/>
<path d="M46.8785 68.2305C46.8385 72.2945 48.394 74.9923 50.5547 77.1116C50.5497 77.1116 50.5497 77.1166 50.5447 77.1166C50.5047 77.1315 50.4696 77.1365 50.4296 77.1515C50.3346 77.1814 50.2396 77.2063 50.1495 77.2362C49.8944 77.3061 49.6394 77.3809 49.3793 77.4507C49.0492 77.5354 48.7191 77.6252 48.384 77.705C47.2586 76.224 46.5633 74.5136 46.4833 72.2297C46.4433 71.0629 46.5684 69.7414 46.8785 68.2305Z" fill="#E8A749"/>
<path d="M64.4417 69.7686C64.4372 69.7641 64.4237 69.7641 64.4102 69.7551C64.4147 69.7506 64.4147 69.7506 64.4192 69.7461C64.4282 69.7551 64.4372 69.7596 64.4417 69.7686Z" fill="#E8A749"/>
<path d="M52.1702 76.5864C51.6351 76.7759 51.0949 76.9504 50.5547 77.11C50.5497 77.11 50.5497 77.1149 50.5447 77.1149C50.5047 77.1299 50.4697 77.1349 50.4296 77.1498C50.3346 77.1798 50.2396 77.2047 50.1496 77.2346C49.8945 77.3044 49.6394 77.3792 49.3793 77.449C49.0492 77.5338 48.7191 77.6236 48.384 77.7034C47.8588 77.828 47.3336 77.9477 46.8034 78.0524C46.7984 78.0524 46.7885 78.0574 46.7835 78.0574C45.388 78.3317 43.9775 78.5311 42.5621 78.6458C42.322 78.6708 42.0919 78.6857 41.8518 78.7007C41.6168 78.7206 41.3817 78.7356 41.1466 78.7406C40.7715 78.7655 40.4013 78.7755 40.0212 78.7805C39.9412 78.7854 39.8612 78.7854 39.7861 78.7854C39.6811 78.7904 39.5761 78.7904 39.471 78.7904C39.386 78.7954 39.306 78.7954 39.216 78.7954C39.0509 78.7954 38.8808 78.7904 38.7158 78.7904C37.7855 78.7805 36.8602 78.7306 35.9349 78.6558C35.8248 78.6458 35.7148 78.6359 35.6047 78.6259C34.4093 78.5162 33.219 78.3516 32.0286 78.1272C31.9385 78.1073 31.8435 78.0923 31.7485 78.0724C31.6635 78.0574 31.5834 78.0424 31.4984 78.0275C31.4684 78.0225 31.4384 78.0075 31.4084 78.0075C31.2683 77.9776 31.1283 77.9477 30.9832 77.9178C30.9432 77.9128 30.9032 77.8978 30.8632 77.8928C30.6981 77.8579 30.5331 77.823 30.368 77.7831C28.9676 77.459 27.5721 77.0501 26.1966 76.5614C26.0966 76.5265 25.9966 76.4916 25.8965 76.4517C25.7515 76.4019 25.6115 76.347 25.4714 76.2922C25.0413 76.1276 24.6111 75.963 24.186 75.7785C24.181 75.7735 24.171 75.7736 24.166 75.7686C23.9509 75.6838 23.7458 75.594 23.5308 75.4993C23.4808 75.4793 23.4307 75.4544 23.3857 75.4295C23.2657 75.3746 23.1456 75.3248 23.0306 75.2699C22.8405 75.1851 22.6455 75.1004 22.4604 75.0156C22.2854 74.9308 22.1153 74.846 21.9452 74.7613C21.8052 74.6915 21.6651 74.6167 21.5251 74.5468C21.5001 74.5369 21.4701 74.5219 21.4451 74.507C21.28 74.4272 21.12 74.3374 20.9599 74.2526C20.9449 74.2477 20.9249 74.2377 20.9149 74.2277C20.8899 74.2177 20.8699 74.2028 20.8449 74.1878C20.6748 74.103 20.5098 74.0133 20.3447 73.9235C20.2497 73.8687 20.1496 73.8138 20.0546 73.759C19.8295 73.6343 19.6045 73.5047 19.3794 73.37C19.2844 73.3102 19.1893 73.2603 19.0943 73.1955C19.0593 73.1755 19.0243 73.1556 18.9843 73.1307C18.8492 73.0459 18.7092 72.9661 18.5741 72.8813C18.5141 72.8464 18.4591 72.8115 18.3991 72.7716C18.3391 72.7367 18.279 72.6968 18.224 72.6619C18.0839 72.5722 17.9389 72.4774 17.8039 72.3827C17.7689 72.3577 17.7288 72.3328 17.6938 72.3079L17.6588 72.2879C17.6538 72.2829 17.6488 72.2829 17.6438 72.2829C17.5388 72.2181 17.4438 72.1533 17.3437 72.0785C17.2187 72.0037 17.0986 71.9189 16.9786 71.8342C16.9736 71.8292 16.9586 71.8242 16.9536 71.8142C16.9386 71.8092 16.9236 71.7943 16.9086 71.7843C16.8536 71.7444 16.8036 71.7095 16.7535 71.6746C16.7035 71.6397 16.6535 71.6048 16.6035 71.5748C16.5234 71.515 16.4434 71.4651 16.3684 71.4103C16.3584 71.4053 16.3484 71.3953 16.3434 71.3903C16.0383 71.1759 15.7432 70.9565 15.4531 70.7271C15.263 70.5825 15.073 70.4379 14.8879 70.2933C14.6628 70.1138 14.4378 69.9293 14.2177 69.7448C14.1877 69.7148 14.1477 69.6849 14.1126 69.66C13.8025 69.4057 13.4974 69.1364 13.1973 68.8621C12.9573 68.6527 12.7222 68.4383 12.4921 68.2189C11.8769 67.6504 11.2917 67.062 10.7215 66.4586C10.7165 66.4536 10.7065 66.4486 10.7015 66.4387C10.2664 65.9799 9.85123 65.5112 9.4461 65.0324C8.8609 64.3393 8.29572 63.6262 7.76054 62.8982C7.46044 62.4893 7.17035 62.0754 6.88525 61.6515C7.3354 61.098 7.8806 60.5844 8.52581 60.1306C10.3364 58.8291 12.9523 57.9365 16.6485 57.6772C20.5548 57.398 23.1906 55.5629 26.4167 54.6703C26.5818 54.6254 26.7468 54.5756 26.9169 54.5407C27.4871 54.401 28.0773 54.2963 28.7025 54.2365C29.3227 54.1717 29.9779 54.1567 30.6731 54.2016L39.1509 56.2162L39.1559 56.2211C39.306 56.3159 39.466 56.4057 39.6361 56.4854C39.8412 56.5951 40.0562 56.6899 40.2913 56.7846C43.4824 58.0662 48.8491 58.3205 51.9852 60.0209C52.6504 60.375 53.2156 60.7988 53.6357 61.3075C56.3766 64.5936 53.2506 72.7766 52.1702 76.5864Z" fill="#FFCC7B"/>
<path d="M39.2209 55.56L31.8184 54.1388C29.7227 53.1913 29.1626 52.6229 27.407 53.7947C20.9048 58.138 33.2789 68.7096 36.51 69.3678C42.1569 70.5197 43.5223 59.0456 39.2209 55.56Z" fill="white"/>
<path d="M39.2214 55.5621L31.819 52.4106C29.7233 51.4632 26.9574 53.363 26.6173 55.4424C25.947 59.5015 33.2795 66.9814 36.5105 67.6396C42.1574 68.7915 40.917 58.4743 39.2214 55.5621Z" fill="#FBA479"/>
<path d="M40.342 43.8148L39.0265 57.6027L27.4077 53.7979C27.4077 53.7979 28.6481 45.6848 30.3937 38.4891C31.0639 35.7266 40.342 43.8148 40.342 43.8148Z" fill="#FBA479"/>
<path d="M40.0668 46.655L39.2965 54.7134C34.1848 56.0348 30.4936 49.0037 29.6083 46.69C28.553 43.9423 29.6483 41.5039 29.6483 41.5039L37.5759 44.9796L40.0668 46.655Z" fill="#EF7950"/>
<path d="M47.1378 34.9596C47.788 34.047 49.8086 34.0221 50.5239 34.8698C51.3191 35.8123 49.4035 40.3152 48.3682 40.2404C45.9674 40.0559 47.1378 34.9596 47.1378 34.9596Z" fill="#FBA479"/>
<path d="M47.1946 37.4197C47.1846 37.0706 47.1746 36.6767 47.2196 36.3326C47.2396 36.1481 47.2996 35.9487 47.3446 35.7691C47.3696 35.6744 47.4046 35.5497 47.4447 35.4849C47.8048 34.8716 48.55 34.9114 49.0702 34.8965C49.2853 34.8915 49.6604 34.8865 49.8404 35.0112C49.9855 35.1059 50.0405 35.3453 50.1155 35.4899C49.7254 35.0311 48.7801 35.1857 48.3049 35.45C47.8098 35.7243 47.5847 36.582 47.7197 37.1205C48.1649 37.1055 48.525 37.6291 48.445 38.038C48.365 38.4469 47.5297 38.6215 47.4296 38.2126C48.1449 38.1228 47.6047 37.5144 47.1946 37.4197Z" fill="#EF7950"/>
<path d="M46.4279 22.4731C46.7681 22.3235 48.0335 21.2414 48.2636 21.6503C48.5337 22.129 47.7584 30.4367 47.6133 32.8003C46.8581 29.4194 45.3676 26.1283 44.6924 22.7723L46.4279 22.4731Z" fill="#261411"/>
<path d="M28.0665 41.1799C28.8818 35.3954 30.6174 29.0824 31.3976 23.5174C31.3976 23.5174 36.7294 20.5304 37.5546 20.3309C38.0698 20.2063 38.6 20.1265 39.1352 20.1016C39.6654 20.1564 40.1905 20.2611 40.7007 20.4157C41.5159 20.665 46.6777 23.9313 46.6777 23.9313C47.1528 29.5312 48.2882 35.555 48.7834 41.3743C48.9834 43.7479 48.6633 46.5753 46.7827 48.201C44.0768 50.5447 45.7424 53.771 41.561 53.6563C35.4089 53.4867 31.8478 48.4304 30.1772 46.2213C28.6767 44.2466 27.7314 43.5385 28.0665 41.1799Z" fill="#FBA479"/>
<path d="M32.4829 35.1423V35.1522C32.4829 35.1522 32.4829 35.1522 32.4829 35.1572C32.5029 35.1971 32.5279 35.237 32.5479 35.2719C33.3432 36.4836 36.3692 36.334 37.1995 35.4913C36.1091 34.5688 36.3392 33.018 35.1288 33.008C33.8034 32.993 32.763 33.8956 32.4829 35.1423Z" fill="#EF7950"/>
<path d="M32.4829 35.1521C32.4829 35.1521 34.2385 38.7524 37.2395 35.6059C36.0491 34.6933 35.834 33.8157 34.6086 33.7957C33.3132 33.7758 32.738 33.8456 32.5529 34.6135V34.6185C32.5179 34.7581 32.4979 34.9177 32.4929 35.1072C32.4829 35.1222 32.4829 35.1371 32.4829 35.1521Z" fill="#EF7950"/>
<path d="M43.1665 35.8522C43.5166 36.1863 44.2118 36.3509 44.9271 36.326C45.5273 36.306 46.1425 36.1514 46.5876 35.8473C46.8577 35.6627 47.0628 35.4184 47.1578 35.1242C47.1578 35.1192 47.1628 35.1092 47.1678 35.1043C47.0428 34.6854 46.8427 34.3164 46.5876 34.0172C46.1725 33.5235 45.6123 33.2193 44.9921 33.1944C44.8821 33.1894 44.777 33.1894 44.662 33.2044C43.6267 33.3191 43.9918 34.84 43.1665 35.8522Z" fill="#EF7950"/>
<path d="M47.1638 35.0974C47.1638 35.0974 46.0584 38.8323 43.1475 35.96C44.0678 34.9478 44.1528 34.0552 45.1982 33.9305C46.3035 33.7959 46.8037 33.8208 47.0487 34.5638V34.5688C47.0938 34.7034 47.1288 34.863 47.1538 35.0475C47.1588 35.0625 47.1638 35.0824 47.1638 35.0974Z" fill="#EF7950"/>
<path d="M43.8672 39.7977C44.2473 39.7628 44.5975 39.9174 44.6675 40.3263C44.7875 41.0344 43.6121 41.3137 43.0769 41.5281C42.0716 41.927 40.6311 41.8572 39.7559 41.2189C42.4267 41.5131 43.8672 39.7977 43.8672 39.7977Z" fill="#EF7950"/>
<path d="M33.9692 41.0781C34.2443 42.6888 36.1499 46.6382 38.4857 47.3862C40.2863 47.9646 43.5374 45.8852 44.6177 45.1422C43.8875 44.9776 42.6171 44.5787 41.9919 44.3792C41.2866 44.1548 35.5948 42.2998 33.9692 41.0781Z" fill="#60281F"/>
<path d="M43.8637 44.7637C43.8236 44.8036 43.7886 44.8435 43.7486 44.8834C43.6886 44.9482 43.6236 45.013 43.5586 45.0779C43.0984 45.5317 42.5832 45.9455 42.1181 46.0702C42.0981 46.0752 42.0781 46.0802 42.0581 46.0852C41.2728 46.2048 38.5119 45.1776 36.7663 44.4147C36.0711 44.1105 35.5309 43.8462 35.3509 43.7115C35.3459 43.7115 35.3458 43.7066 35.3408 43.7066C35.3208 43.6866 35.3008 43.6766 35.2908 43.6617C34.8907 43.188 34.8407 42.1956 34.8057 41.3828C36.6213 42.3652 40.2975 43.6717 42.7333 44.4246C43.0634 44.5244 43.3685 44.6191 43.6436 44.6989C43.7186 44.7238 43.7936 44.7438 43.8637 44.7637Z" fill="white"/>
<path d="M43.7478 44.8819C43.6878 44.9467 43.6228 45.0115 43.5578 45.0763C43.1026 45.5351 42.5924 45.964 42.1173 46.0687C42.0973 46.0737 42.0773 46.0787 42.0573 46.0836C41.272 46.2033 38.5111 45.1761 36.7655 44.4131C36.0703 44.1089 35.5301 43.8447 35.3501 43.71C35.3451 43.71 35.345 43.705 35.34 43.705C35.32 43.6851 35.305 43.6701 35.29 43.6602C35.9803 43.8746 41.4271 45.6698 41.6972 45.6398C41.8772 45.6199 41.8622 45.6149 41.9972 45.4553C42.2523 45.1561 42.5174 44.7871 42.7275 44.4231C43.0576 44.5228 43.3627 44.6176 43.6378 44.6974L43.7478 44.8819Z" fill="#E8E6E6"/>
<path d="M43.8636 44.7639C43.7935 44.7439 43.7235 44.724 43.6485 44.704C43.6435 44.704 43.6435 44.699 43.6435 44.699C43.5685 44.6791 43.4935 44.6542 43.4184 44.6292C43.4034 44.6242 43.3934 44.6242 43.3784 44.6193C43.3534 44.6143 43.3234 44.6043 43.2984 44.5993C43.2684 44.5893 43.2383 44.5794 43.2083 44.5694C43.1333 44.5494 43.0583 44.5245 42.9783 44.4996C42.8983 44.4746 42.8182 44.4497 42.7382 44.4248C42.5881 44.3799 42.4281 44.3251 42.263 44.2752C42.183 44.2503 42.103 44.2253 42.0229 44.1954C41.8579 44.1455 41.6928 44.0857 41.5178 44.0308C41.5128 44.0308 41.5128 44.0308 41.5128 44.0308C41.4278 44.0009 41.3427 43.971 41.2577 43.9461C41.2377 43.9411 41.2127 43.9311 41.1927 43.9261C41.1277 43.9062 41.0626 43.8812 40.9976 43.8563C40.9776 43.8513 40.9576 43.8463 40.9376 43.8364C40.8676 43.8164 40.8026 43.7915 40.7275 43.7666C40.6375 43.7316 40.5525 43.7067 40.4624 43.6718C40.3724 43.6369 40.2824 43.612 40.1924 43.5771C40.1623 43.5671 40.1323 43.5571 40.1073 43.5471C40.0773 43.5372 40.0473 43.5272 40.0223 43.5122H40.0173C40.0173 43.5122 40.0173 43.5122 40.0123 43.5072C39.9823 43.4973 39.9523 43.4873 39.9173 43.4773C39.7672 43.4275 39.6122 43.3676 39.4621 43.3178C39.4071 43.2978 39.3571 43.2779 39.302 43.2579C39.237 43.238 39.172 43.213 39.107 43.1881C39.0119 43.1532 38.9169 43.1183 38.8169 43.0834C38.7619 43.0634 38.7069 43.0435 38.6568 43.0236C38.6218 43.0136 38.5868 42.9986 38.5568 42.9886C38.4868 42.9637 38.4217 42.9388 38.3567 42.9138C38.3517 42.9138 38.3518 42.9138 38.3518 42.9138C38.2817 42.8839 38.2067 42.859 38.1367 42.8291C38.0917 42.8141 38.0466 42.7942 38.0016 42.7792C37.9566 42.7593 37.9166 42.7443 37.8666 42.7244C37.5565 42.6047 37.2514 42.485 36.9613 42.3653C36.9213 42.3454 36.8813 42.3354 36.8362 42.3155C36.7962 42.2955 36.7512 42.2806 36.7112 42.2656C36.5511 42.1958 36.3911 42.1309 36.241 42.0661C36.081 41.9963 35.9259 41.9315 35.7809 41.8617C35.7059 41.8268 35.6359 41.7969 35.5658 41.7669C35.5058 41.737 35.4458 41.7071 35.3908 41.6822C35.3807 41.6772 35.3707 41.6722 35.3557 41.6622C35.3457 41.6572 35.3357 41.6572 35.3257 41.6473C35.1357 41.5575 34.9606 41.4677 34.8006 41.383C34.2654 41.0937 33.8953 40.8344 33.7552 40.625C33.7402 40.7896 33.7652 41.0189 33.8252 41.2982C33.9653 41.9365 34.2954 42.8291 34.7706 43.7466C35.1607 44.4946 35.6458 45.2575 36.206 45.9158C36.8612 46.6837 37.6115 47.2971 38.4218 47.5613C38.5118 47.5913 38.6068 47.6112 38.7068 47.6312C38.8569 47.6561 39.012 47.671 39.177 47.671C39.4321 47.671 39.6922 47.6411 39.9673 47.5863H39.9723C39.9723 47.5863 39.9723 47.5863 39.9723 47.5813C40.3574 47.5115 40.7575 47.3868 41.1627 47.2372C43.1383 46.4892 45.084 45.0381 45.084 45.0381C44.9839 45.0531 44.5338 44.9484 43.8636 44.7639ZM43.7285 45.7363C43.6985 45.7562 43.6685 45.7712 43.6335 45.7911C43.5835 45.826 43.5285 45.8559 43.4734 45.8908C43.1533 46.0803 42.8032 46.2798 42.4281 46.4743C42.328 46.5291 42.223 46.579 42.118 46.6289C42.033 46.6737 41.9429 46.7136 41.8579 46.7535C41.7579 46.7984 41.6578 46.8483 41.5528 46.8882C41.4678 46.9281 41.3778 46.9629 41.2927 46.9979C41.2777 47.0028 41.2627 47.0078 41.2477 47.0178C41.2427 47.0228 41.2327 47.0228 41.2277 47.0278C41.1427 47.0577 41.0526 47.0926 40.9676 47.1225C40.8726 47.1574 40.7775 47.1873 40.6875 47.2173C40.6675 47.2223 40.6475 47.2272 40.6275 47.2372C40.4124 47.302 40.2074 47.3619 39.9973 47.3968C39.9923 47.3968 39.9923 47.3968 39.9923 47.3968C39.9223 47.4117 39.8522 47.4267 39.7772 47.4367C39.6772 47.4566 39.5772 47.4716 39.4771 47.4766C39.3771 47.4865 39.2821 47.4915 39.187 47.4915C39.122 47.4915 39.062 47.4865 38.997 47.4865H38.972C38.9369 47.4816 38.9069 47.4816 38.8769 47.4766C38.8719 47.4766 38.8669 47.4716 38.8569 47.4716C38.8369 47.4716 38.8219 47.4666 38.8019 47.4666H38.7919C38.7819 47.4666 38.7719 47.4666 38.7669 47.4616H38.7619C38.7219 47.4566 38.6818 47.4467 38.6418 47.4367C38.6368 47.4367 38.6218 47.4367 38.6168 47.4317C38.5718 47.4167 38.5218 47.4068 38.4768 47.3918C38.3968 47.3619 38.3167 47.332 38.2367 47.302C38.2317 47.2971 38.2267 47.2971 38.2167 47.2971C38.2017 47.2921 38.1867 47.2871 38.1717 47.2771C38.1567 47.2671 38.1417 47.2572 38.1267 47.2572C38.1067 47.2522 38.0966 47.2422 38.0816 47.2372C38.0766 47.2372 38.0766 47.2322 38.0766 47.2322C38.0466 47.2123 38.0066 47.2023 37.9766 47.1824C37.9416 47.1624 37.9116 47.1475 37.8816 47.1275C37.8466 47.1076 37.8166 47.0926 37.7816 47.0727C37.7465 47.0477 37.7115 47.0278 37.6765 47.0028C37.6465 46.9829 37.6165 46.9679 37.5915 46.943C37.5265 46.8981 37.4614 46.8582 37.4014 46.8084C37.3964 46.8034 37.3914 46.8034 37.3814 46.7934C37.3714 46.7834 37.3614 46.7735 37.3464 46.7685C37.3314 46.7585 37.3164 46.7485 37.3064 46.7386C37.2764 46.7136 37.2464 46.6887 37.2214 46.6687C37.2164 46.6638 37.2063 46.6588 37.2013 46.6488C37.1113 46.579 37.0263 46.4992 36.9463 46.4194C36.9413 46.4144 36.9313 46.4045 36.9263 46.3995C36.8913 46.3695 36.8563 46.3346 36.8212 46.2997C36.7862 46.2648 36.7512 46.2349 36.7212 46.2C36.7062 46.185 36.6912 46.1701 36.6762 46.1551C36.6512 46.1252 36.6262 46.0953 36.5962 46.0704C36.5361 46.0105 36.4811 45.9457 36.4261 45.8809C36.3961 45.8509 36.3661 45.816 36.3411 45.7811C36.081 45.477 35.8409 45.1428 35.6108 44.8038C35.5708 44.7439 35.5308 44.6791 35.4958 44.6193C35.4558 44.5594 35.4208 44.4946 35.3808 44.4348C35.3408 44.3749 35.3057 44.3101 35.2707 44.2453C35.2007 44.1206 35.1307 44.0009 35.0657 43.8763C35.0607 43.8763 35.0607 43.8713 35.0607 43.8713H35.0556C34.9156 43.617 34.7906 43.3577 34.6705 43.1083C34.6355 43.0285 34.6005 42.9537 34.5705 42.874C34.5505 42.839 34.5405 42.7992 34.5205 42.7642C34.5205 42.7593 34.5155 42.7593 34.5155 42.7593C34.4955 42.7244 34.4805 42.6845 34.4705 42.6446C34.4505 42.6097 34.4354 42.5748 34.4254 42.5349C34.4004 42.475 34.3804 42.4252 34.3604 42.3703C34.3404 42.3155 34.3204 42.2606 34.3004 42.2058C34.3004 42.2008 34.3004 42.2008 34.3004 42.2008C34.2554 42.0811 34.2154 41.9664 34.1804 41.8467C34.1654 41.7969 34.1404 41.737 34.1253 41.6871C34.1203 41.6522 34.1053 41.6223 34.1003 41.5924C34.0903 41.5575 34.0803 41.5326 34.0703 41.5026C34.0653 41.4927 34.0653 41.4827 34.0653 41.4727C34.0553 41.4278 34.0403 41.373 34.0303 41.3331C34.0203 41.2882 34.0103 41.2433 34.0003 41.1985C33.9953 41.1586 33.9853 41.1187 33.9803 41.0838V41.0788H33.9853V41.0838C34.0103 41.1037 34.0353 41.1187 34.0653 41.1386C34.0903 41.1586 34.1153 41.1785 34.1453 41.1985H34.1504C34.1804 41.2184 34.2104 41.2384 34.2404 41.2583C34.3004 41.2982 34.3654 41.3381 34.4405 41.383C34.5005 41.4179 34.5655 41.4528 34.6305 41.4927C34.6905 41.5276 34.7605 41.5675 34.8306 41.6024H34.8356C34.8606 41.6173 34.8906 41.6323 34.9156 41.6423C34.9906 41.6822 35.0656 41.7221 35.1457 41.757C35.1907 41.7869 35.2457 41.8118 35.2957 41.8318C35.3407 41.8517 35.3807 41.8717 35.4208 41.8916C35.4658 41.9115 35.5058 41.9315 35.5458 41.9514C35.5908 41.9764 35.6408 41.9963 35.6859 42.0212C35.7809 42.0661 35.8759 42.106 35.976 42.1509C36.026 42.1708 36.076 42.1958 36.126 42.2157C36.226 42.2606 36.3261 42.3005 36.4311 42.3504C36.6862 42.4551 36.9463 42.5648 37.2064 42.6695C37.3314 42.7194 37.4564 42.7642 37.5765 42.8191C37.7265 42.8789 37.8766 42.9388 38.0266 42.9936C38.1167 43.0235 38.2067 43.0634 38.2967 43.0934C38.3867 43.1283 38.4818 43.1632 38.5668 43.1931C38.6018 43.2081 38.6368 43.218 38.6669 43.233C38.7869 43.2779 38.9019 43.3178 39.022 43.3626C39.072 43.3826 39.117 43.3975 39.172 43.4175C39.217 43.4374 39.267 43.4524 39.3121 43.4674C39.3171 43.4723 39.322 43.4723 39.327 43.4723C39.3971 43.5023 39.4671 43.5222 39.5371 43.5471C39.5571 43.5521 39.5772 43.5621 39.5972 43.5671C39.6972 43.602 39.7972 43.6369 39.8873 43.6718C39.8923 43.6718 39.8973 43.6768 40.0323 43.7217C40.0773 43.7366 40.1173 43.7516 40.1573 43.7666C40.1623 43.7666 40.1624 43.7715 40.1674 43.7715C40.2374 43.7915 40.2974 43.8164 40.3574 43.8414H40.3624C40.3924 43.8513 40.4174 43.8613 40.4374 43.8663C40.5225 43.8962 40.6125 43.9261 40.6925 43.956C40.7325 43.971 40.7725 43.981 40.8126 43.9959C40.8526 44.0109 40.8926 44.0209 40.9276 44.0358C40.9526 44.0408 40.9726 44.0558 40.9976 44.0608C41.0126 44.0657 41.0326 44.0658 41.0426 44.0757C41.0777 44.0857 41.1126 44.1007 41.1477 44.1106C41.2027 44.1306 41.2527 44.1455 41.2977 44.1605C41.6428 44.2752 41.8929 44.36 42.008 44.3949C42.103 44.4248 42.208 44.4597 42.328 44.4946C42.3881 44.5145 42.4531 44.5345 42.5181 44.5544C42.5281 44.5594 42.5431 44.5594 42.5581 44.5644C42.5881 44.5744 42.6181 44.5844 42.6532 44.5943H42.6582C42.8832 44.6641 43.1333 44.7439 43.3834 44.8187C43.4734 44.8437 43.5685 44.8736 43.6585 44.8985C43.6885 44.9085 43.7135 44.9185 43.7435 44.9234H43.7485C43.7835 44.9334 43.8085 44.9434 43.8436 44.9484C43.8736 44.9534 43.9036 44.9683 43.9286 44.9733C44.0186 44.9982 44.1087 45.0232 44.1937 45.0431C44.2937 45.073 44.3937 45.098 44.4838 45.1179C44.5438 45.1279 44.5938 45.1428 44.6488 45.1528C44.4387 45.2974 44.1537 45.4869 43.8085 45.7013C43.7635 45.7113 43.7435 45.7213 43.7285 45.7363Z" fill="#EF7950"/>
<path d="M41.951 28.2196C42.166 28.2146 42.5762 28.2345 42.5762 28.2345L43.0714 29.0174C43.0714 29.0174 43.1314 28.3342 43.2464 28.3492C46.3224 28.7631 47.0227 30.9572 47.0227 30.9572C46.1874 30.5333 45.3171 30.2291 44.4618 30.1145C43.2864 29.9549 42.5962 30.1344 42.011 30.663C41.926 29.8552 41.881 29.0374 41.951 28.2196Z" fill="#261411"/>
<path d="M36.5392 25.9102C36.3241 25.9451 35.929 26.0348 35.929 26.0348L35.5789 26.8925C35.5789 26.8925 35.3988 26.2293 35.2888 26.2642C32.3328 27.2166 32.0327 29.5005 32.0327 29.5005C32.778 28.937 33.5832 28.4832 34.4035 28.2189C35.5289 27.8549 36.2441 27.9098 36.9143 28.3237C36.8543 27.5109 36.7543 26.698 36.5392 25.9102Z" fill="#261411"/>
<path d="M32.4839 35.1522C32.4839 35.1522 32.4839 35.1572 32.4889 35.1572C32.5139 35.1971 32.5389 35.237 32.5639 35.2719C33.4792 36.4836 36.9554 36.334 37.9057 35.4913C36.6553 34.5688 36.9154 33.018 35.5299 33.008C33.9994 32.993 32.804 33.8956 32.4839 35.1423C32.4839 35.1472 32.4839 35.1522 32.4839 35.1522Z" fill="white"/>
<path d="M33.4386 34.7325C33.4636 35.6999 34.0788 36.4678 34.8091 36.4528C35.5393 36.4379 36.1045 35.64 36.0795 34.6776C36.0545 33.7102 35.4393 32.9423 34.709 32.9572C33.9788 32.9722 33.4086 33.7651 33.4386 34.7325Z" fill="#6D4A44"/>
<path d="M33.8699 34.8218C33.8849 35.4401 34.2801 35.9338 34.7502 35.9238C35.2204 35.9138 35.5805 35.4052 35.5655 34.7819C35.5455 34.1635 35.1554 33.6699 34.6852 33.6798C34.215 33.6948 33.8499 34.2034 33.8699 34.8218Z" fill="#44322E"/>
<path d="M34.8848 34.1457L36.3803 33.5273C36.3803 33.5273 36.7804 34.2554 36.6003 34.415C36.3002 34.6892 34.8848 34.1457 34.8848 34.1457Z" fill="white"/>
<path d="M32.5637 35.2779C32.9588 35.8812 34.8894 38.4045 37.9504 35.607C37.7504 33.3481 36.7801 30.6802 35.3746 30.6603C34.0742 30.6403 32.9088 32.7596 32.5687 34.6147V34.6196C32.5387 34.7842 32.5137 34.9488 32.4987 35.1083C32.4987 35.1183 32.4937 35.1333 32.4937 35.1482C32.8138 33.9016 34.0092 32.999 35.5397 33.014C36.9251 33.0239 36.665 34.5798 37.9155 35.4973C36.9501 36.335 33.479 36.4896 32.5637 35.2779Z" fill="#EF7950"/>
<path d="M43.3125 31.4297C43.3125 31.4297 42.8474 34.3319 42.6523 35.2943C42.5523 35.7979 42.1822 37.0246 42.4422 38.8747C41.4769 37.7926 41.2518 34.0277 43.3125 31.4297Z" fill="#EF7950"/>
<path d="M42.9033 35.8015C43.2534 36.1356 43.9487 36.3001 44.6639 36.2752C45.2641 36.2552 45.8793 36.1007 46.3245 35.7965C46.5946 35.612 46.7996 35.3676 46.8946 35.0734C46.8946 35.0684 46.8996 35.0585 46.9046 35.0535C46.7796 34.6346 46.5795 34.2656 46.3245 33.9664C45.9093 33.4727 45.3491 33.1685 44.7289 33.1436C44.6189 33.1386 44.5138 33.1386 44.3988 33.1536C43.3635 33.2683 43.7336 34.7892 42.9033 35.8015Z" fill="white"/>
<path d="M43.432 34.6578C43.502 35.6701 44.0922 36.453 44.7575 36.4081C45.4227 36.3632 45.9028 35.5055 45.8378 34.4982C45.7678 33.4859 45.1776 32.7031 44.5124 32.7479C43.8472 32.7928 43.362 33.6455 43.432 34.6578Z" fill="#6D4A44"/>
<path d="M43.8613 34.56C43.9063 35.2083 44.2864 35.7119 44.7116 35.682C45.1367 35.6521 45.4468 35.1035 45.4018 34.4553C45.3568 33.807 44.9766 33.3034 44.5515 33.3333C44.1264 33.3632 43.8163 33.9117 43.8613 34.56Z" fill="#44322E"/>
<path d="M44.7827 33.9438L46.2332 33.5C46.2332 33.5 46.4833 34.3078 46.2932 34.4524C45.9731 34.6918 44.7827 33.9438 44.7827 33.9438Z" fill="white"/>
<path d="M42.882 35.9092C45.6629 38.6468 46.7933 35.3706 46.8884 35.0665C46.7883 35.3657 46.5882 35.605 46.3182 35.7895C45.873 36.0937 45.2578 36.2483 44.6576 36.2682C43.9424 36.2932 43.2521 36.1236 42.897 35.7945C43.7273 34.7822 43.3572 33.2613 44.3925 33.1416C44.5025 33.1317 44.6126 33.1267 44.7226 33.1317C45.3428 33.1566 45.903 33.4608 46.3182 33.9545C46.5732 34.2536 46.7683 34.6227 46.8983 35.0415C46.8983 35.0266 46.8933 35.0066 46.8933 34.9917C46.8633 34.8371 46.8283 34.6775 46.7883 34.5129C46.7883 34.5129 46.7883 34.508 46.7833 34.508C46.6032 32.4834 44.8477 30.8827 43.8773 31.0024C42.832 31.137 42.782 33.6503 42.882 35.9092Z" fill="#EF7950"/>
<path d="M30.1275 22.1441C30.3926 21.6903 37.2349 15.5469 50.1141 16.8434C51.5646 16.988 48.7837 21.1518 48.7837 21.1518C47.4983 23.8296 44.8524 25.7295 44.4173 25.6746C44.0671 25.6298 36.9398 22.1541 36.5897 22.0394C31.2979 24.069 29.2022 36.6601 28.8721 36.9842C28.9321 35.583 27.4066 26.8265 30.1275 22.1441Z" fill="#261411"/>
<path d="M28.6677 33.2799C27.8024 32.4222 25.6217 32.7713 25.0165 33.8185C24.3363 34.9804 27.2422 39.4633 28.3376 39.184C30.8884 38.5358 28.6677 33.2799 28.6677 33.2799Z" fill="#FBA479"/>
<path d="M29.0724 35.9287C29.0174 35.5497 28.9524 35.1308 28.8424 34.7618C28.7824 34.5673 28.6823 34.3629 28.6023 34.1784C28.5573 34.0786 28.4973 33.954 28.4423 33.8941C27.9371 33.3057 27.1518 33.4852 26.5866 33.57C26.3516 33.6049 25.9514 33.6697 25.7814 33.8343C25.6463 33.9639 25.6263 34.2332 25.5713 34.3978C25.9064 33.8343 26.9517 33.8243 27.5119 34.0188C28.0971 34.2232 28.4973 35.1009 28.4573 35.7043C27.9771 35.7691 27.687 36.3974 27.852 36.8262C28.0171 37.2501 28.9424 37.28 28.9724 36.8213C28.1822 36.8562 28.6523 36.1032 29.0724 35.9287Z" fill="#EF7950"/>
<path d="M36.1392 47.5078C37.2045 47.8519 38.775 48.4852 39.2652 49.4975L39.4853 48.4403C38.56 47.822 37.2395 47.7322 36.1392 47.5078Z" fill="#EF7950"/>
<path d="M17.4181 69.0003C17.3281 69.9278 17.1781 70.8752 16.988 71.8326C16.983 71.8277 16.968 71.8227 16.963 71.8127C16.948 71.8077 16.933 71.7928 16.918 71.7828C16.863 71.7429 16.8129 71.708 16.7629 71.6731C16.7129 71.6382 16.6629 71.6033 16.6129 71.5734C16.5329 71.5135 16.4528 71.4636 16.3778 71.4088C16.3678 71.4038 16.3578 71.3938 16.3528 71.3888C16.0477 71.1744 15.7526 70.955 15.4625 70.7256C15.2724 70.581 15.0824 70.4364 14.8973 70.2918C14.6722 70.1123 14.4472 69.9278 14.2271 69.7433C14.1971 69.7133 14.1571 69.6834 14.1221 69.6585C13.812 69.4042 13.5069 69.1349 13.2068 68.8606C12.9667 68.6512 12.7316 68.4368 12.5015 68.2174C11.8863 67.6489 11.3011 67.0605 10.7309 66.4571C10.7259 66.4521 10.7159 66.4471 10.7109 66.4372C10.2758 65.9784 9.86065 65.5097 9.45552 65.0309C8.87032 64.3378 8.30514 63.6247 7.76996 62.8967C7.46986 62.4878 7.17977 62.0739 6.89467 61.65C6.84466 61.5802 6.79965 61.5054 6.74463 61.4356C7.32482 60.937 7.92002 60.4981 8.53022 60.1291C9.13542 59.7601 9.75062 59.451 10.3708 59.2266H13.3018C13.4068 59.2864 13.5069 59.3413 13.6069 59.4011C17.078 61.5054 17.7933 65.0659 17.4181 69.0003Z" fill="#FFCC7B"/>
<path d="M18.2334 72.6599C18.0933 72.5701 17.9483 72.4754 17.8133 72.3807C17.7782 72.3557 17.7382 72.3308 17.7032 72.3059L17.6682 72.2859C17.6632 72.2809 17.6582 72.2809 17.6532 72.2809C17.5482 72.2161 17.4531 72.1513 17.3531 72.0765C17.228 72.0017 17.108 71.9169 16.988 71.8321C16.983 71.8271 16.968 71.8222 16.963 71.8122C16.948 71.8072 16.9329 71.7922 16.9179 71.7823C16.8629 71.7424 16.8129 71.7075 16.7629 71.6726C16.7129 71.6377 16.6629 71.6028 16.6128 71.5728C16.7429 69.7228 16.4128 67.7332 15.3574 65.5391C16.2827 66.7757 16.9529 67.9227 17.4181 68.9998C17.9733 70.3013 18.2184 71.503 18.2334 72.6599Z" fill="#E8A749"/>
<path d="M212.247 39.7668C212.247 61.1613 194.904 78.5045 173.509 78.5045C152.115 78.5045 134.771 61.1613 134.771 39.7668C134.771 18.3723 152.115 1.02913 173.509 1.02913C194.904 1.02913 212.247 18.3723 212.247 39.7668Z" fill="white" stroke="#3E59E8" stroke-width="0.573892"/>
<path d="M188.333 37.3616L168.103 58.1563L149.263 49.6719L178.022 31.5586L188.333 37.3616Z" fill="#F20019"/>
<path d="M187.331 67.389L178.022 31.5586L188.333 37.3616L194.207 53.5399L187.331 67.389Z" fill="#334C9E"/>
<path d="M178.022 31.5586L181.329 44.3512L188.333 37.3616L178.022 31.5586Z" fill="#372A80"/>
<path d="M176.367 21.0078L193.683 31.2951L198.033 40.792L178.89 30.3286L176.367 21.0078Z" fill="#F20019"/>
<path d="M189.811 22.5455L178.89 30.3274L176.367 21.0067L182.979 18.2812L189.811 22.5455Z" fill="#334C9E"/>
<path d="M178.89 30.3286L176.367 21.0078L184.807 26.1084L178.89 30.3286Z" fill="#372A80"/>
<path d="M166.667 36.5716L165.275 14.8085L173.366 13.7539L177.151 30.5045L166.667 36.5716Z" fill="#F20019"/>
<path d="M150.613 16.4805L177.151 30.5056L166.667 36.5728L148.48 27.8664L150.613 16.4805Z" fill="#334C9E"/>
<path d="M166.667 36.5714L177.15 30.5043L166.013 24.6133L166.667 36.5714Z" fill="#372A80"/>
<path d="M98.582 31.9609L114.192 46.0098L98.582 58.4969" stroke="#0078CA" stroke-width="2.29557" stroke-linecap="round"/>
<defs>
<linearGradient id="paint0_linear_1963_5590" x1="39.2654" y1="0.746094" x2="39.2654" y2="78.5602" gradientUnits="userSpaceOnUse">
<stop stop-color="#0078CA"/>
<stop offset="1" stop-color="#3045DF"/>
</linearGradient>
</defs>
</svg>
