<svg width="19" height="31" viewBox="0 0 19 31" fill="none" xmlns="http://www.w3.org/2000/svg">
<path d="M5.62685 25.4846C5.0977 26.1182 4.56642 26.7496 4.03538 27.3807L4.03512 27.381C3.46154 28.0627 2.88825 28.744 2.31773 29.428C2.15277 29.6277 1.95891 29.7653 1.74501 29.8199C1.52814 29.8754 1.30735 29.8411 1.1023 29.7262L1.10191 29.726C0.915225 29.6207 0.780298 29.4797 0.701509 29.3044C0.623667 29.1311 0.606812 28.9381 0.631306 28.7369C0.646714 28.6004 0.66212 28.464 0.677517 28.3277C0.826671 27.0074 0.974894 25.6953 1.1141 24.3741L1.11421 24.3731C1.2295 23.335 1.34753 22.2941 1.46553 21.2534L1.46554 21.2533C1.58356 20.2126 1.70155 19.1721 1.81679 18.1344L1.81683 18.134C2.09127 15.7103 2.36572 13.2866 2.64017 10.8741M5.62685 25.4846L7.6853 6.52869C7.45056 6.14542 7.21582 5.76129 6.98085 5.37677C6.36969 4.37664 5.75693 3.3739 5.13845 2.37702L5.28473 2.28638C5.28472 2.28635 5.2847 2.28632 5.28468 2.28629C5.16526 2.09359 5.01069 1.95137 4.82503 1.87334C4.63882 1.79507 4.43519 1.78721 4.2286 1.84C3.83661 1.94017 3.60163 2.27001 3.55142 2.69337L3.55141 2.69337L3.55123 2.69504L3.38657 4.20984C3.14511 6.43106 2.89267 8.65233 2.64017 10.8741M5.62685 25.4846L5.37364 27.7276C5.37364 27.7277 5.37363 27.7277 5.37362 27.7278C5.34249 28.0017 5.39428 28.259 5.52637 28.4633C5.65966 28.6694 5.86853 28.8112 6.12833 28.8589L6.13139 28.8594C6.56021 28.9301 6.85691 28.707 7.09184 28.4309L7.09284 28.4297C9.54857 25.4897 12.0094 22.5551 14.4719 19.6184C15.609 18.2625 16.7464 16.9061 17.8838 15.5485L17.8843 15.5479C18.0514 15.3467 18.1562 15.1423 18.172 14.917C18.1877 14.6919 18.1126 14.4738 17.9758 14.2489L17.9752 14.2479C17.6844 13.7769 17.3936 13.303 17.1027 12.8289L17.1019 12.8276C16.8114 12.3542 16.5208 11.8805 16.2301 11.4096C14.1883 8.05478 12.1356 4.7112 10.0831 1.36795C9.9623 1.16465 9.81555 1.0094 9.64047 0.916416C9.46238 0.821828 9.26753 0.798485 9.06696 0.839483L9.06599 0.839688C8.84982 0.885179 8.66881 0.980256 8.5358 1.1434C8.40514 1.30366 8.33455 1.51285 8.30483 1.76185L5.62685 25.4846ZM2.64017 10.8741L2.81116 10.8936M2.64017 10.8741L2.81116 10.8936M2.81116 10.8936C3.06365 8.67185 3.31614 6.45014 3.55765 4.22844L3.72231 2.71364L0.848535 28.3469C0.997674 27.0267 1.14597 25.714 1.28525 24.3921C1.40051 23.3542 1.51852 22.3134 1.63654 21.2727C1.75455 20.232 1.87256 19.1913 1.98782 18.1534C2.26227 15.7297 2.53671 13.306 2.81116 10.8936ZM7.87278 5.56362C7.84286 5.81993 7.81231 6.08167 7.78013 6.35402L8.30482 1.76193C8.173 2.86227 8.05218 3.96246 7.93147 5.06168L7.93146 5.06179C7.91199 5.22769 7.89252 5.39447 7.87278 5.56362ZM8.79982 7.76435L8.7999 7.76436L8.80048 7.75901C8.99238 5.98276 9.19466 4.19582 9.39727 2.41848C9.81546 3.10192 10.2328 3.78374 10.6494 4.46429C12.7745 7.93585 14.8794 11.3745 16.9701 14.8271C15.3399 16.7737 13.7094 18.7182 12.0799 20.6615C10.2479 22.8464 8.41713 25.0297 6.58939 27.2128L6.70341 26.1637C6.70346 26.1633 6.70351 26.1629 6.70357 26.1624C6.74557 25.8243 6.78443 25.4918 6.82307 25.1611C6.86613 24.7927 6.9089 24.4267 6.95544 24.0578C6.97437 23.9445 7.0197 23.8334 7.07964 23.7645L7.07966 23.7645L7.08182 23.7619C9.07963 21.3721 11.0775 18.9934 13.0754 16.6146L13.0755 16.6145C13.2763 16.3751 13.4148 16.1603 13.4362 15.9158C13.4577 15.67 13.3579 15.4331 13.1893 15.1574L8.90855 8.1567C8.90847 8.15655 8.90838 8.15641 8.90829 8.15627C8.83116 8.02796 8.78549 7.86687 8.79982 7.76435ZM3.25112 15.8387C3.71684 11.7014 4.18255 7.5641 4.65077 3.42428C7.17332 7.55094 9.70609 11.6779 12.249 15.8151C10.3425 18.0857 8.43885 20.3565 6.53664 22.6257C4.97594 24.4874 3.41624 26.3479 1.85679 28.2062C2.32322 24.082 2.78717 19.9604 3.25111 15.8388L3.25112 15.8387Z" fill="white" stroke="white" stroke-width="0.344179"/>
</svg>
