<svg width="30" height="27" viewBox="0 0 30 27" fill="none" xmlns="http://www.w3.org/2000/svg">
<path d="M0 8.44825C0.0990108 7.9019 0.157252 7.34968 0.302857 6.82095C1.21143 3.46648 3.23241 1.14009 6.6279 0.253001C9.20801 -0.422594 11.5202 0.282374 13.5121 2.03892C13.9896 2.4619 14.409 2.9495 14.8691 3.42536C15.0263 3.23736 15.2011 3.03175 15.3758 2.83201C16.6163 1.45145 18.1073 0.482115 19.9419 0.141381C22.1726 -0.263976 24.2052 0.2765 26.0107 1.62769C28.0492 3.15512 29.2082 5.23477 29.5809 7.75503C29.9886 10.4985 29.3188 13.0305 28.0375 15.4274C26.7679 17.8008 25.0206 19.7806 23.0229 21.5489C20.6758 23.6344 18.0724 25.3381 15.3409 26.8597C14.9972 27.0535 14.6711 27.0418 14.3274 26.8538C11.7939 25.4439 9.36526 23.8753 7.15208 21.9778C4.73505 19.9099 2.63835 17.5658 1.25802 14.6402C0.617362 13.2832 0.186373 11.8673 0.0524175 10.3693C0.0465933 10.3164 0.0174725 10.2635 0 10.2048C0 9.61732 0 9.03573 0 8.44825ZM3.12175 14.4052C3.17417 14.511 3.19747 14.5638 3.22659 14.6108C4.14098 16.338 5.34658 17.842 6.72691 19.2049C9.09735 21.5489 11.8231 23.4053 14.7118 25.0326C14.7992 25.0796 14.9681 25.0502 15.0671 24.9974C16.7445 24.0515 18.3694 23.0176 19.9128 21.8485C22.0969 20.1918 24.0887 18.3413 25.6263 16.0384C26.9542 14.0527 27.857 11.9026 27.9269 9.46458C27.9968 7.06182 27.2047 5.01153 25.4225 3.38423C23.5238 1.65119 20.8563 1.28695 18.6606 2.43253C17.4084 3.0905 16.4474 4.07158 15.7427 5.28177C15.2593 6.11011 14.4206 6.06899 13.9663 5.2994C13.6111 4.6943 13.151 4.13032 12.6559 3.63685C11.0834 2.07417 9.20218 1.41032 7.0123 1.94492C4.89812 2.47365 3.43626 3.83071 2.51604 5.78112C1.47934 7.9724 1.60165 10.2165 2.31802 12.4666C2.34131 12.5429 2.49857 12.6193 2.59758 12.6252C3.29065 12.6369 3.98955 12.6193 4.68845 12.6369C4.93307 12.6428 5.04373 12.5488 5.14856 12.3432C5.6145 11.3797 6.08043 10.4163 6.57548 9.47046C6.68614 9.25309 6.89581 9.0416 7.11131 8.94173C7.55394 8.73611 7.97911 8.96523 8.23537 9.47633C9.14976 11.3151 10.0583 13.1539 10.9669 14.9868C11.0135 15.075 11.0601 15.1631 11.1242 15.2806C11.194 15.1396 11.2523 15.0397 11.3047 14.9398C12.1958 13.1363 13.0985 11.3386 13.9838 9.5292C14.1702 9.14735 14.4206 8.87123 14.8574 8.87711C15.2943 8.88298 15.5447 9.16497 15.7252 9.54095C16.1795 10.475 16.6571 11.4032 17.0998 12.3432C17.2104 12.5723 17.3444 12.6369 17.5832 12.6369C19.3828 12.6252 21.1825 12.6311 22.9763 12.6311C23.0753 12.6311 23.1685 12.6252 23.2675 12.6311C23.815 12.6663 24.1878 13.0305 24.1819 13.524C24.1761 14.0292 23.7801 14.3994 23.2209 14.4052C21.0835 14.4052 18.946 14.4052 16.8085 14.4052C16.3776 14.4052 16.0747 14.2231 15.8825 13.8295C15.5971 13.2362 15.3001 12.6428 15.0031 12.0495C14.9565 11.9613 14.904 11.8732 14.84 11.7557C14.7701 11.885 14.7177 11.979 14.6711 12.073C13.7742 13.8824 12.8714 15.6918 11.9803 17.5071C11.7939 17.8831 11.5435 18.1592 11.1009 18.1533C10.6699 18.1474 10.4311 17.8772 10.2505 17.513C9.35361 15.6918 8.45086 13.8706 7.54229 12.0553C7.4957 11.9613 7.44911 11.8732 7.37922 11.744C7.03559 12.4313 6.69779 13.0775 6.39493 13.7414C6.17362 14.2172 5.83581 14.4287 5.32329 14.417C4.60691 14.3935 3.88472 14.4052 3.12175 14.4052Z" fill="#0078CA"/>
</svg>
