<svg width="182" height="202" viewBox="0 0 182 202" fill="none" xmlns="http://www.w3.org/2000/svg">
<path d="M7.28328 199.466L0.809783 175.397H5.97481L10.2101 194.06L15.0997 175.397H20.4713L25.0854 193.957L29.3552 175.397H34.5546L27.8401 199.432H22.1586L17.6478 182.318L12.9304 199.432L7.28328 199.466ZM36.807 189.825C36.807 183.868 40.6636 180.046 45.5187 180.046C48.5833 180.046 50.6837 181.492 51.82 183.076V180.355H56.6752V199.432H51.82V196.643C50.6837 198.295 48.5144 199.742 45.4843 199.742C40.6636 199.742 36.807 195.782 36.807 189.825ZM51.82 189.894C51.82 186.278 49.4097 184.281 46.7583 184.281C44.1758 184.281 41.731 186.209 41.731 189.825C41.731 193.44 44.1758 195.506 46.7583 195.506C49.4097 195.506 51.82 193.509 51.82 189.894ZM61.7278 199.432V180.355H66.5484V199.432H61.7278ZM64.1725 178.083C62.4509 178.083 61.2112 176.843 61.2112 175.259C61.2112 173.675 62.4509 172.436 64.1725 172.436C65.8598 172.436 67.1338 173.675 67.1338 175.259C67.1338 176.843 65.8598 178.083 64.1725 178.083ZM72.4132 193.509V184.315H70.1406V180.355H72.4132V175.638H77.2683V180.355H81.538V184.315H77.2683V193.544C77.2683 194.818 77.7848 195.368 79.2999 195.368H81.538V199.432H78.5079C74.8579 199.432 72.4132 197.882 72.4132 193.509ZM85.3497 199.432V173.951H90.1704V199.432H85.3497ZM95.2775 199.432V180.355H100.098V199.432H95.2775ZM97.7223 178.083C96.0006 178.083 94.761 176.843 94.761 175.259C94.761 173.675 96.0006 172.436 97.7223 172.436C99.4096 172.436 100.684 173.675 100.684 175.259C100.684 176.843 99.4096 178.083 97.7223 178.083ZM120.012 193.991C120.012 197.262 117.154 199.742 112.505 199.742C107.719 199.742 104.379 196.952 104.172 193.406H109.028C109.2 194.852 110.543 195.954 112.471 195.954C114.365 195.954 115.398 195.093 115.398 193.991C115.398 190.582 104.62 192.752 104.62 185.762C104.62 182.594 107.444 180.046 112.161 180.046C116.775 180.046 119.564 182.559 119.84 186.347H115.226C115.088 184.866 113.917 183.868 112.023 183.868C110.233 183.868 109.303 184.591 109.303 185.693C109.303 189.17 119.874 187.001 120.012 193.991ZM125.071 193.509V184.315H122.798V180.355H125.071V175.638H129.926V180.355H134.196V184.315H129.926V193.544C129.926 194.818 130.442 195.368 131.958 195.368H134.196V199.432H131.166C127.516 199.432 125.071 197.882 125.071 193.509ZM146.203 184.005C143.895 184.005 142.071 185.486 141.692 188.103H150.748C150.679 185.589 148.682 184.005 146.203 184.005ZM155.259 193.44C154.226 196.952 151.058 199.742 146.34 199.742C140.796 199.742 136.768 195.885 136.768 189.894C136.768 183.868 140.693 180.046 146.34 180.046C151.85 180.046 155.741 183.799 155.741 189.48C155.741 190.1 155.706 190.72 155.603 191.34H141.657C141.898 194.163 143.827 195.747 146.237 195.747C148.303 195.747 149.439 194.714 150.059 193.44H155.259ZM158.364 189.825C158.364 183.868 162.221 180.046 167.11 180.046C169.624 180.046 172.034 181.216 173.343 183.007V173.951H178.232V199.432H173.343V196.608C172.206 198.364 170.071 199.742 167.076 199.742C162.221 199.742 158.364 195.782 158.364 189.825ZM173.377 189.894C173.377 186.278 170.967 184.281 168.315 184.281C165.733 184.281 163.288 186.209 163.288 189.825C163.288 193.44 165.733 195.506 168.315 195.506C170.967 195.506 173.377 193.509 173.377 189.894Z" fill="#F9CA26"/>
<circle cx="89.9562" cy="67.5964" r="65.7656" transform="rotate(180 89.9562 67.5964)" fill="#FFDE68" fill-opacity="0.2" stroke="#F9CA26" stroke-width="2.29557"/>
<path d="M95.6352 36.7129L94.2198 82.8434H85.1616L83.7462 36.7129H95.6352ZM95.9183 91.4871V102.952H83.6519V91.4871H95.9183Z" fill="#F9CA26"/>
</svg>
