<svg width="57" height="79" viewBox="0 0 57 79" fill="none" xmlns="http://www.w3.org/2000/svg">
<path d="M30.1312 1.03768C30.7942 1.18838 31.4772 1.32025 32.1402 1.47096C38.7098 3.0157 43.2703 8.36579 43.4511 14.7143C43.4913 16.0142 43.4511 17.314 43.4712 18.6327C43.4712 18.9529 43.5917 19.3297 43.7926 19.5934C45.882 22.5511 44.1743 26.3753 40.4375 27.0346C39.9754 27.1099 39.8348 27.2983 39.7545 27.6939C39.2924 30.1052 38.0267 32.0833 36.098 33.7222C35.8368 33.9483 35.656 34.3816 35.6158 34.7206C35.5556 35.5495 35.3145 36.5668 35.7364 37.132C36.1382 37.6971 37.2633 37.829 38.087 38.1304C41.7635 39.4679 45.4601 40.8054 49.1366 42.1429C53.7976 43.8384 56.3089 47.1916 56.3692 51.8824C56.4093 54.2183 56.3893 56.5355 56.3692 58.8714C56.3692 59.1351 56.4093 59.5119 56.2486 59.6626C55.9473 59.964 55.5053 60.3785 55.1437 60.3408C54.7418 60.3031 54.32 59.8887 54.0588 59.5496C53.8981 59.3235 53.9784 58.9279 53.9784 58.5888C53.9583 56.0645 54.0387 53.5213 53.8981 50.997C53.7172 47.9263 51.9292 45.7599 49.0362 44.5354C46.3441 43.4051 43.5314 42.5009 40.759 41.5024C40.6786 41.4836 40.5982 41.4836 40.4576 41.4648C39.7143 42.8588 38.9508 44.2528 38.2075 45.6657C37.8057 46.4004 37.424 47.154 37.0222 47.8886C36.0176 49.7725 35.0533 50.0551 33.1045 48.9813C32.4817 49.6406 32.0599 50.2623 32.2407 51.2795C33.426 57.5339 34.531 63.8071 35.6761 70.0802C35.8167 70.8714 35.5355 71.4931 34.993 72.0582C33.8479 73.2262 32.7027 74.4319 31.4772 75.694C35.8569 75.694 40.096 75.694 44.4355 75.694C44.4355 75.3926 44.4355 75.0912 44.4355 74.8086C44.4355 67.9326 44.4355 61.0755 44.4355 54.1995C44.4355 53.8792 44.4355 53.5401 44.5159 53.2387C44.6766 52.6924 45.0985 52.4099 45.7213 52.4475C46.3441 52.4852 46.7057 52.8243 46.8062 53.3894C46.8664 53.6532 46.8463 53.9358 46.8463 54.2183C46.8463 61.0567 46.8463 67.895 46.8463 74.7521C46.8463 75.0535 46.8463 75.355 46.8463 75.7317C47.0874 75.7506 47.3285 75.7882 47.5495 75.7882C49.2773 75.7882 51.0251 75.7882 52.7529 75.7882C53.8378 75.7882 53.9784 75.6564 53.9784 74.6014C53.9784 71.5685 53.9784 68.5355 53.9784 65.5025C53.9784 65.2953 53.9784 65.1069 53.9784 64.8997C53.9985 63.9389 54.4405 63.4303 55.1838 63.4491C55.9272 63.468 56.3692 63.9578 56.3692 64.862C56.3893 68.2152 56.4093 71.5873 56.3692 74.9405C56.3491 76.9185 55.0834 78.03 52.9739 78.03C42.5269 78.03 32.0799 78.03 21.6129 78.03C21.4722 78.03 21.3517 78.03 21.2111 78.03C20.4476 77.9735 19.9856 77.5402 19.9856 76.8997C19.9856 76.2592 20.4677 75.8071 21.2312 75.7882C22.4969 75.7694 23.7425 75.7882 25.0081 75.7694C25.2693 75.7694 25.5305 75.7694 25.9524 75.7694C24.7269 74.5072 23.642 73.3393 22.5169 72.2278C21.7937 71.5119 21.5727 70.7584 21.7535 69.76C22.8987 63.5998 23.9835 57.4208 25.1287 51.2607C25.3095 50.2623 24.8675 49.6595 24.2648 48.9813C24.1041 49.0755 23.9634 49.1508 23.8228 49.2262C22.537 49.9609 21.3115 49.6783 20.6084 48.3973C19.4833 46.3439 18.3984 44.2905 17.3135 42.2183C17.193 41.9734 17.0524 41.7285 16.8716 41.4271C16.5099 41.559 16.1684 41.672 15.8269 41.785C13.5767 42.5951 11.3467 43.4051 9.11668 44.2152C5.44015 45.5527 3.43112 48.1712 3.41103 51.8635C3.37085 59.4742 3.39094 67.1038 3.41103 74.7145C3.41103 75.5999 3.59184 75.7506 4.55618 75.7506C6.52503 75.7506 8.49388 75.7506 10.5632 75.7506C10.5632 75.3926 10.5632 75.1101 10.5632 74.8086C10.5632 67.9703 10.5632 61.132 10.5632 54.2748C10.5632 54.0299 10.5431 53.7662 10.5833 53.5213C10.6436 52.862 11.1257 52.4099 11.7686 52.4287C12.4718 52.4475 12.8334 52.8243 12.9539 53.4271C12.9941 53.672 12.974 53.9358 12.974 54.1807C12.974 61.0566 12.974 67.9138 12.974 74.7898C12.974 75.0912 12.974 75.3738 12.974 75.7506C13.7977 75.7506 14.5411 75.7506 15.2643 75.7506C16.2086 75.7694 16.7309 76.1838 16.7108 76.8997C16.6907 77.5779 16.1885 77.9923 15.2844 77.9923C11.5677 77.9923 7.85099 78.0112 4.13428 77.9923C2.40651 77.9735 1.22118 76.9185 1.04037 75.3173C1.00019 75.0535 1.00019 74.771 1.00019 74.4884C1.00019 67.0096 1.02028 59.5496 1.00019 52.0708C0.980096 48.2277 2.58732 45.2324 6.02277 43.1225C6.62548 42.7458 7.28846 42.4632 7.95144 42.2183C12.3311 40.617 16.7108 39.0158 21.0905 37.4522C21.6129 37.2638 21.7535 37.0189 21.8138 36.4914C21.9745 35.0409 21.5928 33.9483 20.307 32.931C18.6194 31.5935 17.7555 29.672 17.3738 27.6374C17.2935 27.223 17.1327 27.0723 16.6707 26.9969C12.974 26.3753 11.2864 22.5511 13.3758 19.6311C13.5566 19.3674 13.637 18.9906 13.6571 18.6515C13.7576 16.6547 13.637 14.6201 13.9585 12.6609C14.9429 6.68918 19.9856 2.11146 26.3743 1.16955C26.5752 1.13187 26.7761 1.05652 26.9569 1C27.9815 1.03768 29.0664 1.03768 30.1312 1.03768ZM34.5711 14.5071C32.2808 15.8823 29.8901 16.8619 27.3587 17.5024C24.8273 18.1617 22.2357 18.4255 19.5436 18.3124C19.5436 20.6484 19.5235 22.909 19.5436 25.1508C19.5436 25.7913 19.5838 26.4506 19.6842 27.0911C20.3673 31.2921 24.4456 34.2308 29.207 33.9859C33.6872 33.7599 37.3637 30.3501 37.5043 26.1869C37.6048 23.4365 37.5445 20.6672 37.5445 17.9168C37.5445 17.7096 37.4642 17.4459 37.3235 17.314C36.4395 16.3909 35.5355 15.4867 34.5711 14.5071ZM40.98 17.6719C41.5224 12.1335 39.8549 7.59342 34.5109 4.72999C30.1513 2.41288 24.7269 2.88384 20.749 5.87913C16.6907 8.93094 15.646 13.0754 16.1282 17.8415C16.5501 17.6908 17.1126 17.6343 17.2332 17.4082C17.856 16.1272 18.981 16.033 20.2467 16.0707C23.4009 16.1837 26.4145 15.6374 29.3075 14.4883C30.6535 13.9608 31.9393 13.2638 33.2251 12.6233C34.1091 12.1711 35.0533 11.9074 35.8368 12.6044C37.203 13.8478 38.4285 15.1853 39.7143 16.4851C39.7946 16.5793 39.8951 16.7112 39.875 16.8242C39.8348 17.5966 40.3572 17.6719 40.98 17.6719ZM28.6847 75.2419C30.0508 73.8479 31.2763 72.4915 32.6023 71.2294C33.1648 70.7019 33.2653 70.1933 33.1246 69.4962C32.321 65.1634 31.5375 60.8118 30.754 56.4789C30.4325 54.727 30.1111 52.9938 29.7896 51.2042C29.2673 51.2042 28.8052 51.2607 28.3632 51.1854C27.64 51.0912 27.4592 51.4303 27.3788 52.0142C27.2382 53.0504 27.0172 54.0865 26.8364 55.1226C25.9524 60.0582 25.0483 64.9939 24.1844 69.9295C24.1443 70.1744 24.1242 70.5323 24.2849 70.683C25.7113 72.1901 27.1779 73.6783 28.6847 75.2419ZM28.6847 42.84C29.9303 41.3894 30.9951 39.9765 32.2808 38.7332C33.2854 37.7536 33.2653 36.6798 33.1447 35.4553C30.1714 36.5668 27.2181 36.5103 24.1041 35.493C24.1844 36.3407 24.0036 37.245 24.3853 37.7725C25.6711 39.5056 27.1779 41.1068 28.6847 42.84ZM38.2075 40.5982C37.1025 40.2026 36.1181 39.8258 35.1136 39.5056C34.9729 39.4491 34.6716 39.5056 34.5912 39.6186C33.205 41.201 31.8389 42.8023 30.4325 44.4224C31.8589 45.3831 33.2452 46.2874 34.6716 47.2481C35.8569 45.0064 37.0222 42.84 38.2075 40.5982ZM26.9368 44.4224C25.5305 42.8023 24.2045 41.2387 22.8384 39.694C22.7178 39.5621 22.4165 39.4491 22.2759 39.4867C21.2512 39.8258 20.2467 40.2026 19.1619 40.5982C20.3472 42.84 21.5124 45.0064 22.6978 47.2293C24.1443 46.2874 25.4903 45.3831 26.9368 44.4224ZM40.0156 19.8572C40.0156 21.515 40.0156 23.1351 40.0156 24.7363C41.3416 24.5668 42.2457 23.6437 42.3059 22.4192C42.3662 21.1947 41.4822 20.1774 40.0156 19.8572ZM26.3542 47.5872C26.8966 49.4711 28.4235 48.8306 29.6691 48.9248C30.6133 48.9813 30.5933 48.1147 31.0955 47.6626C30.3522 47.154 29.6691 46.683 28.9659 46.2497C28.8253 46.1555 28.5039 46.1932 28.3431 46.2874C27.6601 46.683 26.9971 47.1539 26.3542 47.5872ZM17.0925 19.9702C15.7063 20.2151 14.7822 21.2135 14.8223 22.4004C14.8625 23.6249 15.7666 24.5856 17.0925 24.7363C17.0925 23.1727 17.0925 21.5715 17.0925 19.9702Z" fill="#334C9E" stroke="#334E9E"/>
</svg>
