<svg width="36" height="35" viewBox="0 0 36 35" fill="none" xmlns="http://www.w3.org/2000/svg">
<path d="M28.764 10.8033C28.8796 11.4967 28.7996 12.1813 28.7462 12.8748C28.1861 13.1594 27.9727 13.6484 27.8305 14.244C27.3859 16.04 26.4791 17.5959 25.1721 18.9118C24.7453 19.3474 24.2741 19.7386 23.9185 20.2454C23.3406 21.0723 23.305 22.0414 23.225 22.9927C23.1983 23.3217 23.225 23.6506 23.2161 23.9885C23.1983 24.8598 22.7627 25.3132 21.8736 25.4021C20.6555 25.4021 19.4286 25.411 18.2105 25.4021C17.5792 25.4021 17.437 25.2777 17.2325 24.682C17.0102 24.0329 17.028 23.3661 17.0725 22.7082C17.1436 21.5791 16.7702 20.6633 15.9166 19.9253C15.6055 19.6497 15.321 19.3385 15.0276 19.0362C14.8853 18.8851 14.7253 18.7428 14.7519 18.5028C14.7964 18.3872 14.8942 18.3428 14.992 18.3339C15.8544 18.3072 16.5568 17.8538 17.2592 17.4359C17.766 17.1336 18.2194 17.1069 18.7173 17.4448C19.1174 17.7204 19.5797 17.916 20.0242 18.1116C21.3668 18.6895 22.6826 17.6937 22.5048 16.2445C22.4426 15.7466 22.3537 15.2398 22.2559 14.7419C22.167 14.3152 22.2648 13.9595 22.5937 13.6484C22.9583 13.3016 23.3228 12.9371 23.6695 12.5726C24.1852 12.0213 24.4075 11.3812 24.1496 10.6432C23.9007 9.94973 23.3583 9.61187 22.656 9.4874C22.1581 9.39849 21.6513 9.31847 21.1534 9.26513C20.7266 9.21178 20.4599 8.9984 20.2821 8.61609C20.0776 8.17155 19.8553 7.73589 19.6242 7.30024C19.2685 6.64231 18.7706 6.17998 17.9704 6.20665C17.188 6.23332 16.6635 6.63342 16.3523 7.3358C16.1567 7.78034 15.9344 8.22489 15.7033 8.65165C15.5166 8.9984 15.2498 9.21178 14.8408 9.25624C14.1029 9.33626 13.365 9.51407 12.6181 9.55853C12.4581 9.41627 12.5025 9.23846 12.5559 9.06953C13.4983 5.64652 15.5343 3.13928 18.7973 1.68117C18.8595 1.6545 18.9307 1.64561 19.0018 1.63672C20.3265 1.63672 21.5535 2.06348 22.6915 2.68585C25.5366 4.25065 27.3593 6.61563 27.9905 9.83415C28.0794 10.3409 28.4173 10.5543 28.764 10.8033Z" fill="#FEDF2F"/>
<path d="M28.7654 10.8047C28.2319 10.778 27.983 10.4935 27.8763 9.96892C26.9872 5.65682 23.9999 2.66947 19.7411 1.82483C19.501 1.78038 19.261 1.78038 19.0209 1.75371C16.5048 1.75371 14.1309 2.22492 12.0771 3.78973C8.15623 6.76819 6.97374 12.0316 9.27649 16.3793C9.79216 17.3573 10.4768 18.2197 11.2947 18.9754C11.9349 19.5622 12.4683 20.2113 12.7706 21.0381C12.984 21.616 12.9484 22.2028 12.9573 22.7985C12.9662 23.2697 12.9129 23.741 13.0373 24.2033C13.1618 24.6834 13.4641 24.9946 13.9442 25.119C14.0954 25.1635 14.2465 25.1991 14.4065 25.1991C16.8871 25.1902 19.3588 25.3769 21.8394 25.2969C21.8749 25.2969 21.9016 25.2791 21.9372 25.2613C22.6573 25.1546 23.0663 24.7456 23.1108 24.0255C23.1463 23.3853 23.1285 22.7363 23.1552 22.0872C23.1997 21.047 23.5998 20.1401 24.3822 19.4555C26.1781 17.8641 27.3784 15.9436 27.8496 13.5786C27.9474 13.0896 28.2764 12.8851 28.7476 12.8585C29.3966 13.1785 29.5033 13.4186 29.3344 14.1565C28.7921 16.5393 27.654 18.5931 25.8314 20.2201C25.0223 20.9403 24.6311 21.7761 24.7022 22.843C24.7289 23.2075 24.7111 23.5809 24.7022 23.9454C24.6667 25.1279 24.1243 26.017 23.0752 26.5594C22.8263 26.6927 22.7729 26.835 22.7729 27.0839C22.7818 28.1508 22.7818 29.2178 22.7729 30.2847C22.7551 32.4985 21.1903 34.0633 18.9676 34.0811C18.203 34.09 17.4295 34.1078 16.6648 34.0633C14.7889 33.9744 13.2774 32.4541 13.2063 30.5781C13.1618 29.4223 13.1885 28.2753 13.1885 27.1195C13.1885 26.8528 13.1529 26.6927 12.8773 26.5505C11.8015 25.9992 11.2769 25.0835 11.2503 23.8832C11.2414 23.4653 11.2325 23.0475 11.2503 22.6296C11.3036 21.6872 10.9391 20.9492 10.2367 20.3268C8.38739 18.6909 7.21379 16.6549 6.64477 14.2543C5.1511 7.94179 9.4543 1.39807 15.8469 0.277813C22.275 -0.851334 28.1519 3.21182 29.3877 9.63995C29.5389 10.3157 29.4055 10.5557 28.7654 10.8047Z" fill="black"/>
<path d="M31.6891 15.0195C31.8047 15.064 31.9736 15.1084 32.1247 15.1973C32.7471 15.5441 33.3695 15.8997 33.9829 16.2643C34.4719 16.5577 34.6231 16.9933 34.383 17.4023C34.1519 17.8024 33.6895 17.9002 33.2005 17.6246C32.5426 17.26 31.8936 16.8866 31.2534 16.5043C30.8978 16.2909 30.7466 15.9709 30.88 15.5708C30.9867 15.2062 31.2623 15.0373 31.6891 15.0195Z" fill="#010101"/>
<path d="M5.14059 15.8378C5.1317 16.0956 4.99833 16.3268 4.74049 16.4779C4.047 16.8869 3.3624 17.2959 2.66002 17.6782C2.23325 17.9094 1.7976 17.7582 1.58422 17.367C1.37973 16.9847 1.47753 16.5757 1.87762 16.3268C2.56222 15.9089 3.25571 15.4999 3.95809 15.1265C4.51822 14.842 5.1228 15.1976 5.14059 15.8378Z" fill="#010101"/>
<path d="M5.14155 7.81636C5.15933 8.41205 4.59031 8.8566 4.10131 8.60765C3.31002 8.20756 2.53651 7.76301 1.78967 7.2829C1.44293 7.06063 1.3718 6.67832 1.59407 6.3049C1.81634 5.9137 2.19865 5.77145 2.58096 5.97594C3.35447 6.37603 4.10131 6.82947 4.83926 7.2829C5.04375 7.40738 5.12377 7.62965 5.14155 7.81636Z" fill="#010101"/>
<path d="M2.08337 11.0743C2.48346 11.0743 2.88355 11.0565 3.28364 11.0743C3.73708 11.0921 4.05715 11.4033 4.07493 11.8123C4.09272 12.2123 3.79043 12.6035 3.34588 12.6213C2.51013 12.6569 1.67439 12.6569 0.838639 12.6213C0.376311 12.6035 0.100693 12.2479 0.109584 11.8211C0.118475 11.3944 0.411875 11.0921 0.883094 11.0743C1.28318 11.0565 1.68328 11.0743 2.08337 11.0743Z" fill="#010101"/>
<path d="M31.6183 8.67995C31.2626 8.65328 31.0048 8.48435 30.8803 8.16428C30.747 7.81753 30.827 7.47968 31.1382 7.28408C31.8761 6.82175 32.6319 6.3772 33.3965 5.97711C33.761 5.7904 34.1255 5.93266 34.3478 6.2794C34.5612 6.61726 34.5434 6.99957 34.2322 7.23073C33.4765 7.79086 32.6407 8.22651 31.7961 8.65328C31.7517 8.67106 31.6716 8.67106 31.6183 8.67995Z" fill="#010101"/>
<path d="M33.8506 12.6379C33.4861 12.6379 33.1216 12.6468 32.7482 12.6379C32.2147 12.6112 31.8857 12.3 31.8857 11.8466C31.8857 11.3931 32.2147 11.082 32.7482 11.0731C33.495 11.0642 34.2507 11.0642 34.9976 11.0731C35.531 11.082 35.86 11.3931 35.86 11.8466C35.86 12.3 35.531 12.6023 34.9976 12.6379C34.962 12.6379 34.9264 12.6379 34.8909 12.6379C34.553 12.6468 34.2063 12.6468 33.8506 12.6379Z" fill="#010101"/>
<path d="M21.9372 25.2609C20.6302 25.3765 19.3232 25.2876 18.0163 25.3143C16.8249 25.3321 15.6424 25.3143 14.451 25.3054C13.3308 25.2965 12.8329 24.7986 12.824 23.6606C12.824 23.3138 12.8151 22.9582 12.824 22.6114C12.8773 21.2245 12.3528 20.1131 11.3214 19.1884C9.49878 17.5614 8.41408 15.5254 8.04067 13.0982C7.25826 7.92364 10.8502 2.82914 15.9891 1.85114C16.9849 1.66443 17.9896 1.53996 19.0032 1.73556C17.9096 2.16232 16.9405 2.78469 16.0603 3.5582C14.2999 5.09633 13.1974 7.00787 12.6195 9.24839C12.6017 9.3284 12.5928 9.41731 12.5839 9.50622C12.6284 9.74628 12.4061 9.81741 12.2816 9.94188C11.5259 10.7154 11.4903 11.64 12.2016 12.4491C12.3528 12.618 12.5217 12.7692 12.5839 13.0004C12.6728 14.0406 12.9573 15.0364 13.393 15.9788C13.4197 16.0588 13.4463 16.1477 13.4375 16.2366C13.3841 17.1524 13.7397 17.8192 14.6111 18.1838C14.7 18.2193 14.8067 18.2816 14.78 18.4149C14.9045 18.8684 15.3134 19.0817 15.6068 19.3929C16.2114 20.0331 16.9316 20.5843 17.1272 21.5267C17.2517 22.1313 17.1805 22.7448 17.1894 23.3494C17.1894 23.8473 17.2605 24.3185 17.4028 24.7808C17.5095 25.1098 17.6962 25.2432 18.0518 25.2343C19.3588 25.2432 20.648 25.2609 21.9372 25.2609Z" fill="#FAC600"/>
<path d="M12.493 12.954C12.4485 12.9007 12.4129 12.8385 12.3685 12.794C11.2216 11.6293 11.3016 10.4824 12.5996 9.51325C13.3376 9.2732 14.1022 9.22875 14.8579 9.12205C15.2225 9.06871 15.4181 8.92645 15.5603 8.59749C15.7826 8.09071 16.0404 7.59282 16.2983 7.09492C16.6539 6.42811 17.214 6.05469 17.9875 6.05469C18.7611 6.05469 19.3212 6.41921 19.6768 7.09492C19.9524 7.61949 20.2103 8.15294 20.4592 8.6864C20.5837 8.95313 20.7526 9.0776 21.0549 9.10427C21.6595 9.16651 22.273 9.24653 22.8687 9.37989C24.389 9.70885 24.9136 11.4159 23.8556 12.5451C23.4644 12.9629 23.0465 13.3719 22.6197 13.7542C22.3619 13.9854 22.2996 14.2254 22.3619 14.5455C22.4597 15.0612 22.5486 15.5769 22.6375 16.0925C22.7709 16.8749 22.5753 17.5595 21.9262 18.0485C21.2772 18.5375 20.5748 18.5553 19.8546 18.1908C19.3745 17.9418 18.8855 17.7018 18.4232 17.4262C18.112 17.2484 17.8542 17.2484 17.5519 17.4351C17.1874 17.6662 16.7695 17.8263 16.3961 18.0485C15.8982 18.3419 15.3736 18.4842 14.7957 18.422C13.5865 17.9152 13.2931 17.4351 13.3287 16.0214C13.2398 15.568 13.3732 15.1234 13.4532 14.6878C13.5243 14.3232 13.4354 14.0476 13.1776 13.7987C12.9108 13.5497 12.6263 13.3097 12.493 12.954Z" fill="black"/>
<path d="M18.781 29.2261C17.5452 29.235 16.3005 29.235 15.0646 29.2528C14.8423 29.2528 14.7534 29.1905 14.7623 28.9594C14.7801 28.3637 14.7712 27.7769 14.7623 27.1812C14.7534 26.95 14.8423 26.8789 15.0646 26.8789C16.3005 26.8967 17.5363 26.9056 18.781 26.9145C19.0477 27.6791 19.0477 28.4526 18.781 29.2261Z" fill="#9AE7FC"/>
<path d="M19.7416 32.3851C19.4037 32.5718 19.0303 32.5096 18.6658 32.5096C18.0167 32.5185 17.3766 32.5274 16.7275 32.5007C15.7762 32.4562 15.0027 31.7539 14.8516 30.8203C16.9143 30.8203 18.9681 30.8203 21.0219 30.8203C21.0663 30.8203 21.1197 30.8381 21.093 30.9092C20.6396 31.1759 20.1328 31.0159 19.6615 31.0426C18.9858 31.0693 18.9325 31.1493 19.2703 31.7539C19.4037 31.9939 19.6171 32.154 19.7416 32.3851Z" fill="#00AAF0"/>
<path d="M18.7812 29.2268C18.7812 28.4533 18.7812 27.6886 18.7812 26.9151C19.4925 26.9062 20.2038 26.8973 20.9151 26.8796C21.1462 26.8707 21.2174 26.9507 21.2085 27.1819C21.1996 27.7775 21.1996 28.3643 21.2085 28.96C21.2174 29.1823 21.1551 29.2623 20.9151 29.2623C20.2038 29.2357 19.4925 29.2357 18.7812 29.2268Z" fill="#C8EFFD"/>
<path d="M19.7401 32.3809C19.3222 32.1942 18.8421 31.4562 18.8599 31.0561C18.8687 30.7983 19.0555 30.9139 19.1621 30.905C19.8023 30.8961 20.4513 30.8961 21.0915 30.905C20.9403 31.6785 20.478 32.1586 19.7401 32.3809Z" fill="#00C0F8"/>
<path d="M12.4941 12.957C12.8231 13.2682 13.1432 13.5794 13.481 13.8817C13.6233 14.0151 13.6855 14.1573 13.65 14.344C13.5433 14.9041 13.4366 15.4643 13.3299 16.0244C12.7698 15.082 12.5208 14.0506 12.4941 12.957Z" fill="#FDDE2E"/>
<path d="M14.9039 16.3362C14.9839 15.8561 15.0728 15.3227 15.1795 14.7892C15.3396 13.9712 15.1617 13.2689 14.5305 12.6998C14.1304 12.3353 13.7481 11.953 13.3658 11.5707C13.2413 11.4462 13.0902 11.3306 13.1791 11.1261C13.2591 10.9394 13.428 10.9128 13.6147 10.8861C14.1304 10.815 14.6461 10.7349 15.1706 10.6727C15.9797 10.5749 16.5665 10.1837 16.9133 9.42798C17.1266 8.94787 17.3756 8.48554 17.6067 8.02321C17.6868 7.85429 17.749 7.6498 17.9891 7.64091C18.2291 7.63201 18.2913 7.8365 18.3803 8.00543C18.6025 8.45887 18.8426 8.90342 19.0471 9.36574C19.4027 10.1837 20.034 10.5927 20.9053 10.6816C21.4121 10.7349 21.91 10.8239 22.4078 10.895C22.5857 10.9217 22.7546 10.9572 22.8168 11.1617C22.8702 11.3395 22.7546 11.4551 22.639 11.5707C22.2923 11.9085 21.9544 12.2731 21.581 12.5843C20.8341 13.2155 20.6119 13.9979 20.8342 14.9315C20.9408 15.3849 21.0031 15.8561 21.0831 16.3184C21.1098 16.4874 21.1453 16.6652 20.9675 16.7986C20.7897 16.9319 20.6386 16.8252 20.4785 16.7452C19.9984 16.4963 19.5183 16.2473 19.0471 15.9895C18.3447 15.5983 17.6601 15.5894 16.9577 15.9895C16.4687 16.2651 15.9708 16.514 15.4729 16.763C15.0462 16.9586 14.8683 16.843 14.9039 16.3362Z" fill="#E9B800"/>
</svg>
