<svg width="47" height="50" viewBox="0 0 47 50" fill="none" xmlns="http://www.w3.org/2000/svg">
<path d="M37.1514 22.0079L18.2923 41.3931L0.729218 33.4838L27.5391 16.5983L37.1514 22.0079Z" fill="#F20019"/>
<path d="M36.2174 50L27.5391 16.5983L37.1514 22.0079L42.6267 37.0896L36.2174 50Z" fill="#334C9E"/>
<path d="M27.5391 16.5983L30.622 28.5238L37.1514 22.0079L27.5391 16.5983Z" fill="#372A80"/>
<path d="M25.9977 6.76205L42.1394 16.352L46.1952 25.2052L28.3496 15.451L25.9977 6.76205Z" fill="#F20019"/>
<path d="M38.5304 8.19654L28.3496 15.451L25.9977 6.76205L32.1616 4.22137L38.5304 8.19654Z" fill="#334C9E"/>
<path d="M28.3496 15.451L25.9977 6.76205L33.8655 11.5169L28.3496 15.451Z" fill="#372A80"/>
<path d="M16.9539 21.271L15.6562 0.983086L23.1991 0L26.7269 15.6152L16.9539 21.271Z" fill="#F20019"/>
<path d="M1.98814 2.54068L26.7269 15.6152L16.9539 21.271L0 13.1548L1.98814 2.54068Z" fill="#334C9E"/>
<path d="M16.9539 21.2711L26.7269 15.6152L16.3448 10.1235L16.9539 21.2711Z" fill="#372A80"/>
</svg>
