<svg width="21" height="23" viewBox="0 0 21 23" fill="none" xmlns="http://www.w3.org/2000/svg">
<path d="M16.9004 1.22924C17.0926 1.01293 17.3682 0.877497 17.6534 0.941875C17.9698 1.01329 18.4171 1.1821 18.8804 1.57766C19.3436 1.97322 19.5755 2.3844 19.691 2.68182C19.7952 2.94991 19.6961 3.2361 19.5039 3.45241L14.5536 9.02245L9.60337 14.5925C9.51645 14.6903 9.41229 14.772 9.29588 14.8336L7.73503 15.6603C6.83797 16.1354 5.81972 15.2659 6.17688 14.3298L6.79832 12.7009C6.84467 12.5794 6.91293 12.4671 6.99985 12.3693L16.9004 1.22924Z" stroke="#0078CA" stroke-width="1.37672"/>
<path d="M10.185 4.02344H3.23581C1.96858 4.02344 0.941284 5.05073 0.941284 6.31797V19.2821C0.941284 20.5493 1.96858 21.5766 3.23581 21.5766H15.1674C16.4346 21.5766 17.4619 20.5493 17.4619 19.2821V12.995" stroke="#0078CA" stroke-width="1.37672" stroke-linecap="round"/>
</svg>
