<svg width="33" height="27" viewBox="0 0 33 27" fill="none" xmlns="http://www.w3.org/2000/svg">
<path d="M32.2494 23.5877C32.2219 23.6795 32.1853 23.7805 32.1579 23.8723C31.792 25.2772 30.5114 26.2046 29.0753 26.1128C28.7459 26.0944 28.5356 25.9016 28.5447 25.6261C28.5539 25.3598 28.7551 25.2037 29.0753 25.1762C29.3131 25.1578 29.5509 25.1578 29.7796 25.1027C30.7218 24.8732 31.3072 24.0743 31.3072 23.0643C31.3072 19.3639 31.3072 15.6726 31.3072 11.9722C31.3072 10.4112 31.3072 8.85938 31.3072 7.2984C31.3072 7.18821 31.3072 7.07803 31.3072 6.92193C31.1608 6.92193 31.0419 6.92193 30.923 6.92193C28.7368 6.92193 26.5597 6.92193 24.3735 6.92193C23.8704 6.92193 23.6509 6.77501 23.6509 6.44445C23.6509 6.11389 23.8613 5.98534 24.3827 5.98534C26.5506 5.98534 28.7276 5.98534 30.8956 5.98534C31.0145 5.98534 31.1425 5.98534 31.2798 5.98534C31.2889 5.9027 31.2981 5.84761 31.2981 5.78333C31.2981 4.96611 31.3072 4.13971 31.2981 3.3225C31.2798 2.22063 30.4656 1.37586 29.368 1.31159C29.2216 1.3024 29.0753 1.30241 28.938 1.30241C21.9586 1.30241 14.97 1.30241 7.99063 1.30241C7.83512 1.30241 7.67962 1.30241 7.52411 1.27486C7.28628 1.22895 7.17651 1.0453 7.17651 0.824929C7.18566 0.595374 7.31372 0.430093 7.55156 0.393364C7.65218 0.375 7.76194 0.375 7.86256 0.375C14.9518 0.375 22.0318 0.375 29.121 0.375C30.7309 0.375 31.8103 1.23813 32.1853 2.81747C32.1945 2.84502 32.2219 2.86338 32.2311 2.89093C32.2494 9.79597 32.2494 16.6918 32.2494 23.5877Z" fill="white"/>
<path d="M1.44183 5.99316C1.56989 5.99316 1.71625 5.99316 1.85346 5.99316C8.43954 5.99316 15.0256 5.99316 21.6209 5.99316C21.7581 5.99316 21.8953 5.98397 22.0233 6.00234C22.2612 6.03907 22.3892 6.18598 22.3984 6.42472C22.4075 6.67264 22.2886 6.8471 22.0416 6.89301C21.9044 6.92056 21.7581 6.92056 21.6117 6.92056C15.0348 6.92056 8.45784 6.92056 1.8809 6.92056C1.73454 6.92056 1.58818 6.92056 1.40524 6.92056C1.40524 7.04911 1.40524 7.1593 1.40524 7.26949C1.40524 12.5034 1.40524 17.7372 1.40524 22.9711C1.40524 24.3301 2.2285 25.1657 3.5823 25.1748C4.86293 25.184 6.14356 25.1748 7.43333 25.1748C13.8182 25.1748 20.1939 25.1748 26.5787 25.1748C26.7068 25.1748 26.8257 25.1657 26.9538 25.184C27.2007 25.2207 27.3379 25.386 27.3379 25.6339C27.3379 25.8635 27.2099 26.0288 26.9812 26.0747C26.8714 26.1022 26.7525 26.1022 26.6428 26.1022C18.9773 26.1022 11.3118 26.1022 3.65548 26.1022C2.09129 26.1022 0.929575 25.2575 0.581976 23.8618C0.517945 23.5955 0.490503 23.3108 0.490503 23.0354C0.481356 16.5068 0.481356 9.97824 0.490503 3.44968C0.490503 1.65914 1.75284 0.391995 3.53657 0.382812C4.14944 0.382812 4.75316 0.382812 5.36604 0.382812C5.76852 0.382812 5.96976 0.53891 5.96061 0.851106C5.96061 1.15412 5.75937 1.31022 5.35689 1.3194C4.74402 1.3194 4.14029 1.3194 3.52742 1.3194C2.27423 1.32858 1.43268 2.18253 1.42353 3.44049C1.42353 4.25771 1.42353 5.08411 1.42353 5.90133C1.40524 5.91051 1.42353 5.92888 1.44183 5.99316Z" fill="white"/>
<path d="M9.22563 17.1292C8.1371 17.1292 7.05771 17.1292 5.96918 17.1292C4.47816 17.12 3.50854 16.1559 3.50854 14.65C3.50854 13.6308 3.50854 12.6207 3.50854 11.6015C3.51769 10.1599 4.47816 9.16822 5.9143 9.15904C8.1371 9.14986 10.3599 9.14068 12.5827 9.15904C14.0097 9.16822 14.9793 10.1783 14.9885 11.6107C14.9885 12.6391 14.9976 13.6675 14.9885 14.6959C14.9793 16.1284 14.0005 17.12 12.5736 17.1292C11.4576 17.1292 10.3416 17.1292 9.22563 17.1292ZM13.9914 13.3094C14.0097 13.3002 14.0371 13.291 14.0554 13.2819C14.0554 12.7768 14.0554 12.2626 14.0554 11.7576C14.0554 10.6282 13.5249 10.0864 12.4089 10.0864C10.2959 10.0864 8.19198 10.0864 6.07895 10.0864C5.92344 10.0864 5.76794 10.0956 5.61243 10.114C4.94468 10.215 4.44157 10.7567 4.44157 11.4362C4.43243 12.5748 4.43243 13.7226 4.44157 14.8612C4.44157 15.256 4.61537 15.5774 4.92638 15.8529C4.99956 15.7427 5.06359 15.6509 5.12762 15.5591C5.3746 15.1734 5.62158 14.7877 5.87771 14.4113C6.01492 14.2001 6.23445 14.1542 6.45399 14.2552C6.66438 14.347 6.75585 14.5398 6.70097 14.7694C6.67353 14.8796 6.60949 14.9806 6.55461 15.0724C6.32593 15.4305 6.09724 15.7794 5.85026 16.1651C7.57911 16.1651 9.24393 16.1651 10.9636 16.1651C10.1129 14.8153 9.28052 13.5114 8.43896 12.1708C8.23772 12.4738 8.06392 12.7493 7.89012 13.0156C7.68888 13.3094 7.45105 13.392 7.21322 13.2451C6.95709 13.089 6.9205 12.8136 7.1126 12.5197C7.39617 12.0698 7.67973 11.6291 7.97245 11.1883C8.27431 10.72 8.62191 10.7292 8.92377 11.2067C9.34455 11.8678 9.76533 12.5381 10.1861 13.1992C10.241 13.2819 10.2959 13.3645 10.3691 13.4563C10.8356 12.9238 11.2838 12.4279 11.732 11.9229C12.1985 11.3903 12.3906 11.3903 12.848 11.9413C13.2322 12.3912 13.6164 12.8503 13.9914 13.3094ZM12.2717 12.7034C11.7869 13.2543 11.3295 13.7685 10.8722 14.2827C11.1923 14.7786 11.5125 15.2377 11.7777 15.7335C11.979 16.1192 12.2534 16.2661 12.665 16.1926C12.7016 16.1834 12.7474 16.1834 12.7839 16.1834C13.406 16.1284 13.9274 15.6509 14.0188 15.0265C14.028 14.9347 14.0097 14.8153 13.9548 14.7418C13.4151 14.0715 12.8571 13.4012 12.2717 12.7034Z" fill="white"/>
<path d="M22.3989 2.26011C24.5668 2.26011 26.7439 2.26011 28.9118 2.26011C29.9363 2.26011 30.6224 3.1416 30.3205 4.07819C30.1467 4.62912 29.7534 4.95968 29.1771 5.04232C29.0124 5.06987 28.8478 5.06987 28.6831 5.06987C24.4845 5.06987 20.2859 5.06987 16.0872 5.06987C15.8586 5.06987 15.6299 5.06987 15.4103 5.01478C14.7609 4.85868 14.3218 4.20674 14.3858 3.53644C14.4499 2.87532 14.9713 2.33357 15.639 2.28766C16.0781 2.26011 16.5263 2.26929 16.9745 2.26929C18.7766 2.25093 20.5877 2.26011 22.3989 2.26011ZM22.4172 3.18751C20.2859 3.18751 18.1545 3.18751 16.0323 3.18751C15.5384 3.18751 15.328 3.32525 15.3189 3.63744C15.3097 3.95882 15.5475 4.1241 16.0323 4.1241C20.2676 4.1241 24.5119 4.1241 28.7472 4.1241C28.8661 4.1241 28.9941 4.1241 29.113 4.09655C29.3417 4.04146 29.4606 3.87618 29.4606 3.63744C29.4515 3.40789 29.3234 3.25179 29.0856 3.20588C28.9758 3.18751 28.8569 3.18751 28.7472 3.18751C26.6341 3.18751 24.5211 3.18751 22.4172 3.18751Z" fill="white"/>
<path d="M16.3609 23.3581C14.7601 23.3581 13.1502 23.3672 11.5494 23.3581C10.1499 23.3489 9.1894 22.2378 9.33576 20.8605C9.43638 19.9331 10.2231 19.1159 11.1469 18.9781C11.3207 18.9506 11.4945 18.9414 11.6683 18.9414C14.7967 18.9414 17.916 18.9414 21.0444 18.9414C22.142 18.9414 22.9836 19.5199 23.2946 20.4657C23.7428 21.843 22.7732 23.3121 21.3279 23.3489C19.6723 23.3856 18.0166 23.3489 16.3609 23.3581ZM16.3609 22.4215C17.9526 22.4215 19.5442 22.4307 21.1358 22.4215C21.9134 22.4215 22.4622 21.8889 22.4713 21.1635C22.4805 20.4381 21.9316 19.878 21.1633 19.878C17.9617 19.8688 14.751 19.8688 11.5494 19.878C11.1561 19.878 10.8176 20.0157 10.5615 20.3187C10.2231 20.7228 10.1499 21.1819 10.3511 21.6593C10.5706 22.1735 10.9914 22.4307 11.5494 22.4307C13.1593 22.4215 14.7601 22.4215 16.3609 22.4215Z" fill="white"/>
<path d="M24.2823 11.1243C22.8553 11.1243 21.4283 11.1334 20.0013 11.1151C19.8275 11.1151 19.608 11.0324 19.4891 10.9039C19.2604 10.656 19.4434 10.252 19.7818 10.1969C19.8733 10.1785 19.9648 10.1877 20.0562 10.1877C22.8828 10.1877 25.7001 10.1877 28.5267 10.1877C28.609 10.1877 28.6913 10.1785 28.7736 10.1877C29.0206 10.2152 29.167 10.3713 29.1853 10.6192C29.2036 10.8672 29.0664 11.0324 28.8285 11.0967C28.7188 11.1243 28.5998 11.1151 28.4901 11.1151C27.0905 11.1243 25.6818 11.1243 24.2823 11.1243Z" fill="white"/>
<path d="M24.3099 13.6146C22.8921 13.6146 21.4742 13.6146 20.0655 13.6146C19.9466 13.6146 19.8094 13.6146 19.6996 13.5686C19.4801 13.4952 19.3429 13.3024 19.4161 13.082C19.4709 12.9259 19.6447 12.7973 19.7911 12.6872C19.8551 12.6412 19.9741 12.678 20.0655 12.678C22.8921 12.678 25.7094 12.678 28.536 12.678C28.6183 12.678 28.7006 12.6688 28.7829 12.678C29.0299 12.7055 29.1763 12.8616 29.1946 13.1095C29.2129 13.3575 29.0757 13.5227 28.8378 13.587C28.7281 13.6146 28.6091 13.6054 28.4994 13.6054C27.0998 13.6146 25.7003 13.6146 24.3099 13.6146Z" fill="white"/>
<path d="M24.31 16.1146C22.8921 16.1146 21.4743 16.1146 20.0656 16.1146C19.9467 16.1146 19.8095 16.1146 19.6997 16.0686C19.4802 15.9952 19.3429 15.8024 19.4253 15.582C19.4802 15.4259 19.654 15.2973 19.8003 15.1872C19.8643 15.1412 19.9833 15.178 20.0747 15.178C22.9013 15.178 25.7186 15.178 28.5452 15.178C28.6275 15.178 28.7098 15.1688 28.7921 15.178C29.0391 15.2055 29.1855 15.3616 29.2038 15.6095C29.2221 15.8575 29.0849 16.0227 28.847 16.087C28.7373 16.1146 28.6183 16.1054 28.5086 16.1054C27.0999 16.1146 25.7003 16.1146 24.31 16.1146Z" fill="white"/>
<path d="M7.75366 5.0496C6.97614 5.04042 6.36327 4.41603 6.37242 3.63554C6.38156 2.86423 7.01273 2.23984 7.79025 2.25821C8.55863 2.27657 9.16235 2.89178 9.16235 3.65391C9.16235 4.4344 8.53119 5.0496 7.75366 5.0496ZM7.75366 4.11302C8.01894 4.1222 8.22933 3.91101 8.22933 3.65391C8.22933 3.40599 8.02808 3.20398 7.78111 3.19479C7.51583 3.18561 7.30544 3.3968 7.30544 3.65391C7.30544 3.90183 7.49754 4.10384 7.75366 4.11302Z" fill="white"/>
<path d="M11.732 5.04931C10.9545 5.04931 10.3325 4.42492 10.3417 3.64443C10.3417 2.86394 10.9728 2.24873 11.7503 2.25791C12.5187 2.2671 13.1224 2.88231 13.1316 3.64443C13.1316 4.42492 12.5096 5.04931 11.732 5.04931ZM12.1986 3.65361C12.1986 3.40569 12.0065 3.20368 11.7595 3.1945C11.4942 3.18532 11.2838 3.38733 11.2747 3.64443C11.2747 3.89235 11.4668 4.09436 11.7138 4.10354C11.979 4.12191 12.1986 3.9199 12.1986 3.65361Z" fill="white"/>
<path d="M3.76454 5.03105C2.98701 5.02187 2.38329 4.39748 2.39244 3.61699C2.40158 2.85486 3.0236 2.23047 3.78283 2.23047C4.54206 2.23047 5.19152 2.87323 5.18238 3.64453C5.17323 4.41584 4.54206 5.04023 3.76454 5.03105ZM4.2402 3.61699C4.23105 3.36907 3.99322 3.14869 3.74624 3.16706C3.49926 3.18542 3.31632 3.39661 3.31632 3.64453C3.32547 3.91082 3.53585 4.10364 3.80113 4.08528C4.05725 4.0761 4.24935 3.86491 4.2402 3.61699Z" fill="white"/>
</svg>
