<svg width="77" height="78" viewBox="0 0 77 78" fill="none" xmlns="http://www.w3.org/2000/svg">
<path d="M25.7341 65.4359C17.6136 64.837 10.9249 61.4788 5.88163 55.0406C1.99235 50.0782 0.111815 44.3672 0.218663 38.0573C0.346882 30.9988 2.88988 24.86 7.80491 19.7907C12.6772 14.7427 18.7035 12.0904 25.7982 11.6199C25.7982 11.299 25.7982 11.021 25.7982 10.7215C25.7982 8.49699 25.7982 6.27248 25.7982 4.06936C25.7982 1.67373 27.4223 0.00534754 29.7943 0.00534754C40.3082 0.00534754 50.8007 -0.0160423 61.3146 0.0267367C61.8061 0.0267367 62.4259 0.283411 62.7892 0.647033C67.3409 5.16022 71.8713 9.6948 76.3589 14.2722C76.7008 14.6358 76.9786 15.2561 76.9786 15.748C77 34.8489 77 53.9283 77 73.0292C77 75.382 75.3545 77.029 73.0252 77.029C58.6007 77.029 44.1761 77.029 29.7516 77.029C27.465 77.029 25.8196 75.3606 25.7982 73.0719C25.7768 70.6122 25.7982 68.1524 25.7768 65.6926C25.7982 65.6498 25.7768 65.5856 25.7341 65.4359ZM60.353 2.57209C59.9897 2.57209 59.7333 2.57209 59.4768 2.57209C49.7109 2.57209 39.9663 2.57209 30.2004 2.57209C28.7258 2.57209 28.3626 2.93571 28.3626 4.41159C28.3626 15.0636 28.3626 25.6942 28.3626 36.3461C28.3626 36.6242 28.3626 36.9023 28.3626 37.2445C28.7686 37.2445 29.0464 37.2445 29.3456 37.2445C34.3033 37.2445 39.2611 37.2445 44.2189 37.2445C46.9328 37.2445 49.6468 37.2445 52.3821 37.2445C53.5147 37.2445 53.9848 37.7151 53.9635 38.8701C53.9421 39.5332 53.8993 40.1963 53.8566 40.8807C52.8522 52.4097 44.5608 62.0777 33.3203 64.7086C31.7176 65.0937 30.0721 65.2648 28.3839 65.5642C28.3839 67.8957 28.3839 70.2699 28.3839 72.6442C28.3839 74.12 28.7472 74.5051 30.2217 74.5051C44.3471 74.5051 58.4725 74.5051 72.6192 74.5051C74.0937 74.5051 74.4784 74.1414 74.4784 72.6656C74.4784 54.3133 74.4784 35.9825 74.4784 17.6303C74.4784 17.3522 74.4784 17.0528 74.4784 16.732C74.0937 16.732 73.7945 16.732 73.5167 16.732C70.5891 16.732 67.6614 16.732 64.7124 16.732C61.9344 16.732 60.3957 15.1919 60.3957 12.4327C60.353 9.16006 60.353 5.93024 60.353 2.57209ZM51.2922 39.854C51.1213 39.8326 50.929 39.8112 50.758 39.8112C43.2145 39.8112 35.671 39.8112 28.1275 39.8326C27.7856 39.8326 27.3796 40.0679 27.1231 40.3246C23.704 43.7041 20.3276 47.1265 16.9298 50.506C14.921 52.5166 12.8909 54.5272 10.8821 56.5592C16.3742 61.9494 26.3538 65.0081 35.8633 61.2863C46.5695 57.094 51.1427 47.1692 51.2922 39.854ZM25.7982 14.208C16.6092 14.593 7.59121 20.6462 4.12932 30.464C0.817015 39.8326 3.89425 49.4579 9.06572 54.7411C9.1512 54.677 9.23668 54.6128 9.30079 54.5486C14.6646 49.1585 20.0497 43.7683 25.4135 38.3781C25.6486 38.1429 25.7768 37.6723 25.7768 37.3301C25.7982 29.8865 25.7982 22.4643 25.7982 15.0208C25.7982 14.7213 25.7982 14.4647 25.7982 14.208ZM62.9174 4.60409C62.9174 7.27778 62.9174 9.93008 62.9174 12.5824C62.9174 13.6733 63.3875 14.1224 64.4774 14.1438C66.9135 14.1438 69.3283 14.1438 71.7644 14.1438C71.9781 14.1438 72.2132 14.1224 72.3841 14.101C69.2214 10.9354 66.1015 7.79113 62.9174 4.60409Z" fill="#334C9E"/>
<path d="M45.0096 34.6568C40.9067 34.6568 36.8037 34.6568 32.7007 34.6568C31.333 34.6568 30.927 34.2504 30.927 32.9029C30.927 24.6465 30.927 16.3901 30.927 8.13379C30.927 6.82903 31.3544 6.40124 32.6579 6.42263C45.3302 6.55097 56.4852 16.0265 58.6221 28.518C58.8786 30.0153 58.9854 31.5339 59.0709 33.0526C59.135 34.1862 58.6221 34.6568 57.4895 34.6568C53.3224 34.6782 49.1554 34.6568 45.0096 34.6568ZM33.5341 9.05354C33.5341 16.7538 33.5341 24.4112 33.5341 32.0473C41.2058 32.0473 48.8134 32.0473 56.4424 32.0473C55.8868 19.9622 46.0781 9.71662 33.5341 9.05354Z" fill="#334C9E"/>
<path d="M60.3745 71.8956C54.0063 71.8956 48.8562 66.7193 48.8562 60.3239C48.8562 53.9498 54.049 48.7949 60.4386 48.7949C66.6999 48.7949 71.8927 54.014 71.8927 60.3025C71.8714 66.6979 66.7213 71.8956 60.3745 71.8956ZM60.3531 51.3617C55.374 51.3831 51.3778 55.4043 51.3992 60.4094C51.4206 65.3076 55.4381 69.3289 60.3104 69.3289C65.3109 69.3289 69.3284 65.2649 69.307 60.2383C69.2856 55.3615 65.2468 51.3403 60.3531 51.3617Z" fill="#334C9E"/>
<path d="M61.678 24.3475C61.678 23.4919 61.678 22.7005 61.678 21.8877C65.0544 21.8877 68.4094 21.8877 71.8072 21.8877C71.8072 22.6791 71.8072 23.4919 71.8072 24.3475C68.4735 24.3475 65.0971 24.3475 61.678 24.3475Z" fill="#334C9E"/>
<path d="M71.8287 29.5879C71.8287 30.4435 71.8287 31.2349 71.8287 32.0691C68.4523 32.0691 65.0972 32.0691 61.6995 32.0691C61.6995 31.2777 61.6995 30.4649 61.6995 29.5879C65.0545 29.5879 68.4095 29.5879 71.8287 29.5879Z" fill="#334C9E"/>
<path d="M61.678 39.7478C61.678 38.8922 61.678 38.1008 61.678 37.2666C65.0544 37.2666 68.4094 37.2666 71.8072 37.2666C71.8072 38.058 71.8072 38.8708 71.8072 39.7478C68.4735 39.7478 65.0971 39.7478 61.678 39.7478Z" fill="#334C9E"/>
<path d="M57.746 62.463C60.0967 60.0888 62.2978 57.8856 64.4988 55.6611C65.0545 56.2814 65.5887 56.8803 66.187 57.522C66.187 57.5434 66.0588 57.6931 65.9092 57.8429C63.6227 60.1529 61.3148 62.463 59.0068 64.7517C58.0666 65.6928 57.5109 65.6928 56.5707 64.7517C55.3953 63.5966 54.2414 62.4202 53.0447 61.2224C53.6644 60.6021 54.2414 60.046 54.8611 59.4471C55.8014 60.4524 56.7416 61.4149 57.746 62.463Z" fill="#334C9E"/>
</svg>
