<svg width="101" height="49" viewBox="0 0 101 49" fill="none" xmlns="http://www.w3.org/2000/svg">
<rect x="0.34668" y="0.128906" width="99.812" height="47.9098" rx="3.44179" fill="white"/>
<path d="M26.2136 41.9688H8.8397C8.70557 41.9688 8.57694 42.022 8.4821 42.1169C8.38726 42.2117 8.33398 42.3403 8.33398 42.4745C8.33398 42.6086 8.38726 42.7372 8.4821 42.8321C8.57694 42.9269 8.70557 42.9802 8.8397 42.9802H26.2136C26.3478 42.9802 26.4764 42.9269 26.5712 42.8321C26.6661 42.7372 26.7194 42.6086 26.7194 42.4745C26.7194 42.3403 26.6661 42.2117 26.5712 42.1169C26.4764 42.022 26.3478 41.9688 26.2136 41.9688Z" fill="#7F8081"/>
<path d="M27.7846 8.73584C26.5802 7.02572 24.391 5.9411 21.2768 5.49527C21.197 5.462 13.2187 4.56369 12.1008 13.0876V13.1276L11.8878 17.7056C11.8021 20.1665 11.1654 22.5768 10.0247 24.759C9.95607 24.8631 9.92895 24.9892 9.94865 25.1124C9.96836 25.2355 10.0335 25.3469 10.1312 25.4244C11.7443 26.7918 13.0062 28.5259 13.8109 30.4815C14.3808 32.0753 14.7758 33.7264 14.9887 35.4056C14.6708 35.6269 14.428 35.9399 14.2927 36.3028C14.1574 36.6657 14.1361 37.0613 14.2316 37.4366C14.327 37.812 14.5348 38.1493 14.827 38.4034C15.1192 38.6576 15.482 38.8166 15.867 38.8591C15.9423 38.8657 16.018 38.8657 16.0933 38.8591C16.5554 38.8583 17.0016 38.69 17.3491 38.3853C17.6966 38.0807 17.9218 37.6603 17.983 37.2022C18.0175 36.8994 17.9801 36.5927 17.8737 36.3072C17.7673 36.0216 17.595 35.7651 17.3709 35.5587C17.7702 33.7219 18.5427 31.9868 19.6404 30.461C20.7382 28.9352 22.1377 27.6512 23.7522 26.6887C23.8711 26.631 23.9632 26.5295 24.0091 26.4055C24.055 26.2815 24.0511 26.1445 23.9984 26.0233C23.6073 24.982 23.3632 23.8913 23.2731 22.7827C23.258 22.6497 23.1921 22.5277 23.0892 22.4422C22.9862 22.3566 22.8543 22.3141 22.7208 22.3236C22.6543 22.3294 22.5896 22.3484 22.5304 22.3794C22.4713 22.4103 22.4188 22.4527 22.3761 22.5041C22.3335 22.5554 22.3014 22.6147 22.2817 22.6785C22.2621 22.7423 22.2552 22.8094 22.2616 22.8759C22.358 23.9325 22.5815 24.9736 22.9271 25.9767C21.2383 27.04 19.7822 28.4342 18.6467 30.0752C17.5111 31.7163 16.7195 33.5702 16.3195 35.5254C16.3163 35.563 16.3163 35.6009 16.3195 35.6385C16.2916 35.7429 16.2978 35.8535 16.3373 35.9541C16.3769 36.0547 16.4476 36.14 16.5391 36.1974C16.6903 36.2852 16.8129 36.4148 16.892 36.5707C16.9711 36.7265 17.0034 36.902 16.9849 37.0758C16.9732 37.1947 16.937 37.3099 16.8786 37.4141C16.8202 37.5183 16.7409 37.6093 16.6455 37.6813C16.5527 37.7556 16.4462 37.8109 16.332 37.844C16.2179 37.8771 16.0983 37.8874 15.9801 37.8743C15.7421 37.8434 15.5252 37.7218 15.3746 37.5349C15.2889 37.426 15.2293 37.2988 15.2005 37.1632C15.1717 37.0275 15.1744 36.8871 15.2085 36.7527C15.2426 36.6183 15.3071 36.4936 15.397 36.3881C15.487 36.2826 15.6 36.1991 15.7273 36.1442C15.8396 36.0931 15.9294 36.0026 15.9797 35.8898C16.0299 35.777 16.0372 35.6498 16.0001 35.532C16.0001 35.532 16.0001 35.532 16.0001 35.4788C15.7997 33.6629 15.3888 31.8765 14.7757 30.1555C13.9763 28.1419 12.716 26.3438 11.096 24.9054C12.2179 22.6715 12.8336 20.2178 12.8993 17.7189L13.1056 13.1941C14.1037 5.70821 20.8643 6.46012 21.1437 6.50005C23.9518 6.8993 25.9015 7.83087 26.9461 9.30144C27.5857 10.1728 27.8645 11.2573 27.7247 12.3291C27.7111 12.3938 27.7105 12.4605 27.723 12.5254C27.7354 12.5904 27.7606 12.6522 27.7972 12.7073C27.8337 12.7624 27.8808 12.8097 27.9357 12.8464C27.9907 12.8831 28.0524 12.9086 28.1173 12.9213C28.1824 12.9349 28.2495 12.9356 28.3149 12.9232C28.3803 12.9108 28.4425 12.8857 28.4982 12.8492C28.5538 12.8128 28.6017 12.7657 28.6391 12.7107C28.6765 12.6557 28.7027 12.5938 28.7161 12.5287C28.9063 11.1916 28.5726 9.8327 27.7846 8.73584Z" fill="#7F8081"/>
<path d="M91.4504 19.9134C91.4095 19.8606 91.3584 19.8165 91.3001 19.7837C91.2419 19.751 91.1777 19.7303 91.1113 19.7229C91.0449 19.7154 90.9776 19.7214 90.9136 19.7404C90.8495 19.7594 90.7899 19.7911 90.7384 19.8336C88.6955 21.4572 86.1404 23.4202 84.011 25.0438C84.4835 20.8583 83.8314 18.7223 83.8048 18.6225C83.7724 18.5207 83.7086 18.4317 83.6226 18.3683C83.5365 18.3049 83.4325 18.2705 83.3257 18.2699C83.2198 18.271 83.117 18.3049 83.0312 18.3668C82.9454 18.4288 82.8809 18.5158 82.8466 18.6159C82.2306 20.6117 81.4193 22.5418 80.4245 24.3784C80.2928 24.6112 80.1132 24.8135 79.8976 24.9718C79.6819 25.1301 79.4351 25.2408 79.1735 25.2966C78.8894 25.2989 78.6153 25.1917 78.4083 24.9972C77.9025 24.1987 77.9159 22.5551 78.1354 20.8184V20.7585C78.1584 20.6758 78.1584 20.5884 78.1354 20.5056C78.3739 18.8331 78.7274 17.1789 79.1934 15.555C79.2286 15.4262 79.2122 15.2887 79.1475 15.1719C79.0829 15.0551 78.9752 14.9681 78.8474 14.9295C78.7837 14.9102 78.7167 14.904 78.6504 14.911C78.5842 14.9181 78.52 14.9383 78.4617 14.9706C78.4034 15.0028 78.3522 15.0464 78.311 15.0988C78.2698 15.1512 78.2395 15.2112 78.2219 15.2755C77.7159 17.0197 77.34 18.799 77.0974 20.5988C76.6304 21.7873 75.9543 22.8826 75.1012 23.8327C74.7951 24.1588 74.5888 24.3451 74.5888 24.3451C73.7703 25.0105 73.3378 25.0637 73.2114 25.0105C73.085 24.9573 73.0118 24.7709 73.0051 24.2453C73.0161 23.3888 73.0739 22.5336 73.1781 21.6834C74.0498 16.8126 74.5755 13.8515 74.8882 12.0682H77.8826C78.0167 12.0682 78.1453 12.0149 78.2402 11.9201C78.335 11.8252 78.3883 11.6966 78.3883 11.5625C78.3883 11.4284 78.335 11.2997 78.2402 11.2049C78.1453 11.1101 78.0167 11.0568 77.8826 11.0568H75.0612C75.2808 9.81245 75.3274 9.49971 75.3274 9.47309C75.3378 9.40795 75.3352 9.34139 75.3197 9.27727C75.3042 9.21315 75.2761 9.15273 75.2372 9.09951C75.1982 9.0463 75.149 9.00134 75.0926 8.96724C75.0361 8.93314 74.9734 8.91057 74.9082 8.90084C74.7758 8.87974 74.6405 8.91205 74.532 8.99065C74.4234 9.06925 74.3505 9.18773 74.3293 9.32005C74.3293 9.32005 74.276 9.66606 74.0365 11.0634H72.5792C72.3663 11.0634 72.0669 11.1832 72.0669 11.5691C72.0669 11.7089 72.1201 12.0283 72.5859 12.0682H73.8768C73.5441 13.8648 73.045 16.7727 72.2133 21.5104C72.2133 21.5104 72.2133 21.6368 72.2133 21.8099C71.7759 22.8156 71.0887 23.6929 70.217 24.3584C69.4318 24.9506 68.813 25.1902 68.5468 25.0238C68.121 24.7244 68.0278 23.1806 68.4271 20.9249C68.4271 20.8583 68.4869 20.7918 68.5136 20.7186C68.5402 20.6273 68.5402 20.5304 68.5136 20.4391C68.66 19.7271 68.8463 18.9552 69.0858 18.1301C69.1231 18.0022 69.1083 17.8647 69.0448 17.7476C68.9812 17.6305 68.874 17.5432 68.7465 17.5046C68.6802 17.4811 68.6097 17.4714 68.5395 17.4762C68.4693 17.4811 68.4009 17.5004 68.3384 17.5328C68.276 17.5653 68.2209 17.6103 68.1767 17.6649C68.1324 17.7196 68.0998 17.7828 68.081 17.8506C68.081 17.9039 67.7151 19.1216 67.4156 20.5855C66.9503 21.7649 66.2739 22.8495 65.4194 23.7861C65.12 24.1122 64.9137 24.2985 64.9137 24.2985C64.0886 24.9639 63.6627 25.0171 63.5363 24.9639C63.4098 24.9107 63.33 24.7244 63.33 24.1987C63.3347 23.4651 63.3769 22.7322 63.4564 22.0028C63.4694 21.9436 63.4694 21.8823 63.4564 21.8232C63.46 21.7611 63.46 21.6989 63.4564 21.6368C65.3861 11.0568 65.5591 10.0786 65.5591 10.0453C65.5704 9.97597 65.5672 9.90502 65.5499 9.83691C65.5325 9.7688 65.5014 9.70498 65.4583 9.64944C65.4152 9.59389 65.3612 9.5478 65.2995 9.51403C65.2379 9.48026 65.17 9.45953 65.1 9.45313C65.034 9.44375 64.9668 9.44751 64.9022 9.4642C64.8377 9.48089 64.7771 9.51017 64.7239 9.55037C64.6707 9.59057 64.626 9.64088 64.5923 9.69842C64.5587 9.75596 64.5367 9.81959 64.5277 9.88565C64.5277 9.88565 64.388 10.8838 62.4783 21.4905C62.4783 21.4905 62.4783 21.5903 62.4783 21.71C61.923 22.5928 61.2978 23.4295 60.6084 24.212C60.0961 24.7976 59.4307 25.4164 58.8385 25.097C58.8385 25.097 58.4924 24.8974 58.6388 23.4268C58.6865 22.8937 58.7043 22.3583 58.6921 21.8232C58.6888 21.8078 58.6888 21.7919 58.6921 21.7766C58.5989 21.0579 58.3261 20.6387 57.8869 20.5323C57.1816 20.3593 56.5561 21.1977 56.3498 21.4638V21.5038C55.7547 22.4916 54.9913 23.3677 54.0941 24.0922C53.8805 24.2648 53.6262 24.3794 53.3554 24.4249C53.1026 24.019 53.6416 21.8232 54.5133 19.767C55.8441 17.3383 56.7491 17.1054 57.0618 17.152C57.7272 17.2052 58.0799 18.17 58.0865 18.1834C58.14 18.2991 58.2352 18.3904 58.3532 18.439C58.4711 18.4875 58.603 18.4897 58.7225 18.4451C58.842 18.4005 58.9402 18.3124 58.9975 18.1985C59.0548 18.0846 59.0669 17.9532 59.0314 17.8307C59.0314 17.7641 58.4325 16.247 57.1483 16.1472C56.0104 16.054 54.8526 17.0854 53.615 19.2946V19.3412C53.1768 20.3518 52.8186 21.3953 52.5436 22.462C51.2128 23.4534 50.0284 24.3118 49.0768 24.9905C49.1101 24.6312 49.1168 24.405 49.1234 24.3251C49.1234 22.2557 48.824 21.2043 48.1253 20.9049C47.95 20.8383 47.76 20.8199 47.5751 20.8515C47.3903 20.8831 47.2172 20.9636 47.0739 21.0846C46.9176 21.1997 46.7938 21.3534 46.7145 21.5307C46.6352 21.7079 46.6031 21.9027 46.6215 22.096C46.6224 22.4559 46.5547 22.8128 46.4218 23.1473C46.3819 23.2272 45.5701 25.1103 44.5454 24.8508C44.52 24.8466 44.4962 24.8357 44.4763 24.8194C44.4565 24.803 44.4413 24.7817 44.4323 24.7576C44.3026 24.1401 44.3798 23.4971 44.6518 22.9278C44.6719 22.8514 44.6719 22.7712 44.6518 22.6949C44.7081 22.6344 44.7492 22.5614 44.7716 22.4819C45.0977 21.2842 46.2156 18.0037 47.4865 17.2784C47.5689 17.2237 47.6613 17.1861 47.7585 17.1678C47.8557 17.1495 47.9555 17.1509 48.0521 17.1719C48.1719 17.2318 48.7175 17.5978 48.2384 18.9952C48.1943 19.1222 48.2025 19.2616 48.2611 19.3827C48.3198 19.5037 48.4241 19.5965 48.5512 19.6406C48.6782 19.6847 48.8176 19.6766 48.9387 19.6179C49.0597 19.5593 49.1525 19.4549 49.1966 19.3279C50.055 16.8392 48.3981 16.2204 48.3848 16.2137C48.1608 16.1575 47.9278 16.1462 47.6994 16.1805C47.471 16.2148 47.2517 16.2939 47.054 16.4134C45.264 17.4381 44.1062 21.2176 43.86 22.096C41.052 24.8575 39.5681 25.0438 38.9293 24.904C38.7433 24.8681 38.5682 24.7892 38.418 24.6737C38.2679 24.5581 38.1467 24.4092 38.0642 24.2386C37.914 23.8309 37.7852 23.4155 37.6783 22.9943C38.4502 22.5684 42.3362 20.3326 42.0235 18.0835C41.9816 17.7996 41.8713 17.53 41.702 17.2982C41.5328 17.0663 41.3097 16.8791 41.052 16.7527C40.7437 16.6125 40.4049 16.5529 40.0673 16.5797C39.7297 16.6065 39.4045 16.7187 39.1223 16.9058C38.1738 17.3046 37.4012 18.0323 36.9464 18.9552C36.4479 20.096 36.3199 21.3644 36.5804 22.5817C34.0185 24.7976 32.6944 25.0038 32.1221 24.9173C32.021 24.911 31.9222 24.8842 31.8318 24.8384C31.7415 24.7926 31.6614 24.7289 31.5964 24.6512L31.5565 24.5913C31.176 24.0616 30.886 23.4725 30.6981 22.8479C30.7356 22.8406 30.7715 22.8271 30.8046 22.808C31.297 22.5684 35.6022 20.3859 34.9102 18.1501C34.8347 17.8647 34.6996 17.5985 34.5138 17.3691C34.328 17.1398 34.0957 16.9523 33.8322 16.8193C33.5044 16.7017 33.1539 16.6609 32.8078 16.7002C32.4617 16.7394 32.1292 16.8575 31.836 17.0455C31.2782 17.3525 30.7929 17.7758 30.4129 18.2867C30.0329 18.7975 29.7671 19.3841 29.6335 20.0066C29.4748 20.7051 29.4455 21.4268 29.547 22.1359C28.3635 22.5203 27.1537 22.8183 25.9271 23.0276C25.621 23.0875 25.3016 23.1473 24.9756 23.2205C21.8167 23.7622 18.6063 23.9408 15.4069 23.7529L19.5059 11.9085C19.6248 11.5681 19.8313 11.2652 20.1047 11.0302C20.2214 10.9702 20.3101 10.8673 20.3523 10.7432C20.3945 10.619 20.3869 10.4834 20.331 10.3647C20.3024 10.3033 20.262 10.2482 20.212 10.2025C20.1619 10.1569 20.1034 10.1216 20.0396 10.0987C19.9759 10.0758 19.9083 10.0658 19.8406 10.0692C19.773 10.0726 19.7067 10.0894 19.6456 10.1185C19.1352 10.4691 18.7523 10.9758 18.5543 11.5625L14.1892 24.0523C14.1632 24.1246 14.1545 24.2019 14.1637 24.2782C14.173 24.3545 14.1999 24.4275 14.2424 24.4915C14.2841 24.5549 14.3389 24.6085 14.4033 24.6487C14.4676 24.6889 14.5398 24.7147 14.6151 24.7244C14.7149 24.7244 15.9459 24.8575 17.8091 24.8575C20.2086 24.8602 22.6039 24.6576 24.9689 24.2519H25.1153L25.4547 24.192H25.4946L26.0469 24.0789C27.2812 23.8678 28.4996 23.5721 29.6933 23.1939C29.9138 23.9073 30.2462 24.5811 30.6782 25.1902C30.8094 25.3909 30.9816 25.5616 31.1834 25.6912C31.3852 25.8207 31.6121 25.9062 31.8493 25.9421C31.9964 25.9689 32.1456 25.9822 32.2951 25.982C33.4662 25.982 34.9568 25.2234 36.8 23.7196C36.8798 23.9991 36.9796 24.2852 37.0861 24.5846C37.2237 24.9162 37.4386 25.2101 37.713 25.4416C37.9873 25.6731 38.3131 25.8356 38.6631 25.9155C39.8941 26.1949 41.4712 25.5162 43.3543 23.9192C43.2723 24.3682 43.3255 24.8314 43.5073 25.25C43.5827 25.4016 43.6903 25.5348 43.8224 25.6406C43.9546 25.7463 44.1082 25.8219 44.2726 25.8622C45.6566 26.2082 46.7545 24.904 47.3201 23.5665C47.5015 23.1296 47.5986 22.6622 47.6063 22.1891C47.6063 22.1026 47.6063 21.9962 47.6063 21.9296H47.6529C47.7327 22.0228 48.0188 22.4952 48.0188 24.385C48.0188 24.4649 47.9789 25.0038 47.8791 25.8356L46.5682 26.7539C36.434 33.3149 39.1223 38.3454 39.2487 38.5583C39.4108 38.9139 39.6644 39.2202 39.9835 39.4458C40.3027 39.6714 40.6759 39.8083 41.0653 39.8426H41.1717C43.0216 39.8426 44.8714 37.334 45.0777 37.0478C47.593 33.6209 48.5445 28.9564 48.9238 26.3347C49.8088 25.7158 50.9799 24.8774 52.3374 23.8726C52.3012 24.1107 52.3189 24.3538 52.3892 24.5842C52.4594 24.8145 52.5804 25.0261 52.7433 25.2035C53.4087 25.7624 54.3735 25.1236 54.6929 24.9107C55.6896 24.0964 56.5285 23.1063 57.1683 21.9895C57.2877 21.819 57.4311 21.6666 57.5941 21.537C57.6253 21.6414 57.6475 21.7483 57.6607 21.8564C57.6704 22.3405 57.6548 22.8246 57.6141 23.307V23.3669C57.4744 24.8175 57.7072 25.6892 58.3394 26.0286C58.5873 26.1678 58.8668 26.2411 59.1512 26.2415C60.1759 26.2415 61.021 25.29 61.3471 24.9107C61.6731 24.5314 61.9393 24.212 62.3053 23.7262C62.3053 23.8926 62.3053 24.0523 62.3053 24.212C62.3053 25.29 62.7311 25.7158 63.0838 25.8822C63.2473 25.9625 63.4273 26.0035 63.6095 26.002C64.3381 25.926 65.0223 25.6154 65.5591 25.117C65.7754 24.9255 65.9798 24.721 66.1713 24.5048C66.5121 24.1354 66.8257 23.7418 67.1095 23.327C67.1095 24.6578 67.3557 25.5029 67.9213 25.8955C68.1531 26.0574 68.4305 26.1413 68.7132 26.135C69.4717 26.0416 70.1853 25.7242 70.7627 25.2234C71.2336 24.8677 71.6623 24.4591 72.0403 24.0057V24.2386C72.0403 25.3166 72.4728 25.7425 72.8254 25.9088C72.9866 25.989 73.1644 26.03 73.3445 26.0286C74.0713 25.9415 74.7506 25.6217 75.2808 25.117C75.2808 25.117 75.5337 24.8974 75.893 24.5048C76.3014 24.0523 76.6751 23.5696 77.0109 23.0608C76.9787 23.9452 77.188 24.8217 77.6164 25.5961L77.6563 25.6493C77.8584 25.8639 78.103 26.034 78.3746 26.1486C78.6461 26.2632 78.9387 26.3197 79.2334 26.3147C79.652 26.2607 80.0531 26.113 80.4068 25.8826C80.7604 25.6522 81.0576 25.345 81.2762 24.9839V24.9506C82.0106 23.6475 82.6295 22.2826 83.126 20.8716C83.2286 22.561 83.1483 24.2566 82.8865 25.9288C81.0899 27.2929 79.8123 28.2644 79.7857 28.2777C71.4946 34.3396 72.5393 37.6134 73.0583 38.4652C73.2504 38.7878 73.5075 39.0668 73.8134 39.2845C74.1193 39.5022 74.4673 39.6537 74.835 39.7294C75.0993 39.7885 75.3694 39.8175 75.6401 39.8159C76.6453 39.7979 77.6261 39.5032 78.4748 38.9642C82.9198 36.0098 83.6717 27.6522 83.7183 27.0533C83.7582 26.8537 83.7915 26.6541 83.8181 26.4611C86.0871 24.7377 89.0482 22.4686 91.3705 20.6254C91.4226 20.584 91.466 20.5327 91.4982 20.4744C91.5304 20.4162 91.5508 20.3522 91.5583 20.286C91.5657 20.2199 91.56 20.1529 91.5415 20.089C91.5229 20.025 91.492 19.9654 91.4504 19.9134ZM30.5717 20.2528C30.6747 19.7678 30.8814 19.3109 31.1778 18.9135C31.4741 18.5161 31.8531 18.1875 32.2885 17.9505C32.542 17.802 32.827 17.7154 33.1202 17.6976C33.2231 17.6969 33.325 17.7173 33.4197 17.7575C33.6739 17.9019 33.8606 18.1411 33.9387 18.4229C33.9387 18.4229 33.9387 18.4229 33.9387 18.4628C34.2315 19.3744 32.4548 20.7053 31.0907 21.4971L30.4785 21.7766C30.43 21.2669 30.4614 20.7528 30.5717 20.2528ZM37.492 21.903C37.3782 21.064 37.4979 20.2098 37.838 19.4343C38.1664 18.7001 38.7608 18.1176 39.5015 17.8041L39.6014 17.7575C39.8002 17.6285 40.03 17.555 40.2668 17.5446C40.3839 17.5436 40.4998 17.5686 40.6061 17.6178C40.7177 17.6723 40.8138 17.7538 40.8859 17.8548C40.9579 17.9559 41.0036 18.0734 41.0187 18.1967C41.1717 19.3279 39.069 20.9781 37.492 21.903ZM44.2659 36.429C43.8201 37.0545 42.3162 38.8045 41.185 38.8045H41.1318C40.9141 38.7807 40.7066 38.6999 40.5302 38.5702C40.3538 38.4405 40.2147 38.2665 40.127 38.0659C39.7455 37.1464 39.7289 36.116 40.0804 35.1847C40.5928 33.4746 42.2297 30.773 47.1272 27.6056L47.746 27.1731C47.3068 29.7416 46.342 33.601 44.2659 36.429ZM77.9358 38.1191C77.0885 38.6654 76.0725 38.8875 75.0745 38.7446C74.8404 38.6985 74.6187 38.6036 74.4238 38.466C74.2289 38.3284 74.0652 38.1513 73.9433 37.9461C73.8701 37.8197 73.5241 37.1343 74.0431 35.8102C74.5622 34.486 76.0993 32.2302 80.3979 29.0629C80.3979 29.0629 81.3361 28.3974 82.6935 27.3328C82.4872 28.9963 81.529 35.7237 77.9159 38.1191H77.9358Z" fill="#030303"/>
<path d="M68.9952 15.2364H69.0884C69.2073 15.2353 69.3221 15.1929 69.4132 15.1164C69.5042 15.0399 69.5658 14.9341 69.5874 14.8172L69.8203 13.4864C69.8388 13.4187 69.8429 13.348 69.8326 13.2787C69.8222 13.2093 69.7976 13.1429 69.7602 13.0836C69.7228 13.0243 69.6734 12.9734 69.6153 12.9342C69.5572 12.895 69.4916 12.8683 69.4226 12.8558C69.3536 12.8433 69.2828 12.8452 69.2146 12.8616C69.1464 12.8779 69.0824 12.9082 69.0265 12.9507C68.9707 12.9931 68.9243 13.0466 68.8903 13.1079C68.8562 13.1692 68.8353 13.2369 68.8289 13.3067L68.5893 14.6376C68.5758 14.7036 68.5757 14.7717 68.5889 14.8378C68.6021 14.9039 68.6284 14.9666 68.6662 15.0224C68.704 15.0782 68.7526 15.1259 68.8091 15.1627C68.8656 15.1994 68.9289 15.2245 68.9952 15.2364Z" fill="#030303"/>
</svg>
