<svg width="78" height="77" viewBox="0 0 78 77" fill="none" xmlns="http://www.w3.org/2000/svg">
<path d="M40.7786 0.020057C42.2658 0.22063 43.753 0.361031 45.2403 0.621776C51.4103 1.66476 56.9573 4.15186 61.9215 7.94269C62.7656 8.58453 62.9465 9.42693 62.444 10.149C61.9215 10.8911 60.9769 10.9914 60.1328 10.3295C56.1534 7.30086 51.752 5.15473 46.8682 3.9914C27.9762 -0.481376 8.86316 10.851 4.20045 29.6848C0.864208 43.1232 4.42153 54.8367 14.3901 64.5444C14.5508 64.7049 14.7317 64.8252 14.9729 65.0459C16.3396 59.2092 19.314 54.4556 24.037 50.8854C28.76 47.3152 34.1262 45.7106 40.0349 46.0716C50.7471 46.7335 59.6906 54.3553 62.1024 65.0057C62.3034 64.8453 62.4842 64.7249 62.6249 64.5845C69.3577 58.2665 73.1763 50.5043 73.9199 41.2779C74.5028 33.8768 72.8949 26.957 69.1567 20.5186C69.1165 20.4585 69.0763 20.3983 69.0361 20.3181C68.4935 19.3553 68.6342 18.4928 69.418 18.0315C70.2018 17.5702 71.1062 17.8309 71.6087 18.7937C72.5935 20.7192 73.7189 22.6246 74.4425 24.6705C79.3664 38.4699 77.4571 51.3066 68.3528 62.7994C62.2029 70.5616 54.023 75.0745 44.1952 76.5788C43.1099 76.7393 42.0246 76.8596 40.9393 77C39.3315 77 37.7237 77 36.1158 77C35.9149 76.9599 35.734 76.8997 35.533 76.8797C28.9811 76.3782 22.9317 74.3725 17.465 70.7221C8.26022 64.5645 2.59262 56.0401 0.582838 45.1289C0.321566 43.7249 0.180881 42.3009 0 40.8968C0 39.2923 0 37.6877 0 36.0831C0.241174 34.3782 0.422055 32.6533 0.743621 30.9685C3.61761 15.6046 16.3798 3.10888 31.7948 0.581661C33.2218 0.340974 34.6688 0.180516 36.0958 0C37.6634 0.0200573 39.231 0.020057 40.7786 0.020057ZM38.407 74.0315C45.5216 73.9714 51.9731 72.1261 57.8416 68.3152C59.4696 67.2522 59.4696 67.2522 59.0274 65.3467C56.3343 54.0143 45.3609 47.0946 33.9453 49.5415C25.7052 51.3066 19.2537 58.0057 17.7665 66.3295C17.666 66.9312 17.7062 67.3324 18.3091 67.7536C24.439 71.9255 31.1718 73.9714 38.407 74.0315Z" fill="#334C9E"/>
<path d="M38.5877 15.9659C46.044 15.9859 52.0935 22.0833 52.0734 29.5647C52.0533 37.006 45.9436 43.0633 38.4672 43.0432C31.0109 43.0232 24.9614 36.9057 24.9815 29.4444C25.0016 22.0031 31.1113 15.9458 38.5877 15.9659ZM49.0587 29.5046C49.0587 23.708 44.3357 18.9945 38.5475 18.9745C32.7594 18.9745 28.0163 23.6879 28.0163 29.4644C27.9962 35.3011 32.7393 40.0346 38.5676 40.0346C44.3357 40.0146 49.0587 35.2811 49.0587 29.5046Z" fill="#334C9E"/>
<path d="M66.1822 12.3549C66.9861 12.3349 67.6695 12.9968 67.7097 13.7991C67.7499 14.6214 67.0665 15.3435 66.2425 15.3635C65.4185 15.3836 64.7151 14.6816 64.7151 13.8592C64.7151 13.0369 65.3783 12.375 66.1822 12.3549Z" fill="#334C9E"/>
</svg>
