<svg width="23" height="22" viewBox="0 0 23 22" fill="none" xmlns="http://www.w3.org/2000/svg">
<path d="M17.6358 12.9255C18.0418 13.0941 18.429 13.2565 18.8661 13.4376C19.0535 13.244 19.2658 13.0192 19.4844 12.8006C19.8341 12.4509 20.2962 12.4384 20.6022 12.7506C20.902 13.0566 20.877 13.5125 20.5398 13.856C20.3337 14.0683 20.1214 14.2744 19.9153 14.4867C19.909 14.493 19.909 14.4992 19.9153 14.4867C20.0589 14.8739 20.1963 15.2424 20.3462 15.6046C20.3649 15.6546 20.4649 15.692 20.5273 15.692C20.7896 15.7045 21.0581 15.692 21.3204 15.6983C21.795 15.7045 22.126 16.023 22.1198 16.4602C22.1135 16.8911 21.795 17.1909 21.3204 17.1971C21.0581 17.2033 20.7896 17.1909 20.5273 17.2033C20.4586 17.2096 20.3649 17.2783 20.3337 17.3407C20.1901 17.6842 20.0589 18.0339 19.8966 18.4399C20.0777 18.6147 20.3025 18.8271 20.5273 19.0456C20.877 19.3954 20.8958 19.8575 20.5835 20.1635C20.2713 20.4695 19.8154 20.4445 19.4656 20.0948C19.2533 19.8825 19.041 19.6577 18.8661 19.4765C18.4602 19.6327 18.098 19.7638 17.7358 19.9137C17.6796 19.9387 17.6358 20.0386 17.6296 20.1073C17.6171 20.3821 17.6296 20.6506 17.6234 20.9254C17.6171 21.375 17.3049 21.6935 16.8802 21.6935C16.4618 21.6935 16.1433 21.3813 16.1308 20.9316C16.1183 20.6506 16.137 20.3696 16.1245 20.0886C16.1183 20.0199 16.0496 19.9324 15.9809 19.9012C15.6437 19.7576 15.3064 19.6264 14.9005 19.4703C14.7194 19.6577 14.4946 19.895 14.2698 20.126C14.0512 20.3509 13.7826 20.432 13.4829 20.3384C12.9645 20.176 12.7897 19.5328 13.1644 19.1268C13.3955 18.877 13.6577 18.6522 13.8701 18.4524C13.7077 18.0339 13.5766 17.6655 13.4267 17.3095C13.4017 17.2533 13.3018 17.2033 13.2393 17.2033C12.9645 17.1909 12.696 17.2033 12.4212 17.1971C11.9778 17.1909 11.6468 16.8786 11.6406 16.4602C11.6343 16.048 11.9591 15.717 12.4025 15.7045C12.6773 15.692 12.9458 15.6983 13.2206 15.7045C13.3455 15.7108 13.4079 15.6733 13.4517 15.5422C13.5578 15.2424 13.6827 14.9489 13.8201 14.6616C13.8763 14.5492 13.8701 14.4867 13.7764 14.4056C13.5766 14.2182 13.3892 14.0246 13.1956 13.8248C12.8896 13.5063 12.8771 13.0504 13.1706 12.7569C13.4704 12.4509 13.9263 12.4571 14.2573 12.7756C14.4509 12.963 14.6382 13.1441 14.8193 13.3377C14.9068 13.4313 14.9692 13.4501 15.0941 13.3876C15.3814 13.2502 15.6749 13.1253 15.9747 13.0192C16.0933 12.9754 16.1308 12.9255 16.1308 12.8068C16.1245 12.5445 16.1245 12.276 16.1308 12.0075C16.1433 11.5453 16.4555 11.2143 16.8739 11.2081C17.3049 11.2018 17.6171 11.5391 17.6234 12.02C17.6421 12.3197 17.6358 12.632 17.6358 12.9255ZM18.9411 16.4602C18.9411 15.3298 18.048 14.4305 16.9614 14.3931C15.806 14.3556 14.8068 15.3486 14.8443 16.4977C14.8755 17.5968 15.7686 18.5023 16.8927 18.5023C18.0418 18.4961 18.9411 17.6093 18.9411 16.4602Z" fill="white"/>
<path d="M10.8978 0.209973C13.9267 0.203728 16.3872 2.65803 16.3935 5.69313C16.3997 8.72198 13.9454 11.1888 10.9103 11.195C7.88147 11.2013 5.42092 8.74072 5.41467 5.71187C5.42092 2.67677 7.86273 0.222463 10.8978 0.209973ZM10.8978 9.69621C13.1023 9.70245 14.9009 7.90388 14.9009 5.69938C14.9009 3.50112 13.1148 1.71503 10.9166 1.70879C8.71831 1.70254 6.92598 3.48238 6.91973 5.68064C6.91349 7.89763 8.68708 9.68996 10.8978 9.69621Z" fill="white"/>
<path d="M6.56985 20.7067C5.21468 20.7067 3.8595 20.7067 2.50432 20.7067C1.38021 20.7067 0.687012 20.0073 0.687012 18.8769C0.687012 18.2837 0.655787 17.6841 0.724482 17.0971C0.855629 16.0417 1.46764 15.2486 2.25452 14.5803C3.2912 13.706 4.50899 13.169 5.78922 12.7818C7.45041 12.2822 9.14906 12.0573 10.8852 12.0698C11.3098 12.0698 11.6283 12.3696 11.6471 12.7693C11.6658 13.1877 11.3848 13.5187 10.9539 13.5624C10.8602 13.5749 10.7665 13.5686 10.6729 13.5686C9.24898 13.5749 7.84384 13.756 6.47618 14.1369C5.30835 14.4679 4.19049 14.9238 3.24748 15.7107C3.00393 15.9105 2.78535 16.1541 2.58551 16.4039C2.30448 16.7536 2.17333 17.1658 2.17958 17.6217C2.18583 18.0339 2.17958 18.446 2.17958 18.8644C2.17958 19.1829 2.20456 19.2079 2.5293 19.2079C5.2459 19.2079 7.96875 19.2079 10.6853 19.2079C10.7728 19.2079 10.8602 19.2017 10.9414 19.2142C11.3661 19.2579 11.6596 19.5826 11.6408 20.001C11.6221 20.4007 11.3098 20.7067 10.8852 20.7067C9.45507 20.7067 8.01246 20.7067 6.56985 20.7067Z" fill="white"/>
</svg>
